<?xml version="1.0" encoding="UTF-8" standalone="no"?>
<!-- Created with Inkscape (http://www.inkscape.org/) -->

<svg
   width="210mm"
   height="297mm"
   viewBox="0 0 210 297"
   version="1.1"
   id="svg1"
   inkscape:version="1.4 (86a8ad7, 2024-10-11)"
   sodipodi:docname="Full_PurpleBall.svg"
   xmlns:inkscape="http://www.inkscape.org/namespaces/inkscape"
   xmlns:sodipodi="http://sodipodi.sourceforge.net/DTD/sodipodi-0.dtd"
   xmlns="http://www.w3.org/2000/svg"
   xmlns:svg="http://www.w3.org/2000/svg">
  <sodipodi:namedview
     id="namedview1"
     pagecolor="#ffffff"
     bordercolor="#000000"
     borderopacity="0.25"
     inkscape:showpageshadow="2"
     inkscape:pageopacity="0.0"
     inkscape:pagecheckerboard="0"
     inkscape:deskcolor="#d1d1d1"
     inkscape:document-units="mm"
     inkscape:zoom="2.2866393"
     inkscape:cx="441.25893"
     inkscape:cy="489.1458"
     inkscape:window-width="2555"
     inkscape:window-height="1824"
     inkscape:window-x="498"
     inkscape:window-y="166"
     inkscape:window-maximized="0"
     inkscape:current-layer="layer1" />
  <defs
     id="defs1">
    <clipPath
       clipPathUnits="userSpaceOnUse"
       id="clipPath9">
      <path
         d="M 0,1417.323 H 1417.323 V 0 H 0 Z"
         transform="translate(-583.37921,-314.40421)"
         id="path9" />
    </clipPath>
    <clipPath
       clipPathUnits="userSpaceOnUse"
       id="clipPath11">
      <path
         d="M 0,1417.323 H 1417.323 V 0 H 0 Z"
         transform="translate(-749.76132,-911.53782)"
         id="path11" />
    </clipPath>
    <clipPath
       clipPathUnits="userSpaceOnUse"
       id="clipPath13">
      <path
         d="M 0,1417.323 H 1417.323 V 0 H 0 Z"
         transform="translate(-945.08342,-797.09412)"
         id="path13" />
    </clipPath>
    <clipPath
       clipPathUnits="userSpaceOnUse"
       id="clipPath15">
      <path
         d="M 0,1417.323 H 1417.323 V 0 H 0 Z"
         transform="translate(-896.05075,-398.69851)"
         id="path15" />
    </clipPath>
    <clipPath
       clipPathUnits="userSpaceOnUse"
       id="clipPath17">
      <path
         d="M 0,1417.323 H 1417.323 V 0 H 0 Z"
         transform="translate(-914.0371,-780.44332)"
         id="path17" />
    </clipPath>
    <clipPath
       clipPathUnits="userSpaceOnUse"
       id="clipPath19">
      <path
         d="M 0,1417.323 H 1417.323 V 0 H 0 Z"
         transform="translate(-867.937,-631.29609)"
         id="path19" />
    </clipPath>
    <radialGradient
       fx="0"
       fy="0"
       cx="0"
       cy="0"
       r="1"
       gradientUnits="userSpaceOnUse"
       gradientTransform="matrix(0,63.324336,-63.324336,0,119.13363,112.63403)"
       spreadMethod="pad"
       id="radialGradient21">
      <stop
         style="stop-opacity:1;stop-color:#ed04ff icc-color(sRGB IEC61966-2.1, 0.92939758, 0.01568604, 1);"
         offset="0"
         id="stop19" />
      <stop
         style="stop-opacity:1;stop-color:#b01cff icc-color(sRGB IEC61966-2.1, 0.69018555, 0.10980225, 1);"
         offset="0.217197"
         id="stop20" />
      <stop
         style="stop-opacity:1;stop-color:#501fff icc-color(sRGB IEC61966-2.1, 0.3137207, 0.12156677, 1);"
         offset="1"
         id="stop21" />
    </radialGradient>
    <linearGradient
       x1="0"
       y1="0"
       x2="1"
       y2="0"
       gradientUnits="userSpaceOnUse"
       gradientTransform="matrix(-44.892925,0,0,-44.892925,164.91466,148.40669)"
       spreadMethod="pad"
       id="linearGradient27">
      <stop
         style="stop-opacity:1;stop-color:#400036 icc-color(sRGB IEC61966-2.1, 0.25097656, 0, 0.21176147);"
         offset="0"
         id="stop22" />
      <stop
         style="stop-opacity:1;stop-color:#400036 icc-color(sRGB IEC61966-2.1, 0.25097656, 0, 0.21176147);"
         offset="0.0584563"
         id="stop23" />
      <stop
         style="stop-opacity:1;stop-color:#400036 icc-color(sRGB IEC61966-2.1, 0.25097656, 0, 0.21176147);"
         offset="0.09327901"
         id="stop24" />
      <stop
         style="stop-opacity:1;stop-color:#ff00ff icc-color(sRGB IEC61966-2.1, 1, 0, 1);"
         offset="0.690786"
         id="stop25" />
      <stop
         style="stop-opacity:1;stop-color:#ff00ff icc-color(sRGB IEC61966-2.1, 1, 0, 1);"
         offset="0.86530471"
         id="stop26" />
      <stop
         style="stop-opacity:1;stop-color:#ff00ff icc-color(sRGB IEC61966-2.1, 1, 0, 1);"
         offset="1"
         id="stop27" />
    </linearGradient>
    <clipPath
       clipPathUnits="userSpaceOnUse"
       id="clipPath29">
      <path
         d="M 0,1417.323 H 1417.323 V 0 H 0 Z"
         transform="translate(-984.5797,-627.83559)"
         id="path29" />
    </clipPath>
    <clipPath
       clipPathUnits="userSpaceOnUse"
       id="clipPath31">
      <path
         d="M 0,1417.323 H 1417.323 V 0 H 0 Z"
         transform="translate(-717.07532,-470.30469)"
         id="path31" />
    </clipPath>
    <linearGradient
       x1="0"
       y1="0"
       x2="1"
       y2="0"
       gradientUnits="userSpaceOnUse"
       gradientTransform="matrix(0,-66.990059,-66.990059,0,154.33304,201.52935)"
       spreadMethod="pad"
       id="linearGradient33">
      <stop
         style="stop-opacity:1;stop-color:#ffffff icc-color(sRGB IEC61966-2.1, 1, 1, 1);"
         offset="0"
         id="stop31" />
      <stop
         style="stop-opacity:1;stop-color:#bcbec0 icc-color(sRGB IEC61966-2.1, 0.73724365, 0.74508667, 0.75292969);"
         offset="0.729385"
         id="stop32" />
      <stop
         style="stop-opacity:1;stop-color:#bcbec0 icc-color(sRGB IEC61966-2.1, 0.73724365, 0.74508667, 0.75292969);"
         offset="1"
         id="stop33" />
    </linearGradient>
    <linearGradient
       x1="0"
       y1="0"
       x2="1"
       y2="0"
       gradientUnits="userSpaceOnUse"
       gradientTransform="matrix(0,-66.987707,-66.987707,0,134.38284,201.52927)"
       spreadMethod="pad"
       id="linearGradient36">
      <stop
         style="stop-opacity:1;stop-color:#ffffff icc-color(sRGB IEC61966-2.1, 1, 1, 1);"
         offset="0"
         id="stop34" />
      <stop
         style="stop-opacity:1;stop-color:#bcbec0 icc-color(sRGB IEC61966-2.1, 0.73724365, 0.74508667, 0.75292969);"
         offset="0.729385"
         id="stop35" />
      <stop
         style="stop-opacity:1;stop-color:#bcbec0 icc-color(sRGB IEC61966-2.1, 0.73724365, 0.74508667, 0.75292969);"
         offset="1"
         id="stop36" />
    </linearGradient>
    <clipPath
       clipPathUnits="userSpaceOnUse"
       id="clipPath38">
      <path
         d="M 0,1417.323 H 1417.323 V 0 H 0 Z"
         transform="translate(-753.29049,-871.78622)"
         id="path38" />
    </clipPath>
    <clipPath
       clipPathUnits="userSpaceOnUse"
       id="clipPath40">
      <path
         d="M 0,1417.323 H 1417.323 V 0 H 0 Z"
         transform="translate(-917.2213,-780.02342)"
         id="path40" />
    </clipPath>
    <clipPath
       clipPathUnits="userSpaceOnUse"
       id="clipPath42">
      <path
         d="M 0,1417.323 H 1417.323 V 0 H 0 Z"
         transform="translate(-917.5192,-759.47242)"
         id="path42" />
    </clipPath>
    <clipPath
       clipPathUnits="userSpaceOnUse"
       id="clipPath44">
      <path
         d="M 0,1417.323 H 1417.323 V 0 H 0 Z"
         transform="translate(-922.18982,-486.97771)"
         id="path44" />
    </clipPath>
    <clipPath
       clipPathUnits="userSpaceOnUse"
       id="clipPath46">
      <path
         d="M 0,1417.323 H 1417.323 V 0 H 0 Z"
         transform="translate(-530.58331,-398.69851)"
         id="path46" />
    </clipPath>
    <clipPath
       clipPathUnits="userSpaceOnUse"
       id="clipPath48">
      <path
         d="M 0,1417.323 H 1417.323 V 0 H 0 Z"
         transform="translate(-512.59691,-780.44332)"
         id="path48" />
    </clipPath>
    <clipPath
       clipPathUnits="userSpaceOnUse"
       id="clipPath50">
      <path
         d="M 0,1417.323 H 1417.323 V 0 H 0 Z"
         transform="translate(-558.69701,-631.29609)"
         id="path50" />
    </clipPath>
    <radialGradient
       fx="0"
       fy="0"
       cx="0"
       cy="0"
       r="1"
       gradientUnits="userSpaceOnUse"
       gradientTransform="matrix(0,63.324336,-63.324336,0,119.13363,112.63403)"
       spreadMethod="pad"
       id="radialGradient52">
      <stop
         style="stop-opacity:1;stop-color:#ed04ff icc-color(sRGB IEC61966-2.1, 0.92939758, 0.01568604, 1);"
         offset="0"
         id="stop50" />
      <stop
         style="stop-opacity:1;stop-color:#b01cff icc-color(sRGB IEC61966-2.1, 0.69018555, 0.10980225, 1);"
         offset="0.217197"
         id="stop51" />
      <stop
         style="stop-opacity:1;stop-color:#501fff icc-color(sRGB IEC61966-2.1, 0.3137207, 0.12156677, 1);"
         offset="1"
         id="stop52" />
    </radialGradient>
    <linearGradient
       x1="0"
       y1="0"
       x2="1"
       y2="0"
       gradientUnits="userSpaceOnUse"
       gradientTransform="matrix(46.049446,0,0,46.049446,73.132933,148.40669)"
       spreadMethod="pad"
       id="linearGradient58">
      <stop
         style="stop-opacity:1;stop-color:#400036 icc-color(sRGB IEC61966-2.1, 0.25097656, 0, 0.21176147);"
         offset="0"
         id="stop53" />
      <stop
         style="stop-opacity:1;stop-color:#400036 icc-color(sRGB IEC61966-2.1, 0.25097656, 0, 0.21176147);"
         offset="0.0584563"
         id="stop54" />
      <stop
         style="stop-opacity:1;stop-color:#400036 icc-color(sRGB IEC61966-2.1, 0.25097656, 0, 0.21176147);"
         offset="0.09327901"
         id="stop55" />
      <stop
         style="stop-opacity:1;stop-color:#ff00ff icc-color(sRGB IEC61966-2.1, 1, 0, 1);"
         offset="0.690786"
         id="stop56" />
      <stop
         style="stop-opacity:1;stop-color:#ff00ff icc-color(sRGB IEC61966-2.1, 1, 0, 1);"
         offset="0.86530471"
         id="stop57" />
      <stop
         style="stop-opacity:1;stop-color:#ff00ff icc-color(sRGB IEC61966-2.1, 1, 0, 1);"
         offset="1"
         id="stop58" />
    </linearGradient>
    <clipPath
       clipPathUnits="userSpaceOnUse"
       id="clipPath60">
      <path
         d="M 0,1417.323 H 1417.323 V 0 H 0 Z"
         transform="translate(-442.05441,-627.83559)"
         id="path60" />
    </clipPath>
    <clipPath
       clipPathUnits="userSpaceOnUse"
       id="clipPath62">
      <path
         d="M 0,1417.323 H 1417.323 V 0 H 0 Z"
         transform="translate(-709.55872,-470.30469)"
         id="path62" />
    </clipPath>
    <linearGradient
       x1="0"
       y1="0"
       x2="1"
       y2="0"
       gradientUnits="userSpaceOnUse"
       gradientTransform="matrix(0,-66.990059,66.990059,0,84.030669,201.52935)"
       spreadMethod="pad"
       id="linearGradient64">
      <stop
         style="stop-opacity:1;stop-color:#ffffff icc-color(sRGB IEC61966-2.1, 1, 1, 1);"
         offset="0"
         id="stop62" />
      <stop
         style="stop-opacity:1;stop-color:#bcbec0 icc-color(sRGB IEC61966-2.1, 0.73724365, 0.74508667, 0.75292969);"
         offset="0.729385"
         id="stop63" />
      <stop
         style="stop-opacity:1;stop-color:#bcbec0 icc-color(sRGB IEC61966-2.1, 0.73724365, 0.74508667, 0.75292969);"
         offset="1"
         id="stop64" />
    </linearGradient>
    <linearGradient
       x1="0"
       y1="0"
       x2="1"
       y2="0"
       gradientUnits="userSpaceOnUse"
       gradientTransform="matrix(0,-66.987707,66.987707,0,103.98086,201.52927)"
       spreadMethod="pad"
       id="linearGradient67">
      <stop
         style="stop-opacity:1;stop-color:#ffffff icc-color(sRGB IEC61966-2.1, 1, 1, 1);"
         offset="0"
         id="stop65" />
      <stop
         style="stop-opacity:1;stop-color:#bcbec0 icc-color(sRGB IEC61966-2.1, 0.73724365, 0.74508667, 0.75292969);"
         offset="0.729385"
         id="stop66" />
      <stop
         style="stop-opacity:1;stop-color:#bcbec0 icc-color(sRGB IEC61966-2.1, 0.73724365, 0.74508667, 0.75292969);"
         offset="1"
         id="stop67" />
    </linearGradient>
    <linearGradient
       x1="0"
       y1="0"
       x2="1"
       y2="0"
       gradientUnits="userSpaceOnUse"
       gradientTransform="matrix(0,44.295945,-44.295945,0,119.21482,105.94235)"
       spreadMethod="pad"
       id="linearGradient71">
      <stop
         style="stop-opacity:1;stop-color:#ed00b0 icc-color(sRGB IEC61966-2.1, 0.92939758, 0, 0.69018555);"
         offset="0"
         id="stop68" />
      <stop
         style="stop-opacity:1;stop-color:#ed1cbf icc-color(sRGB IEC61966-2.1, 0.92939758, 0.10980225, 0.74900818);"
         offset="0.218097"
         id="stop69" />
      <stop
         style="stop-opacity:1;stop-color:#000036 icc-color(sRGB IEC61966-2.1, 0, 0, 0.21176147);"
         offset="1"
         id="stop70" />
      <stop
         style="stop-opacity:1;stop-color:#000036 icc-color(sRGB IEC61966-2.1, 0, 0, 0.21176147);"
         offset="1"
         id="stop71" />
    </linearGradient>
    <radialGradient
       fx="0"
       fy="0"
       cx="0"
       cy="0"
       r="1"
       gradientUnits="userSpaceOnUse"
       gradientTransform="matrix(29.13875,6.3386244,-6.3386244,29.13875,119.51118,149.13949)"
       spreadMethod="pad"
       id="radialGradient82">
      <stop
         style="stop-opacity:1;stop-color:#000036 icc-color(sRGB IEC61966-2.1, 0, 0, 0.21176147);"
         offset="0"
         id="stop72" />
      <stop
         style="stop-opacity:1;stop-color:#000036 icc-color(sRGB IEC61966-2.1, 0, 0, 0.21176147);"
         offset="0.0584563"
         id="stop73" />
      <stop
         style="stop-opacity:1;stop-color:#000036 icc-color(sRGB IEC61966-2.1, 0, 0, 0.21176147);"
         offset="0.26174185"
         id="stop74" />
      <stop
         style="stop-opacity:1;stop-color:#ff00ff icc-color(sRGB IEC61966-2.1, 1, 0, 1);"
         offset="0.361635"
         id="stop75" />
      <stop
         style="stop-opacity:1;stop-color:#000036 icc-color(sRGB IEC61966-2.1, 0, 0, 0.21176147);"
         offset="0.45750936"
         id="stop76" />
      <stop
         style="stop-opacity:1;stop-color:#000036 icc-color(sRGB IEC61966-2.1, 0, 0, 0.21176147);"
         offset="0.53058"
         id="stop77" />
      <stop
         style="stop-opacity:1;stop-color:#000036 icc-color(sRGB IEC61966-2.1, 0, 0, 0.21176147);"
         offset="0.59619385"
         id="stop78" />
      <stop
         style="stop-opacity:1;stop-color:#ff00ff icc-color(sRGB IEC61966-2.1, 1, 0, 1);"
         offset="0.690786"
         id="stop79" />
      <stop
         style="stop-opacity:1;stop-color:#000036 icc-color(sRGB IEC61966-2.1, 0, 0, 0.21176147);"
         offset="0.77493611"
         id="stop80" />
      <stop
         style="stop-opacity:1;stop-color:#000036 icc-color(sRGB IEC61966-2.1, 0, 0, 0.21176147);"
         offset="0.839884"
         id="stop81" />
      <stop
         style="stop-opacity:1;stop-color:#000036 icc-color(sRGB IEC61966-2.1, 0, 0, 0.21176147);"
         offset="1"
         id="stop82" />
    </radialGradient>
    <clipPath
       clipPathUnits="userSpaceOnUse"
       id="clipPath84">
      <path
         d="M 0,1417.323 H 1417.323 V 0 H 0 Z"
         transform="translate(-713.51922,-517.39891)"
         id="path84" />
    </clipPath>
    <clipPath
       clipPathUnits="userSpaceOnUse"
       id="clipPath88">
      <path
         d="M 0,1417.323 H 1417.323 V 0 H 0 Z"
         transform="translate(-821.47585,-639.60639)"
         id="path88" />
    </clipPath>
    <clipPath
       clipPathUnits="userSpaceOnUse"
       id="clipPath100">
      <path
         d="M 0,1417.323 H 1417.323 V 0 H 0 Z"
         transform="translate(-797.24079,-642.61554)"
         id="path100" />
    </clipPath>
    <radialGradient
       fx="0"
       fy="0"
       cx="0"
       cy="0"
       r="1"
       gradientUnits="userSpaceOnUse"
       gradientTransform="matrix(16.415129,3.5708234,-3.5708234,16.415129,119.18761,148.53105)"
       spreadMethod="pad"
       id="radialGradient110">
      <stop
         style="stop-opacity:1;stop-color:#000036 icc-color(sRGB IEC61966-2.1, 0, 0, 0.21176147);"
         offset="0"
         id="stop100" />
      <stop
         style="stop-opacity:1;stop-color:#000036 icc-color(sRGB IEC61966-2.1, 0, 0, 0.21176147);"
         offset="0.0584563"
         id="stop101" />
      <stop
         style="stop-opacity:1;stop-color:#000036 icc-color(sRGB IEC61966-2.1, 0, 0, 0.21176147);"
         offset="0.26174185"
         id="stop102" />
      <stop
         style="stop-opacity:1;stop-color:#ff00ff icc-color(sRGB IEC61966-2.1, 1, 0, 1);"
         offset="0.361635"
         id="stop103" />
      <stop
         style="stop-opacity:1;stop-color:#000036 icc-color(sRGB IEC61966-2.1, 0, 0, 0.21176147);"
         offset="0.45750936"
         id="stop104" />
      <stop
         style="stop-opacity:1;stop-color:#000036 icc-color(sRGB IEC61966-2.1, 0, 0, 0.21176147);"
         offset="0.53058"
         id="stop105" />
      <stop
         style="stop-opacity:1;stop-color:#000036 icc-color(sRGB IEC61966-2.1, 0, 0, 0.21176147);"
         offset="0.59619385"
         id="stop106" />
      <stop
         style="stop-opacity:1;stop-color:#ff00ff icc-color(sRGB IEC61966-2.1, 1, 0, 1);"
         offset="0.690786"
         id="stop107" />
      <stop
         style="stop-opacity:1;stop-color:#000036 icc-color(sRGB IEC61966-2.1, 0, 0, 0.21176147);"
         offset="0.77493611"
         id="stop108" />
      <stop
         style="stop-opacity:1;stop-color:#000036 icc-color(sRGB IEC61966-2.1, 0, 0, 0.21176147);"
         offset="0.839884"
         id="stop109" />
      <stop
         style="stop-opacity:1;stop-color:#000036 icc-color(sRGB IEC61966-2.1, 0, 0, 0.21176147);"
         offset="1"
         id="stop110" />
    </radialGradient>
    <clipPath
       clipPathUnits="userSpaceOnUse"
       id="clipPath112">
      <path
         d="M 0,1417.323 H 1417.323 V 0 H 0 Z"
         transform="translate(-772.51532,-641.15139)"
         id="path112" />
    </clipPath>
    <clipPath
       clipPathUnits="userSpaceOnUse"
       id="clipPath132">
      <path
         d="M 0,1417.323 H 1417.323 V 0 H 0 Z"
         transform="translate(-673.34342,-871.78622)"
         id="path132" />
    </clipPath>
    <clipPath
       clipPathUnits="userSpaceOnUse"
       id="clipPath134">
      <path
         d="M 0,1417.323 H 1417.323 V 0 H 0 Z"
         transform="translate(-509.41282,-780.02342)"
         id="path134" />
    </clipPath>
    <clipPath
       clipPathUnits="userSpaceOnUse"
       id="clipPath136">
      <path
         d="M 0,1417.323 H 1417.323 V 0 H 0 Z"
         transform="translate(-509.11481,-759.47242)"
         id="path136" />
    </clipPath>
    <clipPath
       clipPathUnits="userSpaceOnUse"
       id="clipPath138">
      <path
         d="M 0,1417.323 H 1417.323 V 0 H 0 Z"
         transform="translate(-562.17851,-568.76814)"
         id="path138" />
    </clipPath>
    <clipPath
       clipPathUnits="userSpaceOnUse"
       id="clipPath140">
      <path
         d="M 0,1417.323 H 1417.323 V 0 H 0 Z"
         transform="translate(-650.59871,-415.02459)"
         id="path140" />
    </clipPath>
    <clipPath
       clipPathUnits="userSpaceOnUse"
       id="clipPath142">
      <path
         d="M 0,1417.323 H 1417.323 V 0 H 0 Z"
         transform="translate(-693.92212,-1127.127)"
         id="path142" />
    </clipPath>
    <clipPath
       clipPathUnits="userSpaceOnUse"
       id="clipPath144">
      <path
         d="M 0,1417.323 H 1417.323 V 0 H 0 Z"
         transform="translate(-404.22821,-780.44332)"
         id="path144" />
    </clipPath>
    <clipPath
       clipPathUnits="userSpaceOnUse"
       id="clipPath146">
      <path
         d="M 0,1417.323 H 1417.323 V 0 H 0 Z"
         transform="translate(-712.34312,-572.05269)"
         id="path146" />
    </clipPath>
    <clipPath
       clipPathUnits="userSpaceOnUse"
       id="clipPath146-2">
      <path
         d="M 0,1417.323 H 1417.323 V 0 H 0 Z"
         transform="translate(-712.34312,-572.05269)"
         id="path146-7" />
    </clipPath>
    <clipPath
       clipPathUnits="userSpaceOnUse"
       id="clipPath60-6">
      <path
         d="M 0,1417.323 H 1417.323 V 0 H 0 Z"
         transform="translate(-442.05441,-627.83559)"
         id="path60-1" />
    </clipPath>
    <clipPath
       clipPathUnits="userSpaceOnUse"
       id="clipPath84-4">
      <path
         d="M 0,1417.323 H 1417.323 V 0 H 0 Z"
         transform="translate(-713.51922,-517.39891)"
         id="path84-2" />
    </clipPath>
    <clipPath
       clipPathUnits="userSpaceOnUse"
       id="clipPath29-3">
      <path
         d="M 0,1417.323 H 1417.323 V 0 H 0 Z"
         transform="translate(-984.5797,-627.83559)"
         id="path29-2" />
    </clipPath>
    <clipPath
       clipPathUnits="userSpaceOnUse"
       id="clipPath112-1">
      <path
         d="M 0,1417.323 H 1417.323 V 0 H 0 Z"
         transform="translate(-772.51532,-641.15139)"
         id="path112-8" />
    </clipPath>
    <clipPath
       clipPathUnits="userSpaceOnUse"
       id="clipPath88-9">
      <path
         d="M 0,1417.323 H 1417.323 V 0 H 0 Z"
         transform="translate(-821.47585,-639.60639)"
         id="path88-2" />
    </clipPath>
    <clipPath
       clipPathUnits="userSpaceOnUse"
       id="clipPath112-12">
      <path
         d="M 0,1417.323 H 1417.323 V 0 H 0 Z"
         transform="translate(-772.51532,-641.15139)"
         id="path112-3" />
    </clipPath>
    <clipPath
       clipPathUnits="userSpaceOnUse"
       id="clipPath100-3">
      <path
         d="M 0,1417.323 H 1417.323 V 0 H 0 Z"
         transform="translate(-797.24079,-642.61554)"
         id="path100-4" />
    </clipPath>
    <clipPath
       clipPathUnits="userSpaceOnUse"
       id="clipPath88-1">
      <path
         d="M 0,1417.323 H 1417.323 V 0 H 0 Z"
         transform="translate(-821.47585,-639.60639)"
         id="path88-1" />
    </clipPath>
  </defs>
  <g
     inkscape:label="Layer 1"
     inkscape:groupmode="layer"
     id="layer1">
    <path
       id="path143"
       clip-path="url(#clipPath144)"
       style="fill:#ff00ff;fill-opacity:1;fill-rule:nonzero;stroke:none"
       transform="matrix(0.1630192,0,0,-0.1630192,68.794449,125.79267)"
       d="M 0,0 C 17.32,11.57 27.207,27.673 20.544,40.999 13.881,54.325 -5.553,37.202 -6.663,20.5 -7.773,3.797 -8.477,-5.662 0,0 m 289.69392,346.68367 c 5.309,1.989 10.528,-3.151 8.646,-8.499 -9.02,-25.633 4.222,-33.84 -2.901,-60.561 -8.206,-30.785 -27.25,-30.104 -42.223,-43.17 -14.973,-13.066 -30.023,22.912 -9.236,40.161 20.786,17.249 4.239,32.995 14.189,50.552 5.773,10.186 20.324,17.321 31.525,21.517 M 246.3705,-365.4188 c 0.535,0.74 0.824,1.16 0.824,1.16 0,0 -0.305,-0.427 -0.824,-1.16 m -88.4202,153.74355 c -1.452,3.254 -2.729,6.421 -3.831,9.465 -34.799,-28.64 -64.924997,-83.4 -66.604997,-86.182 -1.942,-3.236 5.948,-30.756 5.948,-30.756 l -11.879,-28.22 10.182,2.204 12.211997,29.76 -3.761,21.939 c 11.039,27.695 42.583,64.872 57.734,81.79 m 92.865,-206.217 c -8.625,-8.642 -28.587,-19.437 -28.587,-19.437 -45.331,17.81 -86.305,45.33 -86.305,45.33 l -9.499,10.41 -0.07,-0.158 c 0,0 1.172,-8.87 3.359,-16.288 28.709,-23.583 62.125,-41.621 98.62,-52.503 13.122,5.301 28.028,16.883 28.028,16.883 12.561,-3.027 40.536,-5.231 40.536,-5.231 5.109,3.342 8.433,9.115 8.433,9.115 v 3.447 c -26.453,1.382 -54.515,8.432 -54.515,8.432 M 104.8866,-20.970904 c 6.541,-4.768 3.598,-19.944 -6.571998,-33.897 -10.171,-13.953 -23.718,-21.399 -30.259,-16.631 -6.541,4.768 -3.598,19.944 6.573,33.897 10.17,13.952 23.717,21.399 30.257998,16.631 m 0.298,20.55095347 c -3.542,-0.508 -9.660996,-1.46899997 -16.406996,-2.88299997 -0.178,-0.037 -0.35,-0.071 -0.528,-0.109 l 10e-4,-0.002 c -0.276,-0.058 -0.546,-0.113 -0.824,-0.173 -29.164,-36.7750005 -49.389,-80.9680005 -57.332,-129.3069995 0,0 17.051,64.346999 68.921,125.4079995 l 9.352996,1.31 c 0,0 37.16,-12.0540005 75.177,-31.5610005 -1.434,0.979 -47.727,32.0330005 -75.177,37.737000466566 0,0 -1.172,-0.139999996566 -3.184,-0.419999996566 M 269.11518,91.34286 l -13.454,7.278 c -43.038,-8.258 -82.612,-26.243 -116.326,-51.611 0.193,-4.234 0.507,-8.905 0.997,-10.2 0.123,-0.332 0.945,-0.945 2.38,-1.802 29.427,23.479 65.817,43.476 110.552,54.865 l 13.594,-9.045 c 0,0 18.02,0.175 38.472,-0.612 v 12.212 c -19.245,0.157 -36.215,-1.085 -36.215,-1.085 M 368.28712,-139.292 c 0,-33.232 -26.94,-60.172 -60.172,-60.172 -33.232,0 -60.172,26.94 -60.172,60.172 0,33.232 26.94,60.172002 60.172,60.172002 33.232,0 60.172,-26.940002 60.172,-60.172002 m 24.72549,1.46419 c 0,-46.238 -37.483,-83.721 -83.722,-83.721 -46.238,0 -83.721,37.483 -83.721,83.721 0,46.237996 37.483,83.721996 83.721,83.721996 46.239,0 83.722,-37.484 83.722,-83.721996 m 24.235,-3.00916 c 0,-59.624 -48.339,-107.946 -107.963,-107.946 -59.607,0 -107.946,48.322 -107.946,107.946 0,59.624001 48.339,107.946001 107.946,107.946001 0.682,0 1.364,0 2.047,-0.018 58.679,-1.102 105.916,-48.986 105.916,-107.928001 m -269.95582,-2.04338 c 0,-89.47001 72.52999,-161.99901 161.99896,-161.99901 v 0 c 89.47002,0 161.99902,72.529 161.99902,161.99901 v 0 c 0,89.468973 -72.529,161.997975 -161.99902,161.997975 v 0 c -89.46897,0 -161.99896,-72.529002 -161.99896,-161.997975 m 16.06399,-135.73199 c -12.771,-17.70503 -23.82799,-34.43005 -23.82799,-34.43005 v 0 c 0,-3.62197 1.95899,-29.65497 1.95899,-29.65497 v 0 l -15.063,-38.89199 -0.07,-0.15765 c 0,0 1.172,-8.86999 3.359,-16.28802 v 0 c 28.71,-23.58299 62.12602,-41.62098 98.62099,-52.50295 v 0 c 13.12103,5.30097 28.027,16.88298 28.027,16.88298 v 0 c 12.56202,-3.02701 40.53701,-5.23104 40.53701,-5.23104 v 0 c 5.10805,3.34206 8.43201,9.115 8.43201,9.115 v 0 119.63302 c -54.75901,8.13487 -90.69502,28.41193 -114.27802,51.22593 v 0 c -7.418,-3.90101 -18.808,-12.54404 -27.696,-19.70001 m -126.577996,96.18873 c 0,0 -4.443998,-15.79802 -7.803001,-35.98699 v 0 c 6.613001,-47.85 25.194002,-91.86905 52.609,-128.958 v 0 l 10.182003,2.20496 12.211994,29.75901 -3.762,21.93803 c 11.04,27.696 42.58301,64.87303 57.735,81.79098 v 0 c -1.453,3.25403 -2.73,6.42102 -3.832,9.46502 v 0 c -7.50599,20.36398 -8.047,35.32301 -8.047,35.32301 v 0 z M 305.33054,-310.13868 v -119.633 c 0,0 -3.324,-5.773 -8.433,-9.115 0,0 -27.975,2.205 -40.536,5.231 0,0 -14.906,-11.581 -28.028,-16.883 -36.495,10.883 -69.911,28.92 -98.62,52.504 -2.187,7.418 -3.36,16.288 -3.36,16.288 l 15.134,39.049 c 0,0 -1.96,26.033 -1.96,29.655 0,0 26.156,39.574 44.473,61.408 1.05,1.242 2.065,2.415 3.045,3.534 l 7.907,0.648 c 23.671,-25.893 56.038,-43.704 92.463,-48.847 z M 37.826207,-152.60779 c -0.851,-2.175 -1.053,-6.942 -1.043,-11.149 27.837,4.955 66.927003,10.531 117.686003,14.61 l -0.138,11.319 c -43.908,-1.6 -115.585003,-12.428 -116.505003,-14.78 m 118.602573,35.23241 c -41.07999,-3.16699 -74.022996,-7.22596 -98.655996,-10.95196 v 0 c -10.182997,-1.54 -19.420001,-3.07902 -27.677998,-4.56701 v 0 c -1.802002,-10.70702 -2.957001,-21.64101 -3.481001,-32.73301 v 0 c 28.150004,5.37004 70.592998,11.87903 127.855005,16.48002 v 0 c 43.07402,3.46401 94.54501,5.84397 154.62297,5.84397 v 0 31.49102 c -59.43098,0 -110.37798,-2.31004 -152.66298,-5.56303 m -17.094,164.385057 c 0.19299,-4.234041 0.50798,-8.905024 0.998,-10.200025 v 0 c 0.12299,-0.331863 0.944,-0.943999 2.379,-1.801996 v 0 c 9.43,-5.70301 44.84101,-22.429015 73.12998,-41.7440404 v 0 l 17.51303,-1.0489562 c 21.36196,12.036987 45.873,19.1570076 71.97496,19.8219596 v 0 80.39004 c -19.24498,0.158264 -36.21494,-1.084044 -36.21494,-1.084044 v 0 l -13.45302,7.278038 C 212.62281,90.36365 173.04878,72.377671 139.33478,47.009677 m -34.15,-47.42901411 C 101.54579,-0.94442863 95.212785,-1.9413664 88.248783,-3.4113773 v 0 c -0.280028,-0.055208 -0.542022,-0.1232984 -0.821995,-0.174826 v 0 C 58.261781,-40.361197 38.037783,-84.554151 30.094786,-132.89416 v 0 c -1.329003,-7.90698 -2.310004,-15.92003 -2.940003,-24.03803 v 0 c 30.880001,7.068 77.556997,17.63504 127.891007,28.69202 v 0 c 0.33296,3.65699 0.788,7.27798 1.38299,10.86498 v 0 c 4.12801,24.930987 14.205,47.866016 28.744,67.285998 v 0 l -1.592,12.334007 c -0.0172,0 -0.0172,0.0184 -0.035,0.0184 v 0 c -1.43504,0.979701 -47.72703,32.0346929 -75.17704,37.73770213701 v 0 c 0,0 -1.172,-0.13863397701 -3.184,-0.41896905701 M 154.4688,-149.14728 c 0.735,-18.877 4.864,-36.915 11.792,-53.466 0,0 -3.237,-3.394 -8.31,-9.062 -15.151,-16.918 -46.695,-54.095 -57.735,-81.79 l 3.762,-21.939 -12.211995,-29.76 -10.182,-2.204 c -27.415,37.09 -45.995,81.108 -52.609,128.957 -1.784,12.789 -2.694,25.841 -2.694,39.12 0,4.583 0.105,9.132 0.333,13.664 0.524,11.091 1.679,22.026 3.481,32.733 7.943,48.340002 28.168,92.533002 57.332,129.3080016 11.127,2.414 20.941995,3.5860000426 20.941995,3.5860000426 C 136.2558,-5.7912784 183.5808,-37.755278 183.5808,-37.755278 l 1.592,-12.334 c -14.538,-19.42 -24.616,-42.356 -28.745,-67.287002 -1.382,-8.31 -2.099,-16.83 -2.099,-25.508 0,-2.099 0.035,-4.181 0.14,-6.263 M 108.3687,0 c 0,0 4.988,6.787 7.726,8.743 0,0 46.205,-14.453 87.859,-45.879 l -5.888,-9.099 c 0,0 -59.479,36.71 -89.697,46.235 m 17.9864,-381.74485 -6.14,6.955 15.218,34.834 -3.72,32.005 c 0,0 30.598,42.699 52.456,66.407 l 8.418,1.554 8.752,-15.758 z m 391.60653,88.27917 -3.761,-21.939 12.211,-29.759 10.183,-2.205 -11.88,28.22 c 0,0 7.891,27.52 5.949,30.757 -1.68,2.781 -31.807,57.542 -66.605,86.181 -1.102,-3.044 -2.379,-6.211 -3.831,-9.465 15.151,-16.918 46.695,-54.095 57.734,-81.79 m -205.115,-132.859 v -3.447 c 0,0 3.325,-5.773 8.433,-9.115 0,0 27.975,2.205 40.537,5.231 0,0 14.906,-11.581 28.027,-16.883 36.495,10.883 69.911,28.92 98.621,52.504 2.187,7.418 3.359,16.288 3.359,16.288 l -0.07,0.157 -9.5,-10.409 c 0,0 -40.974,-27.52 -86.304,-45.331 0,0 -19.962,10.795 -28.587,19.438 0,0 -28.063,-7.051 -54.516,-8.433 m 200.44439,405.353776 c -6.541,-4.768 -3.598,-19.944 6.572,-33.897 10.171,-13.953 23.718,-21.399 30.259,-16.631 6.541,4.768 3.598,19.944 -6.573,33.897 -10.17,13.952 -23.717,21.399 -30.258,16.631 m -0.29794,20.55095347 c 3.542,-0.508 9.661,-1.46899997 16.407,-2.88299997 0.178,-0.037 0.35,-0.071 0.528,-0.109 l -10e-4,-0.002 c 0.276,-0.058 0.546,-0.113 0.824,-0.173 29.164,-36.7750005 49.389,-80.9680005 57.332,-129.3069995 0,0 -17.051,64.346999 -68.921,125.4079995 l -9.353,1.31 c 0,0 -37.16,-12.0540005 -75.177,-31.5610005 1.434,0.979 47.727,32.0330005 75.177,37.737000466566 0,0 1.172,-0.139999996566 3.184,-0.419999996566 M 349.06233,91.34286 l 13.454,7.278 c 43.038,-8.258 82.612,-26.243 116.326,-51.611 -0.193,-4.234 -0.507,-8.905 -0.997,-10.2 -0.123,-0.332 -0.945,-0.945 -2.38,-1.802 -29.427,23.479 -65.817,43.476 -110.552,54.865 l -13.594,-9.045 c 0,0 -18.02,0.175 -38.472,-0.612 v 12.212 c 19.245,0.157 36.215,-1.085 36.215,-1.085 M 312.84678,-310.13838 V -429.7714 c 0,0 3.325,-5.77294 8.43299,-9.115 v 0 c 0,0 27.97499,2.20403 40.537,5.23104 v 0 c 0,0 14.90598,-11.58201 28.02701,-16.88298 v 0 c 36.49503,10.88197 69.91103,28.91997 98.62102,52.50296 v 0 c 2.18698,7.41802 3.35899,16.28802 3.35899,16.28802 v 0 l -0.0699,0.15765 -15.06399,38.89198 c 0,0 1.96001,26.03301 1.96001,29.65503 v 0 c 0,0 -11.05698,16.72503 -23.82903,34.43 v 0 c -8.88699,7.15621 -20.277,15.79924 -27.69502,19.70025 v 0 c -23.58299,-22.814 -59.51796,-43.09106 -114.27899,-51.22605 m 151.21194,107.92815 c -1.10202,-3.044 -2.37898,-6.21099 -3.832,-9.46502 v 0 c 15.15097,-16.91795 46.69499,-54.09498 57.73498,-81.79098 v 0 l -3.76202,-21.93803 12.21304,-29.75901 10.18101,-2.20496 c 27.415,37.08895 45.996,81.108 52.60896,128.958 v 0 c -3.35997,20.18897 -7.80295,35.98699 -7.80295,35.98699 v 0 l -109.29399,15.53602 c 0,0 -0.54104,-14.95903 -8.04703,-35.32301 M 312.84714,-310.13868 v -119.633 c 0,0 3.324,-5.773 8.433,-9.115 0,0 27.975,2.205 40.536,5.231 0,0 14.906,-11.581 28.028,-16.883 36.495,10.883 69.911,28.92 98.62,52.504 2.187,7.418 3.36,16.288 3.36,16.288 l -15.134,39.049 c 0,0 1.96,26.033 1.96,29.655 0,0 -26.156,39.574 -44.473,61.408 -1.05,1.242 -2.065,2.415 -3.045,3.534 l -7.907,0.648 c -23.671,-25.893 -56.038,-43.704 -92.463,-48.847 z m -3.76133,166.83531 c 60.07899,0 111.54894,-2.37996 154.62295,-5.84397 v 0 c 57.26203,-4.60099 99.705,-11.10998 127.855,-16.48002 v 0 c -0.52386,11.092 -1.67894,22.02599 -3.481,32.73301 v 0 c -8.25798,1.48799 -17.49598,3.02701 -27.67797,4.56701 v 0 c -24.63305,3.726 -57.57598,7.78497 -98.65598,10.95196 v 0 c -42.28502,3.25306 -93.23203,5.56303 -152.663,5.56303 v 0 z m 39.97596,234.645985 c 0,0 -16.96996,1.242001 -36.21499,1.084044 v 0 -80.39004 c 26.10398,-0.664952 50.61403,-7.7849726 71.976,-19.8219596 v 0 l 17.51302,1.0489562 c 28.28999,19.3150254 63.69999,36.0410304 73.12998,41.7440404 v 0 c 1.43498,0.857997 2.25703,1.47001 2.37898,1.801996 v 0 c 0.49013,1.295001 0.805,5.965984 0.997,10.200025 v 0 C 445.1288,72.37761 405.55475,90.36365 362.51577,98.620653 v 0 z m 85.569,-129.079949 c -0.0184,0 -0.0184,-0.0184 -0.0307,-0.0184 v 0 l -1.59226,-12.333823 c 14.53902,-19.420044 24.61599,-42.355011 28.74403,-67.28606 v 0 c 0.59503,-3.587 1.05098,-7.20799 1.38297,-10.86498 v 0 c 50.33303,-11.05698 97.01103,-21.62396 127.89003,-28.69202 v 0 c -0.62901,8.118 -1.60902,16.13105 -2.93904,24.03803 v 0 c -7.94299,48.34001 -28.16797,92.533025 -57.33196,129.3080186 v 0 c -0.28034,0.049074 -0.54227,0.1220715 -0.82205,0.174826 v 0 c -6.96397,1.4699496 -13.29696,2.46694871 -16.93598,2.99197889 v 0 c -2.01197,0.28033508 -3.18398,0.41896905792 -3.18398,0.41896905792 v 0 C 482.36184,-5.7038067 436.06987,-36.758799 434.63384,-37.737763 m 29.07492,-111.409517 c -0.735,-18.877 -4.864,-36.915 -11.792,-53.466 0,0 3.237,-3.394 8.31,-9.062 15.151,-16.918 46.695,-54.095 57.735,-81.79 l -3.762,-21.939 12.212,-29.76 10.182,-2.204 c 27.415,37.09 45.995,81.108 52.609,128.957 1.784,12.789 2.694,25.841 2.694,39.12 0,4.583 -0.105,9.132 -0.333,13.664 -0.524,11.091 -1.679,22.026 -3.481,32.733 -7.943,48.340002 -28.168,92.533002 -57.332,129.3080016 -11.127,2.414 -20.942,3.5860000426 -20.942,3.5860000426 C 481.92176,-5.7912784 434.59676,-37.755278 434.59676,-37.755278 l -1.592,-12.334 c 14.538,-19.42 24.616,-42.356 28.745,-67.287002 1.382,-8.31 2.099,-16.83 2.099,-25.508 0,-2.099 -0.035,-4.181 -0.14,-6.263 M 509.80885,0 c 0,0 -4.988,6.787 -7.726,8.743 0,0 -46.205,-14.453 -87.859,-45.879 l 5.888,-9.099 c 0,0 59.479,36.71 89.697,46.235 m -17.98629,-381.74485 6.14,6.955 -15.218,34.834 3.72,32.005 c 0,0 -30.597,42.699 -52.456,66.407 l -8.418,1.554 -8.752,-15.758 z m 49.03263,398.395588 h -13.791 c 0,0 -15.864,17.1 -24.723,24.723 0,0 0,6.479 -0.347,12.241 -43.097,34.374 -95.817,57.479002 -153.555,64.769002 l -10.111,-6.553 c 0,0 -14.969,1.173 -29.239,1.459 -14.271,-0.286 -29.24,-1.459 -29.24,-1.459 l -10.11,6.553 c -57.739,-7.29 -110.458,-30.395002 -153.556,-64.769002 -0.346,-5.762 -0.347,-12.241 -0.347,-12.241 -8.859,-7.623 -24.722996,-24.723 -24.722996,-24.723 h -13.791 c -46.837,-53.131 -75.1950003,-122.518998 -75.1950003,-198.439998 0,-75.193 27.8240003,-143.971 73.8590003,-196.9 l 13.955,1.601 c 0,0 14.634996,-14.635 19.137996,-18.294 0,0 0,-8.42 0.189,-16.139 37.945,-32.114 83.94,-55.234 134.586,-66.046 l 16.463,11.973 c 0,0 25.9,-3.282 48.772,-2.62 22.871,-0.662 48.771,2.62 48.771,2.62 l 16.464,-11.973 c 50.645,10.812 96.64,33.932 134.586,66.046 0.188,7.719 0.188,16.139 0.188,16.139 4.503,3.659 19.138,18.294 19.138,18.294 l 13.955,-1.601 c 46.035,52.929 73.859,121.707 73.859,196.9 0,75.921 -28.358,145.308998 -75.195,198.439998 m -195.32208,114.443702 -3.755,-2.434 -6.666,-4.32 c -5.534,0.376 -15.753,0.992 -25.777,1.194 l -0.246,0.005 -0.246,-0.005 c -10.025,-0.202 -20.243,-0.818 -25.778,-1.194 l -6.665,4.32 -3.756,2.434 -4.439,-0.561 c -58.466,-7.381 -113.675,-30.669004 -159.658,-67.344004 l -4.261,-3.398 -0.327,-5.441 c -0.154,-2.563 -0.244,-5.23 -0.297,-7.475 -6.175001,-5.788 -13.522001,-13.415 -17.846001,-17.978 h -8.494 -5.53 l -3.656,-4.148 c -50.464,-57.245 -78.255,-130.594996 -78.255,-206.538996 0,-75.166 27.298,-147.948 76.865,-204.937 l 4.231,-4.865 6.405,0.735 8.107,0.93 c 3.295,-3.252 7.756,-7.607 11.369,-10.964 0.024,-3.083 0.072,-7.071 0.167,-10.93 l 0.134,-5.497 4.197001,-3.552 c 40.112,-33.946 88.502,-57.694 139.941,-68.675 l 5.342,-1.14 4.418,3.213 12.608,9.17 c 7.703,-0.821 23.368,-2.247 39.086,-2.247 2.173,0 4.303,0.028 6.337,0.083 2.033,-0.055 4.164,-0.083 6.339,-0.083 15.717,0 31.382,1.426 39.085,2.247 l 12.608,-9.17 4.418,-3.213 5.342,1.14 c 51.439,10.981 99.83,34.729 139.941,68.675 l 4.197,3.552 0.135,5.497 c 0.094,3.859 0.142,7.847 0.167,10.93 3.612,3.357 8.074,7.712 11.368,10.964 l 8.107,-0.93 6.406,-0.735 4.231,4.865 c 49.567,56.989 76.864,129.771 76.864,204.937 0,75.944 -27.791,149.293996 -78.254,206.538996 l -3.657,4.148 h -5.53 -8.493 c -4.324,4.563 -11.671,12.19 -17.847,17.978 -0.052,2.245 -0.142,4.912 -0.296,7.475 l -0.328,5.441 -4.261,3.398 c -45.982,36.675 -101.191,59.963004 -159.657,67.344004 z M 179.151,-466.03915 c 0,0 -55.409,59.695 -133.814998,97.329 -52.1270002,25.02 -13.82,59.848 -55.455,90.73 -41.635,30.882 -84.142,68.71 -74.606,121.048 9.537,52.337 19.487,69.650996 27.522,49.664 15.403,-38.318 41.779,-83.303 47.084,-2.103 2.9869998,45.723996 -8.028,71.132996 32.844,103.8309963 40.873,32.6979997 2.801,75.8409997 85.643998,111.7180037 82.843,35.877 85.567,47.685 105.55,73.571 19.982,25.886 34.06,22.707 31.79,0 -2.271,-22.707 49.199,7.721 59.568,48.139 10.369,40.419 41.259,60.401 43.298,49.047 2.04,-11.353 -12.038,-35.877 3.402,-60.855 15.441,-24.977 52.319,-37.693 77.478,-67.667 25.158,-29.973 41.043,3.634 14.935,23.162 -26.108,19.528 -6.58,14.532 4.774,12.261 11.353,-2.27 67.445,-38.147 82.542,-74.479 15.098,-36.331004 20.548,-39.510004 52.791,-71.754004 32.245,-32.2439997 13.588,-124.876 40.612,-130.58 37.143,-7.839996 15.248,47.722 25.239,60.086 9.991,12.364 59.038,-82.877996 40.418,-124.040996 -18.619,-41.164 -59.492,-61.7 -48.593,-91.851 10.9,-30.15 24.524,-5.852 24.978,8.793 0.454,14.646 20.437,-25.773 0.908,-53.93 -19.528,-28.156 -68.974,-36.232 -76.495,-60.805 -7.521,-24.573 -29.851,-38.532 -44.363,-36.866 -14.512,1.665 -40.362,19.559 -69.427,-12.685 -29.065,-32.244 -15.44,-55.405 -92.644,-48.139 -77.204,7.266 -123.072,3.179 -148.958,-5.449 -25.886,-8.629 -57.021,-8.175 -57.021,-8.175" />
  </g>
  <g
     inkscape:groupmode="layer"
     id="layer4"
     inkscape:label="Layer 2"
     sodipodi:insensitive="true"
     style="display:none">
    <path
       id="path87-8"
       d="m 0,0 c 0,-59.624 -48.339,-107.946 -107.963,-107.946 -59.607,0 -107.946,48.322 -107.946,107.946 0,59.624 48.339,107.946 107.946,107.946 0.682,0 1.364,0 2.047,-0.018 C -47.237,106.826 0,58.942 0,0"
       style="fill:#808285;fill-opacity:1;fill-rule:nonzero;stroke:none"
       transform="matrix(0.1630192,0,0,-0.1630192,199.67559,49.087456)"
       clip-path="url(#clipPath88-1)" />
    <path
       id="path99-7"
       d="m 0,0 c 0,-46.238 -37.483,-83.721 -83.722,-83.721 -46.238,0 -83.721,37.483 -83.721,83.721 0,46.238 37.483,83.722 83.721,83.722 C -37.483,83.722 0,46.238 0,0"
       style="fill:#000036;fill-opacity:1;fill-rule:nonzero;stroke:none"
       transform="matrix(0.1630192,0,0,-0.1630192,195.72482,48.596906)"
       clip-path="url(#clipPath100-3)" />
    <path
       id="path111-4"
       d="m 0,0 c 0,-33.232 -26.94,-60.172 -60.172,-60.172 -33.232,0 -60.172,26.94 -60.172,60.172 0,33.232 26.94,60.172 60.172,60.172 C -26.94,60.172 0,33.232 0,0"
       style="fill:#bcbec0;fill-opacity:1;fill-rule:nonzero;stroke:none"
       transform="matrix(0.1630192,0,0,-0.1630192,191.69409,48.835596)"
       clip-path="url(#clipPath112-12)" />
  </g>
  <g
     inkscape:groupmode="layer"
     id="layer3"
     inkscape:label="KeepOuts"
     sodipodi:insensitive="true"
     style="display:none">
    <path
       id="path28-1"
       d="m 0,0 c 0.851,-2.175 1.053,-6.942 1.043,-11.149 -27.837,4.955 -66.927,10.531 -117.686,14.61 l 0.138,11.319 C -72.597,13.18 -0.92,2.352 0,0"
       style="fill:#ff00ff;fill-opacity:1;fill-rule:nonzero;stroke:none"
       transform="matrix(0.1630192,0,0,-0.1630192,163.40289,150.67067)"
       clip-path="url(#clipPath29-3)" />
    <path
       id="path59-6"
       d="m 0,0 c -0.851,-2.175 -1.053,-6.942 -1.043,-11.149 27.837,4.955 66.927,10.531 117.686,14.61 L 116.505,14.78 C 72.597,13.18 0.92,2.352 0,0"
       style="fill:#ff00ff;fill-opacity:1;fill-rule:nonzero;stroke:none"
       transform="matrix(0.1630192,0,0,-0.1630192,74.960847,150.67067)"
       clip-path="url(#clipPath60-6)" />
    <path
       id="path83-8"
       d="m 0,0 c -66.364,0 -120.163,53.799 -120.163,120.163 0,66.365 53.799,120.164 120.163,120.164 66.364,0 120.164,-53.799 120.164,-120.164 C 120.164,53.799 66.364,0 0,0 m 0,255.263 c -74.613,0 -135.099,-60.486 -135.099,-135.1 0,-74.613 60.486,-135.099 135.099,-135.099 74.613,0 135.099,60.486 135.099,135.099 0,74.614 -60.486,135.1 -135.099,135.1"
       style="fill:#8e27ff;fill-opacity:1;fill-rule:nonzero;stroke:none"
       transform="matrix(0.1630192,0,0,-0.1630192,119.21482,168.67396)"
       clip-path="url(#clipPath84-4)" />
    <path
       id="path145-5"
       d="m 0,0 c -38.162,0 -69.099,30.937 -69.099,69.099 0,38.162 30.937,69.098 69.099,69.098 38.162,0 69.099,-30.936 69.099,-69.098 C 69.099,30.937 38.162,0 0,0 m 0,145.361 c -42.119,0 -76.263,-34.144 -76.263,-76.262 0,-42.119 34.144,-76.263 76.263,-76.263 42.119,0 76.263,34.144 76.263,76.263 0,42.118 -34.144,76.262 -76.263,76.262"
       style="fill:#ff00ff;fill-opacity:1;fill-rule:nonzero;stroke:none"
       transform="matrix(0.1630192,0,0,-0.1630192,119.02309,159.76435)"
       clip-path="url(#clipPath146-2)" />
  </g>
</svg>
