<?xml version="1.0" encoding="UTF-8" standalone="no"?>
<!-- Created with Inkscape (http://www.inkscape.org/) -->

<svg
   width="210mm"
   height="297mm"
   viewBox="0 0 210 297"
   version="1.1"
   id="svg1"
   inkscape:version="1.4 (86a8ad7, 2024-10-11)"
   sodipodi:docname="PurpleBall.svg"
   xmlns:inkscape="http://www.inkscape.org/namespaces/inkscape"
   xmlns:sodipodi="http://sodipodi.sourceforge.net/DTD/sodipodi-0.dtd"
   xmlns="http://www.w3.org/2000/svg"
   xmlns:svg="http://www.w3.org/2000/svg">
  <sodipodi:namedview
     id="namedview1"
     pagecolor="#ffffff"
     bordercolor="#000000"
     borderopacity="0.25"
     inkscape:showpageshadow="2"
     inkscape:pageopacity="0.0"
     inkscape:pagecheckerboard="0"
     inkscape:deskcolor="#d1d1d1"
     inkscape:document-units="mm"
     inkscape:zoom="1.1433196"
     inkscape:cx="151.75109"
     inkscape:cy="619.68672"
     inkscape:window-width="3840"
     inkscape:window-height="2054"
     inkscape:window-x="-11"
     inkscape:window-y="-11"
     inkscape:window-maximized="1"
     inkscape:current-layer="layer1" />
  <defs
     id="defs1">
    <clipPath
       clipPathUnits="userSpaceOnUse"
       id="clipPath9">
      <path
         d="M 0,1417.323 H 1417.323 V 0 H 0 Z"
         transform="translate(-583.37921,-314.40421)"
         id="path9" />
    </clipPath>
    <clipPath
       clipPathUnits="userSpaceOnUse"
       id="clipPath11">
      <path
         d="M 0,1417.323 H 1417.323 V 0 H 0 Z"
         transform="translate(-749.76132,-911.53782)"
         id="path11" />
    </clipPath>
    <clipPath
       clipPathUnits="userSpaceOnUse"
       id="clipPath13">
      <path
         d="M 0,1417.323 H 1417.323 V 0 H 0 Z"
         transform="translate(-945.08342,-797.09412)"
         id="path13" />
    </clipPath>
    <clipPath
       clipPathUnits="userSpaceOnUse"
       id="clipPath15">
      <path
         d="M 0,1417.323 H 1417.323 V 0 H 0 Z"
         transform="translate(-896.05075,-398.69851)"
         id="path15" />
    </clipPath>
    <clipPath
       clipPathUnits="userSpaceOnUse"
       id="clipPath17">
      <path
         d="M 0,1417.323 H 1417.323 V 0 H 0 Z"
         transform="translate(-914.0371,-780.44332)"
         id="path17" />
    </clipPath>
    <clipPath
       clipPathUnits="userSpaceOnUse"
       id="clipPath19">
      <path
         d="M 0,1417.323 H 1417.323 V 0 H 0 Z"
         transform="translate(-867.937,-631.29609)"
         id="path19" />
    </clipPath>
    <radialGradient
       fx="0"
       fy="0"
       cx="0"
       cy="0"
       r="1"
       gradientUnits="userSpaceOnUse"
       gradientTransform="matrix(0,59.682697,-59.682697,0,105.5321,111.98632)"
       spreadMethod="pad"
       id="radialGradient21">
      <stop
         style="stop-opacity:1;stop-color:#ed04ff icc-color(sRGB IEC61966-2.1, 0.92939758, 0.01568604, 1);"
         offset="0"
         id="stop19" />
      <stop
         style="stop-opacity:1;stop-color:#b01cff icc-color(sRGB IEC61966-2.1, 0.69018555, 0.10980225, 1);"
         offset="0.217197"
         id="stop20" />
      <stop
         style="stop-opacity:1;stop-color:#501fff icc-color(sRGB IEC61966-2.1, 0.3137207, 0.12156677, 1);"
         offset="1"
         id="stop21" />
    </radialGradient>
    <linearGradient
       x1="0"
       y1="0"
       x2="1"
       y2="0"
       gradientUnits="userSpaceOnUse"
       gradientTransform="matrix(-42.311234,0,0,-42.311234,148.68037,145.70177)"
       spreadMethod="pad"
       id="linearGradient27">
      <stop
         style="stop-opacity:1;stop-color:#400036 icc-color(sRGB IEC61966-2.1, 0.25097656, 0, 0.21176147);"
         offset="0"
         id="stop22" />
      <stop
         style="stop-opacity:1;stop-color:#400036 icc-color(sRGB IEC61966-2.1, 0.25097656, 0, 0.21176147);"
         offset="0.0584563"
         id="stop23" />
      <stop
         style="stop-opacity:1;stop-color:#400036 icc-color(sRGB IEC61966-2.1, 0.25097656, 0, 0.21176147);"
         offset="0.09327901"
         id="stop24" />
      <stop
         style="stop-opacity:1;stop-color:#ff00ff icc-color(sRGB IEC61966-2.1, 1, 0, 1);"
         offset="0.690786"
         id="stop25" />
      <stop
         style="stop-opacity:1;stop-color:#ff00ff icc-color(sRGB IEC61966-2.1, 1, 0, 1);"
         offset="0.86530471"
         id="stop26" />
      <stop
         style="stop-opacity:1;stop-color:#ff00ff icc-color(sRGB IEC61966-2.1, 1, 0, 1);"
         offset="1"
         id="stop27" />
    </linearGradient>
    <clipPath
       clipPathUnits="userSpaceOnUse"
       id="clipPath29">
      <path
         d="M 0,1417.323 H 1417.323 V 0 H 0 Z"
         transform="translate(-984.5797,-627.83559)"
         id="path29" />
    </clipPath>
    <clipPath
       clipPathUnits="userSpaceOnUse"
       id="clipPath31">
      <path
         d="M 0,1417.323 H 1417.323 V 0 H 0 Z"
         transform="translate(-717.07532,-470.30469)"
         id="path31" />
    </clipPath>
    <linearGradient
       x1="0"
       y1="0"
       x2="1"
       y2="0"
       gradientUnits="userSpaceOnUse"
       gradientTransform="matrix(0,-63.137612,-63.137612,0,138.70728,195.76946)"
       spreadMethod="pad"
       id="linearGradient33">
      <stop
         style="stop-opacity:1;stop-color:#ffffff icc-color(sRGB IEC61966-2.1, 1, 1, 1);"
         offset="0"
         id="stop31" />
      <stop
         style="stop-opacity:1;stop-color:#bcbec0 icc-color(sRGB IEC61966-2.1, 0.73724365, 0.74508667, 0.75292969);"
         offset="0.729385"
         id="stop32" />
      <stop
         style="stop-opacity:1;stop-color:#bcbec0 icc-color(sRGB IEC61966-2.1, 0.73724365, 0.74508667, 0.75292969);"
         offset="1"
         id="stop33" />
    </linearGradient>
    <linearGradient
       x1="0"
       y1="0"
       x2="1"
       y2="0"
       gradientUnits="userSpaceOnUse"
       gradientTransform="matrix(0,-63.135396,-63.135396,0,119.90437,195.76938)"
       spreadMethod="pad"
       id="linearGradient36">
      <stop
         style="stop-opacity:1;stop-color:#ffffff icc-color(sRGB IEC61966-2.1, 1, 1, 1);"
         offset="0"
         id="stop34" />
      <stop
         style="stop-opacity:1;stop-color:#bcbec0 icc-color(sRGB IEC61966-2.1, 0.73724365, 0.74508667, 0.75292969);"
         offset="0.729385"
         id="stop35" />
      <stop
         style="stop-opacity:1;stop-color:#bcbec0 icc-color(sRGB IEC61966-2.1, 0.73724365, 0.74508667, 0.75292969);"
         offset="1"
         id="stop36" />
    </linearGradient>
    <clipPath
       clipPathUnits="userSpaceOnUse"
       id="clipPath38">
      <path
         d="M 0,1417.323 H 1417.323 V 0 H 0 Z"
         transform="translate(-753.29049,-871.78622)"
         id="path38" />
    </clipPath>
    <clipPath
       clipPathUnits="userSpaceOnUse"
       id="clipPath40">
      <path
         d="M 0,1417.323 H 1417.323 V 0 H 0 Z"
         transform="translate(-917.2213,-780.02342)"
         id="path40" />
    </clipPath>
    <clipPath
       clipPathUnits="userSpaceOnUse"
       id="clipPath42">
      <path
         d="M 0,1417.323 H 1417.323 V 0 H 0 Z"
         transform="translate(-917.5192,-759.47242)"
         id="path42" />
    </clipPath>
    <clipPath
       clipPathUnits="userSpaceOnUse"
       id="clipPath44">
      <path
         d="M 0,1417.323 H 1417.323 V 0 H 0 Z"
         transform="translate(-922.18982,-486.97771)"
         id="path44" />
    </clipPath>
    <clipPath
       clipPathUnits="userSpaceOnUse"
       id="clipPath46">
      <path
         d="M 0,1417.323 H 1417.323 V 0 H 0 Z"
         transform="translate(-530.58331,-398.69851)"
         id="path46" />
    </clipPath>
    <clipPath
       clipPathUnits="userSpaceOnUse"
       id="clipPath48">
      <path
         d="M 0,1417.323 H 1417.323 V 0 H 0 Z"
         transform="translate(-512.59691,-780.44332)"
         id="path48" />
    </clipPath>
    <clipPath
       clipPathUnits="userSpaceOnUse"
       id="clipPath50">
      <path
         d="M 0,1417.323 H 1417.323 V 0 H 0 Z"
         transform="translate(-558.69701,-631.29609)"
         id="path50" />
    </clipPath>
    <radialGradient
       fx="0"
       fy="0"
       cx="0"
       cy="0"
       r="1"
       gradientUnits="userSpaceOnUse"
       gradientTransform="matrix(0,59.682697,-59.682697,0,105.5321,111.98632)"
       spreadMethod="pad"
       id="radialGradient52">
      <stop
         style="stop-opacity:1;stop-color:#ed04ff icc-color(sRGB IEC61966-2.1, 0.92939758, 0.01568604, 1);"
         offset="0"
         id="stop50" />
      <stop
         style="stop-opacity:1;stop-color:#b01cff icc-color(sRGB IEC61966-2.1, 0.69018555, 0.10980225, 1);"
         offset="0.217197"
         id="stop51" />
      <stop
         style="stop-opacity:1;stop-color:#501fff icc-color(sRGB IEC61966-2.1, 0.3137207, 0.12156677, 1);"
         offset="1"
         id="stop52" />
    </radialGradient>
    <linearGradient
       x1="0"
       y1="0"
       x2="1"
       y2="0"
       gradientUnits="userSpaceOnUse"
       gradientTransform="matrix(43.401247,0,0,43.401247,62.176802,145.70177)"
       spreadMethod="pad"
       id="linearGradient58">
      <stop
         style="stop-opacity:1;stop-color:#400036 icc-color(sRGB IEC61966-2.1, 0.25097656, 0, 0.21176147);"
         offset="0"
         id="stop53" />
      <stop
         style="stop-opacity:1;stop-color:#400036 icc-color(sRGB IEC61966-2.1, 0.25097656, 0, 0.21176147);"
         offset="0.0584563"
         id="stop54" />
      <stop
         style="stop-opacity:1;stop-color:#400036 icc-color(sRGB IEC61966-2.1, 0.25097656, 0, 0.21176147);"
         offset="0.09327901"
         id="stop55" />
      <stop
         style="stop-opacity:1;stop-color:#ff00ff icc-color(sRGB IEC61966-2.1, 1, 0, 1);"
         offset="0.690786"
         id="stop56" />
      <stop
         style="stop-opacity:1;stop-color:#ff00ff icc-color(sRGB IEC61966-2.1, 1, 0, 1);"
         offset="0.86530471"
         id="stop57" />
      <stop
         style="stop-opacity:1;stop-color:#ff00ff icc-color(sRGB IEC61966-2.1, 1, 0, 1);"
         offset="1"
         id="stop58" />
    </linearGradient>
    <clipPath
       clipPathUnits="userSpaceOnUse"
       id="clipPath60">
      <path
         d="M 0,1417.323 H 1417.323 V 0 H 0 Z"
         transform="translate(-442.05441,-627.83559)"
         id="path60" />
    </clipPath>
    <clipPath
       clipPathUnits="userSpaceOnUse"
       id="clipPath62">
      <path
         d="M 0,1417.323 H 1417.323 V 0 H 0 Z"
         transform="translate(-709.55872,-470.30469)"
         id="path62" />
    </clipPath>
    <linearGradient
       x1="0"
       y1="0"
       x2="1"
       y2="0"
       gradientUnits="userSpaceOnUse"
       gradientTransform="matrix(0,-63.137612,63.137612,0,72.447833,195.76946)"
       spreadMethod="pad"
       id="linearGradient64">
      <stop
         style="stop-opacity:1;stop-color:#ffffff icc-color(sRGB IEC61966-2.1, 1, 1, 1);"
         offset="0"
         id="stop62" />
      <stop
         style="stop-opacity:1;stop-color:#bcbec0 icc-color(sRGB IEC61966-2.1, 0.73724365, 0.74508667, 0.75292969);"
         offset="0.729385"
         id="stop63" />
      <stop
         style="stop-opacity:1;stop-color:#bcbec0 icc-color(sRGB IEC61966-2.1, 0.73724365, 0.74508667, 0.75292969);"
         offset="1"
         id="stop64" />
    </linearGradient>
    <linearGradient
       x1="0"
       y1="0"
       x2="1"
       y2="0"
       gradientUnits="userSpaceOnUse"
       gradientTransform="matrix(0,-63.135396,63.135396,0,91.250741,195.76938)"
       spreadMethod="pad"
       id="linearGradient67">
      <stop
         style="stop-opacity:1;stop-color:#ffffff icc-color(sRGB IEC61966-2.1, 1, 1, 1);"
         offset="0"
         id="stop65" />
      <stop
         style="stop-opacity:1;stop-color:#bcbec0 icc-color(sRGB IEC61966-2.1, 0.73724365, 0.74508667, 0.75292969);"
         offset="0.729385"
         id="stop66" />
      <stop
         style="stop-opacity:1;stop-color:#bcbec0 icc-color(sRGB IEC61966-2.1, 0.73724365, 0.74508667, 0.75292969);"
         offset="1"
         id="stop67" />
    </linearGradient>
    <linearGradient
       x1="0"
       y1="0"
       x2="1"
       y2="0"
       gradientUnits="userSpaceOnUse"
       gradientTransform="matrix(0,41.748586,-41.748586,0,105.60862,105.67945)"
       spreadMethod="pad"
       id="linearGradient71">
      <stop
         style="stop-opacity:1;stop-color:#ed00b0 icc-color(sRGB IEC61966-2.1, 0.92939758, 0, 0.69018555);"
         offset="0"
         id="stop68" />
      <stop
         style="stop-opacity:1;stop-color:#ed1cbf icc-color(sRGB IEC61966-2.1, 0.92939758, 0.10980225, 0.74900818);"
         offset="0.218097"
         id="stop69" />
      <stop
         style="stop-opacity:1;stop-color:#000036 icc-color(sRGB IEC61966-2.1, 0, 0, 0.21176147);"
         offset="1"
         id="stop70" />
      <stop
         style="stop-opacity:1;stop-color:#000036 icc-color(sRGB IEC61966-2.1, 0, 0, 0.21176147);"
         offset="1"
         id="stop71" />
    </linearGradient>
    <radialGradient
       fx="0"
       fy="0"
       cx="0"
       cy="0"
       r="1"
       gradientUnits="userSpaceOnUse"
       gradientTransform="matrix(27.463046,5.9741045,-5.9741045,27.463046,105.88794,146.39243)"
       spreadMethod="pad"
       id="radialGradient82">
      <stop
         style="stop-opacity:1;stop-color:#000036 icc-color(sRGB IEC61966-2.1, 0, 0, 0.21176147);"
         offset="0"
         id="stop72" />
      <stop
         style="stop-opacity:1;stop-color:#000036 icc-color(sRGB IEC61966-2.1, 0, 0, 0.21176147);"
         offset="0.0584563"
         id="stop73" />
      <stop
         style="stop-opacity:1;stop-color:#000036 icc-color(sRGB IEC61966-2.1, 0, 0, 0.21176147);"
         offset="0.26174185"
         id="stop74" />
      <stop
         style="stop-opacity:1;stop-color:#ff00ff icc-color(sRGB IEC61966-2.1, 1, 0, 1);"
         offset="0.361635"
         id="stop75" />
      <stop
         style="stop-opacity:1;stop-color:#000036 icc-color(sRGB IEC61966-2.1, 0, 0, 0.21176147);"
         offset="0.45750936"
         id="stop76" />
      <stop
         style="stop-opacity:1;stop-color:#000036 icc-color(sRGB IEC61966-2.1, 0, 0, 0.21176147);"
         offset="0.53058"
         id="stop77" />
      <stop
         style="stop-opacity:1;stop-color:#000036 icc-color(sRGB IEC61966-2.1, 0, 0, 0.21176147);"
         offset="0.59619385"
         id="stop78" />
      <stop
         style="stop-opacity:1;stop-color:#ff00ff icc-color(sRGB IEC61966-2.1, 1, 0, 1);"
         offset="0.690786"
         id="stop79" />
      <stop
         style="stop-opacity:1;stop-color:#000036 icc-color(sRGB IEC61966-2.1, 0, 0, 0.21176147);"
         offset="0.77493611"
         id="stop80" />
      <stop
         style="stop-opacity:1;stop-color:#000036 icc-color(sRGB IEC61966-2.1, 0, 0, 0.21176147);"
         offset="0.839884"
         id="stop81" />
      <stop
         style="stop-opacity:1;stop-color:#000036 icc-color(sRGB IEC61966-2.1, 0, 0, 0.21176147);"
         offset="1"
         id="stop82" />
    </radialGradient>
    <clipPath
       clipPathUnits="userSpaceOnUse"
       id="clipPath84">
      <path
         d="M 0,1417.323 H 1417.323 V 0 H 0 Z"
         transform="translate(-713.51922,-517.39891)"
         id="path84" />
    </clipPath>
    <clipPath
       clipPathUnits="userSpaceOnUse"
       id="clipPath88">
      <path
         d="M 0,1417.323 H 1417.323 V 0 H 0 Z"
         transform="translate(-821.47585,-639.60639)"
         id="path88" />
    </clipPath>
    <clipPath
       clipPathUnits="userSpaceOnUse"
       id="clipPath100">
      <path
         d="M 0,1417.323 H 1417.323 V 0 H 0 Z"
         transform="translate(-797.24079,-642.61554)"
         id="path100" />
    </clipPath>
    <radialGradient
       fx="0"
       fy="0"
       cx="0"
       cy="0"
       r="1"
       gradientUnits="userSpaceOnUse"
       gradientTransform="matrix(15.471132,3.3654734,-3.3654734,15.471132,105.58297,145.81898)"
       spreadMethod="pad"
       id="radialGradient110">
      <stop
         style="stop-opacity:1;stop-color:#000036 icc-color(sRGB IEC61966-2.1, 0, 0, 0.21176147);"
         offset="0"
         id="stop100" />
      <stop
         style="stop-opacity:1;stop-color:#000036 icc-color(sRGB IEC61966-2.1, 0, 0, 0.21176147);"
         offset="0.0584563"
         id="stop101" />
      <stop
         style="stop-opacity:1;stop-color:#000036 icc-color(sRGB IEC61966-2.1, 0, 0, 0.21176147);"
         offset="0.26174185"
         id="stop102" />
      <stop
         style="stop-opacity:1;stop-color:#ff00ff icc-color(sRGB IEC61966-2.1, 1, 0, 1);"
         offset="0.361635"
         id="stop103" />
      <stop
         style="stop-opacity:1;stop-color:#000036 icc-color(sRGB IEC61966-2.1, 0, 0, 0.21176147);"
         offset="0.45750936"
         id="stop104" />
      <stop
         style="stop-opacity:1;stop-color:#000036 icc-color(sRGB IEC61966-2.1, 0, 0, 0.21176147);"
         offset="0.53058"
         id="stop105" />
      <stop
         style="stop-opacity:1;stop-color:#000036 icc-color(sRGB IEC61966-2.1, 0, 0, 0.21176147);"
         offset="0.59619385"
         id="stop106" />
      <stop
         style="stop-opacity:1;stop-color:#ff00ff icc-color(sRGB IEC61966-2.1, 1, 0, 1);"
         offset="0.690786"
         id="stop107" />
      <stop
         style="stop-opacity:1;stop-color:#000036 icc-color(sRGB IEC61966-2.1, 0, 0, 0.21176147);"
         offset="0.77493611"
         id="stop108" />
      <stop
         style="stop-opacity:1;stop-color:#000036 icc-color(sRGB IEC61966-2.1, 0, 0, 0.21176147);"
         offset="0.839884"
         id="stop109" />
      <stop
         style="stop-opacity:1;stop-color:#000036 icc-color(sRGB IEC61966-2.1, 0, 0, 0.21176147);"
         offset="1"
         id="stop110" />
    </radialGradient>
    <clipPath
       clipPathUnits="userSpaceOnUse"
       id="clipPath112">
      <path
         d="M 0,1417.323 H 1417.323 V 0 H 0 Z"
         transform="translate(-772.51532,-641.15139)"
         id="path112" />
    </clipPath>
    <clipPath
       clipPathUnits="userSpaceOnUse"
       id="clipPath132">
      <path
         d="M 0,1417.323 H 1417.323 V 0 H 0 Z"
         transform="translate(-673.34342,-871.78622)"
         id="path132" />
    </clipPath>
    <clipPath
       clipPathUnits="userSpaceOnUse"
       id="clipPath134">
      <path
         d="M 0,1417.323 H 1417.323 V 0 H 0 Z"
         transform="translate(-509.41282,-780.02342)"
         id="path134" />
    </clipPath>
    <clipPath
       clipPathUnits="userSpaceOnUse"
       id="clipPath136">
      <path
         d="M 0,1417.323 H 1417.323 V 0 H 0 Z"
         transform="translate(-509.11481,-759.47242)"
         id="path136" />
    </clipPath>
    <clipPath
       clipPathUnits="userSpaceOnUse"
       id="clipPath138">
      <path
         d="M 0,1417.323 H 1417.323 V 0 H 0 Z"
         transform="translate(-562.17851,-568.76814)"
         id="path138" />
    </clipPath>
    <clipPath
       clipPathUnits="userSpaceOnUse"
       id="clipPath140">
      <path
         d="M 0,1417.323 H 1417.323 V 0 H 0 Z"
         transform="translate(-650.59871,-415.02459)"
         id="path140" />
    </clipPath>
    <clipPath
       clipPathUnits="userSpaceOnUse"
       id="clipPath142">
      <path
         d="M 0,1417.323 H 1417.323 V 0 H 0 Z"
         transform="translate(-693.92212,-1127.127)"
         id="path142" />
    </clipPath>
    <clipPath
       clipPathUnits="userSpaceOnUse"
       id="clipPath144">
      <path
         d="M 0,1417.323 H 1417.323 V 0 H 0 Z"
         transform="translate(-404.22821,-780.44332)"
         id="path144" />
    </clipPath>
    <clipPath
       clipPathUnits="userSpaceOnUse"
       id="clipPath146">
      <path
         d="M 0,1417.323 H 1417.323 V 0 H 0 Z"
         transform="translate(-712.34312,-572.05269)"
         id="path146" />
    </clipPath>
  </defs>
  <g
     inkscape:label="Layer 1"
     inkscape:groupmode="layer"
     id="layer1">
    <path
       id="path8"
       d="m 0,0 c 0,0 -55.409,59.695 -133.815,97.329 -52.127,25.02 -13.82,59.848 -55.455,90.73 -41.635,30.882 -84.142,68.71 -74.606,121.048 9.537,52.337 19.487,69.651 27.522,49.664 15.403,-38.318 41.779,-83.303 47.084,-2.103 2.987,45.724 -8.028,71.133 32.844,103.831 40.873,32.698 2.801,75.841 85.644,111.718 82.843,35.877 85.567,47.685 105.55,73.571 19.982,25.886 34.06,22.707 31.79,0 -2.271,-22.707 49.199,7.721 59.568,48.139 10.369,40.419 41.259,60.401 43.298,49.047 2.04,-11.353 -12.038,-35.877 3.402,-60.855 15.441,-24.977 52.319,-37.693 77.478,-67.667 25.158,-29.973 41.043,3.634 14.935,23.162 -26.108,19.528 -6.58,14.532 4.774,12.261 11.353,-2.27 67.445,-38.147 82.542,-74.479 15.098,-36.331 20.548,-39.51 52.791,-71.754 32.245,-32.244 13.588,-124.876 40.612,-130.58 37.143,-7.84 15.248,47.722 25.239,60.086 9.991,12.364 59.038,-82.878 40.418,-124.041 -18.619,-41.164 -59.492,-61.7 -48.593,-91.851 10.9,-30.15 24.524,-5.852 24.978,8.793 0.454,14.646 20.437,-25.773 0.908,-53.93 C 469.38,143.963 419.934,135.887 412.413,111.314 404.892,86.741 382.562,72.782 368.05,74.448 353.538,76.113 327.688,94.007 298.623,61.763 269.558,29.519 283.183,6.358 205.979,13.624 128.775,20.89 82.907,16.803 57.021,8.175 31.135,-0.454 0,0 0,0"
       style="fill:#ff00ff;fill-opacity:1;fill-rule:nonzero;stroke:none"
       transform="matrix(0.15364433,0,0,-0.15364433,85.613344,195.9925)"
       clip-path="url(#clipPath9)" />
    <path
       id="path10"
       d="m 0,0 -3.755,-2.434 -6.666,-4.32 c -5.534,0.376 -15.753,0.992 -25.777,1.194 l -0.246,0.005 -0.246,-0.005 c -10.025,-0.202 -20.243,-0.818 -25.778,-1.194 l -6.665,4.32 -3.756,2.434 -4.439,-0.561 c -58.466,-7.381 -113.675,-30.669 -159.658,-67.344 l -4.261,-3.398 -0.327,-5.441 c -0.154,-2.563 -0.244,-5.23 -0.297,-7.475 -6.175,-5.788 -13.522,-13.415 -17.846,-17.978 h -8.494 -5.53 l -3.656,-4.148 c -50.464,-57.245 -78.255,-130.595 -78.255,-206.539 0,-75.166 27.298,-147.948 76.865,-204.937 l 4.231,-4.865 6.405,0.735 8.107,0.93 c 3.295,-3.252 7.756,-7.607 11.369,-10.964 0.024,-3.083 0.072,-7.071 0.167,-10.93 l 0.134,-5.497 4.197,-3.552 c 40.112,-33.946 88.502,-57.694 139.941,-68.675 l 5.342,-1.14 4.418,3.213 12.608,9.17 c 7.703,-0.821 23.368,-2.247 39.086,-2.247 2.173,0 4.303,0.028 6.337,0.083 2.033,-0.055 4.164,-0.083 6.339,-0.083 15.717,0 31.382,1.426 39.085,2.247 l 12.608,-9.17 4.418,-3.213 5.342,1.14 c 51.439,10.981 99.83,34.729 139.941,68.675 l 4.197,3.552 0.135,5.497 c 0.094,3.859 0.142,7.847 0.167,10.93 3.612,3.357 8.074,7.712 11.368,10.964 l 8.107,-0.93 6.406,-0.735 4.231,4.865 c 49.567,56.989 76.864,129.771 76.864,204.937 0,75.944 -27.791,149.294 -78.254,206.539 l -3.657,4.148 h -5.53 -8.493 c -4.324,4.563 -11.671,12.19 -17.847,17.978 -0.052,2.245 -0.142,4.912 -0.296,7.475 l -0.328,5.441 -4.261,3.398 C 118.115,-31.23 62.906,-7.942 4.44,-0.561 Z"
       style="fill:#ff00ff;fill-opacity:1;fill-rule:nonzero;stroke:none"
       transform="matrix(0.15364433,0,0,-0.15364433,111.17702,104.2463)"
       clip-path="url(#clipPath11)" />
    <path
       id="path12"
       d="m 0,0 h -13.791 c 0,0 -15.864,17.1 -24.723,24.723 0,0 0,6.479 -0.347,12.241 -43.097,34.374 -95.817,57.479 -153.555,64.769 l -10.111,-6.553 c 0,0 -14.969,1.173 -29.239,1.459 -14.271,-0.286 -29.24,-1.459 -29.24,-1.459 l -10.11,6.553 c -57.739,-7.29 -110.458,-30.395 -153.556,-64.769 -0.346,-5.762 -0.347,-12.241 -0.347,-12.241 C -433.878,17.1 -449.742,0 -449.742,0 h -13.791 c -46.837,-53.131 -75.195,-122.519 -75.195,-198.44 0,-75.193 27.824,-143.971 73.859,-196.9 l 13.955,1.601 c 0,0 14.635,-14.635 19.138,-18.294 0,0 0,-8.42 0.189,-16.139 37.945,-32.114 83.94,-55.234 134.586,-66.046 l 16.463,11.973 c 0,0 25.9,-3.282 48.772,-2.62 22.871,-0.662 48.771,2.62 48.771,2.62 l 16.464,-11.973 c 50.645,10.812 96.64,33.932 134.586,66.046 0.188,7.719 0.188,16.139 0.188,16.139 4.503,3.659 19.138,18.294 19.138,18.294 l 13.955,-1.601 c 46.035,52.929 73.859,121.707 73.859,196.9 C 75.195,-122.519 46.837,-53.131 0,0"
       style="fill:#000036;fill-opacity:1;fill-rule:nonzero;stroke:none"
       transform="matrix(0.15364433,0,0,-0.15364433,141.18714,121.82994)"
       clip-path="url(#clipPath13)" />
    <path
       id="path14"
       d="m 0,0 6.14,6.955 -15.218,34.834 3.72,32.005 c 0,0 -30.597,42.699 -52.456,66.407 l -8.418,1.554 -8.752,-15.758 z"
       style="fill:#ff00ff;fill-opacity:1;fill-rule:nonzero;stroke:none"
       transform="matrix(0.15364433,0,0,-0.15364433,133.65356,183.04115)"
       clip-path="url(#clipPath15)" />
    <path
       id="path16"
       d="m 0,0 c 0,0 -4.988,6.787 -7.726,8.743 0,0 -46.205,-14.453 -87.859,-45.879 l 5.888,-9.099 c 0,0 59.479,36.71 89.697,46.235"
       style="fill:#ff00ff;fill-opacity:1;fill-rule:nonzero;stroke:none"
       transform="matrix(0.15364433,0,0,-0.15364433,136.41705,124.38823)"
       clip-path="url(#clipPath17)" />
    <path
       id="path18"
       d="m 0,0 c -0.735,-18.877 -4.864,-36.915 -11.792,-53.466 0,0 3.237,-3.394 8.31,-9.062 15.151,-16.918 46.695,-54.095 57.735,-81.79 l -3.762,-21.939 12.212,-29.76 10.182,-2.204 c 27.415,37.09 45.995,81.108 52.609,128.957 1.784,12.789 2.694,25.841 2.694,39.12 0,4.583 -0.105,9.132 -0.333,13.664 -0.524,11.091 -1.679,22.026 -3.481,32.733 -7.943,48.34 -28.168,92.533 -57.332,129.308 -11.127,2.414 -20.942,3.586 -20.942,3.586 -27.887,-5.791 -75.212,-37.755 -75.212,-37.755 L -30.704,99.058 C -16.166,79.638 -6.088,56.702 -1.959,31.771 -0.577,23.461 0.14,14.941 0.14,6.263 0.14,4.164 0.105,2.082 0,0"
       style="fill:#ffffff;fill-opacity:1;fill-rule:nonzero;stroke:none"
       transform="matrix(0.15364433,0,0,-0.15364433,129.33404,147.30386)"
       clip-path="url(#clipPath19)" />
    <path
       id="path21"
       d="m 111.71918,110.35395 c 0,0 -2.60735,-0.19083 -5.56424,-0.16656 v 0 12.35147 c 4.01074,0.10212 7.77656,1.19612 11.05871,3.04554 v 0 l 2.69077,-0.16117 c 4.3466,-2.96764 9.78714,-5.5375 11.23601,-6.41373 v 0 c 0.22048,-0.13183 0.34678,-0.22586 0.36552,-0.27686 v 0 c 0.0752,-0.19897 0.12369,-0.91664 0.15318,-1.56718 v 0 c -5.17981,-3.89764 -11.26013,-6.6611 -17.87282,-7.92974 v 0 z m 13.14718,19.8324 c -0.002,0 -0.002,0.002 -0.005,0.002 v 0 l -0.2446,1.89505 c 2.23383,2.98378 3.78211,6.50762 4.41636,10.33812 v 0 c 0.0914,0.55111 0.16148,1.10747 0.21248,1.66935 v 0 c 7.73339,1.69881 14.90519,3.32238 19.64958,4.40834 v 0 c -0.0966,-1.24729 -0.24723,-2.47844 -0.45156,-3.69331 v 0 c -1.2204,-7.42716 -4.32786,-14.21717 -8.80875,-19.86744 v 0 c -0.0431,-0.008 -0.0833,-0.0187 -0.12628,-0.0269 v 0 c -1.06994,-0.22588 -2.04297,-0.37907 -2.60207,-0.45972 v 0 c -0.30913,-0.0431 -0.4892,-0.0644 -0.4892,-0.0644 v 0 c -4.21755,0.87623 -11.33004,5.64766 -11.55068,5.79808"
       style="fill:url(#radialGradient21);stroke:none;stroke-width:0.153644" />
    <path
       id="path27"
       d="m 105.57708,146.40597 c 9.2308,0 17.13888,0.36568 23.75696,0.8979 v 0 c 8.79797,0.70692 15.3191,1.70699 19.64419,2.53206 v 0 c -0.0805,-1.70423 -0.25797,-3.38417 -0.53483,-5.02925 v 0 c -1.2688,-0.22861 -2.68817,-0.46507 -4.25257,-0.70169 v 0 c -3.78473,-0.57247 -8.84623,-1.19612 -15.15795,-1.68271 v 0 c -6.49683,-0.4998 -14.32455,-0.85472 -23.4558,-0.85472 v 0 z"
       style="fill:url(#linearGradient27);stroke:none;stroke-width:0.153644" />
    <path
       id="path28"
       d="m 0,0 c 0.851,-2.175 1.053,-6.942 1.043,-11.149 -27.837,4.955 -66.927,10.531 -117.686,14.61 l 0.138,11.319 C -72.597,13.18 -0.92,2.352 0,0"
       style="fill:#ff00ff;fill-opacity:1;fill-rule:nonzero;stroke:none"
       transform="matrix(0.15364433,0,0,-0.15364433,147.25552,147.83554)"
       clip-path="url(#clipPath29)" />
    <path
       id="path30"
       d="m 0,0 v -119.633 c 0,0 3.324,-5.773 8.433,-9.115 0,0 27.975,2.205 40.536,5.231 0,0 14.906,-11.581 28.028,-16.883 36.495,10.883 69.911,28.92 98.62,52.504 2.187,7.418 3.36,16.288 3.36,16.288 l -15.134,39.049 c 0,0 1.96,26.033 1.96,29.655 0,0 -26.156,39.574 -44.473,61.408 -1.05,1.242 -2.065,2.415 -3.045,3.534 l -7.907,0.648 C 86.707,36.793 54.34,18.982 17.915,13.839 Z"
       style="fill:#ffffff;fill-opacity:1;fill-rule:nonzero;stroke:none"
       transform="matrix(0.15364433,0,0,-0.15364433,106.15499,172.03928)"
       clip-path="url(#clipPath31)" />
    <path
       id="path33"
       d="m 129.38781,155.45671 c -0.16931,0.46768 -0.36552,0.95427 -0.58876,1.45423 v 0 c 2.32786,2.59935 7.17442,8.31139 8.87065,12.56672 v 0 l -0.57801,3.37066 1.87646,4.5723 1.56425,0.33878 c 4.21217,-5.69851 7.06703,-12.46178 8.08308,-19.81367 v 0 c -0.51625,-3.10191 -1.19889,-5.52919 -1.19889,-5.52919 v 0 l -16.79241,-2.38701 c 0,0 -0.0832,2.29836 -1.23637,5.42718"
       style="fill:url(#linearGradient33);stroke:none;stroke-width:0.153644" />
    <path
       id="path36"
       d="m 106.15494,172.03923 v 18.38093 c 0,0 0.51087,0.88699 1.29568,1.40047 v 0 c 0,0 4.29821,-0.33864 6.22829,-0.80371 v 0 c 0,0 2.29022,1.7795 4.30619,2.59397 v 0 c 5.60725,-1.67195 10.74142,-4.4434 15.15255,-8.06679 v 0 c 0.33603,-1.13973 0.51609,-2.50256 0.51609,-2.50256 v 0 l -0.0108,-0.0242 -2.3145,-5.97553 c 0,0 0.30114,-3.99983 0.30114,-4.55632 v 0 c 0,0 -1.69884,-2.5697 -3.66119,-5.28998 v 0 c -1.36545,-1.09948 -3.11545,-2.42742 -4.25519,-3.02679 v 0 c -3.62339,3.50524 -9.1446,6.62069 -17.55832,7.87057"
       style="fill:url(#linearGradient36);stroke:none;stroke-width:0.153644" />
    <path
       id="path37"
       d="m 0,0 13.454,7.278 c 43.038,-8.258 82.612,-26.243 116.326,-51.611 -0.193,-4.234 -0.507,-8.905 -0.997,-10.2 -0.123,-0.332 -0.945,-0.945 -2.38,-1.802 C 96.976,-32.856 60.586,-12.859 15.851,-1.47 L 2.257,-10.515 c 0,0 -18.02,0.175 -38.472,-0.612 V 1.085 C -16.97,1.242 0,0 0,0"
       style="fill:#ff71ff;fill-opacity:1;fill-rule:nonzero;stroke:none"
       transform="matrix(0.15364433,0,0,-0.15364433,111.71925,110.35392)"
       clip-path="url(#clipPath38)" />
    <path
       id="path39"
       d="m 0,0 c 3.542,-0.508 9.661,-1.469 16.407,-2.883 0.178,-0.037 0.35,-0.071 0.528,-0.109 l -10e-4,-0.002 c 0.276,-0.058 0.546,-0.113 0.824,-0.173 29.164,-36.775 49.389,-80.968 57.332,-129.307 0,0 -17.051,64.347 -68.921,125.408 l -9.353,1.31 c 0,0 -37.16,-12.054 -75.177,-31.561 1.434,0.979 47.727,32.033 75.177,37.737 0,0 1.172,-0.14 3.184,-0.42"
       style="fill:#ff71ff;fill-opacity:1;fill-rule:nonzero;stroke:none"
       transform="matrix(0.15364433,0,0,-0.15364433,136.90629,124.45275)"
       clip-path="url(#clipPath40)" />
    <path
       id="path41"
       d="m 0,0 c -6.541,-4.768 -3.598,-19.944 6.572,-33.897 10.171,-13.953 23.718,-21.399 30.259,-16.631 6.541,4.768 3.598,19.944 -6.573,33.897 C 20.088,-2.679 6.541,4.768 0,0"
       style="fill:#ff71ff;fill-opacity:1;fill-rule:nonzero;stroke:none"
       transform="matrix(0.15364433,0,0,-0.15364433,136.95206,127.61029)"
       clip-path="url(#clipPath42)" />
    <path
       id="path43"
       d="m 0,0 -3.761,-21.939 12.211,-29.759 10.183,-2.205 -11.88,28.22 c 0,0 7.891,27.52 5.949,30.757 -1.68,2.781 -31.807,57.542 -66.605,86.181 -1.102,-3.044 -2.379,-6.211 -3.831,-9.465 C -42.583,64.872 -11.039,27.695 0,0 m -205.115,-132.859 v -3.447 c 0,0 3.325,-5.773 8.433,-9.115 0,0 27.975,2.205 40.537,5.231 0,0 14.906,-11.581 28.027,-16.883 36.495,10.883 69.911,28.92 98.621,52.504 2.187,7.418 3.359,16.288 3.359,16.288 l -0.07,0.157 -9.5,-10.409 c 0,0 -40.974,-27.52 -86.304,-45.331 0,0 -19.962,10.795 -28.587,19.438 0,0 -28.063,-7.051 -54.516,-8.433"
       style="fill:#808285;fill-opacity:1;fill-rule:nonzero;stroke:none"
       transform="matrix(0.15364433,0,0,-0.15364433,137.66968,169.47755)"
       clip-path="url(#clipPath44)" />
    <path
       id="path45"
       d="M 0,0 -6.14,6.955 9.078,41.789 5.358,73.794 c 0,0 30.598,42.699 52.456,66.407 l 8.418,1.554 8.752,-15.758 z"
       style="fill:#ff00ff;fill-opacity:1;fill-rule:nonzero;stroke:none"
       transform="matrix(0.15364433,0,0,-0.15364433,77.501557,183.04115)"
       clip-path="url(#clipPath46)" />
    <path
       id="path47"
       d="m 0,0 c 0,0 4.988,6.787 7.726,8.743 0,0 46.205,-14.453 87.859,-45.879 l -5.888,-9.099 c 0,0 -59.479,36.71 -89.697,46.235"
       style="fill:#ff00ff;fill-opacity:1;fill-rule:nonzero;stroke:none"
       transform="matrix(0.15364433,0,0,-0.15364433,74.738045,124.38823)"
       clip-path="url(#clipPath48)" />
    <path
       id="path49"
       d="m 0,0 c 0.735,-18.877 4.864,-36.915 11.792,-53.466 0,0 -3.237,-3.394 -8.31,-9.062 -15.151,-16.918 -46.695,-54.095 -57.735,-81.79 l 3.762,-21.939 -12.212,-29.76 -10.182,-2.204 c -27.415,37.09 -45.995,81.108 -52.609,128.957 -1.784,12.789 -2.694,25.841 -2.694,39.12 0,4.583 0.105,9.132 0.333,13.664 0.524,11.091 1.679,22.026 3.481,32.733 7.943,48.34 28.168,92.533 57.332,129.308 11.127,2.414 20.942,3.586 20.942,3.586 27.887,-5.791 75.212,-37.755 75.212,-37.755 L 30.704,99.058 C 16.166,79.638 6.088,56.702 1.959,31.771 0.577,23.461 -0.14,14.941 -0.14,6.263 -0.14,4.164 -0.105,2.082 0,0"
       style="fill:#ffffff;fill-opacity:1;fill-rule:nonzero;stroke:none"
       transform="matrix(0.15364433,0,0,-0.15364433,81.821064,147.30386)"
       clip-path="url(#clipPath50)" />
    <path
       id="path52"
       d="m 79.49581,117.16546 c 0.02966,0.65054 0.07805,1.36821 0.153336,1.56718 v 0 c 0.0189,0.051 0.145039,0.14503 0.365521,0.27686 v 0 c 1.448864,0.87623 6.889566,3.44609 11.236014,6.41373 v 0 l 2.69077,0.16117 C 97.2236,123.73498 100.98958,122.64104 105,122.53886 v 0 -12.35147 c -2.95689,-0.0242 -5.56423,0.16656 -5.56423,0.16656 v 0 l -2.06698,-1.11823 c -6.612699,1.26864 -12.693015,4.0321 -17.87298,7.92974 m -5.246953,7.2872 c -0.559113,0.0806 -1.532142,0.23384 -2.602123,0.4597 v 0 c -0.04303,0.008 -0.08327,0.0188 -0.126294,0.0269 v 0 c -4.481035,5.65028 -7.58834,12.44027 -8.808736,19.86744 v 0 c -0.204196,1.21487 -0.354919,2.44602 -0.451716,3.6933 v 0 c 4.744539,-1.08595 11.916192,-2.70951 19.649727,-4.40835 v 0 c 0.05116,-0.56189 0.121073,-1.11824 0.21249,-1.66936 v 0 c 0.634246,-3.83049 2.182518,-7.35433 4.416351,-10.33811 v 0 l -0.244601,-1.89505 c -0.0026,0 -0.0026,-0.002 -0.0054,-0.002 v 0 c -0.220486,-0.15038 -7.33299,-4.92181 -11.550528,-5.79805 v 0 c 0,0 -0.180068,0.0214 -0.489201,0.0643"
       style="fill:url(#radialGradient52);stroke:none;stroke-width:0.153644" />
    <path
       id="path58"
       d="m 82.122205,142.42228 c -6.311709,0.48659 -11.373215,1.11024 -15.157934,1.68271 v 0 c -1.564562,0.23662 -2.983775,0.47308 -4.252567,0.70169 v 0 c -0.276868,1.64508 -0.454328,3.32502 -0.534836,5.02925 v 0 c 4.325087,-0.82507 10.846214,-1.82514 19.644196,-2.53206 v 0 c 6.618077,-0.53222 14.526296,-0.8979 23.756946,-0.8979 v 0 -4.83841 c -9.13124,0 -16.958953,0.35492 -23.455805,0.85472"
       style="fill:url(#linearGradient58);stroke:none;stroke-width:0.153644" />
    <path
       id="path59"
       d="m 0,0 c -0.851,-2.175 -1.053,-6.942 -1.043,-11.149 27.837,4.955 66.927,10.531 117.686,14.61 L 116.505,14.78 C 72.597,13.18 0.92,2.352 0,0"
       style="fill:#ff00ff;fill-opacity:1;fill-rule:nonzero;stroke:none"
       transform="matrix(0.15364433,0,0,-0.15364433,63.899593,147.83554)"
       clip-path="url(#clipPath60)" />
    <path
       id="path61"
       d="m 0,0 v -119.633 c 0,0 -3.324,-5.773 -8.433,-9.115 0,0 -27.975,2.205 -40.536,5.231 0,0 -14.906,-11.581 -28.028,-16.883 -36.495,10.883 -69.911,28.92 -98.62,52.504 -2.187,7.418 -3.36,16.288 -3.36,16.288 l 15.134,39.049 c 0,0 -1.96,26.033 -1.96,29.655 0,0 26.156,39.574 44.473,61.408 1.05,1.242 2.065,2.415 3.045,3.534 l 7.907,0.648 C -86.707,36.793 -54.34,18.982 -17.915,13.839 Z"
       style="fill:#ffffff;fill-opacity:1;fill-rule:nonzero;stroke:none"
       transform="matrix(0.15364433,0,0,-0.15364433,105.00011,172.03928)"
       clip-path="url(#clipPath62)" />
    <path
       id="path64"
       d="m 63.738508,152.41654 c 0,0 -0.682797,2.42728 -1.198888,5.52919 v 0 c 1.016049,7.35189 3.870917,14.11516 8.083076,19.81367 v 0 l 1.564405,-0.33878 1.876304,-4.5723 -0.57801,-3.37066 c 1.696235,-4.25533 6.542639,-9.96737 8.870658,-12.56672 v 0 c -0.223247,-0.49996 -0.419448,-0.98655 -0.588768,-1.45423 v 0 c -1.153254,-3.12882 -1.236374,-5.42718 -1.236374,-5.42718 v 0 z"
       style="fill:url(#linearGradient64);stroke:none;stroke-width:0.153644" />
    <path
       id="path67"
       d="m 83.186498,167.19543 c -1.962189,2.72028 -3.661037,5.28998 -3.661037,5.28998 v 0 c 0,0.55649 0.300993,4.55632 0.300993,4.55632 v 0 l -2.314349,5.97553 -0.0108,0.0242 c 0,0 0.180069,1.36282 0.516092,2.50255 v 0 c 4.411129,3.6234 9.545307,6.39484 15.152554,8.06679 v 0 c 2.01597,-0.81447 4.306189,-2.59397 4.306189,-2.59397 v 0 c 1.93008,0.46507 6.22828,0.80371 6.22828,0.80371 v 0 c 0.78482,-0.51348 1.29554,-1.40047 1.29554,-1.40047 v 0 -18.38093 c -8.41342,-1.24987 -13.934779,-4.36532 -17.558178,-7.87057 v 0 c -1.139731,0.59938 -2.88974,1.92732 -4.255332,3.0268"
       style="fill:url(#linearGradient67);stroke:none;stroke-width:0.153644" />
    <path
       id="path71"
       d="m 80.718357,146.34098 c 0,13.74656 11.143824,24.89023 24.890223,24.89023 v 0 c 13.74657,0 24.89024,-11.14367 24.89024,-24.89023 v 0 c 0,-13.7464 -11.14367,-24.89008 -24.89024,-24.89008 v 0 c -13.746399,0 -24.890223,11.14368 -24.890223,24.89008"
       style="fill:url(#linearGradient71);stroke:none;stroke-width:0.153644" />
    <path
       id="path82"
       d="m 81.799858,146.34098 c 0,13.14935 10.659543,23.80889 23.808722,23.80889 v 0 c 13.14935,0 23.80872,-10.65954 23.80872,-23.80889 v 0 c 0,-13.14918 -10.65937,-23.80872 -23.80872,-23.80872 v 0 c -13.149179,0 -23.808722,10.65954 -23.808722,23.80872"
       style="fill:url(#radialGradient82);stroke:none;stroke-width:0.153644" />
    <path
       id="path83"
       d="m 0,0 c -66.364,0 -120.163,53.799 -120.163,120.163 0,66.365 53.799,120.164 120.163,120.164 66.364,0 120.164,-53.799 120.164,-120.164 C 120.164,53.799 66.364,0 0,0 m 0,255.263 c -74.613,0 -135.099,-60.486 -135.099,-135.1 0,-74.613 60.486,-135.099 135.099,-135.099 74.613,0 135.099,60.486 135.099,135.099 0,74.614 -60.486,135.1 -135.099,135.1"
       style="fill:#8e27ff;fill-opacity:1;fill-rule:nonzero;stroke:none"
       transform="matrix(0.15364433,0,0,-0.15364433,105.60862,164.80352)"
       clip-path="url(#clipPath84)" />
    <path
       id="path87"
       d="m 0,0 c 0,-59.624 -48.339,-107.946 -107.963,-107.946 -59.607,0 -107.946,48.322 -107.946,107.946 0,59.624 48.339,107.946 107.946,107.946 0.682,0 1.364,0 2.047,-0.018 C -47.237,106.826 0,58.942 0,0"
       style="fill:#808285;fill-opacity:1;fill-rule:nonzero;stroke:none"
       transform="matrix(0.15364433,0,0,-0.15364433,122.19555,146.02702)"
       clip-path="url(#clipPath88)" />
    <path
       id="path99"
       d="m 0,0 c 0,-46.238 -37.483,-83.721 -83.722,-83.721 -46.238,0 -83.721,37.483 -83.721,83.721 0,46.238 37.483,83.722 83.721,83.722 C -37.483,83.722 0,46.238 0,0"
       style="fill:#000036;fill-opacity:1;fill-rule:nonzero;stroke:none"
       transform="matrix(0.15364433,0,0,-0.15364433,118.47196,145.56469)"
       clip-path="url(#clipPath100)" />
    <path
       id="path110"
       d="m 92.211261,145.78971 c 0,7.51213 5.917149,13.60198 13.216639,13.60198 v 0 c 7.29934,0 13.21663,-6.08985 13.21663,-13.60198 v 0 c 0,-7.51213 -5.91729,-13.60199 -13.21663,-13.60199 v 0 c -7.29949,0 -13.216639,6.08986 -13.216639,13.60199"
       style="fill:url(#radialGradient110);stroke:none;stroke-width:0.153644" />
    <path
       id="path111"
       d="m 0,0 c 0,-33.232 -26.94,-60.172 -60.172,-60.172 -33.232,0 -60.172,26.94 -60.172,60.172 0,33.232 26.94,60.172 60.172,60.172 C -26.94,60.172 0,33.232 0,0"
       style="fill:#bcbec0;fill-opacity:1;fill-rule:nonzero;stroke:none"
       transform="matrix(0.15364433,0,0,-0.15364433,114.67304,145.78965)"
       clip-path="url(#clipPath112)" />
    <path
       id="path131"
       d="m 0,0 -13.454,7.278 c -43.038,-8.258 -82.612,-26.243 -116.326,-51.611 0.193,-4.234 0.507,-8.905 0.997,-10.2 0.123,-0.332 0.945,-0.945 2.38,-1.802 29.427,23.479 65.817,43.476 110.552,54.865 l 13.594,-9.045 c 0,0 18.02,0.175 38.472,-0.612 V 1.085 C 16.97,1.242 0,0 0,0"
       style="fill:#ff71ff;fill-opacity:1;fill-rule:nonzero;stroke:none"
       transform="matrix(0.15364433,0,0,-0.15364433,99.43583,110.35392)"
       clip-path="url(#clipPath132)" />
    <path
       id="path133"
       d="m 0,0 c -3.542,-0.508 -9.661,-1.469 -16.407,-2.883 -0.178,-0.037 -0.35,-0.071 -0.528,-0.109 l 10e-4,-0.002 c -0.276,-0.058 -0.546,-0.113 -0.824,-0.173 -29.164,-36.775 -49.389,-80.968 -57.332,-129.307 0,0 17.051,64.347 68.921,125.408 l 9.353,1.31 c 0,0 37.16,-12.054 75.177,-31.561 C 76.927,-36.338 30.634,-5.284 3.184,0.42 3.184,0.42 2.012,0.28 0,0"
       style="fill:#ff71ff;fill-opacity:1;fill-rule:nonzero;stroke:none"
       transform="matrix(0.15364433,0,0,-0.15364433,74.248826,124.45275)"
       clip-path="url(#clipPath134)" />
    <path
       id="path135"
       d="m 0,0 c 6.541,-4.768 3.598,-19.944 -6.572,-33.897 -10.171,-13.953 -23.718,-21.399 -30.259,-16.631 -6.541,4.768 -3.598,19.944 6.573,33.897 C -20.088,-2.679 -6.541,4.768 0,0"
       style="fill:#ff71ff;fill-opacity:1;fill-rule:nonzero;stroke:none"
       transform="matrix(0.15364433,0,0,-0.15364433,74.20304,127.61029)"
       clip-path="url(#clipPath136)" />
    <path
       id="path137"
       d="m 0,0 c -1.452,3.254 -2.729,6.421 -3.831,9.465 -34.799,-28.64 -64.925,-83.4 -66.605,-86.182 -1.942,-3.236 5.948,-30.756 5.948,-30.756 l -11.879,-28.22 10.182,2.204 12.212,29.76 -3.761,21.939 C -46.695,-54.095 -15.151,-16.918 0,0 m 92.865,-206.217 c -8.625,-8.642 -28.587,-19.437 -28.587,-19.437 -45.331,17.81 -86.305,45.33 -86.305,45.33 l -9.499,10.41 -0.07,-0.158 c 0,0 1.172,-8.87 3.359,-16.288 28.709,-23.583 62.125,-41.621 98.62,-52.503 13.122,5.301 28.028,16.883 28.028,16.883 12.561,-3.027 40.536,-5.231 40.536,-5.231 5.109,3.342 8.433,9.115 8.433,9.115 v 3.447 c -26.453,1.382 -54.515,8.432 -54.515,8.432"
       style="fill:#808285;fill-opacity:1;fill-rule:nonzero;stroke:none"
       transform="matrix(0.15364433,0,0,-0.15364433,82.355978,156.91093)"
       clip-path="url(#clipPath138)" />
    <path
       id="path139"
       d="M 0,0 C 0.535,0.74 0.824,1.16 0.824,1.16 0.824,1.16 0.519,0.733 0,0"
       style="fill:#00aeff;fill-opacity:1;fill-rule:nonzero;stroke:none"
       transform="matrix(0.15364433,0,0,-0.15364433,95.941241,180.53275)"
       clip-path="url(#clipPath140)" />
    <path
       id="path141"
       d="m 0,0 c 5.309,1.989 10.528,-3.151 8.646,-8.499 -9.02,-25.633 4.222,-33.84 -2.901,-60.561 -8.206,-30.785 -27.25,-30.104 -42.223,-43.17 -14.973,-13.066 -30.023,22.912 -9.236,40.161 20.786,17.249 4.239,32.995 14.189,50.552 C -25.752,-11.331 -11.201,-4.196 0,0"
       style="fill:#ff00ff;fill-opacity:1;fill-rule:nonzero;stroke:none"
       transform="matrix(0.15364433,0,0,-0.15364433,102.59764,71.122247)"
       clip-path="url(#clipPath142)" />
    <path
       id="path143"
       d="M 0,0 C 17.32,11.57 27.207,27.673 20.544,40.999 13.881,54.325 -5.553,37.202 -6.663,20.5 -7.773,3.797 -8.477,-5.662 0,0"
       style="fill:#ff00ff;fill-opacity:1;fill-rule:nonzero;stroke:none"
       transform="matrix(0.15364433,0,0,-0.15364433,58.087808,124.38823)"
       clip-path="url(#clipPath144)" />
    <path
       id="path145"
       d="m 0,0 c -38.162,0 -69.099,30.937 -69.099,69.099 0,38.162 30.937,69.098 69.099,69.098 38.162,0 69.099,-30.936 69.099,-69.098 C 69.099,30.937 38.162,0 0,0 m 0,145.361 c -42.119,0 -76.263,-34.144 -76.263,-76.262 0,-42.119 34.144,-76.263 76.263,-76.263 42.119,0 76.263,34.144 76.263,76.263 0,42.118 -34.144,76.262 -76.263,76.262"
       style="fill:#ff00ff;fill-opacity:1;fill-rule:nonzero;stroke:none"
       transform="matrix(0.15364433,0,0,-0.15364433,105.42791,156.40627)"
       clip-path="url(#clipPath146)" />
  </g>
</svg>
