<?xml version="1.0" encoding="UTF-8" standalone="no"?>
<!-- Created with Inkscape (http://www.inkscape.org/) -->

<svg
   width="210mm"
   height="297mm"
   viewBox="0 0 210 297"
   version="1.1"
   id="svg1"
   inkscape:version="1.4 (86a8ad7, 2024-10-11)"
   sodipodi:docname="PurpleBall_Outline.svg"
   xmlns:inkscape="http://www.inkscape.org/namespaces/inkscape"
   xmlns:sodipodi="http://sodipodi.sourceforge.net/DTD/sodipodi-0.dtd"
   xmlns="http://www.w3.org/2000/svg"
   xmlns:svg="http://www.w3.org/2000/svg">
  <sodipodi:namedview
     id="namedview1"
     pagecolor="#ffffff"
     bordercolor="#000000"
     borderopacity="0.25"
     inkscape:showpageshadow="2"
     inkscape:pageopacity="0.0"
     inkscape:pagecheckerboard="0"
     inkscape:deskcolor="#d1d1d1"
     inkscape:document-units="mm"
     inkscape:zoom="1"
     inkscape:cx="77"
     inkscape:cy="303.5"
     inkscape:window-width="2197"
     inkscape:window-height="1240"
     inkscape:window-x="321"
     inkscape:window-y="387"
     inkscape:window-maximized="0"
     inkscape:current-layer="layer2" />
  <defs
     id="defs1">
    <inkscape:path-effect
       effect="offset"
       id="path-effect1"
       is_visible="true"
       lpeversion="1.3"
       linejoin_type="miter"
       unit="mm"
       offset="3"
       miter_limit="4"
       attempt_force_join="false"
       update_on_knot_move="true" />
    <clipPath
       clipPathUnits="userSpaceOnUse"
       id="clipPath9">
      <path
         d="M -19.525391,-19.525391 V 1436.8477 H 1436.8477 V -19.525391 Z"
         transform="translate(-583.37921,-314.40421)"
         id="path9" />
    </clipPath>
    <clipPath
       clipPathUnits="userSpaceOnUse"
       id="clipPath11">
      <path
         d="M 0,1417.323 H 1417.323 V 0 H 0 Z"
         transform="translate(-749.76132,-911.53782)"
         id="path11" />
    </clipPath>
    <clipPath
       clipPathUnits="userSpaceOnUse"
       id="clipPath13">
      <path
         d="M 0,1417.323 H 1417.323 V 0 H 0 Z"
         transform="translate(-945.08342,-797.09412)"
         id="path13" />
    </clipPath>
    <clipPath
       clipPathUnits="userSpaceOnUse"
       id="clipPath15">
      <path
         d="M 0,1417.323 H 1417.323 V 0 H 0 Z"
         transform="translate(-896.05075,-398.69851)"
         id="path15" />
    </clipPath>
    <clipPath
       clipPathUnits="userSpaceOnUse"
       id="clipPath17">
      <path
         d="M 0,1417.323 H 1417.323 V 0 H 0 Z"
         transform="translate(-914.0371,-780.44332)"
         id="path17" />
    </clipPath>
    <clipPath
       clipPathUnits="userSpaceOnUse"
       id="clipPath19">
      <path
         d="M 0,1417.323 H 1417.323 V 0 H 0 Z"
         transform="translate(-867.937,-631.29609)"
         id="path19" />
    </clipPath>
    <radialGradient
       fx="0"
       fy="0"
       cx="0"
       cy="0"
       r="1"
       gradientUnits="userSpaceOnUse"
       gradientTransform="matrix(0,59.682697,-59.682697,0,105.5321,111.98632)"
       spreadMethod="pad"
       id="radialGradient21">
      <stop
         style="stop-opacity:1;stop-color:#ed04ff icc-color(sRGB IEC61966-2.1, 0.92939758, 0.01568604, 1);"
         offset="0"
         id="stop19" />
      <stop
         style="stop-opacity:1;stop-color:#b01cff icc-color(sRGB IEC61966-2.1, 0.69018555, 0.10980225, 1);"
         offset="0.217197"
         id="stop20" />
      <stop
         style="stop-opacity:1;stop-color:#501fff icc-color(sRGB IEC61966-2.1, 0.3137207, 0.12156677, 1);"
         offset="1"
         id="stop21" />
    </radialGradient>
    <linearGradient
       x1="0"
       y1="0"
       x2="1"
       y2="0"
       gradientUnits="userSpaceOnUse"
       gradientTransform="matrix(-42.311234,0,0,-42.311234,148.68037,145.70177)"
       spreadMethod="pad"
       id="linearGradient27">
      <stop
         style="stop-opacity:1;stop-color:#400036 icc-color(sRGB IEC61966-2.1, 0.25097656, 0, 0.21176147);"
         offset="0"
         id="stop22" />
      <stop
         style="stop-opacity:1;stop-color:#400036 icc-color(sRGB IEC61966-2.1, 0.25097656, 0, 0.21176147);"
         offset="0.0584563"
         id="stop23" />
      <stop
         style="stop-opacity:1;stop-color:#400036 icc-color(sRGB IEC61966-2.1, 0.25097656, 0, 0.21176147);"
         offset="0.09327901"
         id="stop24" />
      <stop
         style="stop-opacity:1;stop-color:#ff00ff icc-color(sRGB IEC61966-2.1, 1, 0, 1);"
         offset="0.690786"
         id="stop25" />
      <stop
         style="stop-opacity:1;stop-color:#ff00ff icc-color(sRGB IEC61966-2.1, 1, 0, 1);"
         offset="0.86530471"
         id="stop26" />
      <stop
         style="stop-opacity:1;stop-color:#ff00ff icc-color(sRGB IEC61966-2.1, 1, 0, 1);"
         offset="1"
         id="stop27" />
    </linearGradient>
    <clipPath
       clipPathUnits="userSpaceOnUse"
       id="clipPath29">
      <path
         d="M 0,1417.323 H 1417.323 V 0 H 0 Z"
         transform="translate(-984.5797,-627.83559)"
         id="path29" />
    </clipPath>
    <clipPath
       clipPathUnits="userSpaceOnUse"
       id="clipPath31">
      <path
         d="M 0,1417.323 H 1417.323 V 0 H 0 Z"
         transform="translate(-717.07532,-470.30469)"
         id="path31" />
    </clipPath>
    <linearGradient
       x1="0"
       y1="0"
       x2="1"
       y2="0"
       gradientUnits="userSpaceOnUse"
       gradientTransform="matrix(0,-63.137612,-63.137612,0,138.70728,195.76946)"
       spreadMethod="pad"
       id="linearGradient33">
      <stop
         style="stop-opacity:1;stop-color:#ffffff icc-color(sRGB IEC61966-2.1, 1, 1, 1);"
         offset="0"
         id="stop31" />
      <stop
         style="stop-opacity:1;stop-color:#bcbec0 icc-color(sRGB IEC61966-2.1, 0.73724365, 0.74508667, 0.75292969);"
         offset="0.729385"
         id="stop32" />
      <stop
         style="stop-opacity:1;stop-color:#bcbec0 icc-color(sRGB IEC61966-2.1, 0.73724365, 0.74508667, 0.75292969);"
         offset="1"
         id="stop33" />
    </linearGradient>
    <linearGradient
       x1="0"
       y1="0"
       x2="1"
       y2="0"
       gradientUnits="userSpaceOnUse"
       gradientTransform="matrix(0,-63.135396,-63.135396,0,119.90437,195.76938)"
       spreadMethod="pad"
       id="linearGradient36">
      <stop
         style="stop-opacity:1;stop-color:#ffffff icc-color(sRGB IEC61966-2.1, 1, 1, 1);"
         offset="0"
         id="stop34" />
      <stop
         style="stop-opacity:1;stop-color:#bcbec0 icc-color(sRGB IEC61966-2.1, 0.73724365, 0.74508667, 0.75292969);"
         offset="0.729385"
         id="stop35" />
      <stop
         style="stop-opacity:1;stop-color:#bcbec0 icc-color(sRGB IEC61966-2.1, 0.73724365, 0.74508667, 0.75292969);"
         offset="1"
         id="stop36" />
    </linearGradient>
    <clipPath
       clipPathUnits="userSpaceOnUse"
       id="clipPath38">
      <path
         d="M 0,1417.323 H 1417.323 V 0 H 0 Z"
         transform="translate(-753.29049,-871.78622)"
         id="path38" />
    </clipPath>
    <clipPath
       clipPathUnits="userSpaceOnUse"
       id="clipPath40">
      <path
         d="M 0,1417.323 H 1417.323 V 0 H 0 Z"
         transform="translate(-917.2213,-780.02342)"
         id="path40" />
    </clipPath>
    <clipPath
       clipPathUnits="userSpaceOnUse"
       id="clipPath42">
      <path
         d="M 0,1417.323 H 1417.323 V 0 H 0 Z"
         transform="translate(-917.5192,-759.47242)"
         id="path42" />
    </clipPath>
    <clipPath
       clipPathUnits="userSpaceOnUse"
       id="clipPath44">
      <path
         d="M 0,1417.323 H 1417.323 V 0 H 0 Z"
         transform="translate(-922.18982,-486.97771)"
         id="path44" />
    </clipPath>
    <clipPath
       clipPathUnits="userSpaceOnUse"
       id="clipPath46">
      <path
         d="M 0,1417.323 H 1417.323 V 0 H 0 Z"
         transform="translate(-530.58331,-398.69851)"
         id="path46" />
    </clipPath>
    <clipPath
       clipPathUnits="userSpaceOnUse"
       id="clipPath48">
      <path
         d="M 0,1417.323 H 1417.323 V 0 H 0 Z"
         transform="translate(-512.59691,-780.44332)"
         id="path48" />
    </clipPath>
    <clipPath
       clipPathUnits="userSpaceOnUse"
       id="clipPath50">
      <path
         d="M 0,1417.323 H 1417.323 V 0 H 0 Z"
         transform="translate(-558.69701,-631.29609)"
         id="path50" />
    </clipPath>
    <radialGradient
       fx="0"
       fy="0"
       cx="0"
       cy="0"
       r="1"
       gradientUnits="userSpaceOnUse"
       gradientTransform="matrix(0,59.682697,-59.682697,0,105.5321,111.98632)"
       spreadMethod="pad"
       id="radialGradient52">
      <stop
         style="stop-opacity:1;stop-color:#ed04ff icc-color(sRGB IEC61966-2.1, 0.92939758, 0.01568604, 1);"
         offset="0"
         id="stop50" />
      <stop
         style="stop-opacity:1;stop-color:#b01cff icc-color(sRGB IEC61966-2.1, 0.69018555, 0.10980225, 1);"
         offset="0.217197"
         id="stop51" />
      <stop
         style="stop-opacity:1;stop-color:#501fff icc-color(sRGB IEC61966-2.1, 0.3137207, 0.12156677, 1);"
         offset="1"
         id="stop52" />
    </radialGradient>
    <linearGradient
       x1="0"
       y1="0"
       x2="1"
       y2="0"
       gradientUnits="userSpaceOnUse"
       gradientTransform="matrix(43.401247,0,0,43.401247,62.176802,145.70177)"
       spreadMethod="pad"
       id="linearGradient58">
      <stop
         style="stop-opacity:1;stop-color:#400036 icc-color(sRGB IEC61966-2.1, 0.25097656, 0, 0.21176147);"
         offset="0"
         id="stop53" />
      <stop
         style="stop-opacity:1;stop-color:#400036 icc-color(sRGB IEC61966-2.1, 0.25097656, 0, 0.21176147);"
         offset="0.0584563"
         id="stop54" />
      <stop
         style="stop-opacity:1;stop-color:#400036 icc-color(sRGB IEC61966-2.1, 0.25097656, 0, 0.21176147);"
         offset="0.09327901"
         id="stop55" />
      <stop
         style="stop-opacity:1;stop-color:#ff00ff icc-color(sRGB IEC61966-2.1, 1, 0, 1);"
         offset="0.690786"
         id="stop56" />
      <stop
         style="stop-opacity:1;stop-color:#ff00ff icc-color(sRGB IEC61966-2.1, 1, 0, 1);"
         offset="0.86530471"
         id="stop57" />
      <stop
         style="stop-opacity:1;stop-color:#ff00ff icc-color(sRGB IEC61966-2.1, 1, 0, 1);"
         offset="1"
         id="stop58" />
    </linearGradient>
    <clipPath
       clipPathUnits="userSpaceOnUse"
       id="clipPath60">
      <path
         d="M 0,1417.323 H 1417.323 V 0 H 0 Z"
         transform="translate(-442.05441,-627.83559)"
         id="path60" />
    </clipPath>
    <clipPath
       clipPathUnits="userSpaceOnUse"
       id="clipPath62">
      <path
         d="M 0,1417.323 H 1417.323 V 0 H 0 Z"
         transform="translate(-709.55872,-470.30469)"
         id="path62" />
    </clipPath>
    <linearGradient
       x1="0"
       y1="0"
       x2="1"
       y2="0"
       gradientUnits="userSpaceOnUse"
       gradientTransform="matrix(0,-63.137612,63.137612,0,72.447833,195.76946)"
       spreadMethod="pad"
       id="linearGradient64">
      <stop
         style="stop-opacity:1;stop-color:#ffffff icc-color(sRGB IEC61966-2.1, 1, 1, 1);"
         offset="0"
         id="stop62" />
      <stop
         style="stop-opacity:1;stop-color:#bcbec0 icc-color(sRGB IEC61966-2.1, 0.73724365, 0.74508667, 0.75292969);"
         offset="0.729385"
         id="stop63" />
      <stop
         style="stop-opacity:1;stop-color:#bcbec0 icc-color(sRGB IEC61966-2.1, 0.73724365, 0.74508667, 0.75292969);"
         offset="1"
         id="stop64" />
    </linearGradient>
    <linearGradient
       x1="0"
       y1="0"
       x2="1"
       y2="0"
       gradientUnits="userSpaceOnUse"
       gradientTransform="matrix(0,-63.135396,63.135396,0,91.250741,195.76938)"
       spreadMethod="pad"
       id="linearGradient67">
      <stop
         style="stop-opacity:1;stop-color:#ffffff icc-color(sRGB IEC61966-2.1, 1, 1, 1);"
         offset="0"
         id="stop65" />
      <stop
         style="stop-opacity:1;stop-color:#bcbec0 icc-color(sRGB IEC61966-2.1, 0.73724365, 0.74508667, 0.75292969);"
         offset="0.729385"
         id="stop66" />
      <stop
         style="stop-opacity:1;stop-color:#bcbec0 icc-color(sRGB IEC61966-2.1, 0.73724365, 0.74508667, 0.75292969);"
         offset="1"
         id="stop67" />
    </linearGradient>
    <linearGradient
       x1="0"
       y1="0"
       x2="1"
       y2="0"
       gradientUnits="userSpaceOnUse"
       gradientTransform="matrix(0,41.748586,-41.748586,0,105.60862,105.67945)"
       spreadMethod="pad"
       id="linearGradient71">
      <stop
         style="stop-opacity:1;stop-color:#ed00b0 icc-color(sRGB IEC61966-2.1, 0.92939758, 0, 0.69018555);"
         offset="0"
         id="stop68" />
      <stop
         style="stop-opacity:1;stop-color:#ed1cbf icc-color(sRGB IEC61966-2.1, 0.92939758, 0.10980225, 0.74900818);"
         offset="0.218097"
         id="stop69" />
      <stop
         style="stop-opacity:1;stop-color:#000036 icc-color(sRGB IEC61966-2.1, 0, 0, 0.21176147);"
         offset="1"
         id="stop70" />
      <stop
         style="stop-opacity:1;stop-color:#000036 icc-color(sRGB IEC61966-2.1, 0, 0, 0.21176147);"
         offset="1"
         id="stop71" />
    </linearGradient>
    <radialGradient
       fx="0"
       fy="0"
       cx="0"
       cy="0"
       r="1"
       gradientUnits="userSpaceOnUse"
       gradientTransform="matrix(27.463046,5.9741045,-5.9741045,27.463046,105.88794,146.39243)"
       spreadMethod="pad"
       id="radialGradient82">
      <stop
         style="stop-opacity:1;stop-color:#000036 icc-color(sRGB IEC61966-2.1, 0, 0, 0.21176147);"
         offset="0"
         id="stop72" />
      <stop
         style="stop-opacity:1;stop-color:#000036 icc-color(sRGB IEC61966-2.1, 0, 0, 0.21176147);"
         offset="0.0584563"
         id="stop73" />
      <stop
         style="stop-opacity:1;stop-color:#000036 icc-color(sRGB IEC61966-2.1, 0, 0, 0.21176147);"
         offset="0.26174185"
         id="stop74" />
      <stop
         style="stop-opacity:1;stop-color:#ff00ff icc-color(sRGB IEC61966-2.1, 1, 0, 1);"
         offset="0.361635"
         id="stop75" />
      <stop
         style="stop-opacity:1;stop-color:#000036 icc-color(sRGB IEC61966-2.1, 0, 0, 0.21176147);"
         offset="0.45750936"
         id="stop76" />
      <stop
         style="stop-opacity:1;stop-color:#000036 icc-color(sRGB IEC61966-2.1, 0, 0, 0.21176147);"
         offset="0.53058"
         id="stop77" />
      <stop
         style="stop-opacity:1;stop-color:#000036 icc-color(sRGB IEC61966-2.1, 0, 0, 0.21176147);"
         offset="0.59619385"
         id="stop78" />
      <stop
         style="stop-opacity:1;stop-color:#ff00ff icc-color(sRGB IEC61966-2.1, 1, 0, 1);"
         offset="0.690786"
         id="stop79" />
      <stop
         style="stop-opacity:1;stop-color:#000036 icc-color(sRGB IEC61966-2.1, 0, 0, 0.21176147);"
         offset="0.77493611"
         id="stop80" />
      <stop
         style="stop-opacity:1;stop-color:#000036 icc-color(sRGB IEC61966-2.1, 0, 0, 0.21176147);"
         offset="0.839884"
         id="stop81" />
      <stop
         style="stop-opacity:1;stop-color:#000036 icc-color(sRGB IEC61966-2.1, 0, 0, 0.21176147);"
         offset="1"
         id="stop82" />
    </radialGradient>
    <clipPath
       clipPathUnits="userSpaceOnUse"
       id="clipPath84">
      <path
         d="M 0,1417.323 H 1417.323 V 0 H 0 Z"
         transform="translate(-713.51922,-517.39891)"
         id="path84" />
    </clipPath>
    <clipPath
       clipPathUnits="userSpaceOnUse"
       id="clipPath88">
      <path
         d="M 0,1417.323 H 1417.323 V 0 H 0 Z"
         transform="translate(-821.47585,-639.60639)"
         id="path88" />
    </clipPath>
    <clipPath
       clipPathUnits="userSpaceOnUse"
       id="clipPath100">
      <path
         d="M 0,1417.323 H 1417.323 V 0 H 0 Z"
         transform="translate(-797.24079,-642.61554)"
         id="path100" />
    </clipPath>
    <radialGradient
       fx="0"
       fy="0"
       cx="0"
       cy="0"
       r="1"
       gradientUnits="userSpaceOnUse"
       gradientTransform="matrix(15.471132,3.3654734,-3.3654734,15.471132,105.58297,145.81898)"
       spreadMethod="pad"
       id="radialGradient110">
      <stop
         style="stop-opacity:1;stop-color:#000036 icc-color(sRGB IEC61966-2.1, 0, 0, 0.21176147);"
         offset="0"
         id="stop100" />
      <stop
         style="stop-opacity:1;stop-color:#000036 icc-color(sRGB IEC61966-2.1, 0, 0, 0.21176147);"
         offset="0.0584563"
         id="stop101" />
      <stop
         style="stop-opacity:1;stop-color:#000036 icc-color(sRGB IEC61966-2.1, 0, 0, 0.21176147);"
         offset="0.26174185"
         id="stop102" />
      <stop
         style="stop-opacity:1;stop-color:#ff00ff icc-color(sRGB IEC61966-2.1, 1, 0, 1);"
         offset="0.361635"
         id="stop103" />
      <stop
         style="stop-opacity:1;stop-color:#000036 icc-color(sRGB IEC61966-2.1, 0, 0, 0.21176147);"
         offset="0.45750936"
         id="stop104" />
      <stop
         style="stop-opacity:1;stop-color:#000036 icc-color(sRGB IEC61966-2.1, 0, 0, 0.21176147);"
         offset="0.53058"
         id="stop105" />
      <stop
         style="stop-opacity:1;stop-color:#000036 icc-color(sRGB IEC61966-2.1, 0, 0, 0.21176147);"
         offset="0.59619385"
         id="stop106" />
      <stop
         style="stop-opacity:1;stop-color:#ff00ff icc-color(sRGB IEC61966-2.1, 1, 0, 1);"
         offset="0.690786"
         id="stop107" />
      <stop
         style="stop-opacity:1;stop-color:#000036 icc-color(sRGB IEC61966-2.1, 0, 0, 0.21176147);"
         offset="0.77493611"
         id="stop108" />
      <stop
         style="stop-opacity:1;stop-color:#000036 icc-color(sRGB IEC61966-2.1, 0, 0, 0.21176147);"
         offset="0.839884"
         id="stop109" />
      <stop
         style="stop-opacity:1;stop-color:#000036 icc-color(sRGB IEC61966-2.1, 0, 0, 0.21176147);"
         offset="1"
         id="stop110" />
    </radialGradient>
    <clipPath
       clipPathUnits="userSpaceOnUse"
       id="clipPath112">
      <path
         d="M 0,1417.323 H 1417.323 V 0 H 0 Z"
         transform="translate(-772.51532,-641.15139)"
         id="path112" />
    </clipPath>
    <clipPath
       clipPathUnits="userSpaceOnUse"
       id="clipPath132">
      <path
         d="M 0,1417.323 H 1417.323 V 0 H 0 Z"
         transform="translate(-673.34342,-871.78622)"
         id="path132" />
    </clipPath>
    <clipPath
       clipPathUnits="userSpaceOnUse"
       id="clipPath134">
      <path
         d="M 0,1417.323 H 1417.323 V 0 H 0 Z"
         transform="translate(-509.41282,-780.02342)"
         id="path134" />
    </clipPath>
    <clipPath
       clipPathUnits="userSpaceOnUse"
       id="clipPath136">
      <path
         d="M 0,1417.323 H 1417.323 V 0 H 0 Z"
         transform="translate(-509.11481,-759.47242)"
         id="path136" />
    </clipPath>
    <clipPath
       clipPathUnits="userSpaceOnUse"
       id="clipPath138">
      <path
         d="M 0,1417.323 H 1417.323 V 0 H 0 Z"
         transform="translate(-562.17851,-568.76814)"
         id="path138" />
    </clipPath>
    <clipPath
       clipPathUnits="userSpaceOnUse"
       id="clipPath140">
      <path
         d="M 0,1417.323 H 1417.323 V 0 H 0 Z"
         transform="translate(-650.59871,-415.02459)"
         id="path140" />
    </clipPath>
    <clipPath
       clipPathUnits="userSpaceOnUse"
       id="clipPath142">
      <path
         d="M 0,1417.323 H 1417.323 V 0 H 0 Z"
         transform="translate(-693.92212,-1127.127)"
         id="path142" />
    </clipPath>
    <clipPath
       clipPathUnits="userSpaceOnUse"
       id="clipPath144">
      <path
         d="M 0,1417.323 H 1417.323 V 0 H 0 Z"
         transform="translate(-404.22821,-780.44332)"
         id="path144" />
    </clipPath>
    <clipPath
       clipPathUnits="userSpaceOnUse"
       id="clipPath146">
      <path
         d="M 0,1417.323 H 1417.323 V 0 H 0 Z"
         transform="translate(-712.34312,-572.05269)"
         id="path146" />
    </clipPath>
  </defs>
  <g
     inkscape:label="Layer 1"
     inkscape:groupmode="layer"
     id="layer1"
     style="display:inline" />
  <g
     inkscape:groupmode="layer"
     id="layer2"
     inkscape:label="Board-outline"
     style="fill:none;stroke:#000000;stroke-opacity:1;stroke-width:0.1;stroke-dasharray:none">
    <path
       id="path8"
       clip-path="url(#clipPath9)"
       style="display:inline;fill:none;fill-opacity:1;fill-rule:nonzero;stroke:#000000;stroke-opacity:1;stroke-width:0.65085383;stroke-dasharray:none"
       d="m 72.716797,-49.246094 -9.890625,2.109375 c -0.0084,0.0017 -0.01698,0.0041 -0.02539,0.0059 l -0.101562,0.02148 c -10.055741,2.076797 -20.289961,4.48971 -30.480469,7.517578 -46.265981,13.611136 -89.646527,37.0838731 -126.308594,68.460938 -1.308051,1.106632 -2.618584,2.215111 -3.917968,3.314453 l -6.687498,5.658203 -0.22071,8.755859 c -0.0413,1.641307 -0.059,3.406567 -0.0996,5.089844 -0.77833,-0.08955 -1.55316,-0.177976 -2.33203,-0.267578 L -117.52344,50.25 l -6.74609,7.705078 c -4.15561,4.745884 -8.56373,10.01658 -12.84766,15.310547 -3.15955,1.608674 -6.33405,3.197425 -9.86328,4.966797 l -0.125,0.0625 -0.12305,0.06445 c -9.91556,5.149418 -20.91412,12.727962 -28.79296,24.025395 -6.43024,9.11734 -9.64388,19.45113 -11.21094,28.51171 -2.01068,11.36946 -2.53907,19.83391 -4.48242,24.96875 l -0.0332,0.0918 -0.0332,0.0898 c -1.31756,3.5883 -3.8769,7.2869 -7.32812,10.4043 l -0.0449,0.041 -0.0449,0.041 c -2.40879,2.20317 -6.4104,4.92883 -11.35351,8.79297 -16.00863,12.25504 -32.61267,26.10815 -46.72071,42.75781 l -0.01,0.0117 -0.01,0.0117 c -10.60969,12.55991 -20.33697,27.60528 -25.88672,44.7793 -4.92733,15.05458 -6.24116,31.26901 -3.86523,46.88672 l 0.0176,0.11523 0.0176,0.11328 c 1.24143,7.55299 2.76428,14.95502 4.30079,22.06641 l 0.0195,0.0879 0.0195,0.0879 c 2.14012,9.48239 4.70432,20.14762 8.6914,30.55664 l 0.0605,0.15625 0.0625,0.1543 c 1.64879,4.09341 4.58501,11.36431 10.24024,17.48242 5.46474,5.94506 15.37544,11.38718 26.86718,8.38672 10.87622,-2.789 16.68597,-11.59018 19.02149,-15.88672 l 0.0703,-0.12695 0.0684,-0.12891 c 2.04915,-3.90771 4.24637,-9.74646 4.98828,-11.39453 l 0.0566,-0.12695 0.0547,-0.12696 c 0.10504,-0.24244 0.21712,-0.45199 0.32226,-0.69336 0.0653,1.17625 0.22936,2.29848 0.28125,3.48243 0.0493,1.17336 0.0958,2.70986 0.13477,4.15429 v 0.043 l 0.002,0.0449 c 0.29996,9.52235 -0.10889,24.62238 0.59961,36.19922 0,0 0,0.002 0,0.002 0.68569,11.36731 2.86994,23.92835 8.50977,35.8418 1.09362,2.34265 2.41572,4.48604 3.6914,6.66992 -4.00629,3.22431 -6.91961,7.54121 -8.44921,12.07422 -2.39934,7.02021 -2.03552,14.49429 -1.98829,17.25 l 0.004,0.22071 0.01,0.2207 c 0.17179,4.32248 0.42056,8.80268 0.82031,13.31836 l 0.0352,0.40625 0.0547,0.40625 c 1.57007,11.98752 7.4369,22.81642 15.08203,30.81445 l 0.084,0.0859 0.084,0.0859 c 4.7973,4.8969 12.62898,11.11503 23.30469,12.64843 7.36479,1.08542 15.06114,-0.70148 21.30469,-4.92968 0.72456,1.92665 1.42627,3.86472 2.27344,5.73828 5.10847,11.49734 12.62873,21.75288 21.60351,30.125 0.001,9.8e-4 0.003,9.7e-4 0.004,0.002 12.03542,11.25597 26.045303,19.25825 39.357419,25.44922 l 0.07617,0.0352 0.07813,0.0352 c 7.759507,3.52741 15.22858,6.65449 22.189453,9.86524 l 0.0332,0.0156 0.0332,0.0156 c 12.746281,5.82077 25.179441,11.79174 36.775391,18.42187 6.829347,3.9251 13.108774,7.9671 18.5507809,12.37305 l -0.3632813,-0.30274 c 0.4176501,0.35526 1.263601,1.04631 1.4003907,1.15821 4.665574,3.86087 9.0714193,8.71006 13.2753906,14.24414 l 0.058594,0.0781 0.060547,0.0762 c 4.0568605,5.23153 10.5068075,14.43632 16.6328125,21.125 l 0.06445,0.0703 0.06445,0.0703 c 4.5482,4.86977 11.156314,11.34908 20.109375,15.49414 0.421042,0.19507 0.977811,0.33418 1.427735,0.52148 -1.828889,1.75648 -3.434656,3.59442 -4.716797,5.42188 l -0.0059,0.008 -0.0039,0.008 c -6.903757,9.85986 -9.158811,21.52733 -8.632812,31.76954 0.623836,12.32425 5.785584,24.76477 14.957031,33.83203 l 0.04883,0.0488 0.04883,0.0469 c 0.887794,0.8655 5.120074,4.68502 5.066406,4.61914 l 0.230469,0.2832 0.240234,0.27149 c 0.38322,0.43617 0.608068,1.09483 0.623047,1.26758 l 0.0059,0.0644 0.0059,0.0664 c 0.126443,1.35169 -0.691284,15.13628 -0.167969,20.61132 0.934403,10.60037 5.427401,21.1233 12.876953,29.125 7.687077,8.33542 17.379371,13.93921 25.273438,17.75391 l 0.113281,0.0547 0.115235,0.0547 c 3.750645,1.75309 8.133734,3.70254 12.869139,5.30079 l 0.42188,0.14257 0.42968,0.12305 c 12.15788,3.49375 24.96344,-1.2782 32.08203,-11.30859 6.03876,-8.33985 7.10271,-19.2755 3.39063,-28.41992 l 0.33008,0.875 c -1.45566,-4.14522 -2.04069,-8.24351 -1.76172,-11.78321 l 0.008,-0.10351 0.008,-0.10352 c 0.11114,-1.63241 0.38374,-3.73242 0.72461,-6.02148 0.81626,-5.15935 1.49384,-11.71382 1.51953,-18.59375 2.6063,1.96584 5.36042,3.85142 8.42579,5.42382 l 0.12109,0.0625 0.12109,0.0606 c 4.47339,2.21654 13.93752,5.94702 24.27149,2.63867 10.77956,-3.41187 17.09437,-12.98029 18.12695,-22.48828 0.94352,-7.9388 -0.84635,-16.07782 -1.46484,-19.47461 l -0.0254,-0.14843 -0.0293,-0.14844 c -1.62978,-8.22657 -2.62313,-14.89031 -2.15039,-19.88281 l 0.01,-0.10743 0.01,-0.10937 c 0.36726,-4.40539 2.06978,-8.98713 4.76563,-12.73047 l 0.0273,-0.0352 0.0254,-0.0371 c 3.95703,-5.54756 10.34549,-10.99043 18.17773,-16.82031 0.003,-0.002 0.005,-0.004 0.008,-0.006 5.92279,-4.34843 13.00474,-9.22512 20.19531,-14.42578 0.62037,1.22911 1.36935,2.44099 2.25391,3.625 7.31827,9.84645 18.54709,10.35601 23.23437,10.14258 l 0.0332,-0.002 0.0352,-0.002 c 6.57912,-0.32272 13.76192,-2.04308 17.36719,-2.75 l 0.53515,-0.10351 0.52735,-0.13477 c 6.21922,-1.58468 12.50548,-4.9558 15.56054,-6.57226 l 0.17188,-0.0899 0.16797,-0.0937 c 11.69515,-6.4875 22.50342,-14.06935 32.5332,-22.01367 l 0.041,-0.0312 0.0391,-0.0332 c 12.18555,-9.75524 24.21572,-20.93574 34.46875,-34.06055 l 0.008,-0.01 0.01,-0.0117 c 6.11381,-7.8487 11.80194,-16.8551 15.82422,-27.04688 l -0.14649,0.36133 c 0.99042,-2.36999 2.09769,-4.94345 3.08594,-7.17578 l 0.004,-0.01 c 3.94994,-8.90671 8.03593,-16.77324 12.86914,-22.95703 l 0.0215,-0.0273 0.0195,-0.0254 c 4.43324,-5.71349 10.12523,-11.48608 16.34961,-17.74024 l 0.0117,-0.0117 c 4.9636,-4.9787 10.66648,-10.54228 15.91992,-15.89453 l 0.18164,-0.1875 0.17969,-0.1914 c 9.27777,-9.9738 14.62338,-22.06253 17.97852,-32.66797 l 0.004,-0.0176 0.006,-0.0176 c 4.59575,-14.62706 6.61775,-29.66686 8.12891,-43.04883 l 0.004,-0.0293 0.002,-0.0312 c 0.0569,-0.51802 0.10027,-1.02617 0.15625,-1.54688 1.32169,2.86827 2.96831,5.76944 5.49609,8.43164 l 0.0723,0.0742 0.0723,0.0762 c 7.93479,8.17975 19.4743,9.40708 28.44922,5.71875 8.42822,-3.4362 13.61471,-9.73681 16.0918,-12.65625 l 0.14062,-0.16797 0.13867,-0.16992 c 6.44663,-7.95279 11.32704,-16.63373 15.29883,-24.33398 l 0.0312,-0.0625 0.0312,-0.0625 c 7.38395,-14.56903 13.31057,-29.90224 17.60156,-45.70313 l 0.0117,-0.043 0.0117,-0.043 c 3.32312,-12.46188 5.92269,-26.22773 5.90821,-40.48828 v -0.0273 -0.0273 c -0.0393,-10.35227 -1.603,-22.50935 -7.17774,-33.83985 -6.94695,-14.73489 -16.63264,-27.71441 -25.79297,-38.8164 -2.53283,-3.10639 -4.92909,-5.96634 -7.26953,-8.79297 4.03406,-1.74128 7.53956,-4.27625 9.89258,-7.16797 4.87409,-5.9405 7.08852,-12.67444 8.26758,-16.33594 l 0.0625,-0.19141 0.0566,-0.19335 c 3.70162,-12.36438 4.65285,-25.68813 2.45703,-38.625 -1.93993,-11.4431 -6.71952,-22.77585 -14.26758,-32.21094 -9.32817,-11.72581 -21.81797,-20.15675 -32.16797,-26.29297 l -0.0156,-0.0117 -0.0176,-0.01 c -6.20736,-3.66298 -12.82072,-7.18735 -18.4707,-10.30468 l 0.0976,0.0527 c -6.86374,-3.8378 -12.77619,-7.27251 -16.91992,-10.75586 -2.43131,-2.08281 -3.22431,-3.70442 -3.12305,-3.37304 C 428.59414,85.63513 415.2283,68.404944 397.34961,58.664062 l -0.0605,-0.03125 -0.0605,-0.0332 C 389.16683,54.280359 378.55176,50.554628 366.74805,51.5 l -0.2793,0.02148 -0.27734,0.03125 c -0.43129,0.04698 -0.86465,0.100075 -1.30079,0.148438 -0.0405,-1.691805 -0.0576,-3.454058 -0.0996,-5.107422 l -0.22071,-8.697266 -6.61523,-5.652343 C 351.07743,26.367847 343.73665,20.252286 336.00977,14.53125 296.09168,-15.223836 249.62142,-36.167072 200.86719,-46.322266 c -1.73026,-0.369158 -3.46158,-0.738171 -5.19336,-1.107421 l -8.51758,-1.816407 -7.04102,5.123047 c -3.79646,2.761801 -7.59715,5.524103 -11.39648,8.28711 -12.86552,-1.111508 -25.9346,-1.833832 -39.16797,-1.560547 -13.01064,-0.266836 -25.81663,0.468644 -38.400389,1.55664 -3.79743,-2.761624 -7.596041,-5.522774 -11.390625,-8.283203 z M 85.066406,670.55469 c 6.197726,5.75481 11.408785,12.37172 15.080074,19.51172 -3.127202,-1.77517 -6.366478,-3.56089 -7.869136,-4.54493 l -0.08398,-0.0566 -0.08594,-0.0527 c -0.878832,-0.56265 -2.318442,-1.69613 -4.341797,-3.375 l -0.3125,-0.25781 -0.324219,-0.2461 c -1.98259,-1.51042 -4.364788,-2.86395 -6.951172,-4 1.994265,-2.19057 3.616722,-4.56595 4.888672,-6.97851 z"
       transform="matrix(0.15364433,0,0,-0.15364433,85.613343,195.9925)"
       inkscape:original-d="m 66.771484,-28.013672 c -9.758073,2.01289 -19.462586,4.306602 -29.015667,7.146059 -43.6617561,12.8410199 -84.570256,34.976635 -119.149565,64.571181 -1.33425,1.128753 -2.668529,2.257473 -4.002736,3.386276 -0.138935,5.518208 -0.285999,11.036559 -0.322266,16.55664 -2.267769,2.092056 -4.4096,4.330963 -6.682967,6.407267 -1.229015,0.774206 -2.458484,1.547658 -3.693986,2.311483 -4.495197,-0.51211 -8.989737,-1.029806 -13.484377,-1.546875 -5.1865,5.923203 -10.3484,11.872472 -15.1875,18.085938 -4.44191,2.351341 -8.97109,4.530374 -13.46273,6.782246 -8.38918,4.356727 -16.3526,10.062307 -21.80748,17.903947 -4.31878,6.10304 -6.69946,13.35159 -7.96118,20.66517 -1.68679,9.52347 -1.99726,19.3885 -5.45371,28.52133 -2.56922,6.99712 -7.05661,13.1851 -12.56836,18.16372 -3.95844,3.62053 -8.44922,6.58342 -12.66272,9.8884 -15.66682,11.99338 -30.90065,24.78202 -43.69226,39.8781 -9.55232,11.30817 -17.67487,24.07097 -22.24139,38.23039 -3.98407,12.1608 -5.04892,25.24927 -3.1246,37.89841 1.16282,7.07475 2.60552,14.1018 4.11955,21.10918 2.12556,9.41787 4.42008,18.84028 7.87919,27.87093 1.64976,4.09582 3.44589,8.2798 6.48693,11.55508 1.88799,2.06143 4.80751,3.47357 7.6209,2.71944 3.16653,-0.78914 5.27129,-3.59237 6.75458,-6.32111 1.74673,-3.33099 2.93456,-6.91584 4.47663,-10.34135 4.17189,-9.62871 8.67864,-19.1759 14.49603,-27.93599 0.19053,-0.26201 0.66937,-0.98034 0.98009,-1.41235 2.30135,-3.15857 4.75485,-6.37106 8.09999,-8.48804 1.24568,-0.78685 3.00046,-1.32655 4.26953,-0.28321 2.14688,1.719 3.23477,4.36783 4.22169,6.85765 2.2956,6.33691 3.35177,13.03782 4.23062,19.6949 0.8821,7.05794 1.41791,14.15685 1.72933,21.26191 0.0585,1.38535 0.10501,3.00701 0.14488,4.48337 0.37395,11.87115 -0.15447,23.7621 0.57154,35.62275 0.59281,9.85279 2.43234,19.76317 6.68884,28.73126 5.02114,10.77962 13.06904,19.84761 22.00105,27.56794 3.55312,3.09952 7.4111,5.86797 10.60975,9.35733 1.20525,1.2566 2.53478,2.8278 3.47423,4.04931 5.18122,6.59853 8.4075,14.48408 10.67302,22.50157 0.32949,1.13184 0.64311,2.27559 0.91504,3.31855 2.53764,9.61996 4.65825,19.43096 8.78654,28.53507 3.99643,9.0164 9.91947,17.13084 17.12611,23.84889 9.97725,9.33182 21.92613,16.27103 34.256531,22.00544 7.400428,3.36417 14.903182,6.50335 22.287226,9.90929 12.972778,5.92421 25.951629,12.14105 38.380984,19.24932 7.3484846,4.22294 14.5265579,8.79313 21.1213652,14.13241 0.2254167,0.19174 0.9840381,0.81202 1.1992147,0.98862 6.1714621,5.10703 11.5388551,11.1086 16.3756491,17.47572 5.164616,6.66003 9.898072,13.6768 15.600359,19.90285 4.079358,4.36778 8.569815,8.56885 14.049313,11.10573 3.44901,1.59791 7.650542,2.27488 11.179761,0.53489 3.528422,-1.67919 5.587902,-5.37424 6.427545,-9.0565 1.015338,-4.20188 0.81088,-8.5659 0.440289,-12.83451 -0.01263,-1.07088 0.08376,-2.61979 1.364588,-2.91173 2.339303,-0.51532 4.721055,0.29401 6.919922,1.04493 6.343697,2.4607 11.970435,6.44601 17.153219,10.79497 9.149734,7.82316 16.949944,17.32387 22.396934,28.08367 2.44635,4.79249 4.25098,9.89111 5.52898,15.11332 3.93733,14.18567 10.73689,27.69333 20.47555,38.78929 4.26152,4.75537 9.04686,9.21009 14.76909,12.14536 2.94242,1.45795 6.41733,2.59948 9.67302,1.54444 2.62911,-0.81227 4.40428,-3.37198 4.67589,-6.05187 0.60117,-4.64183 -0.46655,-9.2766 -1.29432,-13.82274 -1.66097,-8.38399 -3.24845,-16.93778 -2.43597,-25.51824 0.67436,-8.08908 3.64268,-15.93762 8.38191,-22.51833 6.01738,-8.43607 14.17685,-15.01372 22.42464,-21.15238 12.31328,-9.04749 25.22778,-17.31638 36.83133,-27.2977 6.14635,-5.23562 11.87349,-10.96424 17.04109,-17.16998 3.18228,-3.55916 6.7587,-7.00621 11.23561,-8.85363 2.30612,-0.95292 5.26054,-1.31982 7.31387,0.3968 2.36179,2.00888 2.92615,5.35621 2.77642,8.30413 -0.41598,6.25342 -3.86647,11.93307 -8.2835,16.21841 -2.9557,2.88343 -6.47512,5.09278 -9.59347,7.78772 -2.73577,2.34521 -5.60475,4.6957 -7.49984,7.80973 -1.1104,1.78627 -1.38652,4.25466 -0.0645,6.00706 1.52087,2.06604 4.31318,2.40587 6.69541,2.2974 4.92963,-0.24181 9.73981,-1.46142 14.56571,-2.40768 3.98535,-1.01548 7.63723,-2.99616 11.25048,-4.90796 10.53613,-5.84457 20.44315,-12.77096 29.88071,-20.2462 11.44574,-9.16298 22.24254,-19.26205 31.28608,-30.8386 5.29272,-6.79461 9.89645,-14.18552 13.06586,-22.21627 1.04874,-2.50956 2.2011,-5.18724 3.25172,-7.56025 4.20877,-9.49142 8.91816,-18.8622 15.33754,-27.07541 5.43527,-7.00489 11.73441,-13.31193 17.94745,-19.55462 5.26246,-5.27872 10.60348,-10.48047 15.82447,-15.79965 6.60475,-7.10024 10.76027,-16.09685 13.65868,-25.25859 4.01574,-12.78104 5.85453,-26.11242 7.35346,-39.38607 0.79732,-7.2601 1.48217,-14.65802 2.21434,-21.84559 0.99213,-9.10011 1.9258,-18.25979 4.25218,-27.13646 1.15732,-4.18131 2.57071,-8.46607 5.39854,-11.84231 1.4717,-1.78265 3.5943,-2.98386 5.89307,-3.27104 3.64875,-0.64093 7.66293,-0.94029 11.048,0.85333 3.18177,1.72022 4.72273,5.28024 5.52698,8.63516 1.44467,6.22559 1.22879,12.67509 1.05931,19.01853 -0.18594,6.96699 -0.80486,13.96395 -0.0772,20.91897 0.43675,3.63783 1.30483,7.50169 3.90514,10.24027 1.79457,1.84997 4.69914,2.2234 7.03109,1.25738 3.54897,-1.43214 6.18433,-4.37761 8.60587,-7.23158 5.21047,-6.42783 9.32953,-13.6558 13.11279,-20.99053 6.79235,-13.40176 12.23578,-27.49479 16.17358,-41.9951 3.08103,-11.55406 5.26261,-23.4457 5.25043,-35.43786 -0.033,-8.68497 -1.32109,-17.54842 -5.21148,-25.39884 -5.968,-12.72729 -14.38257,-24.10451 -23.29369,-34.90447 -5.90581,-7.2475 -12.13564,-14.25342 -17.50274,-21.92248 -0.20384,-0.31157 -0.66086,-0.9582 -0.95366,-1.40733 -3.76697,-5.67313 -7.06975,-11.988 -7.56561,-18.89769 -0.34352,-4.3685 0.68516,-8.72824 2.38819,-12.7308 1.33912,-3.18034 2.80724,-6.46686 5.36779,-8.86379 0.91056,-0.88735 2.34854,-1.47444 3.52892,-0.73906 2.4237,1.40158 3.88882,3.94168 5.13867,6.35938 2.14443,4.40425 3.35908,9.26325 3.49144,14.16189 0.12988,2.07839 1.07153,4.39655 3.16705,5.15721 1.99463,0.79329 4.21838,-0.24795 5.49721,-1.83212 2.38593,-2.87997 3.67572,-6.47584 4.80816,-9.99256 2.87414,-9.60038 3.58868,-19.87422 1.91035,-29.76227 -1.43347,-8.45563 -4.90605,-16.59099 -10.27851,-23.29856 -7.23411,-9.10299 -16.94997,-15.79776 -26.8628,-21.67479 -5.91054,-3.48783 -11.97101,-6.70958 -17.97899,-10.02443 -6.85919,-3.83526 -13.93139,-7.77094 -20.01368,-12.89648 -3.97311,-3.37851 -7.63016,-7.52011 -9.17578,-12.57813 -4.40221,-14.430668 -14.39277,-27.215319 -27.68795,-34.458956 -6.00429,-3.21695 -12.82272,-5.398696 -19.70065,-4.847835 -4.51136,0.491458 -9.01762,1.032211 -13.52741,1.539214 -3.03147,-2.982195 -6.08016,-5.9478 -9.18164,-8.857422 -0.0436,-5.519363 -0.18591,-11.03713 -0.32618,-16.554687 -6.8107,-5.81909 -13.7006,-11.552959 -20.90346,-16.884578 -37.66141,-28.07877 -81.49211,-47.832465 -127.48358,-57.412193 -1.76095,-0.375707 -3.52187,-0.751574 -5.28288,-1.127057 -5.7339,4.171219 -11.46901,8.340783 -17.20312,12.511718 -14.89878,-1.511617 -29.88179,-2.390745 -44.86086,-2.058728 -14.71298,-0.323539 -29.42727,0.586156 -44.061018,2.058728 -5.734112,-4.170934 -11.469219,-8.340501 -17.203124,-12.511718 -0.500652,0.10677 -1.001303,0.213541 -1.501954,0.320312 z M -183.51367,460.96094 c -2.51167,0.0648 -4.62265,1.99892 -5.39195,4.31338 -1.18489,3.41028 -1.01677,7.09306 -0.9558,10.65045 0.16404,4.12739 0.39598,8.25535 0.76019,12.36956 0.97763,7.46424 4.66462,14.44537 9.83783,19.85738 3.29856,3.36705 7.40462,6.32445 12.17746,6.99477 3.50638,0.52675 7.22712,-0.80284 9.52548,-3.5199 2.29012,-2.66305 3.52351,-6.09208 4.158,-9.50704 1.15318,-6.59505 -0.78765,-13.36761 -4.11038,-19.05889 -4.78127,-8.16241 -11.95793,-14.65363 -19.74107,-19.89854 -1.85881,-1.21365 -3.97222,-2.32755 -6.25976,-2.20117 z M 66.892578,694.27148 c -4.339603,0.21325 -8.098611,3.06025 -10.520824,6.51268 -3.956549,5.65069 -5.477097,12.74581 -5.126759,19.56757 0.390503,7.78639 3.620418,15.44734 9.184414,20.94813 2.168086,2.11364 4.65017,3.90709 6.574089,6.26863 3.042777,3.46322 5.008916,7.86304 5.408102,12.46663 0.642158,6.86477 -0.884479,13.73564 -0.17618,20.60134 0.549546,6.53554 3.275765,12.87558 7.759017,17.67779 5.390278,5.86184 12.342333,10.01253 19.454632,13.44945 3.543771,1.65639 7.137671,3.23803 10.845141,4.48934 3.96666,1.13988 8.48216,-0.5407 10.82851,-3.91488 2.03732,-2.75431 2.44368,-6.54288 1.16056,-9.70375 -2.22103,-6.32475 -3.33347,-13.0809 -2.80515,-19.78442 0.17337,-2.54663 0.52963,-5.13197 0.89273,-7.57028 1.02917,-6.49233 1.92909,-13.13683 1.42313,-19.74871 -0.55393,-7.64517 -2.46736,-15.17426 -5.39751,-22.2478 -2.90436,-6.93503 -7.3481,-13.27854 -13.20857,-18.03003 -6.554786,-5.46078 -14.515362,-8.75404 -21.607482,-13.39842 -2.222914,-1.42316 -4.25587,-3.10852 -6.282619,-4.79021 -2.391959,-1.8223 -5.367031,-2.97917 -8.405231,-2.79306 z"
       inkscape:path-effect="#path-effect1"
       inkscape:label="path8" />
  </g>
</svg>
