  0
SECTION
  2
HEADER
  9
$ACADVER
  1
AC1014
  9
$HANDSEED
  5
FFFF
  9
$INSUNITS
 70
     4
  9
$MEASUREMENT
 70
     1
  0
ENDSEC
  0
SECTION
  2
TABLES
  0
TABLE
  2
VPORT
  5
8
330
0
100
AcDbSymbolTable
 70
     4
  0
VPORT
  5
2E
330
8
100
AcDbSymbolTableRecord
100
AcDbViewportTableRecord
  2
*ACTIVE
 70
     0
 10
0.0
 20
0.0
 11
1.0
 21
1.0
 12
210.0
 22
148.5
 13
0.0
 23
0.0
 14
10.0
 24
10.0
 15
10.0
 25
10.0
 16
0.0
 26
0.0
 36
1.0
 17
0.0
 27
0.0
 37
0.0
 40
341.0
 41
1.24
 42
50.0
 43
0.0
 44
0.0
 50
0.0
 51
0.0
 71
     0
 72
   100
 73
     1
 74
     3
 75
     0
 76
     0
 77
     0
 78
     0
  0
ENDTAB
  0
TABLE
  2
LTYPE
  5
5
330
0
100
AcDbSymbolTable
 70
     1
  0
LTYPE
  5
14
330
5
100
AcDbSymbolTableRecord
100
AcDbLinetypeTableRecord
  2
BYBLOCK
 70
     0
  3

 72
    65
 73
     0
 40
0.0
  0
LTYPE
  5
15
330
5
100
AcDbSymbolTableRecord
100
AcDbLinetypeTableRecord
  2
BYLAYER
 70
     0
  3

 72
    65
 73
     0
 40
0.0
  0
LTYPE
  5
16
330
5
100
AcDbSymbolTableRecord
100
AcDbLinetypeTableRecord
  2
CONTINUOUS
 70
     0
  3
Solid line
 72
    65
 73
     0
 40
0.0
  0
ENDTAB
  0
TABLE
  2
LAYER
  5
2
100
AcDbSymbolTable
 70
3
  0
LAYER
  5
50
100
AcDbSymbolTableRecord
100
AcDbLayerTableRecord
  2
0
 70
0
  6
CONTINUOUS
  0
LAYER
  5
51
100
AcDbSymbolTableRecord
100
AcDbLayerTableRecord
  2
Layer_1
 70
0
  6
CONTINUOUS
  0
LAYER
  5
52
100
AcDbSymbolTableRecord
100
AcDbLayerTableRecord
  2
Board-outline
 70
0
  6
CONTINUOUS
  0
ENDTAB
  0
TABLE
  2
STYLE
  5
3
330
0
100
AcDbSymbolTable
 70
     1
  0
STYLE
  5
11
330
3
100
AcDbSymbolTableRecord
100
AcDbTextStyleTableRecord
  2
STANDARD
 70
     0
 40
0.0
 41
1.0
 50
0.0
 71
     0
 42
2.5
  3
txt
  4

  0
ENDTAB
  0
TABLE
  2
VIEW
  5
6
330
0
100
AcDbSymbolTable
 70
     0
  0
ENDTAB
  0
TABLE
  2
UCS
  5
7
330
0
100
AcDbSymbolTable
 70
     0
  0
ENDTAB
  0
TABLE
  2
APPID
  5
9
330
0
100
AcDbSymbolTable
 70
     2
  0
APPID
  5
12
330
9
100
AcDbSymbolTableRecord
100
AcDbRegAppTableRecord
  2
ACAD
 70
     0
  0
ENDTAB
  0
TABLE
  2
DIMSTYLE
  5
A
330
0
100
AcDbSymbolTable
 70
     1
  0
DIMSTYLE
105
27
330
A
100
AcDbSymbolTableRecord
100
AcDbDimStyleTableRecord
  2
ISO-25
 70
     0
  3

  4

  5

  6

  7

 40
1.0
 41
2.5
 42
0.625
 43
3.75
 44
1.25
 45
0.0
 46
0.0
 47
0.0
 48
0.0
140
2.5
141
2.5
142
0.0
143
0.03937007874016
144
1.0
145
0.0
146
1.0
147
0.625
 71
     0
 72
     0
 73
     0
 74
     0
 75
     0
 76
     0
 77
     1
 78
     8
170
     0
171
     3
172
     1
173
     0
174
     0
175
     0
176
     0
177
     0
178
     0
270
     2
271
     2
272
     2
273
     2
274
     3
340
11
275
     0
280
     0
281
     0
282
     0
283
     0
284
     8
285
     0
286
     0
287
     3
288
     0
  0
ENDTAB
  0
TABLE
  2
BLOCK_RECORD
  5
1
330
0
100
AcDbSymbolTable
 70
     1
  0
BLOCK_RECORD
  5
1F
330
1
100
AcDbSymbolTableRecord
100
AcDbBlockTableRecord
  2
*MODEL_SPACE
  0
BLOCK_RECORD
  5
1B
330
1
100
AcDbSymbolTableRecord
100
AcDbBlockTableRecord
  2
*PAPER_SPACE
  0
ENDTAB
  0
ENDSEC
  0
SECTION
  2
BLOCKS
  0
BLOCK
  5
20
330
1F
100
AcDbEntity
  8
0
100
AcDbBlockBegin
  2
*MODEL_SPACE
 70
     0
 10
0.0
 20
0.0
 30
0.0
  3
*MODEL_SPACE
  1

  0
ENDBLK
  5
21
330
1F
100
AcDbEntity
  8
0
100
AcDbBlockEnd
  0
BLOCK
  5
1C
330
1B
100
AcDbEntity
 67
     1
  8
0
100
AcDbBlockBegin
  2
*PAPER_SPACE
  1

  0
ENDBLK
  5
1D
330
1B
100
AcDbEntity
 67
     1
  8
0
100
AcDbBlockEnd
  0
ENDSEC
  0
SECTION
  2
ENTITIES
  0
SPLINE
  5
100
100
AcDbEntity
  8
Board-outline
 62
7
100
AcDbSpline
 70
8
 71
3
 72
8
 73
4
 74
0
 40
0
 40
0
 40
0
 40
0
 40
1
 40
1
 40
1
 40
1
 10
95.266228
 20
93.765210
 30
0.0
 10
95.264937
 20
93.765472
 30
0.0
 10
95.263619
 20
93.765840
 30
0.0
 10
95.262327
 20
93.766117
 30
0.0
  0
LWPOLYLINE
  5
101
100
AcDbEntity
  8
Board-outline
 62
7
100
AcDbPolyline
 90
2
 70
0
 10
96.785867
 20
93.441117
 30
0.0
 10
95.266228
 20
93.765210
 30
0.0
  0
SPLINE
  5
102
100
AcDbEntity
  8
Board-outline
 62
7
100
AcDbSpline
 70
8
 71
3
 72
8
 73
4
 74
0
 40
0
 40
0
 40
0
 40
0
 40
1
 40
1
 40
1
 40
1
 10
95.246723
 20
93.769417
 30
0.0
 10
93.701715
 20
94.088505
 30
0.0
 10
92.129285
 20
94.459236
 30
0.0
 10
90.563571
 20
94.924450
 30
0.0
  0
SPLINE
  5
103
100
AcDbEntity
  8
Board-outline
 62
7
100
AcDbSpline
 70
8
 71
3
 72
8
 73
4
 74
0
 40
0
 40
0
 40
0
 40
0
 40
1
 40
1
 40
1
 40
1
 10
90.563571
 20
94.924450
 30
0.0
 10
83.455066
 20
97.015724
 30
0.0
 10
76.789891
 20
100.622177
 30
0.0
 10
71.156972
 20
105.443085
 30
0.0
  0
SPLINE
  5
104
100
AcDbEntity
  8
Board-outline
 62
7
100
AcDbSpline
 70
8
 71
3
 72
8
 73
4
 74
0
 40
0
 40
0
 40
0
 40
0
 40
1
 40
1
 40
1
 40
1
 10
71.156972
 20
105.443085
 30
0.0
 10
70.955997
 20
105.613113
 30
0.0
 10
70.754642
 20
105.783425
 30
0.0
 10
70.554999
 20
105.952332
 30
0.0
  0
LWPOLYLINE
  5
105
100
AcDbEntity
  8
Board-outline
 62
7
100
AcDbPolyline
 90
2
 70
0
 10
95.262327
 20
93.766117
 30
0.0
 10
95.246723
 20
93.769417
 30
0.0
  0
SPLINE
  5
106
100
AcDbEntity
  8
Board-outline
 62
7
100
AcDbSpline
 70
8
 71
3
 72
8
 73
4
 74
0
 40
0
 40
0
 40
0
 40
0
 40
1
 40
1
 40
1
 40
1
 10
69.493592
 20
108.166971
 30
0.0
 10
69.487246
 20
108.419149
 30
0.0
 10
69.484527
 20
108.690371
 30
0.0
 10
69.478289
 20
108.948997
 30
0.0
  0
SPLINE
  5
107
100
AcDbEntity
  8
Board-outline
 62
7
100
AcDbSpline
 70
8
 71
3
 72
8
 73
4
 74
0
 40
0
 40
0
 40
0
 40
0
 40
1
 40
1
 40
1
 40
1
 10
69.478289
 20
108.948997
 30
0.0
 10
69.358703
 20
108.935238
 30
0.0
 10
69.239654
 20
108.921652
 30
0.0
 10
69.119985
 20
108.907885
 30
0.0
  0
LWPOLYLINE
  5
108
100
AcDbEntity
  8
Board-outline
 62
7
100
AcDbPolyline
 90
3
 70
0
 10
70.554999
 20
105.952332
 30
0.0
 10
69.527502
 20
106.821683
 30
0.0
 10
69.493592
 20
108.166971
 30
0.0
  0
SPLINE
  5
109
100
AcDbEntity
  8
Board-outline
 62
7
100
AcDbSpline
 70
8
 71
3
 72
8
 73
4
 74
0
 40
0
 40
0
 40
0
 40
0
 40
1
 40
1
 40
1
 40
1
 10
66.520034
 20
109.911969
 30
0.0
 10
65.881548
 20
110.641147
 30
0.0
 10
65.204266
 20
111.450960
 30
0.0
 10
64.546064
 20
112.264348
 30
0.0
  0
SPLINE
  5
10a
100
AcDbEntity
  8
Board-outline
 62
7
100
AcDbSpline
 70
8
 71
3
 72
8
 73
4
 74
0
 40
0
 40
0
 40
0
 40
0
 40
1
 40
1
 40
1
 40
1
 10
64.546064
 20
112.264348
 30
0.0
 10
64.060617
 20
112.511512
 30
0.0
 10
63.572873
 20
112.755614
 30
0.0
 10
63.030627
 20
113.027468
 30
0.0
  0
LWPOLYLINE
  5
10b
100
AcDbEntity
  8
Board-outline
 62
7
100
AcDbPolyline
 90
3
 70
0
 10
69.119985
 20
108.907885
 30
0.0
 10
67.556533
 20
108.728128
 30
0.0
 10
66.520034
 20
109.911969
 30
0.0
  0
SPLINE
  5
10c
100
AcDbEntity
  8
Board-outline
 62
7
100
AcDbSpline
 70
8
 71
3
 72
8
 73
4
 74
0
 40
0
 40
0
 40
0
 40
0
 40
1
 40
1
 40
1
 40
1
 10
62.992516
 20
113.046973
 30
0.0
 10
61.469046
 20
113.838152
 30
0.0
 10
59.779180
 20
115.002552
 30
0.0
 10
58.568641
 20
116.738339
 30
0.0
  0
SPLINE
  5
10d
100
AcDbEntity
  8
Board-outline
 62
7
100
AcDbSpline
 70
8
 71
3
 72
8
 73
4
 74
0
 40
0
 40
0
 40
0
 40
0
 40
1
 40
1
 40
1
 40
1
 10
58.568641
 20
116.738339
 30
0.0
 10
57.580671
 20
118.139167
 30
0.0
 10
57.086913
 20
119.726895
 30
0.0
 10
56.846143
 20
121.119002
 30
0.0
  0
SPLINE
  5
10e
100
AcDbEntity
  8
Board-outline
 62
7
100
AcDbSpline
 70
8
 71
3
 72
8
 73
4
 74
0
 40
0
 40
0
 40
0
 40
0
 40
1
 40
1
 40
1
 40
1
 10
56.846143
 20
121.119002
 30
0.0
 10
56.537214
 20
122.865855
 30
0.0
 10
56.456030
 20
124.166369
 30
0.0
 10
56.157445
 20
124.955308
 30
0.0
  0
LWPOLYLINE
  5
10f
100
AcDbEntity
  8
Board-outline
 62
7
100
AcDbPolyline
 90
3
 70
0
 10
63.030627
 20
113.027468
 30
0.0
 10
63.011422
 20
113.037071
 30
0.0
 10
62.992516
 20
113.046973
 30
0.0
  0
SPLINE
  5
110
100
AcDbEntity
  8
Board-outline
 62
7
100
AcDbSpline
 70
8
 71
3
 72
8
 73
4
 74
0
 40
0
 40
0
 40
0
 40
0
 40
1
 40
1
 40
1
 40
1
 10
56.147243
 20
124.983210
 30
0.0
 10
55.944807
 20
125.534532
 30
0.0
 10
55.551579
 20
126.102801
 30
0.0
 10
55.021319
 20
126.581772
 30
0.0
  0
LWPOLYLINE
  5
111
100
AcDbEntity
  8
Board-outline
 62
7
100
AcDbPolyline
 90
3
 70
0
 10
56.157445
 20
124.955308
 30
0.0
 10
56.152344
 20
124.969413
 30
0.0
 10
56.147243
 20
124.983210
 30
0.0
  0
SPLINE
  5
112
100
AcDbEntity
  8
Board-outline
 62
7
100
AcDbSpline
 70
8
 71
3
 72
8
 73
4
 74
0
 40
0
 40
0
 40
0
 40
0
 40
1
 40
1
 40
1
 40
1
 10
55.007522
 20
126.594371
 30
0.0
 10
54.637425
 20
126.932875
 30
0.0
 10
54.022600
 20
127.351658
 30
0.0
 10
53.263119
 20
127.945361
 30
0.0
  0
SPLINE
  5
113
100
AcDbEntity
  8
Board-outline
 62
7
100
AcDbSpline
 70
8
 71
3
 72
8
 73
4
 74
0
 40
0
 40
0
 40
0
 40
0
 40
1
 40
1
 40
1
 40
1
 10
53.263119
 20
127.945361
 30
0.0
 10
50.803484
 20
129.828278
 30
0.0
 10
48.252367
 20
131.956730
 30
0.0
 10
46.084747
 20
134.514856
 30
0.0
  0
LWPOLYLINE
  5
114
100
AcDbEntity
  8
Board-outline
 62
7
100
AcDbPolyline
 90
3
 70
0
 10
55.021319
 20
126.581772
 30
0.0
 10
55.014420
 20
126.588071
 30
0.0
 10
55.007522
 20
126.594371
 30
0.0
  0
SPLINE
  5
115
100
AcDbEntity
  8
Board-outline
 62
7
100
AcDbSpline
 70
8
 71
3
 72
8
 73
4
 74
0
 40
0
 40
0
 40
0
 40
0
 40
1
 40
1
 40
1
 40
1
 10
46.081674
 20
134.518451
 30
0.0
 10
44.451555
 20
136.448210
 30
0.0
 10
42.957014
 20
138.759846
 30
0.0
 10
42.104326
 20
141.398537
 30
0.0
  0
SPLINE
  5
116
100
AcDbEntity
  8
Board-outline
 62
7
100
AcDbSpline
 70
8
 71
3
 72
8
 73
4
 74
0
 40
0
 40
0
 40
0
 40
0
 40
1
 40
1
 40
1
 40
1
 10
42.104326
 20
141.398537
 30
0.0
 10
41.347270
 20
143.711587
 30
0.0
 10
41.145407
 20
146.202843
 30
0.0
 10
41.510456
 20
148.602415
 30
0.0
  0
LWPOLYLINE
  5
117
100
AcDbEntity
  8
Board-outline
 62
7
100
AcDbPolyline
 90
3
 70
0
 10
46.084747
 20
134.514856
 30
0.0
 10
46.083210
 20
134.516653
 30
0.0
 10
46.081674
 20
134.518451
 30
0.0
  0
SPLINE
  5
118
100
AcDbEntity
  8
Board-outline
 62
7
100
AcDbSpline
 70
8
 71
3
 72
8
 73
4
 74
0
 40
0
 40
0
 40
0
 40
0
 40
1
 40
1
 40
1
 40
1
 10
41.515864
 20
148.637525
 30
0.0
 10
41.706603
 20
149.797999
 30
0.0
 10
41.940580
 20
150.935279
 30
0.0
 10
42.176656
 20
152.027903
 30
0.0
  0
LWPOLYLINE
  5
119
100
AcDbEntity
  8
Board-outline
 62
7
100
AcDbPolyline
 90
3
 70
0
 10
41.510456
 20
148.602415
 30
0.0
 10
41.513160
 20
148.620120
 30
0.0
 10
41.515864
 20
148.637525
 30
0.0
  0
SPLINE
  5
11a
100
AcDbEntity
  8
Board-outline
 62
7
100
AcDbSpline
 70
8
 71
3
 72
8
 73
4
 74
0
 40
0
 40
0
 40
0
 40
0
 40
1
 40
1
 40
1
 40
1
 10
42.182648
 20
152.054914
 30
0.0
 10
42.511465
 20
153.511829
 30
0.0
 10
42.905440
 20
155.150482
 30
0.0
 10
43.518032
 20
156.749768
 30
0.0
  0
LWPOLYLINE
  5
11b
100
AcDbEntity
  8
Board-outline
 62
7
100
AcDbPolyline
 90
3
 70
0
 10
42.176656
 20
152.027903
 30
0.0
 10
42.179652
 20
152.041409
 30
0.0
 10
42.182648
 20
152.054914
 30
0.0
  0
SPLINE
  5
11c
100
AcDbEntity
  8
Board-outline
 62
7
100
AcDbSpline
 70
8
 71
3
 72
8
 73
4
 74
0
 40
0
 40
0
 40
0
 40
0
 40
1
 40
1
 40
1
 40
1
 10
43.536931
 20
156.797483
 30
0.0
 10
43.790258
 20
157.426412
 30
0.0
 10
44.241391
 20
158.543545
 30
0.0
 10
45.110285
 20
159.483557
 30
0.0
  0
SPLINE
  5
11d
100
AcDbEntity
  8
Board-outline
 62
7
100
AcDbSpline
 70
8
 71
3
 72
8
 73
4
 74
0
 40
0
 40
0
 40
0
 40
0
 40
1
 40
1
 40
1
 40
1
 10
45.110285
 20
159.483557
 30
0.0
 10
45.949912
 20
160.396982
 30
0.0
 10
47.472635
 20
161.233133
 30
0.0
 10
49.238275
 20
160.772129
 30
0.0
  0
SPLINE
  5
11e
100
AcDbEntity
  8
Board-outline
 62
7
100
AcDbSpline
 70
8
 71
3
 72
8
 73
4
 74
0
 40
0
 40
0
 40
0
 40
0
 40
1
 40
1
 40
1
 40
1
 10
49.238275
 20
160.772129
 30
0.0
 10
50.909345
 20
160.343615
 30
0.0
 10
51.801980
 20
158.991364
 30
0.0
 10
52.160819
 20
158.331225
 30
0.0
  0
LWPOLYLINE
  5
11f
100
AcDbEntity
  8
Board-outline
 62
7
100
AcDbPolyline
 90
3
 70
0
 10
43.518032
 20
156.749768
 30
0.0
 10
43.527328
 20
156.773775
 30
0.0
 10
43.536931
 20
156.797483
 30
0.0
  0
SPLINE
  5
120
100
AcDbEntity
  8
Board-outline
 62
7
100
AcDbSpline
 70
8
 71
3
 72
8
 73
4
 74
0
 40
0
 40
0
 40
0
 40
0
 40
1
 40
1
 40
1
 40
1
 10
52.182130
 20
158.291914
 30
0.0
 10
52.496970
 20
157.691516
 30
0.0
 10
52.834560
 20
156.794425
 30
0.0
 10
52.948551
 20
156.541209
 30
0.0
  0
LWPOLYLINE
  5
121
100
AcDbEntity
  8
Board-outline
 62
7
100
AcDbPolyline
 90
3
 70
0
 10
52.160819
 20
158.331225
 30
0.0
 10
52.171621
 20
158.311720
 30
0.0
 10
52.182130
 20
158.291914
 30
0.0
  0
SPLINE
  5
122
100
AcDbEntity
  8
Board-outline
 62
7
100
AcDbSpline
 70
8
 71
3
 72
8
 73
4
 74
0
 40
0
 40
0
 40
0
 40
0
 40
1
 40
1
 40
1
 40
1
 10
52.965651
 20
156.502197
 30
0.0
 10
52.981790
 20
156.464947
 30
0.0
 10
52.999011
 20
156.432751
 30
0.0
 10
53.015165
 20
156.395666
 30
0.0
  0
SPLINE
  5
123
100
AcDbEntity
  8
Board-outline
 62
7
100
AcDbSpline
 70
8
 71
3
 72
8
 73
4
 74
0
 40
0
 40
0
 40
0
 40
0
 40
1
 40
1
 40
1
 40
1
 10
53.015165
 20
156.395666
 30
0.0
 10
53.025198
 20
156.576390
 30
0.0
 10
53.050405
 20
156.748814
 30
0.0
 10
53.058377
 20
156.930722
 30
0.0
  0
SPLINE
  5
124
100
AcDbEntity
  8
Board-outline
 62
7
100
AcDbSpline
 70
8
 71
3
 72
8
 73
4
 74
0
 40
0
 40
0
 40
0
 40
0
 40
1
 40
1
 40
1
 40
1
 10
53.058377
 20
156.930722
 30
0.0
 10
53.065952
 20
157.111002
 30
0.0
 10
53.073096
 20
157.347076
 30
0.0
 10
53.079084
 20
157.569005
 30
0.0
  0
LWPOLYLINE
  5
125
100
AcDbEntity
  8
Board-outline
 62
7
100
AcDbPolyline
 90
3
 70
0
 10
52.948551
 20
156.541209
 30
0.0
 10
52.957247
 20
156.521703
 30
0.0
 10
52.965651
 20
156.502197
 30
0.0
  0
SPLINE
  5
126
100
AcDbEntity
  8
Board-outline
 62
7
100
AcDbSpline
 70
8
 71
3
 72
8
 73
4
 74
0
 40
0
 40
0
 40
0
 40
0
 40
1
 40
1
 40
1
 40
1
 10
53.079391
 20
157.582510
 30
0.0
 10
53.125478
 20
159.045565
 30
0.0
 10
53.062661
 20
161.365599
 30
0.0
 10
53.171518
 20
163.144315
 30
0.0
  0
LWPOLYLINE
  5
127
100
AcDbEntity
  8
Board-outline
 62
7
100
AcDbPolyline
 90
3
 70
0
 10
53.079084
 20
157.569005
 30
0.0
 10
53.079084
 20
157.575611
 30
0.0
 10
53.079391
 20
157.582510
 30
0.0
  0
SPLINE
  5
128
100
AcDbEntity
  8
Board-outline
 62
7
100
AcDbSpline
 70
8
 71
3
 72
8
 73
4
 74
0
 40
0
 40
0
 40
0
 40
0
 40
1
 40
1
 40
1
 40
1
 10
53.171518
 20
163.144622
 30
0.0
 10
53.276870
 20
164.891145
 30
0.0
 10
53.612468
 20
166.821077
 30
0.0
 10
54.478996
 20
168.651512
 30
0.0
  0
SPLINE
  5
129
100
AcDbEntity
  8
Board-outline
 62
7
100
AcDbSpline
 70
8
 71
3
 72
8
 73
4
 74
0
 40
0
 40
0
 40
0
 40
0
 40
1
 40
1
 40
1
 40
1
 10
54.478996
 20
168.651512
 30
0.0
 10
54.647024
 20
169.011446
 30
0.0
 10
54.850157
 20
169.340766
 30
0.0
 10
55.046158
 20
169.676307
 30
0.0
  0
SPLINE
  5
12a
100
AcDbEntity
  8
Board-outline
 62
7
100
AcDbSpline
 70
8
 71
3
 72
8
 73
4
 74
0
 40
0
 40
0
 40
0
 40
0
 40
1
 40
1
 40
1
 40
1
 10
55.046158
 20
169.676307
 30
0.0
 10
54.430615
 20
170.171704
 30
0.0
 10
53.983000
 20
170.834971
 30
0.0
 10
53.747985
 20
171.531442
 30
0.0
  0
SPLINE
  5
12b
100
AcDbEntity
  8
Board-outline
 62
7
100
AcDbSpline
 70
8
 71
3
 72
8
 73
4
 74
0
 40
0
 40
0
 40
0
 40
0
 40
1
 40
1
 40
1
 40
1
 10
53.747985
 20
171.531442
 30
0.0
 10
53.379340
 20
172.610058
 30
0.0
 10
53.435239
 20
173.758408
 30
0.0
 10
53.442496
 20
174.181807
 30
0.0
  0
LWPOLYLINE
  5
12c
100
AcDbEntity
  8
Board-outline
 62
7
100
AcDbPolyline
 90
2
 70
0
 10
53.171518
 20
163.144315
 30
0.0
 10
53.171518
 20
163.144622
 30
0.0
  0
SPLINE
  5
12d
100
AcDbEntity
  8
Board-outline
 62
7
100
AcDbSpline
 70
8
 71
3
 72
8
 73
4
 74
0
 40
0
 40
0
 40
0
 40
0
 40
1
 40
1
 40
1
 40
1
 10
53.444647
 20
174.249627
 30
0.0
 10
53.471041
 20
174.913752
 30
0.0
 10
53.509263
 20
175.602109
 30
0.0
 10
53.570683
 20
176.295918
 30
0.0
  0
LWPOLYLINE
  5
12e
100
AcDbEntity
  8
Board-outline
 62
7
100
AcDbPolyline
 90
3
 70
0
 10
53.442496
 20
174.181807
 30
0.0
 10
53.443110
 20
174.215718
 30
0.0
 10
53.444647
 20
174.249627
 30
0.0
  0
SPLINE
  5
12f
100
AcDbEntity
  8
Board-outline
 62
7
100
AcDbSpline
 70
8
 71
3
 72
8
 73
4
 74
0
 40
0
 40
0
 40
0
 40
0
 40
1
 40
1
 40
1
 40
1
 10
53.584495
 20
176.420754
 30
0.0
 10
53.825728
 20
178.262568
 30
0.0
 10
54.727133
 20
179.926367
 30
0.0
 10
55.901764
 20
181.155219
 30
0.0
  0
LWPOLYLINE
  5
130
100
AcDbEntity
  8
Board-outline
 62
7
100
AcDbPolyline
 90
3
 70
0
 10
53.570683
 20
176.295918
 30
0.0
 10
53.576091
 20
176.358336
 30
0.0
 10
53.584495
 20
176.420754
 30
0.0
  0
SPLINE
  5
131
100
AcDbEntity
  8
Board-outline
 62
7
100
AcDbSpline
 70
8
 71
3
 72
8
 73
4
 74
0
 40
0
 40
0
 40
0
 40
0
 40
1
 40
1
 40
1
 40
1
 10
55.927576
 20
181.181615
 30
0.0
 10
56.664654
 20
181.933996
 30
0.0
 10
57.867947
 20
182.889377
 30
0.0
 10
59.508210
 20
183.124975
 30
0.0
  0
SPLINE
  5
132
100
AcDbEntity
  8
Board-outline
 62
7
100
AcDbSpline
 70
8
 71
3
 72
8
 73
4
 74
0
 40
0
 40
0
 40
0
 40
0
 40
1
 40
1
 40
1
 40
1
 10
59.508210
 20
183.124975
 30
0.0
 10
60.639768
 20
183.291744
 30
0.0
 10
61.822268
 20
183.017196
 30
0.0
 10
62.781554
 20
182.367558
 30
0.0
  0
SPLINE
  5
133
100
AcDbEntity
  8
Board-outline
 62
7
100
AcDbSpline
 70
8
 71
3
 72
8
 73
4
 74
0
 40
0
 40
0
 40
0
 40
0
 40
1
 40
1
 40
1
 40
1
 10
62.781554
 20
182.367558
 30
0.0
 10
62.892879
 20
182.663576
 30
0.0
 10
63.000693
 20
182.961350
 30
0.0
 10
63.130856
 20
183.249212
 30
0.0
  0
SPLINE
  5
134
100
AcDbEntity
  8
Board-outline
 62
7
100
AcDbSpline
 70
8
 71
3
 72
8
 73
4
 74
0
 40
0
 40
0
 40
0
 40
0
 40
1
 40
1
 40
1
 40
1
 10
63.130856
 20
183.249212
 30
0.0
 10
63.915743
 20
185.015713
 30
0.0
 10
65.071188
 20
186.591418
 30
0.0
 10
66.450112
 20
187.877747
 30
0.0
  0
LWPOLYLINE
  5
135
100
AcDbEntity
  8
Board-outline
 62
7
100
AcDbPolyline
 90
3
 70
0
 10
55.901764
 20
181.155219
 30
0.0
 10
55.914670
 20
181.168417
 30
0.0
 10
55.927576
 20
181.181615
 30
0.0
  0
SPLINE
  5
136
100
AcDbEntity
  8
Board-outline
 62
7
100
AcDbSpline
 70
8
 71
3
 72
8
 73
4
 74
0
 40
0
 40
0
 40
0
 40
0
 40
1
 40
1
 40
1
 40
1
 10
66.450727
 20
187.878054
 30
0.0
 10
68.299901
 20
189.607470
 30
0.0
 10
70.452440
 20
190.836975
 30
0.0
 10
72.497771
 20
191.788183
 30
0.0
  0
LWPOLYLINE
  5
137
100
AcDbEntity
  8
Board-outline
 62
7
100
AcDbPolyline
 90
2
 70
0
 10
66.450112
 20
187.877747
 30
0.0
 10
66.450727
 20
187.878054
 30
0.0
  0
SPLINE
  5
138
100
AcDbEntity
  8
Board-outline
 62
7
100
AcDbSpline
 70
8
 71
3
 72
8
 73
4
 74
0
 40
0
 40
0
 40
0
 40
0
 40
1
 40
1
 40
1
 40
1
 10
72.521478
 20
191.798999
 30
0.0
 10
73.713683
 20
192.340966
 30
0.0
 10
74.861263
 20
192.821424
 30
0.0
 10
75.930762
 20
193.314738
 30
0.0
  0
LWPOLYLINE
  5
139
100
AcDbEntity
  8
Board-outline
 62
7
100
AcDbPolyline
 90
3
 70
0
 10
72.497771
 20
191.788183
 30
0.0
 10
72.509474
 20
191.793591
 30
0.0
 10
72.521478
 20
191.798999
 30
0.0
  0
SPLINE
  5
13a
100
AcDbEntity
  8
Board-outline
 62
7
100
AcDbSpline
 70
8
 71
3
 72
8
 73
4
 74
0
 40
0
 40
0
 40
0
 40
0
 40
1
 40
1
 40
1
 40
1
 10
75.940964
 20
193.319531
 30
0.0
 10
77.899358
 20
194.213860
 30
0.0
 10
79.809642
 20
195.131265
 30
0.0
 10
81.591294
 20
196.149947
 30
0.0
  0
SPLINE
  5
13b
100
AcDbEntity
  8
Board-outline
 62
7
100
AcDbSpline
 70
8
 71
3
 72
8
 73
4
 74
0
 40
0
 40
0
 40
0
 40
0
 40
1
 40
1
 40
1
 40
1
 10
81.591294
 20
196.149947
 30
0.0
 10
82.640585
 20
196.753016
 30
0.0
 10
83.605383
 20
197.374047
 30
0.0
 10
84.441517
 20
198.050996
 30
0.0
  0
LWPOLYLINE
  5
13c
100
AcDbEntity
  8
Board-outline
 62
7
100
AcDbPolyline
 90
3
 70
0
 10
75.930762
 20
193.314738
 30
0.0
 10
75.935863
 20
193.317134
 30
0.0
 10
75.940964
 20
193.319531
 30
0.0
  0
SPLINE
  5
13d
100
AcDbEntity
  8
Board-outline
 62
7
100
AcDbSpline
 70
8
 71
3
 72
8
 73
4
 74
0
 40
0
 40
0
 40
0
 40
0
 40
1
 40
1
 40
1
 40
1
 10
84.385701
 20
198.004482
 30
0.0
 10
84.449870
 20
198.059065
 30
0.0
 10
84.579846
 20
198.165241
 30
0.0
 10
84.600863
 20
198.182434
 30
0.0
  0
SPLINE
  5
13e
100
AcDbEntity
  8
Board-outline
 62
7
100
AcDbSpline
 70
8
 71
3
 72
8
 73
4
 74
0
 40
0
 40
0
 40
0
 40
0
 40
1
 40
1
 40
1
 40
1
 10
84.600863
 20
198.182434
 30
0.0
 10
85.317702
 20
198.775635
 30
0.0
 10
85.994635
 20
199.520686
 30
0.0
 10
86.640551
 20
200.370966
 30
0.0
  0
LWPOLYLINE
  5
13f
100
AcDbEntity
  8
Board-outline
 62
7
100
AcDbPolyline
 90
2
 70
0
 10
84.441517
 20
198.050996
 30
0.0
 10
84.385701
 20
198.004482
 30
0.0
  0
SPLINE
  5
140
100
AcDbEntity
  8
Board-outline
 62
7
100
AcDbSpline
 70
8
 71
3
 72
8
 73
4
 74
0
 40
0
 40
0
 40
0
 40
0
 40
1
 40
1
 40
1
 40
1
 10
86.658857
 20
200.394673
 30
0.0
 10
87.282170
 20
201.198468
 30
0.0
 10
88.273168
 20
202.612732
 30
0.0
 10
89.214394
 20
203.640409
 30
0.0
  0
LWPOLYLINE
  5
141
100
AcDbEntity
  8
Board-outline
 62
7
100
AcDbPolyline
 90
3
 70
0
 10
86.640551
 20
200.370966
 30
0.0
 10
86.649554
 20
200.382965
 30
0.0
 10
86.658857
 20
200.394673
 30
0.0
  0
SPLINE
  5
142
100
AcDbEntity
  8
Board-outline
 62
7
100
AcDbSpline
 70
8
 71
3
 72
8
 73
4
 74
0
 40
0
 40
0
 40
0
 40
0
 40
1
 40
1
 40
1
 40
1
 10
89.234199
 20
203.662012
 30
0.0
 10
89.933004
 20
204.410224
 30
0.0
 10
90.948303
 20
205.405734
 30
0.0
 10
92.323890
 20
206.042598
 30
0.0
  0
SPLINE
  5
143
100
AcDbEntity
  8
Board-outline
 62
7
100
AcDbSpline
 70
8
 71
3
 72
8
 73
4
 74
0
 40
0
 40
0
 40
0
 40
0
 40
1
 40
1
 40
1
 40
1
 10
92.323890
 20
206.042598
 30
0.0
 10
92.388581
 20
206.072570
 30
0.0
 10
92.474125
 20
206.093943
 30
0.0
 10
92.543253
 20
206.122721
 30
0.0
  0
SPLINE
  5
144
100
AcDbEntity
  8
Board-outline
 62
7
100
AcDbSpline
 70
8
 71
3
 72
8
 73
4
 74
0
 40
0
 40
0
 40
0
 40
0
 40
1
 40
1
 40
1
 40
1
 10
92.543253
 20
206.122721
 30
0.0
 10
92.262255
 20
206.392594
 30
0.0
 10
92.015538
 20
206.674983
 30
0.0
 10
91.818544
 20
206.955762
 30
0.0
  0
LWPOLYLINE
  5
145
100
AcDbEntity
  8
Board-outline
 62
7
100
AcDbPolyline
 90
3
 70
0
 10
89.214394
 20
203.640409
 30
0.0
 10
89.224296
 20
203.651211
 30
0.0
 10
89.234199
 20
203.662012
 30
0.0
  0
SPLINE
  5
146
100
AcDbEntity
  8
Board-outline
 62
7
100
AcDbSpline
 70
8
 71
3
 72
8
 73
4
 74
0
 40
0
 40
0
 40
0
 40
0
 40
1
 40
1
 40
1
 40
1
 10
91.817039
 20
206.958220
 30
0.0
 10
90.756316
 20
208.473132
 30
0.0
 10
90.409839
 20
210.265773
 30
0.0
 10
90.490656
 20
211.839430
 30
0.0
  0
SPLINE
  5
147
100
AcDbEntity
  8
Board-outline
 62
7
100
AcDbSpline
 70
8
 71
3
 72
8
 73
4
 74
0
 40
0
 40
0
 40
0
 40
0
 40
1
 40
1
 40
1
 40
1
 10
90.490656
 20
211.839430
 30
0.0
 10
90.586505
 20
213.732981
 30
0.0
 10
91.379578
 20
215.644397
 30
0.0
 10
92.788719
 20
217.037530
 30
0.0
  0
LWPOLYLINE
  5
148
100
AcDbEntity
  8
Board-outline
 62
7
100
AcDbPolyline
 90
3
 70
0
 10
91.818544
 20
206.955762
 30
0.0
 10
91.817638
 20
206.956991
 30
0.0
 10
91.817039
 20
206.958220
 30
0.0
  0
SPLINE
  5
149
100
AcDbEntity
  8
Board-outline
 62
7
100
AcDbSpline
 70
8
 71
3
 72
8
 73
4
 74
0
 40
0
 40
0
 40
0
 40
0
 40
1
 40
1
 40
1
 40
1
 10
92.803724
 20
217.052233
 30
0.0
 10
92.940128
 20
217.185213
 30
0.0
 10
93.590394
 20
217.772060
 30
0.0
 10
93.582148
 20
217.761938
 30
0.0
  0
LWPOLYLINE
  5
14a
100
AcDbEntity
  8
Board-outline
 62
7
100
AcDbPolyline
 90
3
 70
0
 10
92.788719
 20
217.037530
 30
0.0
 10
92.796221
 20
217.045027
 30
0.0
 10
92.803724
 20
217.052233
 30
0.0
  0
SPLINE
  5
14b
100
AcDbEntity
  8
Board-outline
 62
7
100
AcDbSpline
 70
8
 71
3
 72
8
 73
4
 74
0
 40
0
 40
0
 40
0
 40
0
 40
1
 40
1
 40
1
 40
1
 10
93.654469
 20
217.847163
 30
0.0
 10
93.713349
 20
217.914178
 30
0.0
 10
93.747896
 20
218.015377
 30
0.0
 10
93.750197
 20
218.041920
 30
0.0
  0
LWPOLYLINE
  5
14c
100
AcDbEntity
  8
Board-outline
 62
7
100
AcDbPolyline
 90
3
 70
0
 10
93.582148
 20
217.761938
 30
0.0
 10
93.617559
 20
217.805450
 30
0.0
 10
93.654469
 20
217.847163
 30
0.0
  0
SPLINE
  5
14d
100
AcDbEntity
  8
Board-outline
 62
7
100
AcDbSpline
 70
8
 71
3
 72
8
 73
4
 74
0
 40
0
 40
0
 40
0
 40
0
 40
1
 40
1
 40
1
 40
1
 10
93.752010
 20
218.062016
 30
0.0
 10
93.771437
 20
218.269696
 30
0.0
 10
93.645798
 20
220.387620
 30
0.0
 10
93.726202
 20
221.228829
 30
0.0
  0
SPLINE
  5
14e
100
AcDbEntity
  8
Board-outline
 62
7
100
AcDbSpline
 70
8
 71
3
 72
8
 73
4
 74
0
 40
0
 40
0
 40
0
 40
0
 40
1
 40
1
 40
1
 40
1
 10
93.726202
 20
221.228829
 30
0.0
 10
93.869768
 20
222.857515
 30
0.0
 10
94.560092
 20
224.474304
 30
0.0
 10
95.704673
 20
225.703720
 30
0.0
  0
SPLINE
  5
14f
100
AcDbEntity
  8
Board-outline
 62
7
100
AcDbSpline
 70
8
 71
3
 72
8
 73
4
 74
0
 40
0
 40
0
 40
0
 40
0
 40
1
 40
1
 40
1
 40
1
 10
95.704673
 20
225.703720
 30
0.0
 10
96.885749
 20
226.984410
 30
0.0
 10
98.374915
 20
227.845400
 30
0.0
 10
99.587794
 20
228.431507
 30
0.0
  0
LWPOLYLINE
  5
150
100
AcDbEntity
  8
Board-outline
 62
7
100
AcDbPolyline
 90
3
 70
0
 10
93.750197
 20
218.041920
 30
0.0
 10
93.751103
 20
218.051814
 30
0.0
 10
93.752010
 20
218.062016
 30
0.0
  0
SPLINE
  5
151
100
AcDbEntity
  8
Board-outline
 62
7
100
AcDbSpline
 70
8
 71
3
 72
8
 73
4
 74
0
 40
0
 40
0
 40
0
 40
0
 40
1
 40
1
 40
1
 40
1
 10
99.622904
 20
228.448316
 30
0.0
 10
100.199169
 20
228.717668
 30
0.0
 10
100.872606
 20
229.017190
 30
0.0
 10
101.600174
 20
229.262752
 30
0.0
  0
LWPOLYLINE
  5
152
100
AcDbEntity
  8
Board-outline
 62
7
100
AcDbPolyline
 90
3
 70
0
 10
99.587794
 20
228.431507
 30
0.0
 10
99.605199
 20
228.439912
 30
0.0
 10
99.622904
 20
228.448316
 30
0.0
  0
SPLINE
  5
153
100
AcDbEntity
  8
Board-outline
 62
7
100
AcDbSpline
 70
8
 71
3
 72
8
 73
4
 74
0
 40
0
 40
0
 40
0
 40
0
 40
1
 40
1
 40
1
 40
1
 10
101.731012
 20
229.303563
 30
0.0
 10
103.599001
 20
229.840358
 30
0.0
 10
105.566503
 20
229.107175
 30
0.0
 10
106.660234
 20
227.566063
 30
0.0
  0
SPLINE
  5
154
100
AcDbEntity
  8
Board-outline
 62
7
100
AcDbSpline
 70
8
 71
3
 72
8
 73
4
 74
0
 40
0
 40
0
 40
0
 40
0
 40
1
 40
1
 40
1
 40
1
 10
106.660234
 20
227.566063
 30
0.0
 10
107.588055
 20
226.284692
 30
0.0
 10
107.751525
 20
224.604491
 30
0.0
 10
107.181185
 20
223.199503
 30
0.0
  0
LWPOLYLINE
  5
155
100
AcDbEntity
  8
Board-outline
 62
7
100
AcDbPolyline
 90
3
 70
0
 10
101.600174
 20
229.262752
 30
0.0
 10
101.664994
 20
229.284657
 30
0.0
 10
101.731012
 20
229.303563
 30
0.0
  0
SPLINE
  5
156
100
AcDbEntity
  8
Board-outline
 62
7
100
AcDbSpline
 70
8
 71
3
 72
8
 73
4
 74
0
 40
0
 40
0
 40
0
 40
0
 40
1
 40
1
 40
1
 40
1
 10
107.231900
 20
223.333942
 30
0.0
 10
107.008246
 20
222.697052
 30
0.0
 10
106.918359
 20
222.067373
 30
0.0
 10
106.961221
 20
221.523518
 30
0.0
  0
LWPOLYLINE
  5
157
100
AcDbEntity
  8
Board-outline
 62
7
100
AcDbPolyline
 90
2
 70
0
 10
107.181185
 20
223.199503
 30
0.0
 10
107.231900
 20
223.333942
 30
0.0
  0
SPLINE
  5
158
100
AcDbEntity
  8
Board-outline
 62
7
100
AcDbSpline
 70
8
 71
3
 72
8
 73
4
 74
0
 40
0
 40
0
 40
0
 40
0
 40
1
 40
1
 40
1
 40
1
 10
106.963680
 20
221.491709
 30
0.0
 10
106.980756
 20
221.240899
 30
0.0
 10
107.022639
 20
220.918244
 30
0.0
 10
107.075012
 20
220.566543
 30
0.0
  0
SPLINE
  5
159
100
AcDbEntity
  8
Board-outline
 62
7
100
AcDbSpline
 70
8
 71
3
 72
8
 73
4
 74
0
 40
0
 40
0
 40
0
 40
0
 40
1
 40
1
 40
1
 40
1
 10
107.075012
 20
220.566543
 30
0.0
 10
107.200426
 20
219.773838
 30
0.0
 10
107.304532
 20
218.766781
 30
0.0
 10
107.308479
 20
217.709719
 30
0.0
  0
SPLINE
  5
15a
100
AcDbEntity
  8
Board-outline
 62
7
100
AcDbSpline
 70
8
 71
3
 72
8
 73
4
 74
0
 40
0
 40
0
 40
0
 40
0
 40
1
 40
1
 40
1
 40
1
 10
107.308479
 20
217.709719
 30
0.0
 10
107.708922
 20
218.011759
 30
0.0
 10
108.132077
 20
218.301468
 30
0.0
 10
108.603054
 20
218.543058
 30
0.0
  0
LWPOLYLINE
  5
15b
100
AcDbEntity
  8
Board-outline
 62
7
100
AcDbPolyline
 90
3
 70
0
 10
106.961221
 20
221.523518
 30
0.0
 10
106.962450
 20
221.507615
 30
0.0
 10
106.963680
 20
221.491709
 30
0.0
  0
SPLINE
  5
15c
100
AcDbEntity
  8
Board-outline
 62
7
100
AcDbSpline
 70
8
 71
3
 72
8
 73
4
 74
0
 40
0
 40
0
 40
0
 40
0
 40
1
 40
1
 40
1
 40
1
 10
108.640263
 20
218.561972
 30
0.0
 10
109.327574
 20
218.902531
 30
0.0
 10
110.781684
 20
219.475698
 30
0.0
 10
112.369440
 20
218.967388
 30
0.0
  0
SPLINE
  5
15d
100
AcDbEntity
  8
Board-outline
 62
7
100
AcDbSpline
 70
8
 71
3
 72
8
 73
4
 74
0
 40
0
 40
0
 40
0
 40
0
 40
1
 40
1
 40
1
 40
1
 10
112.369440
 20
218.967388
 30
0.0
 10
114.025658
 20
218.443174
 30
0.0
 10
114.995893
 20
216.973040
 30
0.0
 10
115.154543
 20
215.512192
 30
0.0
  0
SPLINE
  5
15e
100
AcDbEntity
  8
Board-outline
 62
7
100
AcDbSpline
 70
8
 71
3
 72
8
 73
4
 74
0
 40
0
 40
0
 40
0
 40
0
 40
1
 40
1
 40
1
 40
1
 10
115.154543
 20
215.512192
 30
0.0
 10
115.299510
 20
214.292440
 30
0.0
 10
115.024506
 20
213.041926
 30
0.0
 10
114.929479
 20
212.520028
 30
0.0
  0
LWPOLYLINE
  5
15f
100
AcDbEntity
  8
Board-outline
 62
7
100
AcDbPolyline
 90
3
 70
0
 10
108.603054
 20
218.543058
 30
0.0
 10
108.621659
 20
218.552661
 30
0.0
 10
108.640263
 20
218.561972
 30
0.0
  0
SPLINE
  5
160
100
AcDbEntity
  8
Board-outline
 62
7
100
AcDbSpline
 70
8
 71
3
 72
8
 73
4
 74
0
 40
0
 40
0
 40
0
 40
0
 40
1
 40
1
 40
1
 40
1
 10
114.921075
 20
212.474416
 30
0.0
 10
114.670668
 20
211.210450
 30
0.0
 10
114.518046
 20
210.186604
 30
0.0
 10
114.590679
 20
209.419535
 30
0.0
  0
LWPOLYLINE
  5
161
100
AcDbEntity
  8
Board-outline
 62
7
100
AcDbPolyline
 90
3
 70
0
 10
114.929479
 20
212.520028
 30
0.0
 10
114.925576
 20
212.497223
 30
0.0
 10
114.921075
 20
212.474416
 30
0.0
  0
SPLINE
  5
162
100
AcDbEntity
  8
Board-outline
 62
7
100
AcDbSpline
 70
8
 71
3
 72
8
 73
4
 74
0
 40
0
 40
0
 40
0
 40
0
 40
1
 40
1
 40
1
 40
1
 10
114.593752
 20
209.386225
 30
0.0
 10
114.650180
 20
208.709362
 30
0.0
 10
114.911762
 20
208.005403
 30
0.0
 10
115.325964
 20
207.430260
 30
0.0
  0
LWPOLYLINE
  5
163
100
AcDbEntity
  8
Board-outline
 62
7
100
AcDbPolyline
 90
3
 70
0
 10
114.590679
 20
209.419535
 30
0.0
 10
114.592216
 20
209.403029
 30
0.0
 10
114.593752
 20
209.386225
 30
0.0
  0
SPLINE
  5
164
100
AcDbEntity
  8
Board-outline
 62
7
100
AcDbSpline
 70
8
 71
3
 72
8
 73
4
 74
0
 40
0
 40
0
 40
0
 40
0
 40
1
 40
1
 40
1
 40
1
 10
115.334061
 20
207.419152
 30
0.0
 10
115.942037
 20
206.566801
 30
0.0
 10
116.923587
 20
205.730535
 30
0.0
 10
118.126966
 20
204.834807
 30
0.0
  0
LWPOLYLINE
  5
165
100
AcDbEntity
  8
Board-outline
 62
7
100
AcDbPolyline
 90
3
 70
0
 10
115.325964
 20
207.430260
 30
0.0
 10
115.330159
 20
207.424852
 30
0.0
 10
115.334061
 20
207.419152
 30
0.0
  0
SPLINE
  5
166
100
AcDbEntity
  8
Board-outline
 62
7
100
AcDbSpline
 70
8
 71
3
 72
8
 73
4
 74
0
 40
0
 40
0
 40
0
 40
0
 40
1
 40
1
 40
1
 40
1
 10
118.128196
 20
204.833885
 30
0.0
 10
119.038199
 20
204.165773
 30
0.0
 10
120.126300
 20
203.416497
 30
0.0
 10
121.231091
 20
202.617445
 30
0.0
  0
SPLINE
  5
167
100
AcDbEntity
  8
Board-outline
 62
7
100
AcDbSpline
 70
8
 71
3
 72
8
 73
4
 74
0
 40
0
 40
0
 40
0
 40
0
 40
1
 40
1
 40
1
 40
1
 10
121.231091
 20
202.617445
 30
0.0
 10
121.326407
 20
202.806291
 30
0.0
 10
121.441483
 20
202.992490
 30
0.0
 10
121.577391
 20
203.174406
 30
0.0
  0
SPLINE
  5
168
100
AcDbEntity
  8
Board-outline
 62
7
100
AcDbSpline
 70
8
 71
3
 72
8
 73
4
 74
0
 40
0
 40
0
 40
0
 40
0
 40
1
 40
1
 40
1
 40
1
 10
121.577391
 20
203.174406
 30
0.0
 10
122.701802
 20
204.687257
 30
0.0
 10
124.427046
 20
204.765548
 30
0.0
 10
125.147220
 20
204.732756
 30
0.0
  0
LWPOLYLINE
  5
169
100
AcDbEntity
  8
Board-outline
 62
7
100
AcDbPolyline
 90
2
 70
0
 10
118.126966
 20
204.834807
 30
0.0
 10
118.128196
 20
204.833885
 30
0.0
  0
SPLINE
  5
16a
100
AcDbEntity
  8
Board-outline
 62
7
100
AcDbSpline
 70
8
 71
3
 72
8
 73
4
 74
0
 40
0
 40
0
 40
0
 40
0
 40
1
 40
1
 40
1
 40
1
 10
125.157729
 20
204.732141
 30
0.0
 10
126.168574
 20
204.682557
 30
0.0
 10
127.272170
 20
204.418234
 30
0.0
 10
127.826100
 20
204.309620
 30
0.0
  0
LWPOLYLINE
  5
16b
100
AcDbEntity
  8
Board-outline
 62
7
100
AcDbPolyline
 90
3
 70
0
 10
125.147220
 20
204.732756
 30
0.0
 10
125.152321
 20
204.732449
 30
0.0
 10
125.157729
 20
204.732141
 30
0.0
  0
SPLINE
  5
16c
100
AcDbEntity
  8
Board-outline
 62
7
100
AcDbSpline
 70
8
 71
3
 72
8
 73
4
 74
0
 40
0
 40
0
 40
0
 40
0
 40
1
 40
1
 40
1
 40
1
 10
127.989347
 20
204.273009
 30
0.0
 10
128.944895
 20
204.029532
 30
0.0
 10
129.910743
 20
203.511579
 30
0.0
 10
130.380136
 20
203.263219
 30
0.0
  0
LWPOLYLINE
  5
16d
100
AcDbEntity
  8
Board-outline
 62
7
100
AcDbPolyline
 90
3
 70
0
 10
127.826100
 20
204.309620
 30
0.0
 10
127.908323
 20
204.293716
 30
0.0
 10
127.989347
 20
204.273009
 30
0.0
  0
SPLINE
  5
16e
100
AcDbEntity
  8
Board-outline
 62
7
100
AcDbSpline
 70
8
 71
3
 72
8
 73
4
 74
0
 40
0
 40
0
 40
0
 40
0
 40
1
 40
1
 40
1
 40
1
 10
130.432352
 20
203.235010
 30
0.0
 10
132.229245
 20
202.238242
 30
0.0
 10
133.889875
 20
201.073334
 30
0.0
 10
135.430893
 20
199.852734
 30
0.0
  0
LWPOLYLINE
  5
16f
100
AcDbEntity
  8
Board-outline
 62
7
100
AcDbPolyline
 90
3
 70
0
 10
130.380136
 20
203.263219
 30
0.0
 10
130.406544
 20
203.249406
 30
0.0
 10
130.432352
 20
203.235010
 30
0.0
  0
SPLINE
  5
170
100
AcDbEntity
  8
Board-outline
 62
7
100
AcDbSpline
 70
8
 71
3
 72
8
 73
4
 74
0
 40
0
 40
0
 40
0
 40
0
 40
1
 40
1
 40
1
 40
1
 10
135.443200
 20
199.842839
 30
0.0
 10
137.315441
 20
198.344002
 30
0.0
 10
139.163808
 20
196.626182
 30
0.0
 10
140.739128
 20
194.609629
 30
0.0
  0
LWPOLYLINE
  5
171
100
AcDbEntity
  8
Board-outline
 62
7
100
AcDbPolyline
 90
3
 70
0
 10
135.430893
 20
199.852734
 30
0.0
 10
135.437193
 20
199.847940
 30
0.0
 10
135.443200
 20
199.842839
 30
0.0
  0
SPLINE
  5
172
100
AcDbEntity
  8
Board-outline
 62
7
100
AcDbSpline
 70
8
 71
3
 72
8
 73
4
 74
0
 40
0
 40
0
 40
0
 40
0
 40
1
 40
1
 40
1
 40
1
 10
140.741894
 20
194.606295
 30
0.0
 10
141.681246
 20
193.400387
 30
0.0
 10
142.555195
 20
192.016604
 30
0.0
 10
143.173196
 20
190.450695
 30
0.0
  0
LWPOLYLINE
  5
173
100
AcDbEntity
  8
Board-outline
 62
7
100
AcDbPolyline
 90
3
 70
0
 10
140.739128
 20
194.609629
 30
0.0
 10
140.740357
 20
194.608092
 30
0.0
 10
140.741894
 20
194.606295
 30
0.0
  0
SPLINE
  5
174
100
AcDbEntity
  8
Board-outline
 62
7
100
AcDbSpline
 70
8
 71
3
 72
8
 73
4
 74
0
 40
0
 40
0
 40
0
 40
0
 40
1
 40
1
 40
1
 40
1
 10
143.150688
 20
190.506211
 30
0.0
 10
143.302861
 20
190.142076
 30
0.0
 10
143.472986
 20
189.746678
 30
0.0
 10
143.624825
 20
189.403693
 30
0.0
  0
LWPOLYLINE
  5
175
100
AcDbEntity
  8
Board-outline
 62
7
100
AcDbPolyline
 90
2
 70
0
 10
143.173196
 20
190.450695
 30
0.0
 10
143.150688
 20
190.506211
 30
0.0
  0
SPLINE
  5
176
100
AcDbEntity
  8
Board-outline
 62
7
100
AcDbSpline
 70
8
 71
3
 72
8
 73
4
 74
0
 40
0
 40
0
 40
0
 40
0
 40
1
 40
1
 40
1
 40
1
 10
143.625440
 20
189.402157
 30
0.0
 10
144.232326
 20
188.033692
 30
0.0
 10
144.860115
 20
186.825044
 30
0.0
 10
145.602710
 20
185.874940
 30
0.0
  0
LWPOLYLINE
  5
177
100
AcDbEntity
  8
Board-outline
 62
7
100
AcDbPolyline
 90
2
 70
0
 10
143.624825
 20
189.403693
 30
0.0
 10
143.625440
 20
189.402157
 30
0.0
  0
SPLINE
  5
178
100
AcDbEntity
  8
Board-outline
 62
7
100
AcDbSpline
 70
8
 71
3
 72
8
 73
4
 74
0
 40
0
 40
0
 40
0
 40
0
 40
1
 40
1
 40
1
 40
1
 10
145.609010
 20
185.866842
 30
0.0
 10
146.290152
 20
184.988997
 30
0.0
 10
147.164694
 20
184.102071
 30
0.0
 10
148.121035
 20
183.141155
 30
0.0
  0
LWPOLYLINE
  5
179
100
AcDbEntity
  8
Board-outline
 62
7
100
AcDbPolyline
 90
3
 70
0
 10
145.602710
 20
185.874940
 30
0.0
 10
145.606014
 20
185.870745
 30
0.0
 10
145.609010
 20
185.866842
 30
0.0
  0
SPLINE
  5
17a
100
AcDbEntity
  8
Board-outline
 62
7
100
AcDbSpline
 70
8
 71
3
 72
8
 73
4
 74
0
 40
0
 40
0
 40
0
 40
0
 40
1
 40
1
 40
1
 40
1
 10
148.122832
 20
183.139358
 30
0.0
 10
148.885461
 20
182.374409
 30
0.0
 10
149.761676
 20
181.519596
 30
0.0
 10
150.568838
 20
180.697253
 30
0.0
  0
LWPOLYLINE
  5
17b
100
AcDbEntity
  8
Board-outline
 62
7
100
AcDbPolyline
 90
2
 70
0
 10
148.121035
 20
183.141155
 30
0.0
 10
148.122832
 20
183.139358
 30
0.0
  0
SPLINE
  5
17c
100
AcDbEntity
  8
Board-outline
 62
7
100
AcDbSpline
 70
8
 71
3
 72
8
 73
4
 74
0
 40
0
 40
0
 40
0
 40
0
 40
1
 40
1
 40
1
 40
1
 10
150.624354
 20
180.639037
 30
0.0
 10
152.049831
 20
179.106619
 30
0.0
 10
152.871153
 20
177.249255
 30
0.0
 10
153.386652
 20
175.619789
 30
0.0
  0
LWPOLYLINE
  5
17d
100
AcDbEntity
  8
Board-outline
 62
7
100
AcDbPolyline
 90
3
 70
0
 10
150.568838
 20
180.697253
 30
0.0
 10
150.596746
 20
180.668445
 30
0.0
 10
150.624354
 20
180.639037
 30
0.0
  0
SPLINE
  5
17e
100
AcDbEntity
  8
Board-outline
 62
7
100
AcDbSpline
 70
8
 71
3
 72
8
 73
4
 74
0
 40
0
 40
0
 40
0
 40
0
 40
1
 40
1
 40
1
 40
1
 10
153.388188
 20
175.614381
 30
0.0
 10
154.094299
 20
173.367016
 30
0.0
 10
154.404968
 20
171.056236
 30
0.0
 10
154.637149
 20
169.000172
 30
0.0
  0
LWPOLYLINE
  5
17f
100
AcDbEntity
  8
Board-outline
 62
7
100
AcDbPolyline
 90
3
 70
0
 10
153.386652
 20
175.619789
 30
0.0
 10
153.387266
 20
175.617085
 30
0.0
 10
153.388188
 20
175.614381
 30
0.0
  0
SPLINE
  5
180
100
AcDbEntity
  8
Board-outline
 62
7
100
AcDbSpline
 70
8
 71
3
 72
8
 73
4
 74
0
 40
0
 40
0
 40
0
 40
0
 40
1
 40
1
 40
1
 40
1
 10
154.638071
 20
168.990877
 30
0.0
 10
154.646813
 20
168.911286
 30
0.0
 10
154.653477
 20
168.833211
 30
0.0
 10
154.662078
 20
168.753207
 30
0.0
  0
SPLINE
  5
181
100
AcDbEntity
  8
Board-outline
 62
7
100
AcDbSpline
 70
8
 71
3
 72
8
 73
4
 74
0
 40
0
 40
0
 40
0
 40
0
 40
1
 40
1
 40
1
 40
1
 10
154.662078
 20
168.753207
 30
0.0
 10
154.865148
 20
169.193901
 30
0.0
 10
155.118142
 20
169.639649
 30
0.0
 10
155.506521
 20
170.048681
 30
0.0
  0
LWPOLYLINE
  5
182
100
AcDbEntity
  8
Board-outline
 62
7
100
AcDbPolyline
 90
3
 70
0
 10
154.637149
 20
169.000172
 30
0.0
 10
154.637764
 20
168.995670
 30
0.0
 10
154.638071
 20
168.990877
 30
0.0
  0
SPLINE
  5
183
100
AcDbEntity
  8
Board-outline
 62
7
100
AcDbSpline
 70
8
 71
3
 72
8
 73
4
 74
0
 40
0
 40
0
 40
0
 40
0
 40
1
 40
1
 40
1
 40
1
 10
155.528738
 20
170.071789
 30
0.0
 10
156.747873
 20
171.328561
 30
0.0
 10
158.520854
 20
171.517133
 30
0.0
 10
159.899799
 20
170.950442
 30
0.0
  0
SPLINE
  5
184
100
AcDbEntity
  8
Board-outline
 62
7
100
AcDbSpline
 70
8
 71
3
 72
8
 73
4
 74
0
 40
0
 40
0
 40
0
 40
0
 40
1
 40
1
 40
1
 40
1
 10
159.899799
 20
170.950442
 30
0.0
 10
161.194747
 20
170.422490
 30
0.0
 10
161.991622
 20
169.454437
 30
0.0
 10
162.372213
 20
169.005881
 30
0.0
  0
LWPOLYLINE
  5
185
100
AcDbEntity
  8
Board-outline
 62
7
100
AcDbPolyline
 90
3
 70
0
 10
155.506521
 20
170.048681
 30
0.0
 10
155.517629
 20
170.060081
 30
0.0
 10
155.528738
 20
170.071789
 30
0.0
  0
SPLINE
  5
186
100
AcDbEntity
  8
Board-outline
 62
7
100
AcDbSpline
 70
8
 71
3
 72
8
 73
4
 74
0
 40
0
 40
0
 40
0
 40
0
 40
1
 40
1
 40
1
 40
1
 10
162.415124
 20
168.953967
 30
0.0
 10
163.405613
 20
167.732065
 30
0.0
 10
164.155460
 20
166.398288
 30
0.0
 10
164.765703
 20
165.215188
 30
0.0
  0
LWPOLYLINE
  5
187
100
AcDbEntity
  8
Board-outline
 62
7
100
AcDbPolyline
 90
3
 70
0
 10
162.372213
 20
169.005881
 30
0.0
 10
162.393819
 20
168.980074
 30
0.0
 10
162.415124
 20
168.953967
 30
0.0
  0
SPLINE
  5
188
100
AcDbEntity
  8
Board-outline
 62
7
100
AcDbSpline
 70
8
 71
3
 72
8
 73
4
 74
0
 40
0
 40
0
 40
0
 40
0
 40
1
 40
1
 40
1
 40
1
 10
164.775290
 20
165.195983
 30
0.0
 10
165.909792
 20
162.957534
 30
0.0
 10
166.820384
 20
160.601673
 30
0.0
 10
167.479670
 20
158.173956
 30
0.0
  0
LWPOLYLINE
  5
189
100
AcDbEntity
  8
Board-outline
 62
7
100
AcDbPolyline
 90
3
 70
0
 10
164.765703
 20
165.215188
 30
0.0
 10
164.770497
 20
165.205586
 30
0.0
 10
164.775290
 20
165.195983
 30
0.0
  0
SPLINE
  5
18a
100
AcDbEntity
  8
Board-outline
 62
7
100
AcDbSpline
 70
8
 71
3
 72
8
 73
4
 74
0
 40
0
 40
0
 40
0
 40
0
 40
1
 40
1
 40
1
 40
1
 10
167.483265
 20
158.160743
 30
0.0
 10
167.993844
 20
156.246046
 30
0.0
 10
168.393253
 20
154.131001
 30
0.0
 10
168.391028
 20
151.939948
 30
0.0
  0
LWPOLYLINE
  5
18b
100
AcDbEntity
  8
Board-outline
 62
7
100
AcDbPolyline
 90
3
 70
0
 10
167.479670
 20
158.173956
 30
0.0
 10
167.481468
 20
158.167349
 30
0.0
 10
167.483265
 20
158.160743
 30
0.0
  0
SPLINE
  5
18c
100
AcDbEntity
  8
Board-outline
 62
7
100
AcDbSpline
 70
8
 71
3
 72
8
 73
4
 74
0
 40
0
 40
0
 40
0
 40
0
 40
1
 40
1
 40
1
 40
1
 10
168.391028
 20
151.931559
 30
0.0
 10
168.384990
 20
150.340992
 30
0.0
 10
168.144737
 20
148.473125
 30
0.0
 10
167.288209
 20
146.732258
 30
0.0
  0
SPLINE
  5
18d
100
AcDbEntity
  8
Board-outline
 62
7
100
AcDbSpline
 70
8
 71
3
 72
8
 73
4
 74
0
 40
0
 40
0
 40
0
 40
0
 40
1
 40
1
 40
1
 40
1
 10
167.288209
 20
146.732258
 30
0.0
 10
166.220850
 20
144.468326
 30
0.0
 10
164.732699
 20
142.474096
 30
0.0
 10
163.325266
 20
140.768338
 30
0.0
  0
SPLINE
  5
18e
100
AcDbEntity
  8
Board-outline
 62
7
100
AcDbSpline
 70
8
 71
3
 72
8
 73
4
 74
0
 40
0
 40
0
 40
0
 40
0
 40
1
 40
1
 40
1
 40
1
 10
163.325266
 20
140.768338
 30
0.0
 10
162.936111
 20
140.291059
 30
0.0
 10
162.567939
 20
139.851644
 30
0.0
 10
162.208344
 20
139.417348
 30
0.0
  0
SPLINE
  5
18f
100
AcDbEntity
  8
Board-outline
 62
7
100
AcDbSpline
 70
8
 71
3
 72
8
 73
4
 74
0
 40
0
 40
0
 40
0
 40
0
 40
1
 40
1
 40
1
 40
1
 10
162.208344
 20
139.417348
 30
0.0
 10
162.828154
 20
139.149810
 30
0.0
 10
163.366754
 20
138.760327
 30
0.0
 10
163.728283
 20
138.316030
 30
0.0
  0
SPLINE
  5
190
100
AcDbEntity
  8
Board-outline
 62
7
100
AcDbSpline
 70
8
 71
3
 72
8
 73
4
 74
0
 40
0
 40
0
 40
0
 40
0
 40
1
 40
1
 40
1
 40
1
 10
163.728283
 20
138.316030
 30
0.0
 10
164.477159
 20
137.403306
 30
0.0
 10
164.817393
 20
136.368674
 30
0.0
 10
164.998549
 20
135.806106
 30
0.0
  0
LWPOLYLINE
  5
191
100
AcDbEntity
  8
Board-outline
 62
7
100
AcDbPolyline
 90
3
 70
0
 10
168.391028
 20
151.939948
 30
0.0
 10
168.391028
 20
151.935754
 30
0.0
 10
168.391028
 20
151.931559
 30
0.0
  0
SPLINE
  5
192
100
AcDbEntity
  8
Board-outline
 62
7
100
AcDbSpline
 70
8
 71
3
 72
8
 73
4
 74
0
 40
0
 40
0
 40
0
 40
0
 40
1
 40
1
 40
1
 40
1
 10
165.016848
 20
135.746990
 30
0.0
 10
165.585581
 20
133.847273
 30
0.0
 10
165.731732
 20
131.800154
 30
0.0
 10
165.394357
 20
129.812477
 30
0.0
  0
SPLINE
  5
193
100
AcDbEntity
  8
Board-outline
 62
7
100
AcDbSpline
 70
8
 71
3
 72
8
 73
4
 74
0
 40
0
 40
0
 40
0
 40
0
 40
1
 40
1
 40
1
 40
1
 10
165.394357
 20
129.812477
 30
0.0
 10
165.096298
 20
128.054310
 30
0.0
 10
164.361941
 20
126.313097
 30
0.0
 10
163.202224
 20
124.863449
 30
0.0
  0
SPLINE
  5
194
100
AcDbEntity
  8
Board-outline
 62
7
100
AcDbSpline
 70
8
 71
3
 72
8
 73
4
 74
0
 40
0
 40
0
 40
0
 40
0
 40
1
 40
1
 40
1
 40
1
 10
163.202224
 20
124.863449
 30
0.0
 10
161.769004
 20
123.061845
 30
0.0
 10
159.850017
 20
121.766479
 30
0.0
 10
158.259798
 20
120.823683
 30
0.0
  0
LWPOLYLINE
  5
195
100
AcDbEntity
  8
Board-outline
 62
7
100
AcDbPolyline
 90
3
 70
0
 10
164.998549
 20
135.806106
 30
0.0
 10
165.008152
 20
135.776697
 30
0.0
 10
165.016848
 20
135.746990
 30
0.0
  0
SPLINE
  5
196
100
AcDbEntity
  8
Board-outline
 62
7
100
AcDbSpline
 70
8
 71
3
 72
8
 73
4
 74
0
 40
0
 40
0
 40
0
 40
0
 40
1
 40
1
 40
1
 40
1
 10
158.254697
 20
120.820349
 30
0.0
 10
157.300971
 20
120.257553
 30
0.0
 10
156.284866
 20
119.716054
 30
0.0
 10
155.416779
 20
119.237094
 30
0.0
  0
LWPOLYLINE
  5
197
100
AcDbEntity
  8
Board-outline
 62
7
100
AcDbPolyline
 90
3
 70
0
 10
158.259798
 20
120.823683
 30
0.0
 10
158.257401
 20
120.821886
 30
0.0
 10
158.254697
 20
120.820349
 30
0.0
  0
SPLINE
  5
198
100
AcDbEntity
  8
Board-outline
 62
7
100
AcDbSpline
 70
8
 71
3
 72
8
 73
4
 74
0
 40
0
 40
0
 40
0
 40
0
 40
1
 40
1
 40
1
 40
1
 10
155.431774
 20
119.245191
 30
0.0
 10
154.377200
 20
118.655534
 30
0.0
 10
153.468785
 20
118.127811
 30
0.0
 10
152.832125
 20
117.592614
 30
0.0
  0
SPLINE
  5
199
100
AcDbEntity
  8
Board-outline
 62
7
100
AcDbSpline
 70
8
 71
3
 72
8
 73
4
 74
0
 40
0
 40
0
 40
0
 40
0
 40
1
 40
1
 40
1
 40
1
 10
152.832125
 20
117.592614
 30
0.0
 10
152.458568
 20
117.272602
 30
0.0
 10
152.336728
 20
117.023451
 30
0.0
 10
152.352286
 20
117.074365
 30
0.0
  0
SPLINE
  5
19a
100
AcDbEntity
  8
Board-outline
 62
7
100
AcDbSpline
 70
8
 71
3
 72
8
 73
4
 74
0
 40
0
 40
0
 40
0
 40
0
 40
1
 40
1
 40
1
 40
1
 10
152.352286
 20
117.074365
 30
0.0
 10
151.464402
 20
114.164852
 30
0.0
 10
149.410817
 20
111.517532
 30
0.0
 10
146.663858
 20
110.020901
 30
0.0
  0
LWPOLYLINE
  5
19b
100
AcDbEntity
  8
Board-outline
 62
7
100
AcDbPolyline
 90
2
 70
0
 10
155.416779
 20
119.237094
 30
0.0
 10
155.431774
 20
119.245191
 30
0.0
  0
SPLINE
  5
19c
100
AcDbEntity
  8
Board-outline
 62
7
100
AcDbSpline
 70
8
 71
3
 72
8
 73
4
 74
0
 40
0
 40
0
 40
0
 40
0
 40
1
 40
1
 40
1
 40
1
 10
146.645267
 20
110.010998
 30
0.0
 10
145.406620
 20
109.347369
 30
0.0
 10
143.775675
 20
108.774932
 30
0.0
 10
141.962101
 20
108.920183
 30
0.0
  0
LWPOLYLINE
  5
19d
100
AcDbEntity
  8
Board-outline
 62
7
100
AcDbPolyline
 90
3
 70
0
 10
146.663858
 20
110.020901
 30
0.0
 10
146.654562
 20
110.016099
 30
0.0
 10
146.645267
 20
110.010998
 30
0.0
  0
SPLINE
  5
19e
100
AcDbEntity
  8
Board-outline
 62
7
100
AcDbSpline
 70
8
 71
3
 72
8
 73
4
 74
0
 40
0
 40
0
 40
0
 40
0
 40
1
 40
1
 40
1
 40
1
 10
141.876577
 20
108.928285
 30
0.0
 10
141.810312
 20
108.935503
 30
0.0
 10
141.743728
 20
108.943661
 30
0.0
 10
141.676718
 20
108.951091
 30
0.0
  0
SPLINE
  5
19f
100
AcDbEntity
  8
Board-outline
 62
7
100
AcDbSpline
 70
8
 71
3
 72
8
 73
4
 74
0
 40
0
 40
0
 40
0
 40
0
 40
1
 40
1
 40
1
 40
1
 10
141.676718
 20
108.951091
 30
0.0
 10
141.670495
 20
108.691155
 30
0.0
 10
141.667868
 20
108.420395
 30
0.0
 10
141.661415
 20
108.166365
 30
0.0
  0
LWPOLYLINE
  5
1a0
100
AcDbEntity
  8
Board-outline
 62
7
100
AcDbPolyline
 90
3
 70
0
 10
141.962101
 20
108.920183
 30
0.0
 10
141.919189
 20
108.923483
 30
0.0
 10
141.876577
 20
108.928285
 30
0.0
  0
SPLINE
  5
1a1
100
AcDbEntity
  8
Board-outline
 62
7
100
AcDbSpline
 70
8
 71
3
 72
8
 73
4
 74
0
 40
0
 40
0
 40
0
 40
0
 40
1
 40
1
 40
1
 40
1
 10
140.611111
 20
105.961629
 30
0.0
 10
139.554400
 20
105.058770
 30
0.0
 10
138.426530
 20
104.119149
 30
0.0
 10
137.239339
 20
103.240144
 30
0.0
  0
SPLINE
  5
1a2
100
AcDbEntity
  8
Board-outline
 62
7
100
AcDbSpline
 70
8
 71
3
 72
8
 73
4
 74
0
 40
0
 40
0
 40
0
 40
0
 40
1
 40
1
 40
1
 40
1
 10
137.239339
 20
103.240144
 30
0.0
 10
131.106151
 20
98.668444
 30
0.0
 10
123.966259
 20
95.450634
 30
0.0
 10
116.475448
 20
93.890346
 30
0.0
  0
SPLINE
  5
1a3
100
AcDbEntity
  8
Board-outline
 62
7
100
AcDbSpline
 70
8
 71
3
 72
8
 73
4
 74
0
 40
0
 40
0
 40
0
 40
0
 40
1
 40
1
 40
1
 40
1
 10
116.475448
 20
93.890346
 30
0.0
 10
116.209603
 20
93.833627
 30
0.0
 10
115.943596
 20
93.776931
 30
0.0
 10
115.677518
 20
93.720198
 30
0.0
  0
LWPOLYLINE
  5
1a4
100
AcDbEntity
  8
Board-outline
 62
7
100
AcDbPolyline
 90
3
 70
0
 10
141.661415
 20
108.166365
 30
0.0
 10
141.627504
 20
106.830079
 30
0.0
 10
140.611111
 20
105.961629
 30
0.0
  0
SPLINE
  5
1a5
100
AcDbEntity
  8
Board-outline
 62
7
100
AcDbSpline
 70
8
 71
3
 72
8
 73
4
 74
0
 40
0
 40
0
 40
0
 40
0
 40
1
 40
1
 40
1
 40
1
 10
113.287027
 20
94.228244
 30
0.0
 10
112.703722
 20
94.652579
 30
0.0
 10
112.119768
 20
95.076991
 30
0.0
 10
111.536022
 20
95.501511
 30
0.0
  0
SPLINE
  5
1a6
100
AcDbEntity
  8
Board-outline
 62
7
100
AcDbSpline
 70
8
 71
3
 72
8
 73
4
 74
0
 40
0
 40
0
 40
0
 40
0
 40
1
 40
1
 40
1
 40
1
 10
111.536022
 20
95.501511
 30
0.0
 10
109.559308
 20
95.330735
 30
0.0
 10
107.551318
 20
95.219754
 30
0.0
 10
105.518086
 20
95.261742
 30
0.0
  0
SPLINE
  5
1a7
100
AcDbEntity
  8
Board-outline
 62
7
100
AcDbSpline
 70
8
 71
3
 72
8
 73
4
 74
0
 40
0
 40
0
 40
0
 40
0
 40
1
 40
1
 40
1
 40
1
 10
105.518086
 20
95.261742
 30
0.0
 10
103.519075
 20
95.220744
 30
0.0
 10
101.551507
 20
95.333747
 30
0.0
 10
99.618084
 20
95.500911
 30
0.0
  0
SPLINE
  5
1a8
100
AcDbEntity
  8
Board-outline
 62
7
100
AcDbSpline
 70
8
 71
3
 72
8
 73
4
 74
0
 40
0
 40
0
 40
0
 40
0
 40
1
 40
1
 40
1
 40
1
 10
99.618084
 20
95.500911
 30
0.0
 10
99.034630
 20
95.076603
 30
0.0
 10
98.450995
 20
94.652368
 30
0.0
 10
97.867979
 20
94.228244
 30
0.0
  0
LWPOLYLINE
  5
1a9
100
AcDbEntity
  8
Board-outline
 62
7
100
AcDbPolyline
 90
3
 70
0
 10
115.677518
 20
93.720198
 30
0.0
 10
114.368840
 20
93.441117
 30
0.0
 10
113.287027
 20
94.228244
 30
0.0
  0
SPLINE
  5
1aa
100
AcDbEntity
  8
Board-outline
 62
7
100
AcDbSpline
 70
8
 71
3
 72
8
 73
4
 74
0
 40
0
 40
0
 40
0
 40
0
 40
1
 40
1
 40
1
 40
1
 10
98.683314
 20
204.034426
 30
0.0
 10
99.635559
 20
204.918620
 30
0.0
 10
100.436209
 20
205.935271
 30
0.0
 10
101.000282
 20
207.032291
 30
0.0
  0
SPLINE
  5
1ab
100
AcDbEntity
  8
Board-outline
 62
7
100
AcDbSpline
 70
8
 71
3
 72
8
 73
4
 74
0
 40
0
 40
0
 40
0
 40
0
 40
1
 40
1
 40
1
 40
1
 10
101.000282
 20
207.032291
 30
0.0
 10
100.519805
 20
206.759546
 30
0.0
 10
100.022109
 20
206.485181
 30
0.0
 10
99.791234
 20
206.333988
 30
0.0
  0
LWPOLYLINE
  5
1ac
100
AcDbEntity
  8
Board-outline
 62
7
100
AcDbPolyline
 90
2
 70
0
 10
97.867979
 20
94.228244
 30
0.0
 10
96.785867
 20
93.441117
 30
0.0
  0
SPLINE
  5
1ad
100
AcDbEntity
  8
Board-outline
 62
7
100
AcDbSpline
 70
8
 71
3
 72
8
 73
4
 74
0
 40
0
 40
0
 40
0
 40
0
 40
1
 40
1
 40
1
 40
1
 10
99.765126
 20
206.317195
 30
0.0
 10
99.630099
 20
206.230747
 30
0.0
 10
99.408911
 20
206.056594
 30
0.0
 10
99.098034
 20
205.798646
 30
0.0
  0
LWPOLYLINE
  5
1ae
100
AcDbEntity
  8
Board-outline
 62
7
100
AcDbPolyline
 90
3
 70
0
 10
99.791234
 20
206.333988
 30
0.0
 10
99.778331
 20
206.325292
 30
0.0
 10
99.765126
 20
206.317195
 30
0.0
  0
SPLINE
  5
1af
100
AcDbEntity
  8
Board-outline
 62
7
100
AcDbSpline
 70
8
 71
3
 72
8
 73
4
 74
0
 40
0
 40
0
 40
0
 40
0
 40
1
 40
1
 40
1
 40
1
 10
99.000206
 20
205.721223
 30
0.0
 10
98.695592
 20
205.489155
 30
0.0
 10
98.329581
 20
205.281193
 30
0.0
 10
97.932198
 20
205.106645
 30
0.0
  0
SPLINE
  5
1b0
100
AcDbEntity
  8
Board-outline
 62
7
100
AcDbSpline
 70
8
 71
3
 72
8
 73
4
 74
0
 40
0
 40
0
 40
0
 40
0
 40
1
 40
1
 40
1
 40
1
 10
97.932198
 20
205.106645
 30
0.0
 10
98.238605
 20
204.770077
 30
0.0
 10
98.487886
 20
204.405113
 30
0.0
 10
98.683314
 20
204.034437
 30
0.0
  0
LWPOLYLINE
  5
1b1
100
AcDbEntity
  8
Board-outline
 62
7
100
AcDbPolyline
 90
3
 70
0
 10
99.098034
 20
205.798646
 30
0.0
 10
99.050020
 20
205.759035
 30
0.0
 10
99.000206
 20
205.721223
 30
0.0
  0
LWPOLYLINE
  5
1b2
100
AcDbEntity
  8
Board-outline
 62
7
100
AcDbPolyline
 90
1
 70
1
 10
98.683314
 20
204.034437
 30
0.0
  0
ENDSEC
  0
SECTION
  2
OBJECTS
  0
DICTIONARY
  5
C
330
0
100
AcDbDictionary
  3
ACAD_GROUP
350
D
  3
ACAD_MLINESTYLE
350
17
  0
DICTIONARY
  5
D
330
C
100
AcDbDictionary
  0
DICTIONARY
  5
1A
330
C
100
AcDbDictionary
  0
DICTIONARY
  5
17
330
C
100
AcDbDictionary
  3
STANDARD
350
18
  0
DICTIONARY
  5
19
330
C
100
AcDbDictionary
  0
ENDSEC
  0
EOF
