%TF.GenerationSoftware,KiCad,Pcbnew,9.0.3*%
%TF.CreationDate,2026-01-04T11:16:32-06:00*%
%TF.ProjectId,CC14_Outer,43433134-5f4f-4757-9465-722e6b696361,v1*%
%TF.SameCoordinates,Original*%
%TF.FileFunction,Copper,L1,Top*%
%TF.FilePolarity,Positive*%
%FSLAX46Y46*%
G04 Gerber Fmt 4.6, Leading zero omitted, Abs format (unit mm)*
G04 Created by KiCad (PCBNEW 9.0.3) date 2026-01-04 11:16:32*
%MOMM*%
%LPD*%
G01*
G04 APERTURE LIST*
%TA.AperFunction,NonConductor*%
%ADD10C,0.000000*%
%TD*%
%TA.AperFunction,ComponentPad*%
%ADD11C,5.000000*%
%TD*%
%TA.AperFunction,ComponentPad*%
%ADD12O,1.727200X1.727200*%
%TD*%
%TA.AperFunction,ComponentPad*%
%ADD13R,1.727200X1.727200*%
%TD*%
%TA.AperFunction,ComponentPad*%
%ADD14C,1.727200*%
%TD*%
G04 APERTURE END LIST*
D10*
%TA.AperFunction,NonConductor*%
G36*
X96625872Y-102772769D02*
G01*
X97283735Y-102822794D01*
X97932033Y-102905174D01*
X98569952Y-103019096D01*
X99196679Y-103163744D01*
X99811399Y-103338307D01*
X100413299Y-103541968D01*
X101001565Y-103773915D01*
X101575382Y-104033334D01*
X102133937Y-104319409D01*
X102676416Y-104631329D01*
X103202004Y-104968278D01*
X103709889Y-105329443D01*
X104199255Y-105714009D01*
X104669290Y-106121164D01*
X105119178Y-106550092D01*
X105548106Y-106999980D01*
X105955261Y-107470014D01*
X106339828Y-107959380D01*
X106700993Y-108467263D01*
X107037942Y-108992851D01*
X107349862Y-109535329D01*
X107635938Y-110093883D01*
X107895357Y-110667700D01*
X108127304Y-111255965D01*
X108330965Y-111857863D01*
X108505528Y-112472583D01*
X108650176Y-113099308D01*
X108764098Y-113737226D01*
X108846478Y-114385523D01*
X108896503Y-115043384D01*
X108913359Y-115709996D01*
X108896503Y-116376607D01*
X108846478Y-117034468D01*
X108764098Y-117682765D01*
X108650176Y-118320683D01*
X108505528Y-118947409D01*
X108330965Y-119562128D01*
X108127304Y-120164027D01*
X107895357Y-120752291D01*
X107635938Y-121326108D01*
X107349862Y-121884662D01*
X107037942Y-122427140D01*
X106700993Y-122952728D01*
X106339828Y-123460612D01*
X105955261Y-123949977D01*
X105548106Y-124420011D01*
X105119178Y-124869899D01*
X104669290Y-125298827D01*
X104199255Y-125705982D01*
X103709889Y-126090548D01*
X103202004Y-126451713D01*
X102676416Y-126788662D01*
X102133937Y-127100582D01*
X101575382Y-127386658D01*
X101001565Y-127646076D01*
X100413299Y-127878023D01*
X99811399Y-128081685D01*
X99196679Y-128256247D01*
X98569952Y-128400895D01*
X97932033Y-128514817D01*
X97283735Y-128597197D01*
X96625872Y-128647222D01*
X95959259Y-128664078D01*
X95292646Y-128647222D01*
X94634783Y-128597197D01*
X93986485Y-128514817D01*
X93348566Y-128400895D01*
X92721840Y-128256247D01*
X92107119Y-128081685D01*
X91505220Y-127878023D01*
X90916955Y-127646076D01*
X90343138Y-127386658D01*
X89784583Y-127100582D01*
X89242105Y-126788662D01*
X88716516Y-126451713D01*
X88208632Y-126090548D01*
X87719266Y-125705982D01*
X87249232Y-125298827D01*
X86799344Y-124869899D01*
X86370416Y-124420011D01*
X85963262Y-123949977D01*
X85578695Y-123460612D01*
X85217531Y-122952728D01*
X84880582Y-122427140D01*
X84568662Y-121884662D01*
X84282587Y-121326108D01*
X84023169Y-120752291D01*
X83791222Y-120164027D01*
X83587561Y-119562128D01*
X83412999Y-118947409D01*
X83268350Y-118320683D01*
X83154429Y-117682765D01*
X83072049Y-117034468D01*
X83022024Y-116376607D01*
X83005168Y-115709996D01*
X83022024Y-115043384D01*
X83072049Y-114385523D01*
X83154429Y-113737226D01*
X83268350Y-113099308D01*
X83412999Y-112472583D01*
X83587561Y-111857863D01*
X83791222Y-111255965D01*
X84023169Y-110667700D01*
X84282587Y-110093883D01*
X84568662Y-109535329D01*
X84880582Y-108992851D01*
X85217531Y-108467263D01*
X85578695Y-107959380D01*
X85963262Y-107470014D01*
X86370416Y-106999980D01*
X86799344Y-106550092D01*
X87249232Y-106121164D01*
X87719266Y-105714009D01*
X88208632Y-105329443D01*
X88716516Y-104968278D01*
X89242105Y-104631329D01*
X89784583Y-104319409D01*
X90343138Y-104033334D01*
X90916955Y-103773915D01*
X91505220Y-103541968D01*
X92107119Y-103338307D01*
X92721840Y-103163744D01*
X93348566Y-103019096D01*
X93986485Y-102905174D01*
X94634783Y-102822794D01*
X95292646Y-102772769D01*
X95959259Y-102755913D01*
X96625872Y-102772769D01*
G37*
%TD.AperFunction*%
%TA.AperFunction,NonConductor*%
G36*
X40850000Y-81020000D02*
G01*
X40945383Y-81029790D01*
X41039131Y-81046086D01*
X41131110Y-81069022D01*
X41221187Y-81098730D01*
X41265470Y-81116165D01*
X41309226Y-81135342D01*
X41352440Y-81156279D01*
X41395094Y-81178992D01*
X41437172Y-81203497D01*
X41478657Y-81229811D01*
X41519532Y-81257951D01*
X41559780Y-81287933D01*
X41599384Y-81319773D01*
X41638329Y-81353489D01*
X41676596Y-81389096D01*
X41714169Y-81426612D01*
X41751032Y-81466053D01*
X41787168Y-81507435D01*
X41822559Y-81550775D01*
X41857189Y-81596090D01*
X41891042Y-81643396D01*
X41924100Y-81692710D01*
X41987765Y-81797427D01*
X42048052Y-81910373D01*
X42156119Y-82146067D01*
X42246320Y-82384558D01*
X42318966Y-82625596D01*
X42374371Y-82868930D01*
X42412848Y-83114310D01*
X42434709Y-83361484D01*
X42440268Y-83610201D01*
X42429838Y-83860211D01*
X42403732Y-84111263D01*
X42362262Y-84363106D01*
X42305742Y-84615490D01*
X42234485Y-84868163D01*
X42148804Y-85120875D01*
X42049011Y-85373375D01*
X41935420Y-85625412D01*
X41808344Y-85876736D01*
X41668095Y-86127095D01*
X41514987Y-86376238D01*
X41349333Y-86623916D01*
X41171445Y-86869876D01*
X40981638Y-87113869D01*
X40780222Y-87355644D01*
X40343822Y-87831533D01*
X39864749Y-88295539D01*
X39345506Y-88745655D01*
X38788597Y-89179874D01*
X38196527Y-89596190D01*
X37918320Y-89762356D01*
X37793591Y-89821201D01*
X37678043Y-89864246D01*
X37571375Y-89891762D01*
X37473285Y-89904020D01*
X37383473Y-89901291D01*
X37301637Y-89883844D01*
X37227477Y-89851951D01*
X37160690Y-89805881D01*
X37100976Y-89745904D01*
X37048034Y-89672293D01*
X37001562Y-89585315D01*
X36961259Y-89485243D01*
X36897956Y-89246896D01*
X36855715Y-88959415D01*
X36832126Y-88624961D01*
X36824781Y-88245700D01*
X36831268Y-87823794D01*
X36876104Y-86860699D01*
X36947357Y-85752983D01*
X36967574Y-85532770D01*
X36998663Y-85312746D01*
X37040172Y-85093357D01*
X37091652Y-84875051D01*
X37152653Y-84658275D01*
X37222724Y-84443476D01*
X37301414Y-84231100D01*
X37388275Y-84021594D01*
X37482855Y-83815406D01*
X37584704Y-83612983D01*
X37693371Y-83414770D01*
X37808408Y-83221216D01*
X37929362Y-83032766D01*
X38055785Y-82849869D01*
X38187225Y-82672970D01*
X38323233Y-82502517D01*
X38463358Y-82338957D01*
X38607150Y-82182737D01*
X38754159Y-82034303D01*
X38903934Y-81894102D01*
X39056026Y-81762582D01*
X39209983Y-81640190D01*
X39365355Y-81527371D01*
X39521694Y-81424574D01*
X39678547Y-81332244D01*
X39835465Y-81250830D01*
X39991997Y-81180778D01*
X40147694Y-81122534D01*
X40302104Y-81076546D01*
X40454779Y-81043261D01*
X40605266Y-81023125D01*
X40753117Y-81016586D01*
X40850000Y-81020000D01*
G37*
%TD.AperFunction*%
%TA.AperFunction,NonConductor*%
G36*
X102891992Y-37089659D02*
G01*
X102926717Y-37092451D01*
X102960651Y-37096381D01*
X102993784Y-37101454D01*
X103026104Y-37107670D01*
X103057601Y-37115033D01*
X103088262Y-37123544D01*
X103118077Y-37133207D01*
X103147035Y-37144024D01*
X103175124Y-37155996D01*
X103202334Y-37169128D01*
X103228653Y-37183420D01*
X103254070Y-37198876D01*
X103278574Y-37215497D01*
X103302154Y-37233287D01*
X103324798Y-37252248D01*
X103346496Y-37272382D01*
X103367236Y-37293691D01*
X103387008Y-37316178D01*
X103405799Y-37339846D01*
X103423599Y-37364696D01*
X103440397Y-37390731D01*
X103456181Y-37417955D01*
X103470941Y-37446368D01*
X103484665Y-37475974D01*
X103497342Y-37506774D01*
X103508961Y-37538772D01*
X103519511Y-37571970D01*
X103528980Y-37606370D01*
X103537358Y-37641974D01*
X103544633Y-37678786D01*
X103583020Y-38106208D01*
X103563116Y-38588003D01*
X103497453Y-39120682D01*
X103398566Y-39700752D01*
X103151247Y-40989099D01*
X103027881Y-41690393D01*
X102921421Y-42425111D01*
X102844400Y-43189763D01*
X102809351Y-43980856D01*
X102828806Y-44794900D01*
X102915298Y-45628402D01*
X102987600Y-46051358D01*
X103081361Y-46477870D01*
X103198147Y-46907501D01*
X103339526Y-47339814D01*
X103507064Y-47774373D01*
X103702327Y-48210742D01*
X103926882Y-48648483D01*
X104182296Y-49087161D01*
X104465263Y-49519581D01*
X104770639Y-49939547D01*
X105444065Y-50746174D01*
X106193468Y-51515148D01*
X107009745Y-52254573D01*
X107883790Y-52972555D01*
X108806498Y-53677200D01*
X110761488Y-55078897D01*
X112801877Y-56524506D01*
X113831335Y-57284041D01*
X114854828Y-58078870D01*
X115863252Y-58917098D01*
X116847503Y-59806831D01*
X117798475Y-60756173D01*
X118707065Y-61773230D01*
X119143951Y-62265544D01*
X119569529Y-62690682D01*
X119982677Y-63051310D01*
X120382271Y-63350094D01*
X120767188Y-63589700D01*
X121136304Y-63772794D01*
X121488496Y-63902041D01*
X121822641Y-63980108D01*
X122137615Y-64009660D01*
X122432295Y-63993364D01*
X122705559Y-63933884D01*
X122956281Y-63833888D01*
X123183340Y-63696041D01*
X123385612Y-63523008D01*
X123561973Y-63317456D01*
X123711300Y-63082050D01*
X123832470Y-62819457D01*
X123924360Y-62532342D01*
X123985846Y-62223372D01*
X124015805Y-61895211D01*
X124013114Y-61550526D01*
X123976648Y-61191982D01*
X123905286Y-60822247D01*
X123797904Y-60443985D01*
X123653377Y-60059862D01*
X123470584Y-59672544D01*
X123248401Y-59284698D01*
X122985703Y-58898988D01*
X122681369Y-58518082D01*
X122334275Y-58144644D01*
X121943297Y-57781341D01*
X121507312Y-57430838D01*
X120687386Y-56797040D01*
X120053202Y-56263512D01*
X119801145Y-56032011D01*
X119589982Y-55822772D01*
X119417865Y-55634859D01*
X119282949Y-55467336D01*
X119183385Y-55319270D01*
X119117326Y-55189723D01*
X119082926Y-55077762D01*
X119078336Y-54982449D01*
X119101711Y-54902852D01*
X119151202Y-54838032D01*
X119224964Y-54787057D01*
X119321148Y-54748989D01*
X119437907Y-54722894D01*
X119573394Y-54707836D01*
X119893166Y-54707092D01*
X120265685Y-54739273D01*
X120676174Y-54796897D01*
X121551955Y-54958541D01*
X122402292Y-55132163D01*
X122895721Y-55284268D01*
X123562172Y-55574932D01*
X124378105Y-55995050D01*
X125319977Y-56535520D01*
X126364244Y-57187236D01*
X127487364Y-57941096D01*
X128665795Y-58787995D01*
X129875994Y-59718830D01*
X131094418Y-60724497D01*
X132297526Y-61795892D01*
X133461773Y-62923913D01*
X134563619Y-64099453D01*
X135579519Y-65313411D01*
X136047882Y-65931952D01*
X136485931Y-66556683D01*
X136890723Y-67186466D01*
X137259314Y-67820164D01*
X137588762Y-68456638D01*
X137876124Y-69094750D01*
X138387308Y-70301841D01*
X138866113Y-71380356D01*
X139322545Y-72347381D01*
X139766613Y-73220001D01*
X140208320Y-74015301D01*
X140657675Y-74750366D01*
X141124684Y-75442281D01*
X141619353Y-76108133D01*
X142151689Y-76765005D01*
X142731698Y-77429984D01*
X143369387Y-78120154D01*
X144074762Y-78852601D01*
X147773255Y-82546860D01*
X148312571Y-83145889D01*
X148799286Y-83806196D01*
X149236717Y-84522724D01*
X149628178Y-85290415D01*
X149976985Y-86104212D01*
X150286454Y-86959060D01*
X150559900Y-87849900D01*
X150800638Y-88771676D01*
X151197256Y-90687808D01*
X151502831Y-92667000D01*
X151946949Y-96652741D01*
X152345188Y-100405255D01*
X152593413Y-102092912D01*
X152909740Y-103600896D01*
X153101732Y-104274868D01*
X153320695Y-104888751D01*
X153569947Y-105437487D01*
X153852801Y-105916021D01*
X154172575Y-106319294D01*
X154532583Y-106642250D01*
X154936142Y-106879832D01*
X155386565Y-107026983D01*
X156007466Y-107130563D01*
X156566636Y-107168156D01*
X157067197Y-107143422D01*
X157512272Y-107060020D01*
X157904979Y-106921609D01*
X158248441Y-106731849D01*
X158545779Y-106494399D01*
X158800114Y-106212919D01*
X159014567Y-105891067D01*
X159192260Y-105532503D01*
X159336312Y-105140887D01*
X159449847Y-104719877D01*
X159535984Y-104273133D01*
X159597844Y-103804314D01*
X159661222Y-102815090D01*
X159664948Y-101781479D01*
X159633992Y-100732755D01*
X159567911Y-98707067D01*
X159582725Y-97788653D01*
X159662732Y-96972223D01*
X159734987Y-96611402D01*
X159832903Y-96287054D01*
X159959603Y-96002840D01*
X160118207Y-95762420D01*
X160314646Y-95603292D01*
X160550324Y-95556816D01*
X160821580Y-95617441D01*
X161124749Y-95779617D01*
X161456168Y-96037793D01*
X161812172Y-96386420D01*
X162583285Y-97332825D01*
X163408777Y-98574430D01*
X164259341Y-100066835D01*
X165105666Y-101765638D01*
X165918444Y-103626437D01*
X166668365Y-105604831D01*
X167326121Y-107656420D01*
X167862402Y-109736802D01*
X168247899Y-111801575D01*
X168453302Y-113806339D01*
X168479310Y-114772342D01*
X168449303Y-115706692D01*
X168359618Y-116603840D01*
X168206592Y-117458234D01*
X167986561Y-118264324D01*
X167695861Y-119016562D01*
X167356823Y-119728884D01*
X166995878Y-120419588D01*
X166615567Y-121089710D01*
X166218432Y-121740289D01*
X165807014Y-122372363D01*
X165383854Y-122986969D01*
X164512474Y-124167933D01*
X163624622Y-125291484D01*
X162740629Y-126365928D01*
X161065539Y-128400708D01*
X160315103Y-129377654D01*
X159649846Y-130338709D01*
X159355513Y-130815873D01*
X159090098Y-131292178D01*
X158856144Y-131768663D01*
X158656191Y-132246365D01*
X158492780Y-132726323D01*
X158368454Y-133209574D01*
X158285752Y-133697157D01*
X158247217Y-134190110D01*
X158255389Y-134689471D01*
X158312810Y-135196277D01*
X158422021Y-135711567D01*
X158585564Y-136236380D01*
X158778544Y-136736744D01*
X158973972Y-137179499D01*
X159171301Y-137566844D01*
X159369987Y-137900981D01*
X159569484Y-138184110D01*
X159769246Y-138418430D01*
X159968728Y-138606144D01*
X160167383Y-138749450D01*
X160364667Y-138850550D01*
X160560033Y-138911644D01*
X160752936Y-138934932D01*
X160942829Y-138922615D01*
X161129168Y-138876893D01*
X161311407Y-138799967D01*
X161489000Y-138694037D01*
X161661401Y-138561304D01*
X161828065Y-138403968D01*
X161988446Y-138224229D01*
X162141998Y-138024288D01*
X162288175Y-137806345D01*
X162556225Y-137325257D01*
X162788228Y-136798568D01*
X162979821Y-136243881D01*
X163126637Y-135678800D01*
X163224311Y-135120928D01*
X163268477Y-134587870D01*
X163286845Y-134360316D01*
X163324640Y-134190940D01*
X163379835Y-134077429D01*
X163450405Y-134017472D01*
X163534321Y-134008759D01*
X163629556Y-134048977D01*
X163734085Y-134135816D01*
X163845881Y-134266964D01*
X164083162Y-134652946D01*
X164325186Y-135188431D01*
X164555739Y-135854931D01*
X164758604Y-136633956D01*
X164917568Y-137507016D01*
X165016416Y-138455623D01*
X165038933Y-139461287D01*
X164968905Y-140505518D01*
X164894119Y-141036319D01*
X164790116Y-141569827D01*
X164654869Y-142103733D01*
X164486352Y-142635725D01*
X164282537Y-143163491D01*
X164041398Y-143684721D01*
X163760908Y-144197104D01*
X163439039Y-144698327D01*
X163079802Y-145182362D01*
X162690165Y-145645594D01*
X162272594Y-146089278D01*
X161829554Y-146514669D01*
X161363514Y-146923024D01*
X160876938Y-147315598D01*
X159852048Y-148058427D01*
X158774613Y-148753201D01*
X157664364Y-149409966D01*
X155424350Y-150649653D01*
X154334045Y-151252666D01*
X153289850Y-151857854D01*
X152311494Y-152475262D01*
X151418709Y-153114935D01*
X151010571Y-153446260D01*
X150631225Y-153786920D01*
X150283137Y-154138168D01*
X149968774Y-154501262D01*
X149690601Y-154877456D01*
X149451085Y-155268007D01*
X149252692Y-155674169D01*
X149097889Y-156097200D01*
X148957700Y-156523224D01*
X148802020Y-156937418D01*
X148631625Y-157339609D01*
X148447293Y-157729625D01*
X148249799Y-158107295D01*
X148039922Y-158472446D01*
X147818437Y-158824907D01*
X147586122Y-159164505D01*
X147343753Y-159491068D01*
X147092107Y-159804424D01*
X146831960Y-160104401D01*
X146564090Y-160390827D01*
X146289274Y-160663530D01*
X146008287Y-160922338D01*
X145721907Y-161167079D01*
X145430910Y-161397580D01*
X144838175Y-161815177D01*
X144236296Y-162173752D01*
X143631485Y-162471928D01*
X143329923Y-162597937D01*
X143029959Y-162708330D01*
X142732369Y-162802935D01*
X142437930Y-162881581D01*
X142147419Y-162944094D01*
X141861613Y-162990303D01*
X141581289Y-163020036D01*
X141307223Y-163033121D01*
X141040191Y-163029386D01*
X140780972Y-163008659D01*
X141574335Y-162097026D01*
X141587341Y-162081893D01*
X141599925Y-162066926D01*
X141624154Y-162037359D01*
X141671197Y-161978772D01*
X141671088Y-161978759D01*
X141670978Y-161978751D01*
X141670867Y-161978749D01*
X141670755Y-161978750D01*
X141670529Y-161978762D01*
X141670302Y-161978779D01*
X141670076Y-161978795D01*
X141669963Y-161978801D01*
X141669850Y-161978804D01*
X141669738Y-161978804D01*
X141669627Y-161978799D01*
X141669517Y-161978789D01*
X141669408Y-161978772D01*
X140780972Y-163008659D01*
X139814946Y-163024748D01*
X138810513Y-163053335D01*
X137639003Y-163103153D01*
X136780471Y-163941757D01*
X136347832Y-164357860D01*
X135929269Y-164752277D01*
X135918396Y-165722254D01*
X135897771Y-166801346D01*
X135872819Y-167831829D01*
X135085984Y-168497410D01*
X133658090Y-169668131D01*
X132195252Y-170793346D01*
X130698907Y-171872348D01*
X129170490Y-172904430D01*
X127611440Y-173888887D01*
X126023192Y-174825010D01*
X124407184Y-175712094D01*
X122764852Y-176549433D01*
X121097634Y-177336318D01*
X119406965Y-178072043D01*
X117694283Y-178755903D01*
X115961024Y-179387190D01*
X114208626Y-179965197D01*
X112438524Y-180489218D01*
X110652157Y-180958547D01*
X108850960Y-181372476D01*
X107849588Y-181585820D01*
X107021165Y-180983814D01*
X104657731Y-179264569D01*
X103317929Y-179395334D01*
X101557389Y-179532954D01*
X100562792Y-179593174D01*
X99515150Y-179641715D01*
X98431844Y-179674113D01*
X97330254Y-179685905D01*
X97026116Y-179684948D01*
X96725988Y-179682066D01*
X96430856Y-179677244D01*
X96141701Y-179670463D01*
X95852497Y-179676999D01*
X95557487Y-179681849D01*
X95257591Y-179684867D01*
X94953728Y-179685905D01*
X93852092Y-179674113D01*
X92768765Y-179641715D01*
X91721122Y-179593174D01*
X90726537Y-179532954D01*
X89802386Y-179465519D01*
X88966042Y-179395334D01*
X87626277Y-179264569D01*
X85262237Y-180983814D01*
X84434411Y-181585820D01*
X83433049Y-181372476D01*
X81631852Y-180958547D01*
X79845488Y-180489218D01*
X78075392Y-179965197D01*
X76323002Y-179387190D01*
X74589753Y-178755903D01*
X72877080Y-178072043D01*
X71186420Y-177336318D01*
X69519210Y-176549433D01*
X67876884Y-175712094D01*
X66260879Y-174825010D01*
X64672631Y-173888887D01*
X63113576Y-172904430D01*
X61585150Y-171872348D01*
X60999934Y-171450358D01*
X89666866Y-171450358D01*
X89696532Y-171454295D01*
X89736677Y-171458927D01*
X89696558Y-171454149D01*
X89666866Y-171450358D01*
X60999934Y-171450358D01*
X60507323Y-171095144D01*
X87235468Y-171095144D01*
X87259718Y-171099749D01*
X87832864Y-171195886D01*
X88437995Y-171287276D01*
X88499754Y-171295472D01*
X88438065Y-171286953D01*
X87832937Y-171195620D01*
X87259778Y-171099602D01*
X87235468Y-171095144D01*
X60507323Y-171095144D01*
X60372881Y-170998200D01*
X86725749Y-170998200D01*
X86730475Y-170999243D01*
X86737085Y-171000498D01*
X86730510Y-170999208D01*
X86725749Y-170998200D01*
X60372881Y-170998200D01*
X60088789Y-170793346D01*
X58625929Y-169668131D01*
X57198007Y-168497410D01*
X56411181Y-167831829D01*
X56385623Y-166801346D01*
X56373911Y-166257249D01*
X56365174Y-165722254D01*
X56354721Y-164752277D01*
X55999860Y-164417804D01*
X55634785Y-164066416D01*
X54893988Y-163343836D01*
X54927864Y-163364630D01*
X54921912Y-163360638D01*
X54919095Y-163358712D01*
X54917788Y-163357792D01*
X54916572Y-163356909D01*
X54916392Y-163356796D01*
X54916216Y-163356677D01*
X54916047Y-163356551D01*
X54915882Y-163356419D01*
X54915565Y-163356139D01*
X54915263Y-163355840D01*
X54914973Y-163355526D01*
X54914693Y-163355200D01*
X54914152Y-163354531D01*
X54913615Y-163353862D01*
X54913342Y-163353536D01*
X54913062Y-163353222D01*
X54912772Y-163352923D01*
X54912470Y-163352643D01*
X54912313Y-163352511D01*
X54912152Y-163352385D01*
X54911987Y-163352266D01*
X54911817Y-163352153D01*
X54911601Y-163352057D01*
X54911385Y-163351971D01*
X54911169Y-163351894D01*
X54910953Y-163351824D01*
X54910517Y-163351699D01*
X54910077Y-163351583D01*
X54909632Y-163351464D01*
X54909179Y-163351329D01*
X54908949Y-163351252D01*
X54908717Y-163351165D01*
X54908483Y-163351069D01*
X54908246Y-163350960D01*
X54907993Y-163350739D01*
X54907749Y-163350512D01*
X54907514Y-163350279D01*
X54907286Y-163350043D01*
X54906846Y-163349565D01*
X54906422Y-163349087D01*
X54906003Y-163348621D01*
X54905792Y-163348395D01*
X54905579Y-163348177D01*
X54905363Y-163347966D01*
X54905143Y-163347766D01*
X54904917Y-163347576D01*
X54904684Y-163347398D01*
X54903524Y-163346781D01*
X54901938Y-163345866D01*
X54898068Y-163343537D01*
X54894238Y-163341209D01*
X54892701Y-163340294D01*
X54891611Y-163339677D01*
X54891394Y-163339575D01*
X54891177Y-163339480D01*
X54890959Y-163339393D01*
X54890740Y-163339313D01*
X54890518Y-163339241D01*
X54890293Y-163339178D01*
X54890179Y-163339151D01*
X54890064Y-163339125D01*
X54889947Y-163339101D01*
X54889830Y-163339080D01*
X54893988Y-163343836D01*
X54876023Y-163332535D01*
X54882696Y-163332535D01*
X54885671Y-163334922D01*
X54885684Y-163334819D01*
X54885687Y-163334707D01*
X54885675Y-163334587D01*
X54885645Y-163334460D01*
X54885594Y-163334326D01*
X54885519Y-163334185D01*
X54885416Y-163334038D01*
X54885283Y-163333886D01*
X54885114Y-163333729D01*
X54884908Y-163333568D01*
X54884662Y-163333402D01*
X54884370Y-163333234D01*
X54884032Y-163333062D01*
X54883642Y-163332888D01*
X54883198Y-163332712D01*
X54882696Y-163332535D01*
X54876023Y-163332535D01*
X54597738Y-163157487D01*
X54299703Y-162971809D01*
X54277484Y-162966910D01*
X54266452Y-162964093D01*
X54260900Y-162962475D01*
X54255303Y-162960673D01*
X54249645Y-162958652D01*
X54243910Y-162956380D01*
X54238082Y-162953822D01*
X54232146Y-162950945D01*
X54226085Y-162947715D01*
X54219885Y-162944099D01*
X54213528Y-162940063D01*
X54207000Y-162935573D01*
X54204994Y-162934051D01*
X54203067Y-162932431D01*
X54201208Y-162930724D01*
X54199406Y-162928946D01*
X54197652Y-162927110D01*
X54195934Y-162925230D01*
X54192567Y-162921392D01*
X54189221Y-162917545D01*
X54187529Y-162915651D01*
X54185812Y-162913796D01*
X54184059Y-162911994D01*
X54182259Y-162910258D01*
X54180401Y-162908603D01*
X54178476Y-162907041D01*
X54175292Y-162904670D01*
X54171981Y-162902502D01*
X54168558Y-162900509D01*
X54165040Y-162898666D01*
X54161444Y-162896946D01*
X54157786Y-162895322D01*
X54150349Y-162892255D01*
X54142863Y-162889253D01*
X54135458Y-162886103D01*
X54131827Y-162884406D01*
X54128266Y-162882592D01*
X54124792Y-162880635D01*
X54121420Y-162878508D01*
X54113774Y-162873258D01*
X54106279Y-162867772D01*
X54098933Y-162862069D01*
X54091735Y-162856168D01*
X54084681Y-162850089D01*
X54077771Y-162843850D01*
X54071002Y-162837472D01*
X54064373Y-162830972D01*
X54063886Y-162830459D01*
X54063358Y-162829857D01*
X54062197Y-162828423D01*
X54060927Y-162826757D01*
X54059586Y-162824942D01*
X54056844Y-162821207D01*
X54055518Y-162819457D01*
X54054274Y-162817899D01*
X53957402Y-162757289D01*
X53950401Y-162756195D01*
X53946917Y-162755585D01*
X53943456Y-162754914D01*
X53940031Y-162754168D01*
X53936650Y-162753334D01*
X53933324Y-162752396D01*
X53930063Y-162751341D01*
X53928893Y-162750894D01*
X53927741Y-162750417D01*
X53926604Y-162749915D01*
X53925481Y-162749392D01*
X53923265Y-162748299D01*
X53921077Y-162747173D01*
X53918897Y-162746047D01*
X53916708Y-162744955D01*
X53914493Y-162743930D01*
X53913371Y-162743453D01*
X53912235Y-162743006D01*
X53902733Y-162740637D01*
X53902627Y-162740632D01*
X53902527Y-162740617D01*
X53902430Y-162740593D01*
X53902338Y-162740559D01*
X53902250Y-162740518D01*
X53902165Y-162740469D01*
X53902083Y-162740413D01*
X53902005Y-162740350D01*
X53901929Y-162740282D01*
X53901856Y-162740208D01*
X53901716Y-162740045D01*
X53901583Y-162739866D01*
X53901455Y-162739676D01*
X53901205Y-162739280D01*
X53901079Y-162739082D01*
X53900950Y-162738890D01*
X53900815Y-162738708D01*
X53900672Y-162738541D01*
X53900597Y-162738464D01*
X53900519Y-162738393D01*
X53900439Y-162738327D01*
X53900355Y-162738268D01*
X53899280Y-162737777D01*
X53898193Y-162737314D01*
X53897096Y-162736871D01*
X53895987Y-162736441D01*
X53893736Y-162735590D01*
X53891441Y-162734706D01*
X52703477Y-162870787D01*
X51502439Y-163008659D01*
X50709077Y-162097026D01*
X50403997Y-161740480D01*
X50103889Y-161380434D01*
X49511005Y-160655314D01*
X49487237Y-160645224D01*
X49394980Y-160537122D01*
X49305468Y-160428732D01*
X49131820Y-160211419D01*
X48960569Y-159993945D01*
X48874054Y-159885353D01*
X48785991Y-159776969D01*
X48787175Y-159776969D01*
X48788866Y-159777814D01*
X48790567Y-159778640D01*
X48793990Y-159780261D01*
X48797423Y-159781872D01*
X48800845Y-159783514D01*
X48799880Y-159782507D01*
X48798936Y-159781494D01*
X48797983Y-159780505D01*
X48797492Y-159780029D01*
X48796987Y-159779570D01*
X48796462Y-159779132D01*
X48795916Y-159778719D01*
X48795342Y-159778334D01*
X48794737Y-159777982D01*
X48794422Y-159777819D01*
X48794098Y-159777665D01*
X48793764Y-159777521D01*
X48793420Y-159777388D01*
X48793065Y-159777266D01*
X48792699Y-159777155D01*
X48792321Y-159777056D01*
X48791931Y-159776969D01*
X48791822Y-159776936D01*
X48791713Y-159776896D01*
X48791603Y-159776852D01*
X48791493Y-159776804D01*
X48791050Y-159776598D01*
X48790938Y-159776549D01*
X48790827Y-159776504D01*
X48790714Y-159776463D01*
X48790602Y-159776428D01*
X48790489Y-159776401D01*
X48790376Y-159776381D01*
X48790320Y-159776375D01*
X48790263Y-159776371D01*
X48790206Y-159776370D01*
X48790150Y-159776372D01*
X48789961Y-159776389D01*
X48789773Y-159776414D01*
X48789586Y-159776446D01*
X48789400Y-159776483D01*
X48789029Y-159776568D01*
X48788659Y-159776664D01*
X48788290Y-159776760D01*
X48787920Y-159776848D01*
X48787735Y-159776887D01*
X48787549Y-159776921D01*
X48787362Y-159776948D01*
X48787175Y-159776969D01*
X48785991Y-159776969D01*
X48785918Y-159776964D01*
X48785844Y-159776964D01*
X48785769Y-159776968D01*
X48785693Y-159776974D01*
X48785388Y-159777008D01*
X48785311Y-159777016D01*
X48785235Y-159777021D01*
X48785160Y-159777024D01*
X48785085Y-159777023D01*
X48785011Y-159777018D01*
X48784939Y-159777007D01*
X48784867Y-159776991D01*
X48784832Y-159776981D01*
X48784798Y-159776969D01*
X48784750Y-159776930D01*
X48784706Y-159776889D01*
X48784666Y-159776846D01*
X48784630Y-159776800D01*
X48784596Y-159776754D01*
X48784566Y-159776705D01*
X48784538Y-159776654D01*
X48784513Y-159776603D01*
X48784470Y-159776495D01*
X48784435Y-159776382D01*
X48784407Y-159776266D01*
X48784384Y-159776146D01*
X48784313Y-159775653D01*
X48784292Y-159775531D01*
X48784268Y-159775410D01*
X48784238Y-159775293D01*
X48784201Y-159775179D01*
X47747553Y-159240589D01*
X47224185Y-158977475D01*
X46695316Y-158719146D01*
X45827854Y-158274099D01*
X45053885Y-157818750D01*
X44367561Y-157353570D01*
X43763032Y-156879032D01*
X43234451Y-156395609D01*
X42775969Y-155903772D01*
X42381736Y-155403993D01*
X42045905Y-154896745D01*
X41762625Y-154382501D01*
X41526050Y-153861731D01*
X41330329Y-153334908D01*
X41169615Y-152802506D01*
X40929810Y-151722847D01*
X40759845Y-150626532D01*
X40442276Y-148399044D01*
X40201093Y-147275426D01*
X40039431Y-146712801D01*
X39842590Y-146150261D01*
X39769345Y-145977214D01*
X40795310Y-145977214D01*
X40962294Y-146393557D01*
X41125008Y-146811502D01*
X41290907Y-147228151D01*
X41377381Y-147435083D01*
X41467445Y-147640605D01*
X41378952Y-147436735D01*
X41293641Y-147230756D01*
X41129266Y-146814626D01*
X40967730Y-146396528D01*
X40802444Y-145980777D01*
X40798874Y-145979002D01*
X40797085Y-145978114D01*
X40795310Y-145977214D01*
X39769345Y-145977214D01*
X39604723Y-145588279D01*
X39319979Y-145027328D01*
X38982511Y-144467878D01*
X38586470Y-143910403D01*
X38126006Y-143355374D01*
X37595272Y-142803264D01*
X36988418Y-142254545D01*
X36299596Y-141709689D01*
X33384264Y-139474816D01*
X31957169Y-138306406D01*
X30569830Y-137101244D01*
X29236780Y-135857253D01*
X27972553Y-134572355D01*
X26791680Y-133244474D01*
X25708694Y-131871533D01*
X24738127Y-130451454D01*
X24299542Y-129723088D01*
X24170249Y-129486570D01*
X72582705Y-129486570D01*
X72582796Y-129486796D01*
X72582881Y-129487021D01*
X72583032Y-129487469D01*
X72583167Y-129487915D01*
X72583294Y-129488359D01*
X72583421Y-129488804D01*
X72583557Y-129489249D01*
X72583631Y-129489473D01*
X72583711Y-129489697D01*
X72583796Y-129489923D01*
X72583889Y-129490149D01*
X72877729Y-129486570D01*
X72582705Y-129486570D01*
X24170249Y-129486570D01*
X23894513Y-128982159D01*
X23524854Y-128228408D01*
X23192383Y-127461573D01*
X22898916Y-126681397D01*
X22646270Y-125887618D01*
X22436262Y-125079978D01*
X22270708Y-124258216D01*
X22151424Y-123422074D01*
X22080227Y-122571291D01*
X22058934Y-121705608D01*
X22089362Y-120824765D01*
X22138894Y-120296045D01*
X45091947Y-120296045D01*
X49402772Y-119583713D01*
X54512087Y-118864941D01*
X57368440Y-118514777D01*
X60427132Y-118176966D01*
X63689067Y-117856163D01*
X67155151Y-117557022D01*
X67140679Y-116382718D01*
X70852160Y-116382718D01*
X70885116Y-117686054D01*
X70982925Y-118972278D01*
X71143995Y-120239800D01*
X71366734Y-121487029D01*
X71649550Y-122712372D01*
X71990854Y-123914239D01*
X72389051Y-125091039D01*
X72842553Y-126241180D01*
X73349766Y-127363072D01*
X73909099Y-128455122D01*
X74518962Y-129515739D01*
X75177762Y-130543333D01*
X75883908Y-131536312D01*
X76635808Y-132493085D01*
X77431871Y-133412060D01*
X78270506Y-134291646D01*
X79150121Y-135130253D01*
X80069125Y-135926288D01*
X81025925Y-136678160D01*
X82018931Y-137384279D01*
X83046552Y-138043053D01*
X84107195Y-138652890D01*
X85199269Y-139212200D01*
X86321183Y-139719391D01*
X87471345Y-140172872D01*
X88648164Y-140571051D01*
X89850048Y-140912338D01*
X91075405Y-141195141D01*
X92322646Y-141417869D01*
X93590176Y-141578930D01*
X94876407Y-141676734D01*
X96179745Y-141709689D01*
X97038020Y-141695419D01*
X97889139Y-141652909D01*
X98732649Y-141582611D01*
X99568099Y-141484977D01*
X100395039Y-141360458D01*
X101213016Y-141209507D01*
X102021581Y-141032574D01*
X102820281Y-140830112D01*
X103608665Y-140602573D01*
X104386283Y-140350407D01*
X105152683Y-140074066D01*
X105907413Y-139774004D01*
X106650023Y-139450669D01*
X107271291Y-139156091D01*
X152910791Y-139156091D01*
X153035370Y-138195153D01*
X153143103Y-137212571D01*
X153234741Y-136208086D01*
X153311032Y-135181439D01*
X153372727Y-134132372D01*
X153420577Y-133060625D01*
X153455330Y-131965938D01*
X153477737Y-130848053D01*
X153477140Y-130848053D01*
X153454417Y-131966653D01*
X153419316Y-133062041D01*
X153371158Y-134134380D01*
X153309266Y-135183835D01*
X153232962Y-136210569D01*
X153141567Y-137214747D01*
X153034402Y-138196533D01*
X152910791Y-139156091D01*
X107271291Y-139156091D01*
X107380062Y-139104516D01*
X108097078Y-138735995D01*
X108800620Y-138345558D01*
X109490237Y-137933657D01*
X110165477Y-137500743D01*
X110825890Y-137047268D01*
X111471024Y-136573684D01*
X112100428Y-136080443D01*
X112713651Y-135567995D01*
X113310242Y-135036793D01*
X113889749Y-134487289D01*
X114451722Y-133919935D01*
X114995708Y-133335181D01*
X115521257Y-132733479D01*
X116027918Y-132115282D01*
X116515240Y-131481041D01*
X116982771Y-130831207D01*
X117430059Y-130166233D01*
X117856655Y-129486570D01*
X117965415Y-129486570D01*
X117965415Y-129466951D01*
X117868535Y-129466372D01*
X118289836Y-128742726D01*
X118687678Y-128004163D01*
X119061548Y-127251191D01*
X119410933Y-126484319D01*
X119735318Y-125704055D01*
X120034191Y-124910908D01*
X120307037Y-124105386D01*
X120553343Y-123287998D01*
X120772595Y-122459252D01*
X120964280Y-121619656D01*
X121127884Y-120769719D01*
X121262894Y-119909950D01*
X121368795Y-119040857D01*
X121445075Y-118162949D01*
X121476625Y-117557022D01*
X125128857Y-117557022D01*
X128594914Y-117856163D01*
X131856780Y-118176966D01*
X134915374Y-118514777D01*
X137771614Y-118864941D01*
X140426423Y-119222805D01*
X142880718Y-119583713D01*
X145135419Y-119943011D01*
X147191447Y-120296045D01*
X147190128Y-119996520D01*
X147184125Y-119694080D01*
X147172476Y-119395650D01*
X147154221Y-119108153D01*
X147128400Y-118838513D01*
X147112352Y-118712553D01*
X147094052Y-118593653D01*
X147073379Y-118482679D01*
X147050216Y-118380496D01*
X147024439Y-118287971D01*
X146995931Y-118205967D01*
X146812652Y-118105484D01*
X146345530Y-117972627D01*
X144667989Y-117629232D01*
X142179764Y-117214672D01*
X139097314Y-116767833D01*
X135637096Y-116327604D01*
X132015567Y-115932871D01*
X128449185Y-115622522D01*
X125154407Y-115435446D01*
X125128857Y-117557022D01*
X121476625Y-117557022D01*
X121491220Y-117276733D01*
X121506715Y-116382718D01*
X121473760Y-115079364D01*
X121375957Y-113793120D01*
X121214895Y-112525577D01*
X120992167Y-111278326D01*
X120709364Y-110052960D01*
X120368077Y-108851069D01*
X119969898Y-107674245D01*
X119516417Y-106524079D01*
X119009226Y-105402162D01*
X118449916Y-104310087D01*
X117840079Y-103249444D01*
X117181305Y-102221824D01*
X116475187Y-101228820D01*
X115723314Y-100272022D01*
X114927279Y-99353022D01*
X114088673Y-98473411D01*
X113209086Y-97634780D01*
X112290111Y-96838722D01*
X111333338Y-96086827D01*
X110340360Y-95380687D01*
X109312766Y-94721893D01*
X108252148Y-94112036D01*
X107160098Y-93552708D01*
X106038207Y-93045500D01*
X104888066Y-92592004D01*
X103711266Y-92193811D01*
X102509398Y-91852513D01*
X101284055Y-91569700D01*
X100036826Y-91346964D01*
X98769304Y-91185897D01*
X97483080Y-91088089D01*
X96179745Y-91055133D01*
X94876407Y-91088089D01*
X93590176Y-91185897D01*
X92322646Y-91346964D01*
X91075405Y-91569700D01*
X89850048Y-91852513D01*
X88648164Y-92193811D01*
X87471345Y-92592004D01*
X86321183Y-93045500D01*
X85199269Y-93552708D01*
X84107195Y-94112036D01*
X83046552Y-94721893D01*
X82018931Y-95380687D01*
X81025925Y-96086827D01*
X80069125Y-96838722D01*
X79150121Y-97634780D01*
X78270506Y-98473411D01*
X77431871Y-99353022D01*
X76635808Y-100272022D01*
X75883908Y-101228820D01*
X75177762Y-102221824D01*
X74518962Y-103249444D01*
X73909099Y-104310087D01*
X73349766Y-105402162D01*
X72842553Y-106524079D01*
X72389051Y-107674245D01*
X71990854Y-108851069D01*
X71649550Y-110052960D01*
X71366734Y-111278326D01*
X71143995Y-112525577D01*
X70982925Y-113793120D01*
X70885116Y-115079364D01*
X70852160Y-116382718D01*
X67140679Y-116382718D01*
X67129005Y-115435446D01*
X65529095Y-115511144D01*
X63834226Y-115622522D01*
X60267842Y-115932871D01*
X56646310Y-116327604D01*
X53186088Y-116767833D01*
X50103635Y-117214672D01*
X47615408Y-117629232D01*
X45937865Y-117972627D01*
X45470742Y-118105484D01*
X45341931Y-118160076D01*
X45287463Y-118205967D01*
X45258956Y-118287971D01*
X45233182Y-118380496D01*
X45210019Y-118482679D01*
X45189347Y-118593653D01*
X45155000Y-118838513D01*
X45129179Y-119108153D01*
X45110924Y-119395650D01*
X45099274Y-119694080D01*
X45093269Y-119996520D01*
X45091947Y-120296045D01*
X22138894Y-120296045D01*
X22173326Y-119928503D01*
X22312644Y-119016562D01*
X22480474Y-118115961D01*
X22648678Y-117253911D01*
X22817176Y-116430489D01*
X22985887Y-115645773D01*
X23154731Y-114899842D01*
X23323630Y-114192774D01*
X23492502Y-113524647D01*
X23661269Y-112895540D01*
X23829850Y-112305529D01*
X23998165Y-111754694D01*
X24166134Y-111243113D01*
X24333678Y-110770864D01*
X24500717Y-110338025D01*
X24667170Y-109944675D01*
X24832958Y-109590890D01*
X24998001Y-109276751D01*
X25162219Y-109002334D01*
X25325533Y-108767719D01*
X25487861Y-108572982D01*
X25649125Y-108418204D01*
X25729333Y-108355823D01*
X25809245Y-108303460D01*
X25888850Y-108261127D01*
X25968140Y-108228831D01*
X26047103Y-108206583D01*
X26125731Y-108194393D01*
X26204012Y-108192271D01*
X26281938Y-108200226D01*
X26359497Y-108218268D01*
X26436680Y-108246407D01*
X26513478Y-108284652D01*
X26589879Y-108333014D01*
X26665875Y-108391502D01*
X26741454Y-108460126D01*
X26891325Y-108627821D01*
X27039413Y-108836177D01*
X27185637Y-109085273D01*
X27329918Y-109375186D01*
X27472175Y-109705994D01*
X27779194Y-110455295D01*
X28099482Y-111207043D01*
X28431549Y-111955086D01*
X28773903Y-112693274D01*
X29125051Y-113415458D01*
X29483504Y-114115486D01*
X29847768Y-114787208D01*
X30216354Y-115424474D01*
X30587768Y-116021133D01*
X30960520Y-116571034D01*
X31333118Y-117068027D01*
X31704071Y-117505963D01*
X31888464Y-117700861D01*
X32071887Y-117878689D01*
X32254152Y-118038676D01*
X32435074Y-118180056D01*
X32614466Y-118302057D01*
X32792141Y-118403913D01*
X32967914Y-118484853D01*
X33141597Y-118544110D01*
X33855320Y-118544110D01*
X34069091Y-118446475D01*
X34276860Y-118300381D01*
X34478170Y-118103922D01*
X34672565Y-117855196D01*
X34859587Y-117552298D01*
X35038780Y-117193324D01*
X35209686Y-116776372D01*
X35371849Y-116299536D01*
X35524813Y-115760913D01*
X35668121Y-115158600D01*
X35801314Y-114490693D01*
X35923938Y-113755287D01*
X36035535Y-112950479D01*
X36135648Y-112074365D01*
X36223821Y-111125041D01*
X36299596Y-110100605D01*
X36376845Y-108536725D01*
X36410665Y-107054522D01*
X36420395Y-104304827D01*
X36432495Y-103022176D01*
X36473542Y-101790881D01*
X36561633Y-100603363D01*
X36714860Y-99452043D01*
X36821554Y-98887588D01*
X36951319Y-98329340D01*
X37106414Y-97776351D01*
X37289102Y-97227675D01*
X37501646Y-96682362D01*
X37746306Y-96139466D01*
X38025345Y-95598040D01*
X38341024Y-95057136D01*
X38695605Y-94515806D01*
X39091350Y-93973103D01*
X39530520Y-93428080D01*
X40015378Y-92879788D01*
X40548185Y-92327281D01*
X41131203Y-91769610D01*
X41766694Y-91205830D01*
X42456920Y-90634991D01*
X43133066Y-90054672D01*
X43729354Y-89463485D01*
X44252643Y-88862041D01*
X44709794Y-88250946D01*
X45107669Y-87630809D01*
X45453126Y-87002237D01*
X45753029Y-86365839D01*
X46014236Y-85722222D01*
X46448009Y-84415767D01*
X46809330Y-83087734D01*
X47153086Y-81742989D01*
X47534161Y-80386395D01*
X48007442Y-79022818D01*
X48295811Y-78339930D01*
X48627814Y-77657120D01*
X49010310Y-76974996D01*
X49450162Y-76294167D01*
X49954229Y-75615240D01*
X50529373Y-74938822D01*
X51182453Y-74265524D01*
X51920332Y-73595951D01*
X52749868Y-72930712D01*
X53677924Y-72270416D01*
X54711359Y-71615671D01*
X55857035Y-70967083D01*
X57121812Y-70325263D01*
X58512551Y-69690816D01*
X61253007Y-68480834D01*
X63668172Y-67366130D01*
X65784789Y-66336228D01*
X66739498Y-65849804D01*
X67629598Y-65380653D01*
X68458431Y-64927465D01*
X69229341Y-64488930D01*
X69945670Y-64063739D01*
X70610761Y-63650583D01*
X71227955Y-63248152D01*
X71800597Y-62855136D01*
X72332028Y-62470227D01*
X72825592Y-62092115D01*
X73284631Y-61719491D01*
X73712488Y-61351044D01*
X74112505Y-60985466D01*
X74488026Y-60621446D01*
X75178947Y-59892848D01*
X75811993Y-59154773D01*
X76413906Y-58396745D01*
X77011427Y-57608290D01*
X78300259Y-55898195D01*
X78648150Y-55459143D01*
X78989196Y-55051691D01*
X79323037Y-54675512D01*
X79649317Y-54330277D01*
X79967675Y-54015660D01*
X80277754Y-53731333D01*
X80579196Y-53476969D01*
X80871642Y-53252240D01*
X81154733Y-53056820D01*
X81428112Y-52890380D01*
X81691420Y-52752593D01*
X81944298Y-52643133D01*
X82186387Y-52561670D01*
X82417331Y-52507879D01*
X82636769Y-52481432D01*
X82844345Y-52482001D01*
X83039699Y-52509260D01*
X83222472Y-52562879D01*
X83392308Y-52642533D01*
X83548846Y-52747894D01*
X83691729Y-52878635D01*
X83820599Y-53034427D01*
X83935096Y-53214945D01*
X84034863Y-53419859D01*
X84119541Y-53648844D01*
X84188771Y-53901571D01*
X84242196Y-54177713D01*
X84279457Y-54476943D01*
X84300195Y-54798934D01*
X84304052Y-55143358D01*
X84290670Y-55509887D01*
X84259690Y-55898195D01*
X84248752Y-56268344D01*
X84293592Y-56581608D01*
X84390956Y-56839466D01*
X84537588Y-57043400D01*
X84730231Y-57194892D01*
X84965630Y-57295422D01*
X85240529Y-57346470D01*
X85551672Y-57349520D01*
X85895804Y-57306050D01*
X86269669Y-57217543D01*
X86670010Y-57085479D01*
X87093573Y-56911339D01*
X87537101Y-56696605D01*
X87997339Y-56442758D01*
X88954921Y-55823646D01*
X89940271Y-55065853D01*
X90927345Y-54181226D01*
X91890095Y-53181615D01*
X92354209Y-52642393D01*
X92802475Y-52078868D01*
X93231637Y-51492520D01*
X93638439Y-50884832D01*
X94019626Y-50257283D01*
X94371941Y-49611356D01*
X94692129Y-48948531D01*
X94976935Y-48270288D01*
X95223101Y-47578111D01*
X95427373Y-46873478D01*
X95582734Y-46303734D01*
X95752067Y-45749012D01*
X95934463Y-45209513D01*
X96129014Y-44685436D01*
X96334810Y-44176982D01*
X96550943Y-43684353D01*
X96776502Y-43207748D01*
X97010580Y-42747369D01*
X97252266Y-42303416D01*
X97500653Y-41876089D01*
X97754830Y-41465589D01*
X98013889Y-41072118D01*
X98276920Y-40695874D01*
X98543015Y-40337060D01*
X98811264Y-39995875D01*
X99080759Y-39672521D01*
X99350590Y-39367198D01*
X99619848Y-39080106D01*
X99887624Y-38811446D01*
X100153008Y-38561420D01*
X100415093Y-38330226D01*
X100672969Y-38118067D01*
X100925726Y-37925142D01*
X101172456Y-37751653D01*
X101412249Y-37597800D01*
X101644197Y-37463783D01*
X101867389Y-37349803D01*
X102080919Y-37256061D01*
X102283875Y-37182758D01*
X102475349Y-37130093D01*
X102654432Y-37098269D01*
X102820215Y-37087484D01*
X102891992Y-37089659D01*
G37*
%TD.AperFunction*%
%TA.AperFunction,NonConductor*%
G36*
X97338987Y-93884710D02*
G01*
X98483013Y-93971703D01*
X99610406Y-94114961D01*
X100719751Y-94313069D01*
X101809633Y-94564612D01*
X102878636Y-94868174D01*
X103925345Y-95222340D01*
X104948344Y-95625694D01*
X105946218Y-96076821D01*
X106917550Y-96574305D01*
X107860927Y-97116733D01*
X108774931Y-97702686D01*
X109658148Y-98330752D01*
X110509163Y-98999513D01*
X111326559Y-99707556D01*
X112108921Y-100453463D01*
X112854834Y-101235821D01*
X113562882Y-102053213D01*
X114231649Y-102904224D01*
X114859721Y-103787439D01*
X115445681Y-104701442D01*
X115988115Y-105644819D01*
X116485606Y-106616153D01*
X116936740Y-107614030D01*
X117340100Y-108637033D01*
X117694271Y-109683748D01*
X117997838Y-110752759D01*
X118249385Y-111842651D01*
X118447497Y-112952008D01*
X118590757Y-114079415D01*
X118677752Y-115223457D01*
X118707065Y-116382718D01*
X118688882Y-117291587D01*
X118634816Y-118191057D01*
X118545595Y-119080486D01*
X118421943Y-119959231D01*
X118264587Y-120826648D01*
X118074253Y-121682094D01*
X117851667Y-122524926D01*
X117597554Y-123354501D01*
X117312640Y-124170175D01*
X116997653Y-124971306D01*
X116653317Y-125757249D01*
X116280358Y-126527362D01*
X115879503Y-127281001D01*
X115451478Y-128017524D01*
X114997008Y-128736287D01*
X114516819Y-129436647D01*
X114504325Y-129436647D01*
X114504318Y-129437755D01*
X114504318Y-129439143D01*
X114504325Y-129441402D01*
X114504753Y-129448923D01*
X114504826Y-129451205D01*
X114504830Y-129452263D01*
X114504806Y-129453229D01*
X114504749Y-129454079D01*
X114504652Y-129454787D01*
X114504513Y-129455325D01*
X114504425Y-129455523D01*
X114504325Y-129455668D01*
X114495411Y-129460424D01*
X114495087Y-129460840D01*
X114494569Y-129461622D01*
X114493048Y-129464092D01*
X114488791Y-129471319D01*
X114484277Y-129479042D01*
X114482436Y-129482133D01*
X114481145Y-129484201D01*
X114480951Y-129484494D01*
X114480742Y-129484793D01*
X114480521Y-129485095D01*
X114480291Y-129485398D01*
X114479824Y-129485997D01*
X114479372Y-129486570D01*
X114457982Y-129512715D01*
X114458504Y-129512670D01*
X114459029Y-129512591D01*
X114459983Y-129512432D01*
X114460364Y-129512404D01*
X114460647Y-129512444D01*
X114460744Y-129512498D01*
X114460807Y-129512578D01*
X114460834Y-129512688D01*
X114460820Y-129512832D01*
X114460763Y-129513011D01*
X114460661Y-129513230D01*
X114460304Y-129513799D01*
X114459725Y-129514564D01*
X114458900Y-129515551D01*
X114457802Y-129516785D01*
X114456408Y-129518292D01*
X114454692Y-129520097D01*
X114452630Y-129522226D01*
X114452574Y-129522278D01*
X114452517Y-129522325D01*
X114452458Y-129522367D01*
X114452396Y-129522404D01*
X114452333Y-129522437D01*
X114452268Y-129522465D01*
X114452202Y-129522490D01*
X114452134Y-129522510D01*
X114452064Y-129522527D01*
X114451993Y-129522539D01*
X114451847Y-129522555D01*
X114451696Y-129522557D01*
X114451542Y-129522549D01*
X114451384Y-129522530D01*
X114451224Y-129522502D01*
X114451061Y-129522467D01*
X114450897Y-129522426D01*
X114450569Y-129522331D01*
X114450243Y-129522226D01*
X114449934Y-129522665D01*
X114449636Y-129523111D01*
X114449059Y-129524014D01*
X114448772Y-129524466D01*
X114448481Y-129524913D01*
X114448183Y-129525355D01*
X114447874Y-129525788D01*
X114447900Y-129525944D01*
X114447924Y-129526106D01*
X114447942Y-129526269D01*
X114447949Y-129526351D01*
X114447953Y-129526431D01*
X114447955Y-129526510D01*
X114447955Y-129526587D01*
X114447951Y-129526662D01*
X114447943Y-129526734D01*
X114447933Y-129526802D01*
X114447917Y-129526866D01*
X114447898Y-129526926D01*
X114447887Y-129526955D01*
X114447874Y-129526982D01*
X114447816Y-129527058D01*
X114447700Y-129527172D01*
X114447325Y-129527494D01*
X114446810Y-129527908D01*
X114446218Y-129528372D01*
X114445049Y-129529296D01*
X114444596Y-129529676D01*
X114444429Y-129529828D01*
X114444312Y-129529947D01*
X113647771Y-130570088D01*
X112793788Y-131561624D01*
X111884814Y-132502003D01*
X110923302Y-133388672D01*
X109911704Y-134219077D01*
X108852473Y-134990667D01*
X107748059Y-135700887D01*
X106600916Y-136347186D01*
X105413494Y-136927011D01*
X104188247Y-137437807D01*
X102927627Y-137877024D01*
X101634085Y-138242108D01*
X100310074Y-138530506D01*
X98958045Y-138739665D01*
X97580452Y-138867033D01*
X96179745Y-138910056D01*
X95020500Y-138880743D01*
X93876472Y-138793749D01*
X92749077Y-138650488D01*
X91639729Y-138452376D01*
X90549846Y-138200829D01*
X89480841Y-137897262D01*
X88434130Y-137543091D01*
X87411130Y-137139730D01*
X86413255Y-136688597D01*
X85441921Y-136191106D01*
X84498544Y-135648672D01*
X83584538Y-135062711D01*
X82701320Y-134434639D01*
X81850305Y-133765871D01*
X81032908Y-133057823D01*
X80250545Y-132311910D01*
X79504632Y-131529547D01*
X78796584Y-130712151D01*
X78127816Y-129861136D01*
X77499743Y-128977918D01*
X76913783Y-128063913D01*
X76371349Y-127120536D01*
X75873857Y-126149202D01*
X75422724Y-125151328D01*
X75019364Y-124128328D01*
X74665192Y-123081618D01*
X74361625Y-122012614D01*
X74110078Y-120922731D01*
X73911966Y-119813384D01*
X73768706Y-118685989D01*
X73681711Y-117541962D01*
X73652398Y-116382718D01*
X73669409Y-115709996D01*
X81662091Y-115709996D01*
X81680695Y-116445729D01*
X81735906Y-117171804D01*
X81826826Y-117887321D01*
X81952558Y-118591383D01*
X82112202Y-119283092D01*
X82304861Y-119961548D01*
X82529636Y-120625854D01*
X82785629Y-121275112D01*
X83071941Y-121908423D01*
X83387675Y-122524888D01*
X83731932Y-123123610D01*
X84103814Y-123703691D01*
X84502422Y-124264231D01*
X84926858Y-124804333D01*
X85376224Y-125323098D01*
X85849622Y-125819628D01*
X86346152Y-126293026D01*
X86864918Y-126742391D01*
X87405021Y-127166827D01*
X87965561Y-127565435D01*
X88545642Y-127937316D01*
X89144364Y-128281573D01*
X89760830Y-128597306D01*
X90394141Y-128883618D01*
X91043399Y-129139611D01*
X91707706Y-129364386D01*
X92386162Y-129557045D01*
X93077871Y-129716689D01*
X93781933Y-129842420D01*
X94497451Y-129933340D01*
X95223526Y-129988551D01*
X95959259Y-130007154D01*
X96447918Y-129998300D01*
X96932039Y-129972148D01*
X97411502Y-129929316D01*
X97886186Y-129870421D01*
X98355970Y-129796082D01*
X98820733Y-129706915D01*
X99280355Y-129603539D01*
X99734714Y-129486570D01*
X99757877Y-129486570D01*
X99760011Y-129485373D01*
X99762204Y-129484069D01*
X99766618Y-129481360D01*
X99768766Y-129480063D01*
X99770825Y-129478878D01*
X99771810Y-129478344D01*
X99772759Y-129477858D01*
X99773667Y-129477428D01*
X99774530Y-129477059D01*
X99775713Y-129476764D01*
X99777806Y-129476515D01*
X99784231Y-129476131D01*
X99802602Y-129475664D01*
X99821795Y-129475302D01*
X99829248Y-129475049D01*
X99833964Y-129474690D01*
X99834071Y-129474685D01*
X99834180Y-129474670D01*
X99834289Y-129474645D01*
X99834400Y-129474613D01*
X99834628Y-129474522D01*
X99834862Y-129474403D01*
X99835105Y-129474260D01*
X99835358Y-129474097D01*
X99835898Y-129473727D01*
X99836493Y-129473328D01*
X99836814Y-129473129D01*
X99837152Y-129472935D01*
X99837508Y-129472752D01*
X99837885Y-129472582D01*
X99838282Y-129472431D01*
X99838489Y-129472364D01*
X99838701Y-129472303D01*
X99838814Y-129472253D01*
X99838933Y-129472215D01*
X99839059Y-129472189D01*
X99839192Y-129472175D01*
X99839330Y-129472170D01*
X99839473Y-129472175D01*
X99839773Y-129472207D01*
X99840089Y-129472264D01*
X99840415Y-129472339D01*
X99841088Y-129472507D01*
X99841426Y-129472586D01*
X99841761Y-129472650D01*
X99842087Y-129472693D01*
X99842247Y-129472703D01*
X99842403Y-129472706D01*
X99842555Y-129472698D01*
X99842703Y-129472681D01*
X99842846Y-129472652D01*
X99842984Y-129472611D01*
X99843117Y-129472556D01*
X99843243Y-129472487D01*
X99843362Y-129472404D01*
X99843475Y-129472303D01*
X99843525Y-129472298D01*
X99843566Y-129472284D01*
X99843598Y-129472260D01*
X99843621Y-129472227D01*
X99843636Y-129472186D01*
X99843643Y-129472137D01*
X99843645Y-129472082D01*
X99843640Y-129472020D01*
X99843615Y-129471878D01*
X99843575Y-129471716D01*
X99843468Y-129471349D01*
X99843412Y-129471153D01*
X99843362Y-129470954D01*
X99843322Y-129470756D01*
X99843299Y-129470564D01*
X99843295Y-129470471D01*
X99843298Y-129470381D01*
X99843306Y-129470295D01*
X99843323Y-129470212D01*
X99843347Y-129470135D01*
X99843380Y-129470062D01*
X99843422Y-129469995D01*
X99843475Y-129469934D01*
X99850259Y-129468594D01*
X99855761Y-129467425D01*
X99858199Y-129466863D01*
X99860110Y-129466372D01*
X99813749Y-129466372D01*
X100923259Y-129106378D01*
X101991149Y-128660715D01*
X103013286Y-128133461D01*
X103985535Y-127528696D01*
X104903761Y-126850496D01*
X105763832Y-126102941D01*
X106561612Y-125290107D01*
X107292967Y-124416074D01*
X107953763Y-123484920D01*
X108539866Y-122500722D01*
X109047142Y-121467558D01*
X109471457Y-120389508D01*
X109808676Y-119270648D01*
X109943333Y-118697189D01*
X110054665Y-118115057D01*
X110142157Y-117524762D01*
X110205291Y-116926814D01*
X110243550Y-116321722D01*
X110256418Y-115709996D01*
X110237814Y-114974279D01*
X110182603Y-114248219D01*
X110091683Y-113532715D01*
X109965951Y-112828663D01*
X109806307Y-112136964D01*
X109613648Y-111458515D01*
X109388872Y-110794214D01*
X109132879Y-110144961D01*
X108846566Y-109511653D01*
X108530832Y-108895189D01*
X108186575Y-108296467D01*
X107814693Y-107716386D01*
X107416085Y-107155843D01*
X106991649Y-106615739D01*
X106542283Y-106096970D01*
X106068885Y-105600435D01*
X105572354Y-105127033D01*
X105053589Y-104677662D01*
X104513487Y-104253221D01*
X103952946Y-103854607D01*
X103372866Y-103482720D01*
X102774144Y-103138458D01*
X102157678Y-102822718D01*
X101524368Y-102536400D01*
X100875110Y-102280402D01*
X100210805Y-102055622D01*
X99532349Y-101862959D01*
X98840641Y-101703310D01*
X98136580Y-101577576D01*
X97421064Y-101486653D01*
X96694991Y-101431441D01*
X95959259Y-101412837D01*
X95223526Y-101431441D01*
X94497451Y-101486653D01*
X93781933Y-101577576D01*
X93077871Y-101703310D01*
X92386162Y-101862959D01*
X91707706Y-102055622D01*
X91043399Y-102280402D01*
X90394141Y-102536400D01*
X89760830Y-102822718D01*
X89144364Y-103138458D01*
X88545642Y-103482720D01*
X87965561Y-103854607D01*
X87405021Y-104253221D01*
X86864918Y-104677662D01*
X86346152Y-105127033D01*
X85849622Y-105600435D01*
X85376224Y-106096970D01*
X84926858Y-106615739D01*
X84502422Y-107155843D01*
X84103814Y-107716386D01*
X83731932Y-108296467D01*
X83387675Y-108895189D01*
X83071941Y-109511653D01*
X82785629Y-110144961D01*
X82529636Y-110794214D01*
X82304861Y-111458515D01*
X82112202Y-112136964D01*
X81952558Y-112828663D01*
X81826826Y-113532715D01*
X81735906Y-114248219D01*
X81680695Y-114974279D01*
X81662091Y-115709996D01*
X73669409Y-115709996D01*
X73681711Y-115223457D01*
X73768706Y-114079415D01*
X73911966Y-112952008D01*
X74110078Y-111842651D01*
X74361625Y-110752759D01*
X74665192Y-109683748D01*
X75019364Y-108637033D01*
X75422724Y-107614030D01*
X75873857Y-106616153D01*
X76371349Y-105644819D01*
X76913783Y-104701442D01*
X77499743Y-103787439D01*
X78127816Y-102904224D01*
X78796584Y-102053213D01*
X79504632Y-101235821D01*
X80250545Y-100453463D01*
X81032908Y-99707556D01*
X81850305Y-98999513D01*
X82701320Y-98330752D01*
X83584538Y-97702686D01*
X84498544Y-97116733D01*
X85441921Y-96574305D01*
X86413255Y-96076821D01*
X87411130Y-95625694D01*
X88434130Y-95222340D01*
X89480841Y-94868174D01*
X90549846Y-94564612D01*
X91639729Y-94313069D01*
X92749077Y-94114961D01*
X93876472Y-93971703D01*
X95020500Y-93884710D01*
X96179745Y-93855398D01*
X97338987Y-93884710D01*
G37*
%TD.AperFunction*%
%TA.AperFunction,NonConductor*%
G36*
X93032935Y-24523875D02*
G01*
X93110006Y-24531697D01*
X93185780Y-24544307D01*
X93260097Y-24561549D01*
X93332795Y-24583263D01*
X93403712Y-24609289D01*
X93472688Y-24639468D01*
X93539561Y-24673642D01*
X93604170Y-24711651D01*
X93666354Y-24753336D01*
X93725952Y-24798538D01*
X93782802Y-24847098D01*
X93836743Y-24898857D01*
X93887614Y-24953656D01*
X93935254Y-25011335D01*
X93979502Y-25071736D01*
X94020196Y-25134699D01*
X94057175Y-25200065D01*
X94090278Y-25267676D01*
X94119344Y-25337371D01*
X94144211Y-25408993D01*
X94164719Y-25482381D01*
X94180706Y-25557377D01*
X94192010Y-25633822D01*
X94198471Y-25711556D01*
X94199928Y-25790421D01*
X94196218Y-25870257D01*
X94187182Y-25950905D01*
X94172658Y-26032206D01*
X94152484Y-26114002D01*
X94126499Y-26196132D01*
X93979952Y-26637280D01*
X93856396Y-27060521D01*
X93754368Y-27467089D01*
X93672405Y-27858217D01*
X93609043Y-28235139D01*
X93562819Y-28599088D01*
X93532270Y-28951299D01*
X93515933Y-29293004D01*
X93520039Y-29949833D01*
X93563432Y-30579445D01*
X93634405Y-31191709D01*
X93721252Y-31796494D01*
X93895743Y-33023103D01*
X93959974Y-33664666D01*
X93993254Y-34338226D01*
X93983876Y-35053654D01*
X93959533Y-35430152D01*
X93920135Y-35820817D01*
X93864219Y-36226884D01*
X93790322Y-36649586D01*
X93696982Y-37090156D01*
X93582734Y-37549829D01*
X93432643Y-38073866D01*
X93271161Y-38564890D01*
X93098799Y-39024452D01*
X92916070Y-39454105D01*
X92723485Y-39855399D01*
X92521555Y-40229889D01*
X92310792Y-40579125D01*
X92091708Y-40904660D01*
X91864814Y-41208046D01*
X91630622Y-41490835D01*
X91389644Y-41754580D01*
X91142391Y-42000832D01*
X90889375Y-42231143D01*
X90631107Y-42447067D01*
X90100864Y-42841957D01*
X89555754Y-43197919D01*
X88999871Y-43527372D01*
X87872155Y-44156413D01*
X87308509Y-44480837D01*
X86750462Y-44828418D01*
X86202106Y-45211575D01*
X85932841Y-45420374D01*
X85667535Y-45642724D01*
X85404538Y-45845816D01*
X85142689Y-45997363D01*
X84883219Y-46099690D01*
X84627363Y-46155124D01*
X84376352Y-46165991D01*
X84131420Y-46134617D01*
X83893799Y-46063330D01*
X83664723Y-45954455D01*
X83445425Y-45810318D01*
X83237136Y-45633247D01*
X83041091Y-45425568D01*
X82858522Y-45189606D01*
X82690662Y-44927689D01*
X82538744Y-44642142D01*
X82404001Y-44335293D01*
X82287666Y-44009467D01*
X82190971Y-43666991D01*
X82115150Y-43310192D01*
X82061435Y-42941395D01*
X82031060Y-42562927D01*
X82025257Y-42177115D01*
X82045259Y-41786285D01*
X82092299Y-41392764D01*
X82167610Y-40998877D01*
X82272425Y-40606951D01*
X82407977Y-40219313D01*
X82575499Y-39838288D01*
X82776223Y-39466204D01*
X83011383Y-39105387D01*
X83282211Y-38758163D01*
X83589941Y-38426859D01*
X83935805Y-38113800D01*
X84280990Y-37811448D01*
X84587357Y-37510633D01*
X84857097Y-37211242D01*
X85092400Y-36913162D01*
X85295459Y-36616278D01*
X85468464Y-36320477D01*
X85613606Y-36025645D01*
X85733077Y-35731668D01*
X85829067Y-35438432D01*
X85903768Y-35145823D01*
X85959370Y-34853728D01*
X85998066Y-34562033D01*
X86022045Y-34270624D01*
X86033499Y-33979387D01*
X86027598Y-33396975D01*
X85961907Y-32229209D01*
X85937174Y-31642036D01*
X85941223Y-31051454D01*
X85959517Y-30754600D01*
X85991581Y-30456553D01*
X86039604Y-30157199D01*
X86105777Y-29856424D01*
X86192293Y-29554114D01*
X86301342Y-29250156D01*
X86435115Y-28944435D01*
X86595803Y-28636837D01*
X86817458Y-28285485D01*
X87074353Y-27947505D01*
X87363158Y-27622867D01*
X87680541Y-27311541D01*
X88023172Y-27013496D01*
X88387721Y-26728702D01*
X88770856Y-26457128D01*
X89169247Y-26198744D01*
X89579564Y-25953520D01*
X89998475Y-25721425D01*
X90422649Y-25502430D01*
X90848757Y-25296502D01*
X91273468Y-25103613D01*
X91693450Y-24923732D01*
X92505907Y-24602870D01*
X92552529Y-24586368D01*
X92599081Y-24571800D01*
X92645540Y-24559135D01*
X92691879Y-24548341D01*
X92738074Y-24539387D01*
X92784101Y-24532240D01*
X92829933Y-24526868D01*
X92875548Y-24523239D01*
X92954728Y-24521003D01*
X93032935Y-24523875D01*
G37*
%TD.AperFunction*%
D11*
%TO.P,,1*%
%TO.N,N/C*%
X128964360Y-65598400D03*
%TD*%
D12*
%TO.P,X1,1,VCC*%
%TO.N,VCC*%
X149820200Y-139958400D03*
D13*
%TO.P,X1,2,GND*%
%TO.N,GND*%
X149820200Y-142498400D03*
D12*
%TO.P,X1,3,SDA*%
%TO.N,IO08*%
X152360200Y-139958400D03*
%TO.P,X1,4,SCL*%
%TO.N,IO09*%
X152360200Y-142498400D03*
D14*
%TO.P,X1,5,GPIO1*%
%TO.N,IO01*%
X154900200Y-139958400D03*
%TO.P,X1,6,GPIO2*%
%TO.N,IO02*%
X154900200Y-142498400D03*
%TD*%
D11*
%TO.P,,1*%
%TO.N,N/C*%
X50194360Y-159823400D03*
%TD*%
%TO.P,REF\u002A\u002A,1*%
%TO.N,N/C*%
X75594360Y-64968401D03*
%TD*%
%TO.P,REF\u002A\u002A,1*%
%TO.N,N/C*%
X147605000Y-159153484D03*
%TD*%
M02*
