%TF.GenerationSoftware,KiCad,Pcbnew,9.0.3*%
%TF.CreationDate,2025-12-07T17:58:41-06:00*%
%TF.ProjectId,CC14,43433134-2e6b-4696-9361-645f70636258,Prototype_v2.2*%
%TF.SameCoordinates,Original*%
%TF.FileFunction,Soldermask,Bot*%
%TF.FilePolarity,Negative*%
%FSLAX46Y46*%
G04 Gerber Fmt 4.6, Leading zero omitted, Abs format (unit mm)*
G04 Created by KiCad (PCBNEW 9.0.3) date 2025-12-07 17:58:41*
%MOMM*%
%LPD*%
G01*
G04 APERTURE LIST*
G04 Aperture macros list*
%AMRoundRect*
0 Rectangle with rounded corners*
0 $1 Rounding radius*
0 $2 $3 $4 $5 $6 $7 $8 $9 X,Y pos of 4 corners*
0 Add a 4 corners polygon primitive as box body*
4,1,4,$2,$3,$4,$5,$6,$7,$8,$9,$2,$3,0*
0 Add four circle primitives for the rounded corners*
1,1,$1+$1,$2,$3*
1,1,$1+$1,$4,$5*
1,1,$1+$1,$6,$7*
1,1,$1+$1,$8,$9*
0 Add four rect primitives between the rounded corners*
20,1,$1+$1,$2,$3,$4,$5,0*
20,1,$1+$1,$4,$5,$6,$7,0*
20,1,$1+$1,$6,$7,$8,$9,0*
20,1,$1+$1,$8,$9,$2,$3,0*%
G04 Aperture macros list end*
%ADD10O,2.127200X2.127200*%
%ADD11RoundRect,0.200000X-0.863600X0.863600X-0.863600X-0.863600X0.863600X-0.863600X0.863600X0.863600X0*%
%ADD12C,2.127200*%
%ADD13C,6.900000*%
%ADD14C,6.400000*%
%ADD15RoundRect,0.200000X0.425000X-0.425000X0.425000X0.425000X-0.425000X0.425000X-0.425000X-0.425000X0*%
%ADD16O,1.250000X1.250000*%
%ADD17RoundRect,0.330000X0.745000X-0.495000X0.745000X0.495000X-0.745000X0.495000X-0.745000X-0.495000X0*%
%ADD18RoundRect,0.330000X-0.745000X0.495000X-0.745000X-0.495000X0.745000X-0.495000X0.745000X0.495000X0*%
%ADD19RoundRect,0.330000X0.495000X0.745000X-0.495000X0.745000X-0.495000X-0.745000X0.495000X-0.745000X0*%
%ADD20RoundRect,0.250000X0.687500X0.250000X-0.687500X0.250000X-0.687500X-0.250000X0.687500X-0.250000X0*%
%ADD21RoundRect,0.200000X-2.750000X-1.750000X2.750000X-1.750000X2.750000X1.750000X-2.750000X1.750000X0*%
%ADD22RoundRect,0.200000X-2.250000X-2.750000X2.250000X-2.750000X2.250000X2.750000X-2.250000X2.750000X0*%
%ADD23C,1.000000*%
%ADD24RoundRect,0.200000X0.350000X0.800000X-0.350000X0.800000X-0.350000X-0.800000X0.350000X-0.800000X0*%
%ADD25RoundRect,0.200000X0.600000X1.100000X-0.600000X1.100000X-0.600000X-1.100000X0.600000X-1.100000X0*%
%ADD26RoundRect,0.200000X0.600000X0.750000X-0.600000X0.750000X-0.600000X-0.750000X0.600000X-0.750000X0*%
%ADD27RoundRect,0.200000X0.800000X0.750000X-0.800000X0.750000X-0.800000X-0.750000X0.800000X-0.750000X0*%
%ADD28RoundRect,0.200000X0.850000X-0.850000X0.850000X0.850000X-0.850000X0.850000X-0.850000X-0.850000X0*%
%ADD29O,2.100000X2.100000*%
%ADD30RoundRect,0.200000X-0.850000X-0.850000X0.850000X-0.850000X0.850000X0.850000X-0.850000X0.850000X0*%
%ADD31RoundRect,0.200000X-0.500000X0.850000X-0.500000X-0.850000X0.500000X-0.850000X0.500000X0.850000X0*%
%ADD32RoundRect,0.343750X0.556250X-0.343750X0.556250X0.343750X-0.556250X0.343750X-0.556250X-0.343750X0*%
%ADD33RoundRect,0.343750X-0.343750X-0.556250X0.343750X-0.556250X0.343750X0.556250X-0.343750X0.556250X0*%
%ADD34RoundRect,0.330000X-0.495000X-0.745000X0.495000X-0.745000X0.495000X0.745000X-0.495000X0.745000X0*%
%ADD35C,2.000000*%
%ADD36RoundRect,0.200000X-0.400000X-0.250000X0.400000X-0.250000X0.400000X0.250000X-0.400000X0.250000X0*%
%ADD37RoundRect,0.200000X-0.400000X-0.200000X0.400000X-0.200000X0.400000X0.200000X-0.400000X0.200000X0*%
%ADD38RoundRect,0.200000X-0.750000X-0.450000X0.750000X-0.450000X0.750000X0.450000X-0.750000X0.450000X0*%
%ADD39RoundRect,0.200000X-0.450000X0.750000X-0.450000X-0.750000X0.450000X-0.750000X0.450000X0.750000X0*%
%ADD40RoundRect,0.200000X0.750000X0.450000X-0.750000X0.450000X-0.750000X-0.450000X0.750000X-0.450000X0*%
%ADD41RoundRect,0.200000X0.450000X0.450000X-0.450000X0.450000X-0.450000X-0.450000X0.450000X-0.450000X0*%
%ADD42RoundRect,0.070000X-0.875000X0.325000X-0.875000X-0.325000X0.875000X-0.325000X0.875000X0.325000X0*%
%ADD43RoundRect,0.343750X-0.556250X0.343750X-0.556250X-0.343750X0.556250X-0.343750X0.556250X0.343750X0*%
%ADD44RoundRect,0.200000X-0.500000X0.750000X-0.500000X-0.750000X0.500000X-0.750000X0.500000X0.750000X0*%
%ADD45RoundRect,0.200000X-1.500000X-0.800000X1.500000X-0.800000X1.500000X0.800000X-1.500000X0.800000X0*%
%ADD46RoundRect,0.343750X0.343750X0.556250X-0.343750X0.556250X-0.343750X-0.556250X0.343750X-0.556250X0*%
%ADD47RoundRect,0.200000X-0.600000X0.300000X-0.600000X-0.300000X0.600000X-0.300000X0.600000X0.300000X0*%
%ADD48RoundRect,0.316668X-0.633332X-1.058332X0.633332X-1.058332X0.633332X1.058332X-0.633332X1.058332X0*%
%ADD49RoundRect,0.200000X-0.500000X-0.400000X0.500000X-0.400000X0.500000X0.400000X-0.500000X0.400000X0*%
%ADD50C,1.300000*%
%ADD51RoundRect,0.200000X-0.350000X-0.750000X0.350000X-0.750000X0.350000X0.750000X-0.350000X0.750000X0*%
%ADD52RoundRect,0.200000X2.750000X1.750000X-2.750000X1.750000X-2.750000X-1.750000X2.750000X-1.750000X0*%
%ADD53RoundRect,0.200000X2.250000X2.750000X-2.250000X2.750000X-2.250000X-2.750000X2.250000X-2.750000X0*%
%ADD54RoundRect,0.200000X0.500000X-0.850000X0.500000X0.850000X-0.500000X0.850000X-0.500000X-0.850000X0*%
%ADD55RoundRect,0.200000X0.350000X0.150000X-0.350000X0.150000X-0.350000X-0.150000X0.350000X-0.150000X0*%
%ADD56C,1.050000*%
%ADD57RoundRect,0.200000X-0.700000X0.125000X-0.700000X-0.125000X0.700000X-0.125000X0.700000X0.125000X0*%
%ADD58O,2.200000X1.400000*%
%ADD59O,2.500000X1.400000*%
%ADD60RoundRect,0.200000X-1.100000X0.750000X-1.100000X-0.750000X1.100000X-0.750000X1.100000X0.750000X0*%
%ADD61RoundRect,0.200000X-1.100000X1.900000X-1.100000X-1.900000X1.100000X-1.900000X1.100000X1.900000X0*%
G04 APERTURE END LIST*
D10*
%TO.C,X1*%
X204250000Y-135240000D03*
D11*
X204250000Y-137780000D03*
D10*
X206790000Y-135240000D03*
X206790000Y-137780000D03*
D12*
X209330000Y-135240000D03*
X209330000Y-137780000D03*
%TD*%
D13*
%TO.C,*%
X183394160Y-60880000D03*
%TD*%
D14*
%TO.C,REF\u002A\u002A*%
X92604160Y-59640000D03*
%TD*%
%TO.C,REF\u002A\u002A*%
X214664160Y-59680000D03*
%TD*%
D15*
%TO.C,REF\u002A\u002A*%
X142504160Y-155940000D03*
D16*
X142504160Y-154940000D03*
X143504160Y-155940000D03*
X143504160Y-154940000D03*
%TD*%
D13*
%TO.C,*%
X104624160Y-155105000D03*
%TD*%
D17*
%TO.C,D2*%
X201224160Y-80330000D03*
X201224160Y-77530000D03*
%TD*%
D13*
%TO.C,REF\u002A\u002A*%
X130024160Y-60250001D03*
%TD*%
D18*
%TO.C,R1*%
X214974160Y-72880000D03*
X214974160Y-75680000D03*
%TD*%
D19*
%TO.C,R4*%
X98660000Y-129780000D03*
X95860000Y-129780000D03*
%TD*%
D20*
%TO.C,D19*%
X206534160Y-108005000D03*
X206534160Y-109905000D03*
X204659160Y-108955000D03*
%TD*%
D21*
%TO.C,BT2*%
X158230000Y-65180000D03*
D22*
X171405000Y-65180000D03*
X201705000Y-65155000D03*
D21*
X214830000Y-65180000D03*
%TD*%
D23*
%TO.C,J2*%
X190604160Y-154290000D03*
X182604160Y-154290000D03*
D24*
X183404160Y-143290000D03*
X184504160Y-143290000D03*
X185604160Y-143290000D03*
X186704160Y-143290000D03*
X187804160Y-143290000D03*
X188904160Y-143290000D03*
X190004160Y-143290000D03*
X191104160Y-143290000D03*
X192204160Y-143290000D03*
D25*
X193404160Y-153890000D03*
D26*
X193404160Y-144290000D03*
D27*
X178804160Y-144290000D03*
D25*
X177904160Y-153890000D03*
%TD*%
D28*
%TO.C,J4*%
X159924160Y-156630000D03*
D29*
X157384160Y-156630000D03*
%TD*%
D30*
%TO.C,J1*%
X205984160Y-99645000D03*
D29*
X205984160Y-97105000D03*
%TD*%
D31*
%TO.C,SW3*%
X92110000Y-120120000D03*
X92110000Y-126420000D03*
X95910000Y-120120000D03*
X95910000Y-126420000D03*
%TD*%
D32*
%TO.C,C9*%
X114854160Y-148707500D03*
X114854160Y-146832500D03*
%TD*%
D33*
%TO.C,C2*%
X199304160Y-100457244D03*
X201179160Y-100457244D03*
%TD*%
%TO.C,C6*%
X213279160Y-88115000D03*
X215154160Y-88115000D03*
%TD*%
D17*
%TO.C,R10*%
X107074160Y-78780000D03*
X107074160Y-75980000D03*
%TD*%
D18*
%TO.C,R6*%
X211154160Y-98285000D03*
X211154160Y-101085000D03*
%TD*%
D34*
%TO.C,F2*%
X153334160Y-69480000D03*
X156134160Y-69480000D03*
%TD*%
D35*
%TO.C,Fid-3*%
X208214160Y-157140000D03*
%TD*%
D36*
%TO.C,RN2*%
X140855160Y-79103000D03*
D37*
X140855160Y-78303000D03*
X140855160Y-77503000D03*
D36*
X140855160Y-76703000D03*
X142655160Y-76703000D03*
D37*
X142655160Y-77503000D03*
X142655160Y-78303000D03*
D36*
X142655160Y-79103000D03*
%TD*%
D19*
%TO.C,R7*%
X207371160Y-112905000D03*
X204571160Y-112905000D03*
%TD*%
%TO.C,R8*%
X207434160Y-104775000D03*
X204634160Y-104775000D03*
%TD*%
D35*
%TO.C,Fid-2*%
X154054160Y-58820000D03*
%TD*%
D38*
%TO.C,U2*%
X117199160Y-152231396D03*
X117199160Y-150961396D03*
X117199160Y-149691396D03*
X117199160Y-148421396D03*
X117199160Y-147151396D03*
X117199160Y-145881396D03*
X117199160Y-144611396D03*
X117199160Y-143341396D03*
X117199160Y-142071396D03*
X117199160Y-140801396D03*
X117199160Y-139531396D03*
X117199160Y-138261396D03*
X117199160Y-136991396D03*
X117199160Y-135721396D03*
D39*
X118964160Y-134471396D03*
X120234160Y-134471396D03*
X121504160Y-134471396D03*
X122774160Y-134471396D03*
X124044160Y-134471396D03*
X125314160Y-134471396D03*
X126584160Y-134471396D03*
X127854160Y-134471396D03*
X129124160Y-134471396D03*
X130394160Y-134471396D03*
X131664160Y-134471396D03*
X132934160Y-134471396D03*
D40*
X134699160Y-135721396D03*
X134699160Y-136991396D03*
X134699160Y-138261396D03*
X134699160Y-139531396D03*
X134699160Y-140801396D03*
X134699160Y-142071396D03*
X134699160Y-143341396D03*
X134699160Y-144611396D03*
X134699160Y-145881396D03*
X134699160Y-147151396D03*
X134699160Y-148421396D03*
X134699160Y-149691396D03*
X134699160Y-150961396D03*
X134699160Y-152231396D03*
D41*
X123049160Y-143111396D03*
X123049160Y-144511396D03*
X123049160Y-145911396D03*
X124449160Y-143111396D03*
X124449160Y-144511396D03*
X124449160Y-145911396D03*
X125849160Y-143111396D03*
X125849160Y-144511396D03*
X125849160Y-145911396D03*
%TD*%
D42*
%TO.C,U3*%
X200014160Y-107955000D03*
X200014160Y-109225000D03*
X200014160Y-110495000D03*
X200014160Y-111765000D03*
X194514160Y-111765000D03*
X194514160Y-110495000D03*
X194514160Y-109225000D03*
X194514160Y-107955000D03*
%TD*%
D43*
%TO.C,C4*%
X112784160Y-151022500D03*
X112784160Y-152897500D03*
%TD*%
D44*
%TO.C,D17*%
X92394160Y-105055000D03*
X95594160Y-105055000D03*
X95594160Y-109955000D03*
X92394160Y-109955000D03*
%TD*%
D35*
%TO.C,Fid-1*%
X92134160Y-156780000D03*
%TD*%
D13*
%TO.C,REF\u002A\u002A*%
X202044160Y-154330001D03*
%TD*%
D45*
%TO.C,BZ1*%
X91914160Y-78900000D03*
X99914160Y-78900000D03*
%TD*%
D46*
%TO.C,C8*%
X214404160Y-117725000D03*
X212529160Y-117725000D03*
%TD*%
D33*
%TO.C,C5*%
X194454216Y-106103400D03*
X196329216Y-106103400D03*
%TD*%
D30*
%TO.C,J3*%
X108814160Y-118420000D03*
D29*
X108814160Y-115880000D03*
X108814160Y-113340000D03*
X108814160Y-110800000D03*
X108814160Y-108260000D03*
X108814160Y-105720000D03*
X108814160Y-103180000D03*
X108814160Y-100640000D03*
X108814160Y-98100000D03*
X108814160Y-95560000D03*
X108814160Y-93020000D03*
X108814160Y-90480000D03*
X108814160Y-87940000D03*
X108814160Y-85400000D03*
%TD*%
D19*
%TO.C,R13*%
X203684160Y-75165000D03*
X200884160Y-75165000D03*
%TD*%
D17*
%TO.C,R9*%
X199144160Y-89980000D03*
X199144160Y-87180000D03*
%TD*%
D18*
%TO.C,F1*%
X172494160Y-69500000D03*
X172494160Y-72300000D03*
%TD*%
D47*
%TO.C,U1*%
X201857404Y-96453244D03*
X201857404Y-97403244D03*
X201857404Y-98353244D03*
X199257404Y-98353244D03*
X199257404Y-96453244D03*
%TD*%
D19*
%TO.C,R5*%
X214624160Y-120125000D03*
X211824160Y-120125000D03*
%TD*%
D48*
%TO.C,C7*%
X204674160Y-80490000D03*
X207924160Y-80490000D03*
%TD*%
D49*
%TO.C,SW1*%
X191364160Y-57340000D03*
X191364160Y-59550000D03*
D50*
X193514160Y-58440000D03*
X196514160Y-58440000D03*
D49*
X198664160Y-57340000D03*
X198664160Y-59550000D03*
D51*
X192764160Y-60200000D03*
X195764160Y-60200000D03*
X197264160Y-60200000D03*
%TD*%
D52*
%TO.C,BT1*%
X150850000Y-65210000D03*
D53*
X137675000Y-65210000D03*
X107375000Y-65235000D03*
D52*
X94250000Y-65210000D03*
%TD*%
D43*
%TO.C,C3*%
X114824160Y-151002500D03*
X114824160Y-152877500D03*
%TD*%
D54*
%TO.C,SW2*%
X96200000Y-94920000D03*
X96200000Y-88620000D03*
X92400000Y-94920000D03*
X92400000Y-88620000D03*
%TD*%
D36*
%TO.C,RN1*%
X163974160Y-151240000D03*
D37*
X163974160Y-150440000D03*
X163974160Y-149640000D03*
D36*
X163974160Y-148840000D03*
X165774160Y-148840000D03*
D37*
X165774160Y-149640000D03*
X165774160Y-150440000D03*
D36*
X165774160Y-151240000D03*
%TD*%
D17*
%TO.C,D1*%
X214994160Y-81430000D03*
X214994160Y-78630000D03*
%TD*%
D46*
%TO.C,C10*%
X207764160Y-72055000D03*
X205889160Y-72055000D03*
%TD*%
D55*
%TO.C,U5*%
X203690000Y-71390000D03*
X203690000Y-71890000D03*
X203690000Y-72390000D03*
X203690000Y-72890000D03*
X201710000Y-72890000D03*
X201710000Y-72390000D03*
X201710000Y-71890000D03*
X201710000Y-71390000D03*
%TD*%
D18*
%TO.C,R3*%
X201204160Y-82460000D03*
X201204160Y-85260000D03*
%TD*%
D56*
%TO.C,J8*%
X212274160Y-106705000D03*
X212274160Y-112485000D03*
D57*
X211074160Y-106270000D03*
X211074160Y-107070000D03*
X211074160Y-108345000D03*
X211074160Y-109345000D03*
X211074160Y-109845000D03*
X211074160Y-107845000D03*
X211074160Y-112120000D03*
X211074160Y-112920000D03*
X211074160Y-112670000D03*
X211074160Y-111870000D03*
X211074160Y-111345000D03*
X211074160Y-110345000D03*
X211074160Y-108845000D03*
X211074160Y-110845000D03*
X211074160Y-107320000D03*
X211074160Y-106520000D03*
D58*
X215924160Y-105275000D03*
D59*
X211774160Y-105275000D03*
D58*
X215924160Y-113915000D03*
D59*
X211774160Y-113915000D03*
%TD*%
D60*
%TO.C,U4*%
X211064160Y-83570000D03*
X211064160Y-85870000D03*
X211064160Y-88170000D03*
D61*
X204764160Y-85870000D03*
%TD*%
D34*
%TO.C,R2*%
X199095660Y-94234244D03*
X201895660Y-94234244D03*
%TD*%
M02*
