%TF.GenerationSoftware,KiCad,Pcbnew,9.0.3*%
%TF.CreationDate,2025-12-07T17:58:41-06:00*%
%TF.ProjectId,CC14,43433134-2e6b-4696-9361-645f70636258,Prototype_v2.2*%
%TF.SameCoordinates,Original*%
%TF.FileFunction,Soldermask,Top*%
%TF.FilePolarity,Negative*%
%FSLAX46Y46*%
G04 Gerber Fmt 4.6, Leading zero omitted, Abs format (unit mm)*
G04 Created by KiCad (PCBNEW 9.0.3) date 2025-12-07 17:58:41*
%MOMM*%
%LPD*%
G01*
G04 APERTURE LIST*
G04 Aperture macros list*
%AMRoundRect*
0 Rectangle with rounded corners*
0 $1 Rounding radius*
0 $2 $3 $4 $5 $6 $7 $8 $9 X,Y pos of 4 corners*
0 Add a 4 corners polygon primitive as box body*
4,1,4,$2,$3,$4,$5,$6,$7,$8,$9,$2,$3,0*
0 Add four circle primitives for the rounded corners*
1,1,$1+$1,$2,$3*
1,1,$1+$1,$4,$5*
1,1,$1+$1,$6,$7*
1,1,$1+$1,$8,$9*
0 Add four rect primitives between the rounded corners*
20,1,$1+$1,$2,$3,$4,$5,0*
20,1,$1+$1,$4,$5,$6,$7,0*
20,1,$1+$1,$6,$7,$8,$9,0*
20,1,$1+$1,$8,$9,$2,$3,0*%
%AMFreePoly0*
4,1,43,0.586777,0.930194,0.656366,0.874698,0.694986,0.794504,0.700000,0.750000,0.700000,-0.750000,0.680194,-0.836777,0.624698,-0.906366,0.544504,-0.944986,0.500000,-0.950000,0.000000,-0.950000,-0.018743,-0.945722,-0.065263,-0.945722,-0.117026,-0.938907,-0.243105,-0.905125,-0.291342,-0.885145,-0.404381,-0.819882,-0.445802,-0.788098,-0.538098,-0.695802,-0.569882,-0.654381,-0.635145,-0.541342,
-0.655125,-0.493105,-0.688907,-0.367026,-0.695722,-0.315263,-0.695722,-0.287971,-0.700000,-0.250000,-0.700000,0.250000,-0.695722,0.268743,-0.695722,0.315263,-0.688907,0.367026,-0.655125,0.493105,-0.635145,0.541342,-0.569882,0.654381,-0.538098,0.695802,-0.445802,0.788098,-0.404381,0.819882,-0.291342,0.885145,-0.243105,0.905125,-0.117026,0.938907,-0.065263,0.945722,-0.037971,0.945722,
0.000000,0.950000,0.500000,0.950000,0.586777,0.930194,0.586777,0.930194,$1*%
%AMFreePoly1*
4,1,43,0.018743,0.945722,0.065263,0.945722,0.117026,0.938907,0.243105,0.905125,0.291342,0.885145,0.404381,0.819882,0.445802,0.788098,0.538098,0.695802,0.569882,0.654381,0.635145,0.541342,0.655125,0.493105,0.688907,0.367026,0.695722,0.315263,0.695722,0.287971,0.700000,0.250000,0.700000,-0.250000,0.695722,-0.268743,0.695722,-0.315263,0.688907,-0.367026,0.655125,-0.493105,
0.635145,-0.541342,0.569882,-0.654381,0.538098,-0.695802,0.445802,-0.788098,0.404381,-0.819882,0.291342,-0.885145,0.243105,-0.905125,0.117026,-0.938907,0.065263,-0.945722,0.037971,-0.945722,0.000000,-0.950000,-0.500000,-0.950000,-0.586777,-0.930194,-0.656366,-0.874698,-0.694986,-0.794504,-0.700000,-0.750000,-0.700000,0.750000,-0.680194,0.836777,-0.624698,0.906366,-0.544504,0.944986,
-0.500000,0.950000,0.000000,0.950000,0.018743,0.945722,0.018743,0.945722,$1*%
%AMFreePoly2*
4,1,23,0.586777,0.930194,0.656366,0.874698,0.666410,0.860940,1.166410,0.110940,1.198065,0.027751,1.190491,-0.060935,1.166410,-0.110940,0.666410,-0.860940,0.601795,-0.922156,0.517019,-0.949275,0.500000,-0.950000,-0.500000,-0.950000,-0.586777,-0.930194,-0.656366,-0.874698,-0.694986,-0.794504,-0.700000,-0.750000,-0.700000,0.750000,-0.680194,0.836777,-0.624698,0.906366,-0.544504,0.944986,
-0.500000,0.950000,0.500000,0.950000,0.586777,0.930194,0.586777,0.930194,$1*%
%AMFreePoly3*
4,1,24,0.586777,0.930194,0.656366,0.874698,0.694986,0.794504,0.700000,0.750000,0.700000,-0.750000,0.680194,-0.836777,0.624698,-0.906366,0.544504,-0.944986,0.500000,-0.950000,-0.650000,-0.950000,-0.736777,-0.930194,-0.806366,-0.874698,-0.844986,-0.794504,-0.844986,-0.705496,-0.816410,-0.639060,-0.390370,0.000000,-0.816410,0.639060,-0.848065,0.722249,-0.840491,0.810935,-0.795188,0.887551,
-0.721129,0.936924,-0.650000,0.950000,0.500000,0.950000,0.586777,0.930194,0.586777,0.930194,$1*%
G04 Aperture macros list end*
%ADD10C,1.152495*%
%ADD11C,0.100000*%
%ADD12O,2.127200X2.127200*%
%ADD13RoundRect,0.200000X-0.863600X0.863600X-0.863600X-0.863600X0.863600X-0.863600X0.863600X0.863600X0*%
%ADD14C,2.127200*%
%ADD15RoundRect,0.200000X-0.750000X-0.500000X0.750000X-0.500000X0.750000X0.500000X-0.750000X0.500000X0*%
%ADD16C,6.900000*%
%ADD17R,2.438400X1.930400*%
%ADD18R,2.463800X1.955800*%
%ADD19RoundRect,0.200000X0.750000X0.500000X-0.750000X0.500000X-0.750000X-0.500000X0.750000X-0.500000X0*%
%ADD20C,1.000000*%
%ADD21C,6.400000*%
%ADD22RoundRect,0.200000X0.425000X-0.425000X0.425000X0.425000X-0.425000X0.425000X-0.425000X-0.425000X0*%
%ADD23O,1.250000X1.250000*%
%ADD24RoundRect,0.200000X0.800000X0.700000X-0.800000X0.700000X-0.800000X-0.700000X0.800000X-0.700000X0*%
%ADD25FreePoly0,270.000000*%
%ADD26FreePoly1,270.000000*%
%ADD27FreePoly2,270.000000*%
%ADD28FreePoly3,270.000000*%
%ADD29RoundRect,0.200000X-0.850000X-0.850000X0.850000X-0.850000X0.850000X0.850000X-0.850000X0.850000X0*%
%ADD30O,2.100000X2.100000*%
%ADD31C,1.300000*%
%ADD32C,1.050000*%
%ADD33O,2.200000X1.400000*%
%ADD34O,2.500000X1.400000*%
G04 APERTURE END LIST*
%TO.C,D8*%
D10*
X207980407Y-66840000D02*
G75*
G02*
X206827913Y-66840000I-576247J0D01*
G01*
X206827913Y-66840000D02*
G75*
G02*
X207980407Y-66840000I576247J0D01*
G01*
D11*
X208648760Y-70142000D02*
X206159560Y-70142000D01*
X206159560Y-68160800D01*
X208648760Y-68160800D01*
X208648760Y-70142000D01*
G36*
X208648760Y-70142000D02*
G01*
X206159560Y-70142000D01*
X206159560Y-68160800D01*
X208648760Y-68160800D01*
X208648760Y-70142000D01*
G37*
X208623360Y-65519200D02*
X206184960Y-65519200D01*
X206184960Y-63588800D01*
X208623360Y-63588800D01*
X208623360Y-65519200D01*
G36*
X208623360Y-65519200D02*
G01*
X206184960Y-65519200D01*
X206184960Y-63588800D01*
X208623360Y-63588800D01*
X208623360Y-65519200D01*
G37*
%TO.C,D5*%
D10*
X127480407Y-67495300D02*
G75*
G02*
X126327913Y-67495300I-576247J0D01*
G01*
X126327913Y-67495300D02*
G75*
G02*
X127480407Y-67495300I576247J0D01*
G01*
D11*
X128148760Y-70797300D02*
X125659560Y-70797300D01*
X125659560Y-68816100D01*
X128148760Y-68816100D01*
X128148760Y-70797300D01*
G36*
X128148760Y-70797300D02*
G01*
X125659560Y-70797300D01*
X125659560Y-68816100D01*
X128148760Y-68816100D01*
X128148760Y-70797300D01*
G37*
X128123360Y-66174500D02*
X125684960Y-66174500D01*
X125684960Y-64244100D01*
X128123360Y-64244100D01*
X128123360Y-66174500D01*
G36*
X128123360Y-66174500D02*
G01*
X125684960Y-66174500D01*
X125684960Y-64244100D01*
X128123360Y-64244100D01*
X128123360Y-66174500D01*
G37*
%TO.C,D3*%
D10*
X113180407Y-67310000D02*
G75*
G02*
X112027913Y-67310000I-576247J0D01*
G01*
X112027913Y-67310000D02*
G75*
G02*
X113180407Y-67310000I576247J0D01*
G01*
D11*
X113848760Y-70612000D02*
X111359560Y-70612000D01*
X111359560Y-68630800D01*
X113848760Y-68630800D01*
X113848760Y-70612000D01*
G36*
X113848760Y-70612000D02*
G01*
X111359560Y-70612000D01*
X111359560Y-68630800D01*
X113848760Y-68630800D01*
X113848760Y-70612000D01*
G37*
X113823360Y-65989200D02*
X111384960Y-65989200D01*
X111384960Y-64058800D01*
X113823360Y-64058800D01*
X113823360Y-65989200D01*
G36*
X113823360Y-65989200D02*
G01*
X111384960Y-65989200D01*
X111384960Y-64058800D01*
X113823360Y-64058800D01*
X113823360Y-65989200D01*
G37*
%TO.C,D4*%
D10*
X120300407Y-67130000D02*
G75*
G02*
X119147913Y-67130000I-576247J0D01*
G01*
X119147913Y-67130000D02*
G75*
G02*
X120300407Y-67130000I576247J0D01*
G01*
D11*
X120968760Y-70432000D02*
X118479560Y-70432000D01*
X118479560Y-68450800D01*
X120968760Y-68450800D01*
X120968760Y-70432000D01*
G36*
X120968760Y-70432000D02*
G01*
X118479560Y-70432000D01*
X118479560Y-68450800D01*
X120968760Y-68450800D01*
X120968760Y-70432000D01*
G37*
X120943360Y-65809200D02*
X118504960Y-65809200D01*
X118504960Y-63878800D01*
X120943360Y-63878800D01*
X120943360Y-65809200D01*
G36*
X120943360Y-65809200D02*
G01*
X118504960Y-65809200D01*
X118504960Y-63878800D01*
X120943360Y-63878800D01*
X120943360Y-65809200D01*
G37*
%TO.C,D6*%
D10*
X179420407Y-67080000D02*
G75*
G02*
X178267913Y-67080000I-576247J0D01*
G01*
X178267913Y-67080000D02*
G75*
G02*
X179420407Y-67080000I576247J0D01*
G01*
D11*
X180088760Y-70382000D02*
X177599560Y-70382000D01*
X177599560Y-68400800D01*
X180088760Y-68400800D01*
X180088760Y-70382000D01*
G36*
X180088760Y-70382000D02*
G01*
X177599560Y-70382000D01*
X177599560Y-68400800D01*
X180088760Y-68400800D01*
X180088760Y-70382000D01*
G37*
X180063360Y-65759200D02*
X177624960Y-65759200D01*
X177624960Y-63828800D01*
X180063360Y-63828800D01*
X180063360Y-65759200D01*
G36*
X180063360Y-65759200D02*
G01*
X177624960Y-65759200D01*
X177624960Y-63828800D01*
X180063360Y-63828800D01*
X180063360Y-65759200D01*
G37*
%TO.C,D7*%
D10*
X193660407Y-66830800D02*
G75*
G02*
X192507913Y-66830800I-576247J0D01*
G01*
X192507913Y-66830800D02*
G75*
G02*
X193660407Y-66830800I576247J0D01*
G01*
D11*
X194328760Y-70132800D02*
X191839560Y-70132800D01*
X191839560Y-68151600D01*
X194328760Y-68151600D01*
X194328760Y-70132800D01*
G36*
X194328760Y-70132800D02*
G01*
X191839560Y-70132800D01*
X191839560Y-68151600D01*
X194328760Y-68151600D01*
X194328760Y-70132800D01*
G37*
X194303360Y-65510000D02*
X191864960Y-65510000D01*
X191864960Y-63579600D01*
X194303360Y-63579600D01*
X194303360Y-65510000D01*
G36*
X194303360Y-65510000D02*
G01*
X191864960Y-65510000D01*
X191864960Y-63579600D01*
X194303360Y-63579600D01*
X194303360Y-65510000D01*
G37*
%TD*%
D12*
%TO.C,X1*%
X204250000Y-135240000D03*
D13*
X204250000Y-137780000D03*
D12*
X206790000Y-135240000D03*
X206790000Y-137780000D03*
D14*
X209330000Y-135240000D03*
X209330000Y-137780000D03*
%TD*%
D15*
%TO.C,D16*%
X190130000Y-111050000D03*
X190130000Y-114250000D03*
X195030000Y-114250000D03*
X195030000Y-111050000D03*
%TD*%
D16*
%TO.C,*%
X183394160Y-60880000D03*
%TD*%
D17*
%TO.C,D8*%
X207404160Y-64554000D03*
D18*
X207404160Y-69126000D03*
%TD*%
D19*
%TO.C,D10*%
X155000000Y-87900000D03*
X155000000Y-84700000D03*
X150100000Y-84700000D03*
X150100000Y-87900000D03*
%TD*%
D17*
%TO.C,D5*%
X126904160Y-65209300D03*
D18*
X126904160Y-69781300D03*
%TD*%
D20*
%TO.C,Fid-5*%
X153944160Y-58650000D03*
%TD*%
D17*
%TO.C,D3*%
X112604160Y-65024000D03*
D18*
X112604160Y-69596000D03*
%TD*%
D17*
%TO.C,D4*%
X119724160Y-64844000D03*
D18*
X119724160Y-69416000D03*
%TD*%
D19*
%TO.C,D9*%
X155000000Y-109310000D03*
X155000000Y-106110000D03*
X150100000Y-106110000D03*
X150100000Y-109310000D03*
%TD*%
%TO.C,D11*%
X173690000Y-98960000D03*
X173690000Y-95760000D03*
X168790000Y-95760000D03*
X168790000Y-98960000D03*
%TD*%
D21*
%TO.C,REF\u002A\u002A*%
X92604160Y-59640000D03*
%TD*%
D19*
%TO.C,D14*%
X136930000Y-98840000D03*
X136930000Y-95640000D03*
X132030000Y-95640000D03*
X132030000Y-98840000D03*
%TD*%
D21*
%TO.C,REF\u002A\u002A*%
X214664160Y-59680000D03*
%TD*%
D22*
%TO.C,REF\u002A\u002A*%
X142504160Y-155940000D03*
D23*
X142504160Y-154940000D03*
X143504160Y-155940000D03*
X143504160Y-154940000D03*
%TD*%
D24*
%TO.C,SW5*%
X192120000Y-152940000D03*
X184920000Y-152940000D03*
X192120000Y-149940000D03*
X184920000Y-149940000D03*
%TD*%
D25*
%TO.C,REF\u002A\u002A*%
X154774160Y-146780000D03*
D26*
X154774160Y-148080000D03*
%TD*%
D17*
%TO.C,D6*%
X178844160Y-64794000D03*
D18*
X178844160Y-69366000D03*
%TD*%
D24*
%TO.C,SW4*%
X198940000Y-145510000D03*
X191740000Y-145510000D03*
X198940000Y-142510000D03*
X191740000Y-142510000D03*
%TD*%
D15*
%TO.C,D15*%
X100290000Y-111110000D03*
X100290000Y-114310000D03*
X105190000Y-114310000D03*
X105190000Y-111110000D03*
%TD*%
D20*
%TO.C,Fid-6*%
X208234160Y-157130000D03*
%TD*%
D19*
%TO.C,D13*%
X138240000Y-127510000D03*
X138240000Y-124310000D03*
X133340000Y-124310000D03*
X133340000Y-127510000D03*
%TD*%
D27*
%TO.C,REF\u002A\u002A*%
X150264160Y-146705000D03*
D28*
X150264160Y-148155000D03*
%TD*%
D17*
%TO.C,D7*%
X193084160Y-64544800D03*
D18*
X193084160Y-69116800D03*
%TD*%
D16*
%TO.C,*%
X104624160Y-155105000D03*
%TD*%
D20*
%TO.C,Fid-4*%
X92034160Y-156690000D03*
%TD*%
D19*
%TO.C,D12*%
X169570000Y-127720000D03*
X169570000Y-124520000D03*
X164670000Y-124520000D03*
X164670000Y-127720000D03*
%TD*%
D16*
%TO.C,REF\u002A\u002A*%
X130024160Y-60250001D03*
%TD*%
D20*
%TO.C,J2*%
X190604160Y-154290000D03*
X182604160Y-154290000D03*
%TD*%
D16*
%TO.C,REF\u002A\u002A*%
X202044160Y-154330001D03*
%TD*%
D29*
%TO.C,J3*%
X108814160Y-118420000D03*
D30*
X108814160Y-115880000D03*
X108814160Y-113340000D03*
X108814160Y-110800000D03*
X108814160Y-108260000D03*
X108814160Y-105720000D03*
X108814160Y-103180000D03*
X108814160Y-100640000D03*
X108814160Y-98100000D03*
X108814160Y-95560000D03*
X108814160Y-93020000D03*
X108814160Y-90480000D03*
X108814160Y-87940000D03*
X108814160Y-85400000D03*
%TD*%
D31*
%TO.C,SW1*%
X193514160Y-58440000D03*
X196514160Y-58440000D03*
%TD*%
D32*
%TO.C,J8*%
X212274160Y-106705000D03*
X212274160Y-112485000D03*
D33*
X215924160Y-105275000D03*
D34*
X211774160Y-105275000D03*
D33*
X215924160Y-113915000D03*
D34*
X211774160Y-113915000D03*
%TD*%
G36*
X128057199Y-66279685D02*
G01*
X128102954Y-66332489D01*
X128114160Y-66384000D01*
X128114160Y-66695456D01*
X128094475Y-66762495D01*
X128041671Y-66808250D01*
X127972513Y-66818194D01*
X127908957Y-66789169D01*
X127886986Y-66764239D01*
X127864161Y-66730003D01*
X127864156Y-66729996D01*
X127804165Y-66660006D01*
X127804151Y-66659991D01*
X127744168Y-66600008D01*
X127744153Y-66599994D01*
X127674163Y-66540003D01*
X127674157Y-66539998D01*
X127594920Y-66487174D01*
X127550059Y-66433609D01*
X127541279Y-66364293D01*
X127571368Y-66301234D01*
X127630772Y-66264453D01*
X127663703Y-66260000D01*
X127990160Y-66260000D01*
X128057199Y-66279685D01*
G37*
G36*
X126333832Y-66279685D02*
G01*
X126379587Y-66332489D01*
X126389531Y-66401647D01*
X126360506Y-66465203D01*
X126329664Y-66490880D01*
X126314162Y-66499998D01*
X126224151Y-66570007D01*
X126154167Y-66629993D01*
X126154160Y-66630000D01*
X126074165Y-66719994D01*
X126004155Y-66810006D01*
X126004153Y-66810009D01*
X125934164Y-66929990D01*
X125934162Y-66929994D01*
X125894164Y-67029987D01*
X125894157Y-67030006D01*
X125854159Y-67150000D01*
X125833985Y-67237425D01*
X125799730Y-67298322D01*
X125737990Y-67331032D01*
X125668366Y-67325170D01*
X125612965Y-67282597D01*
X125589374Y-67216830D01*
X125589160Y-67209543D01*
X125589160Y-66384000D01*
X125608845Y-66316961D01*
X125661649Y-66271206D01*
X125713160Y-66260000D01*
X126266793Y-66260000D01*
X126333832Y-66279685D01*
G37*
G36*
X128075859Y-68121318D02*
G01*
X128110707Y-68181877D01*
X128114160Y-68210937D01*
X128114160Y-68587221D01*
X128094475Y-68654260D01*
X128041671Y-68700015D01*
X127991388Y-68711215D01*
X127539310Y-68715691D01*
X127472079Y-68696671D01*
X127425803Y-68644323D01*
X127415175Y-68575266D01*
X127443570Y-68511426D01*
X127481651Y-68481282D01*
X127484163Y-68479997D01*
X127584157Y-68420001D01*
X127694158Y-68350000D01*
X127804155Y-68240004D01*
X127804160Y-68239999D01*
X127874157Y-68160002D01*
X127889256Y-68138864D01*
X127944240Y-68095753D01*
X128013803Y-68089212D01*
X128075859Y-68121318D01*
G37*
G36*
X125794363Y-67588970D02*
G01*
X125832137Y-67647748D01*
X125835160Y-67660502D01*
X125844159Y-67709999D01*
X125874158Y-67839993D01*
X125954161Y-68010000D01*
X126044159Y-68139999D01*
X126154161Y-68270001D01*
X126264161Y-68370001D01*
X126404162Y-68460001D01*
X126470794Y-68489152D01*
X126524323Y-68534056D01*
X126545078Y-68600772D01*
X126526469Y-68668118D01*
X126474404Y-68714712D01*
X126422322Y-68726750D01*
X125714388Y-68733760D01*
X125647157Y-68714740D01*
X125600881Y-68662392D01*
X125589160Y-68609766D01*
X125589160Y-67682683D01*
X125608845Y-67615644D01*
X125661649Y-67569889D01*
X125730807Y-67559945D01*
X125794363Y-67588970D01*
G37*
G36*
X180032465Y-65800245D02*
G01*
X180078738Y-65852595D01*
X180090450Y-65903924D01*
X180096115Y-66447712D01*
X180077130Y-66514953D01*
X180024806Y-66561256D01*
X179955754Y-66571919D01*
X179891900Y-66543558D01*
X179868088Y-66514895D01*
X179867803Y-66515100D01*
X179865012Y-66511193D01*
X179864464Y-66510533D01*
X179864156Y-66509994D01*
X179815315Y-66441616D01*
X179813044Y-66438326D01*
X179754161Y-66350003D01*
X179754156Y-66349996D01*
X179694165Y-66280006D01*
X179694151Y-66279991D01*
X179634168Y-66220008D01*
X179634153Y-66219994D01*
X179564163Y-66160003D01*
X179564156Y-66159998D01*
X179474158Y-66099999D01*
X179474156Y-66099998D01*
X179441063Y-66083451D01*
X179427738Y-66075718D01*
X179404163Y-66060002D01*
X179404162Y-66060001D01*
X179344164Y-66030002D01*
X179344152Y-66029997D01*
X179333241Y-66025450D01*
X179278930Y-65981494D01*
X179257006Y-65915153D01*
X179274429Y-65847491D01*
X179325667Y-65799989D01*
X179379713Y-65786996D01*
X179965234Y-65781222D01*
X180032465Y-65800245D01*
G37*
G36*
X178362739Y-65816710D02*
G01*
X178409013Y-65869061D01*
X178419638Y-65938118D01*
X178391241Y-66001957D01*
X178359603Y-66028562D01*
X178204162Y-66119998D01*
X178114151Y-66190007D01*
X178044167Y-66249993D01*
X178044160Y-66250000D01*
X177964165Y-66339994D01*
X177894155Y-66430006D01*
X177894153Y-66430009D01*
X177824164Y-66549990D01*
X177824162Y-66549994D01*
X177784147Y-66650029D01*
X177783735Y-66651156D01*
X177783653Y-66651266D01*
X177783483Y-66651692D01*
X177783371Y-66651647D01*
X177742178Y-66707323D01*
X177676851Y-66732106D01*
X177608496Y-66717636D01*
X177558815Y-66668508D01*
X177543324Y-66606797D01*
X177552523Y-65926123D01*
X177573112Y-65859356D01*
X177626529Y-65814319D01*
X177675289Y-65803805D01*
X178295509Y-65797688D01*
X178362739Y-65816710D01*
G37*
G36*
X177755576Y-67469140D02*
G01*
X177788477Y-67511672D01*
X177844160Y-67630000D01*
X177934159Y-67759999D01*
X178044162Y-67890002D01*
X178103239Y-67943709D01*
X178139602Y-68003370D01*
X178137938Y-68073220D01*
X178098775Y-68131081D01*
X178034546Y-68158584D01*
X178018611Y-68159455D01*
X177684493Y-68156179D01*
X177617650Y-68135838D01*
X177572415Y-68082588D01*
X177561734Y-68034685D01*
X177552304Y-67566971D01*
X177570633Y-67499548D01*
X177622504Y-67452738D01*
X177691448Y-67441402D01*
X177755576Y-67469140D01*
G37*
G36*
X180063017Y-67563881D02*
G01*
X180102582Y-67621468D01*
X180108730Y-67658757D01*
X180112842Y-68053473D01*
X180093857Y-68120714D01*
X180041533Y-68167017D01*
X179987633Y-68178759D01*
X179676590Y-68175709D01*
X179609747Y-68155368D01*
X179564512Y-68102118D01*
X179555247Y-68032865D01*
X179584894Y-67969597D01*
X179590126Y-67964033D01*
X179694141Y-67860019D01*
X179694160Y-67859999D01*
X179764159Y-67780000D01*
X179814166Y-67709990D01*
X179844160Y-67659999D01*
X179862030Y-67624259D01*
X179866610Y-67615914D01*
X179878407Y-67596252D01*
X179929778Y-67548894D01*
X179998598Y-67536826D01*
X180063017Y-67563881D01*
G37*
G36*
X192851066Y-65486828D02*
G01*
X192897613Y-65538935D01*
X192908599Y-65607936D01*
X192880537Y-65671922D01*
X192824821Y-65709780D01*
X192644157Y-65770001D01*
X192474165Y-65869996D01*
X192384151Y-65940007D01*
X192314167Y-65999993D01*
X192314160Y-66000000D01*
X192234163Y-66089995D01*
X192234150Y-66090011D01*
X192210287Y-66120693D01*
X192153591Y-66161525D01*
X192083819Y-66165223D01*
X192023124Y-66130613D01*
X191990776Y-66068682D01*
X191988431Y-66042198D01*
X191996873Y-65599811D01*
X192017833Y-65533159D01*
X192071500Y-65488420D01*
X192118979Y-65478191D01*
X192783738Y-65468157D01*
X192851066Y-65486828D01*
G37*
G36*
X194591921Y-65460551D02*
G01*
X194638468Y-65512658D01*
X194650457Y-65564574D01*
X194672903Y-67719345D01*
X194653918Y-67786586D01*
X194601594Y-67832889D01*
X194553586Y-67844549D01*
X194013167Y-67864942D01*
X193945433Y-67847799D01*
X193897719Y-67796758D01*
X193885175Y-67728024D01*
X193911783Y-67663419D01*
X193920812Y-67653347D01*
X193964142Y-67610018D01*
X193964160Y-67609999D01*
X194034159Y-67530000D01*
X194084166Y-67459990D01*
X194114160Y-67409999D01*
X194132030Y-67374259D01*
X194136612Y-67365912D01*
X194164160Y-67319999D01*
X194184155Y-67270012D01*
X194184162Y-67269993D01*
X194224158Y-67150001D01*
X194254161Y-67029993D01*
X194274160Y-66910000D01*
X194274160Y-66790004D01*
X194274159Y-66789975D01*
X194264159Y-66639995D01*
X194244161Y-66540005D01*
X194214162Y-66450006D01*
X194214150Y-66449975D01*
X194174161Y-66350000D01*
X194134160Y-66260000D01*
X194085315Y-66191616D01*
X194083044Y-66188326D01*
X194024161Y-66100003D01*
X194024156Y-66099996D01*
X193964165Y-66030006D01*
X193964151Y-66029991D01*
X193904168Y-65970008D01*
X193904153Y-65969994D01*
X193834163Y-65910003D01*
X193834156Y-65909998D01*
X193744158Y-65849999D01*
X193744156Y-65849998D01*
X193711063Y-65833451D01*
X193697738Y-65825718D01*
X193674163Y-65810002D01*
X193674162Y-65810001D01*
X193614158Y-65779999D01*
X193494161Y-65730000D01*
X193374671Y-65704024D01*
X193313343Y-65670547D01*
X193279849Y-65609229D01*
X193284824Y-65539537D01*
X193326688Y-65483597D01*
X193392149Y-65459171D01*
X193399141Y-65458868D01*
X194524593Y-65441880D01*
X194591921Y-65460551D01*
G37*
G36*
X192211396Y-67522301D02*
G01*
X192229000Y-67539356D01*
X192314161Y-67640001D01*
X192394810Y-67713318D01*
X192431174Y-67772979D01*
X192429511Y-67842829D01*
X192390347Y-67900691D01*
X192326118Y-67928194D01*
X192316075Y-67928983D01*
X192147363Y-67935350D01*
X192079629Y-67918207D01*
X192031915Y-67867167D01*
X192018804Y-67816824D01*
X192010457Y-67624839D01*
X192027211Y-67557008D01*
X192077978Y-67509003D01*
X192146639Y-67496064D01*
X192211396Y-67522301D01*
G37*
G36*
X112095833Y-66079685D02*
G01*
X112141588Y-66132489D01*
X112151532Y-66201647D01*
X112122507Y-66265203D01*
X112091664Y-66290880D01*
X111974165Y-66359996D01*
X111884151Y-66430007D01*
X111814167Y-66489993D01*
X111814160Y-66490000D01*
X111734165Y-66579994D01*
X111706040Y-66616155D01*
X111649343Y-66656987D01*
X111579571Y-66660685D01*
X111518876Y-66626075D01*
X111486528Y-66564145D01*
X111484160Y-66540026D01*
X111484160Y-66184000D01*
X111503845Y-66116961D01*
X111556649Y-66071206D01*
X111608160Y-66060000D01*
X112028794Y-66060000D01*
X112095833Y-66079685D01*
G37*
G36*
X113875940Y-66079685D02*
G01*
X113921695Y-66132489D01*
X113932895Y-66185253D01*
X113926402Y-66827992D01*
X113906041Y-66894829D01*
X113852777Y-66940048D01*
X113783522Y-66949292D01*
X113720263Y-66919627D01*
X113687277Y-66872791D01*
X113674160Y-66840000D01*
X113634160Y-66750000D01*
X113585315Y-66681616D01*
X113583044Y-66678326D01*
X113524161Y-66590003D01*
X113524156Y-66589996D01*
X113464165Y-66520006D01*
X113464151Y-66519991D01*
X113404168Y-66460008D01*
X113404153Y-66459994D01*
X113334163Y-66400003D01*
X113334156Y-66399998D01*
X113244158Y-66339999D01*
X113244156Y-66339998D01*
X113211063Y-66323451D01*
X113197738Y-66315718D01*
X113174163Y-66300002D01*
X113174157Y-66299998D01*
X113163978Y-66294909D01*
X113112819Y-66247322D01*
X113095509Y-66179630D01*
X113117544Y-66113326D01*
X113171928Y-66069460D01*
X113219432Y-66060000D01*
X113808901Y-66060000D01*
X113875940Y-66079685D01*
G37*
G36*
X113854306Y-67716021D02*
G01*
X113902538Y-67766573D01*
X113916334Y-67824680D01*
X113910400Y-68412252D01*
X113890039Y-68479089D01*
X113836776Y-68524309D01*
X113786406Y-68535000D01*
X113266839Y-68535000D01*
X113199800Y-68515315D01*
X113154045Y-68462511D01*
X113144101Y-68393353D01*
X113173126Y-68329797D01*
X113203042Y-68304671D01*
X113244141Y-68280011D01*
X113354158Y-68210000D01*
X113464155Y-68100004D01*
X113464160Y-68099999D01*
X113534159Y-68020000D01*
X113584166Y-67949990D01*
X113614160Y-67899999D01*
X113632030Y-67864259D01*
X113636612Y-67855912D01*
X113664160Y-67809999D01*
X113677208Y-67777378D01*
X113720381Y-67722443D01*
X113786401Y-67699570D01*
X113854306Y-67716021D01*
G37*
G36*
X111689363Y-67984800D02*
G01*
X111702820Y-67998416D01*
X111814161Y-68130001D01*
X111924161Y-68230001D01*
X112043462Y-68306694D01*
X112089209Y-68359504D01*
X112099143Y-68428664D01*
X112070110Y-68492215D01*
X112011327Y-68529982D01*
X111976408Y-68535000D01*
X111608160Y-68535000D01*
X111541121Y-68515315D01*
X111495366Y-68462511D01*
X111484160Y-68411000D01*
X111484160Y-68078513D01*
X111503845Y-68011474D01*
X111556649Y-67965719D01*
X111625807Y-67955775D01*
X111689363Y-67984800D01*
G37*
G36*
X119251061Y-65816750D02*
G01*
X119317898Y-65837112D01*
X119363116Y-65890377D01*
X119372359Y-65959632D01*
X119342692Y-66022891D01*
X119289019Y-66058380D01*
X119254161Y-66069999D01*
X119254158Y-66070000D01*
X119084165Y-66169996D01*
X118994151Y-66240007D01*
X118924167Y-66299993D01*
X118924160Y-66300000D01*
X118844165Y-66389994D01*
X118774156Y-66480004D01*
X118746245Y-66527853D01*
X118695462Y-66575841D01*
X118626797Y-66588756D01*
X118562049Y-66562498D01*
X118521776Y-66505403D01*
X118515152Y-66467292D01*
X118506930Y-65936401D01*
X118525574Y-65869065D01*
X118577663Y-65822498D01*
X118632170Y-65810487D01*
X119251061Y-65816750D01*
G37*
G36*
X120853957Y-65832970D02*
G01*
X120920794Y-65853332D01*
X120966012Y-65906597D01*
X120976696Y-65955724D01*
X120982240Y-66510139D01*
X120963227Y-66577372D01*
X120910883Y-66623653D01*
X120841827Y-66634287D01*
X120777984Y-66605899D01*
X120747575Y-66565270D01*
X120747272Y-66565444D01*
X120745869Y-66562990D01*
X120744933Y-66561739D01*
X120744160Y-66559999D01*
X120695315Y-66491616D01*
X120693044Y-66488326D01*
X120634161Y-66400003D01*
X120634156Y-66399996D01*
X120574165Y-66330006D01*
X120574151Y-66329991D01*
X120514168Y-66270008D01*
X120514153Y-66269994D01*
X120444163Y-66210003D01*
X120444156Y-66209998D01*
X120354158Y-66149999D01*
X120354156Y-66149998D01*
X120321063Y-66133451D01*
X120307738Y-66125718D01*
X120284163Y-66110002D01*
X120284162Y-66110001D01*
X120224166Y-66080003D01*
X120188609Y-66065187D01*
X120134298Y-66021231D01*
X120112373Y-65954891D01*
X120129795Y-65887228D01*
X120181032Y-65839725D01*
X120237558Y-65826732D01*
X120853957Y-65832970D01*
G37*
G36*
X118730684Y-67696262D02*
G01*
X118751433Y-67719394D01*
X118814155Y-67809995D01*
X118924161Y-67940001D01*
X119034161Y-68040001D01*
X119105827Y-68086072D01*
X119151574Y-68138882D01*
X119161508Y-68208042D01*
X119132475Y-68271594D01*
X119073692Y-68309360D01*
X119037520Y-68314372D01*
X118648228Y-68310439D01*
X118581391Y-68290078D01*
X118536172Y-68236814D01*
X118525481Y-68186445D01*
X118525481Y-67789975D01*
X118545166Y-67722936D01*
X118597970Y-67677181D01*
X118667128Y-67667237D01*
X118730684Y-67696262D01*
G37*
G36*
X120948424Y-67604873D02*
G01*
X120987989Y-67662461D01*
X120994137Y-67699800D01*
X120999215Y-68207688D01*
X120980201Y-68274921D01*
X120927858Y-68321202D01*
X120873969Y-68332922D01*
X120403625Y-68328171D01*
X120336787Y-68307810D01*
X120291568Y-68254547D01*
X120282324Y-68185291D01*
X120311989Y-68122032D01*
X120341082Y-68097847D01*
X120354137Y-68090014D01*
X120464158Y-68020000D01*
X120574155Y-67910004D01*
X120574160Y-67909999D01*
X120644159Y-67830000D01*
X120694166Y-67759990D01*
X120724160Y-67709999D01*
X120742030Y-67674259D01*
X120746612Y-67665912D01*
X120763815Y-67637241D01*
X120815186Y-67589884D01*
X120884006Y-67577817D01*
X120948424Y-67604873D01*
G37*
M02*
