M48
; DRILL file {KiCad 9.0.3} date 2025-12-07T17:58:32-0600
; FORMAT={-:-/ absolute / inch / decimal}
; #@! TF.CreationDate,2025-12-07T17:58:32-06:00
; #@! TF.GenerationSoftware,Kicad,Pcbnew,9.0.3
; #@! TF.FileFunction,Plated,1,2,PTH
FMAT,2
INCH
; #@! TA.AperFunction,Plated,PTH,ViaDrill
T1C0.0157
; #@! TA.AperFunction,Plated,PTH,ComponentDrill
T2C0.0197
; #@! TA.AperFunction,Plated,PTH,ComponentDrill
T3C0.0236
; #@! TA.AperFunction,Plated,PTH,ComponentDrill
T4C0.0394
; #@! TA.AperFunction,Plated,PTH,ComponentDrill
T5C0.0400
; #@! TA.AperFunction,Plated,PTH,ComponentDrill
T6C0.1772
; #@! TA.AperFunction,Plated,PTH,ComponentDrill
T7C0.2165
%
G90
G05
T1
X3.6187Y-3.1063
X3.6376Y-4.136
X3.774Y-5.1094
X3.8017Y-3.8579
X4.11Y-4.7856
X4.1256Y-4.3102
X4.1413Y-4.5004
X4.1559Y-4.087
X4.2933Y-5.8382
X4.3902Y-5.6972
X4.4293Y-2.7984
X4.4403Y-5.9458
X4.4506Y-3.5252
X4.4726Y-3.6713
X4.4752Y-3.4058
X4.4919Y-4.3884
X4.4921Y-4.4967
X4.4933Y-4.8673
X4.5417Y-5.4185
X4.5535Y-3.1563
X4.5584Y-4.8669
X4.5756Y-3.9189
X4.5797Y-4.3545
X4.5835Y-4.4086
X4.6063Y-4.4309
X4.6358Y-4.8152
X4.6594Y-4.6331
X4.6604Y-4.7955
X4.6614Y-5.3939
X4.6632Y-5.7933
X4.6639Y-5.8437
X4.685Y-5.2445
X4.7096Y-4.8152
X4.7126Y-2.4563
X4.7135Y-2.7335
X4.7342Y-4.8398
X4.7716Y-5.3791
X4.795Y-5.1717
X4.823Y-4.9929
X4.8534Y-4.9929
X4.8838Y-4.9929
X4.9195Y-4.9929
X4.9293Y-4.865
X4.9547Y-3.9098
X4.9746Y-5.3781
X4.9911Y-5.124
X4.9962Y-2.7478
X5.0167Y-5.3525
X5.0832Y-5.162
X5.1336Y-5.2358
X5.198Y-3.7654
X5.2157Y-4.9862
X5.223Y-5.5567
X5.2418Y-5.8701
X5.2496Y-4.8941
X5.2731Y-5.1409
X5.307Y-5.1321
X5.3188Y-4.9755
X5.3441Y-4.674
X5.3539Y-4.8524
X5.3541Y-5.3939
X5.3599Y-5.2468
X5.3795Y-5.3433
X5.4029Y-2.8996
X5.4317Y-5.3953
X5.4687Y-3.061
X5.5041Y-3.0496
X5.5279Y-3.5972
X5.5746Y-2.9004
X5.5783Y-4.5417
X5.6025Y-5.352
X5.6132Y-3.1811
X5.7187Y-3.3642
X5.7382Y-3.9657
X5.8998Y-5.4988
X5.901Y-5.3583
X5.9094Y-3.3346
X5.9138Y-4.1776
X5.9163Y-5.7272
X5.9919Y-6.0955
X6.0025Y-5.9331
X6.025Y-5.6957
X6.0252Y-4.3969
X6.0992Y-5.598
X6.0994Y-5.5665
X6.1051Y-6.2089
X6.2081Y-5.4701
X6.2303Y-5.4479
X6.2575Y-5.4207
X6.2731Y-5.5153
X6.2803Y-5.3911
X6.297Y-5.4874
X6.3238Y-5.4598
X6.3482Y-5.4316
X6.4049Y-5.9075
X6.4831Y-4.9024
X6.4986Y-5.8425
X6.5729Y-5.8995
X6.6453Y-3.7701
X6.71Y-5.9945
X6.9285Y-5.9457
X6.9348Y-2.9295
X6.938Y-3.0189
X7.1391Y-2.7268
X7.1391Y-2.8693
X7.1461Y-4.4531
X7.2821Y-6.0252
X7.3482Y-5.5232
X7.4372Y-5.5732
X7.4372Y-5.729
X7.5502Y-5.7307
X7.5573Y-4.2496
X7.5655Y-6.0252
X7.6391Y-3.1293
X7.6394Y-2.789
X7.6531Y-2.448
X7.6557Y-4.1773
X7.6783Y-4.498
X7.8008Y-2.9511
X7.8189Y-5.4823
X7.82Y-2.976
X7.8324Y-5.7307
X7.8403Y-3.5425
X7.8713Y-2.8984
X7.9269Y-3.0442
X7.9836Y-4.2772
X7.9914Y-3.7974
X7.9978Y-3.55
X8.0632Y-2.7587
X8.0821Y-2.9591
X8.1096Y-3.923
X8.124Y-3.4663
X8.1277Y-4.2906
X8.1291Y-3.2748
X8.1728Y-3.3797
X8.186Y-3.1689
X8.2147Y-3.2728
X8.2185Y-3.4711
X8.3096Y-3.3807
X8.4112Y-4.328
X8.4643Y-3.2059
X8.4687Y-2.7886
T2
X5.6104Y-6.1
X5.6104Y-6.1394
X5.6498Y-6.1
X5.6498Y-6.1394
T4
X4.284Y-3.3622
X4.284Y-3.4622
X4.284Y-3.5622
X4.284Y-3.6622
X4.284Y-3.7622
X4.284Y-3.8622
X4.284Y-3.9622
X4.284Y-4.0622
X4.284Y-4.1622
X4.284Y-4.2622
X4.284Y-4.3622
X4.284Y-4.4622
X4.284Y-4.5622
X4.284Y-4.6622
T5
X8.0413Y-5.3244
X8.0413Y-5.4244
X8.1413Y-5.3244
X8.1413Y-5.4244
X8.2413Y-5.3244
X8.2413Y-5.4244
T6
X4.1191Y-6.1065
X5.1191Y-2.372
X7.2202Y-2.3969
X7.9545Y-6.076
T7
X3.6458Y-2.348
X8.4513Y-2.3496
T3
G00X8.3592Y-4.1447
M15
G01X8.3159Y-4.1447
M16
G05
G00X8.3592Y-4.4848
M15
G01X8.3159Y-4.4848
M16
G05
G00X8.5167Y-4.1447
M15
G01X8.4852Y-4.1447
M16
G05
G00X8.5167Y-4.4848
M15
G01X8.4852Y-4.4848
M16
G05
M30
