%TF.GenerationSoftware,KiCad,Pcbnew,9.0.3*%
%TF.CreationDate,2025-12-07T17:58:41-06:00*%
%TF.ProjectId,CC14,43433134-2e6b-4696-9361-645f70636258,Prototype_v2.2*%
%TF.SameCoordinates,Original*%
%TF.FileFunction,Legend,Top*%
%TF.FilePolarity,Positive*%
%FSLAX46Y46*%
G04 Gerber Fmt 4.6, Leading zero omitted, Abs format (unit mm)*
G04 Created by KiCad (PCBNEW 9.0.3) date 2025-12-07 17:58:41*
%MOMM*%
%LPD*%
G01*
G04 APERTURE LIST*
%ADD10C,0.150000*%
%ADD11C,0.120000*%
G04 APERTURE END LIST*
D10*
X154464160Y-107320000D02*
X153674160Y-107940000D01*
X154474160Y-107970000D02*
X153704160Y-107330000D01*
X154594544Y-107640384D02*
G75*
G02*
X153553776Y-107640384I-520384J0D01*
G01*
X153553776Y-107640384D02*
G75*
G02*
X154594544Y-107640384I520384J0D01*
G01*
X111618207Y-110899819D02*
X111284874Y-110423628D01*
X111046779Y-110899819D02*
X111046779Y-109899819D01*
X111046779Y-109899819D02*
X111427731Y-109899819D01*
X111427731Y-109899819D02*
X111522969Y-109947438D01*
X111522969Y-109947438D02*
X111570588Y-109995057D01*
X111570588Y-109995057D02*
X111618207Y-110090295D01*
X111618207Y-110090295D02*
X111618207Y-110233152D01*
X111618207Y-110233152D02*
X111570588Y-110328390D01*
X111570588Y-110328390D02*
X111522969Y-110376009D01*
X111522969Y-110376009D02*
X111427731Y-110423628D01*
X111427731Y-110423628D02*
X111046779Y-110423628D01*
X112427731Y-110852200D02*
X112332493Y-110899819D01*
X112332493Y-110899819D02*
X112142017Y-110899819D01*
X112142017Y-110899819D02*
X112046779Y-110852200D01*
X112046779Y-110852200D02*
X111999160Y-110756961D01*
X111999160Y-110756961D02*
X111999160Y-110376009D01*
X111999160Y-110376009D02*
X112046779Y-110280771D01*
X112046779Y-110280771D02*
X112142017Y-110233152D01*
X112142017Y-110233152D02*
X112332493Y-110233152D01*
X112332493Y-110233152D02*
X112427731Y-110280771D01*
X112427731Y-110280771D02*
X112475350Y-110376009D01*
X112475350Y-110376009D02*
X112475350Y-110471247D01*
X112475350Y-110471247D02*
X111999160Y-110566485D01*
X112856303Y-110852200D02*
X112951541Y-110899819D01*
X112951541Y-110899819D02*
X113142017Y-110899819D01*
X113142017Y-110899819D02*
X113237255Y-110852200D01*
X113237255Y-110852200D02*
X113284874Y-110756961D01*
X113284874Y-110756961D02*
X113284874Y-110709342D01*
X113284874Y-110709342D02*
X113237255Y-110614104D01*
X113237255Y-110614104D02*
X113142017Y-110566485D01*
X113142017Y-110566485D02*
X112999160Y-110566485D01*
X112999160Y-110566485D02*
X112903922Y-110518866D01*
X112903922Y-110518866D02*
X112856303Y-110423628D01*
X112856303Y-110423628D02*
X112856303Y-110376009D01*
X112856303Y-110376009D02*
X112903922Y-110280771D01*
X112903922Y-110280771D02*
X112999160Y-110233152D01*
X112999160Y-110233152D02*
X113142017Y-110233152D01*
X113142017Y-110233152D02*
X113237255Y-110280771D01*
X114094398Y-110852200D02*
X113999160Y-110899819D01*
X113999160Y-110899819D02*
X113808684Y-110899819D01*
X113808684Y-110899819D02*
X113713446Y-110852200D01*
X113713446Y-110852200D02*
X113665827Y-110756961D01*
X113665827Y-110756961D02*
X113665827Y-110376009D01*
X113665827Y-110376009D02*
X113713446Y-110280771D01*
X113713446Y-110280771D02*
X113808684Y-110233152D01*
X113808684Y-110233152D02*
X113999160Y-110233152D01*
X113999160Y-110233152D02*
X114094398Y-110280771D01*
X114094398Y-110280771D02*
X114142017Y-110376009D01*
X114142017Y-110376009D02*
X114142017Y-110471247D01*
X114142017Y-110471247D02*
X113665827Y-110566485D01*
X114427732Y-110233152D02*
X114808684Y-110233152D01*
X114570589Y-109899819D02*
X114570589Y-110756961D01*
X114570589Y-110756961D02*
X114618208Y-110852200D01*
X114618208Y-110852200D02*
X114713446Y-110899819D01*
X114713446Y-110899819D02*
X114808684Y-110899819D01*
X111618207Y-93084580D02*
X111570588Y-93132200D01*
X111570588Y-93132200D02*
X111427731Y-93179819D01*
X111427731Y-93179819D02*
X111332493Y-93179819D01*
X111332493Y-93179819D02*
X111189636Y-93132200D01*
X111189636Y-93132200D02*
X111094398Y-93036961D01*
X111094398Y-93036961D02*
X111046779Y-92941723D01*
X111046779Y-92941723D02*
X110999160Y-92751247D01*
X110999160Y-92751247D02*
X110999160Y-92608390D01*
X110999160Y-92608390D02*
X111046779Y-92417914D01*
X111046779Y-92417914D02*
X111094398Y-92322676D01*
X111094398Y-92322676D02*
X111189636Y-92227438D01*
X111189636Y-92227438D02*
X111332493Y-92179819D01*
X111332493Y-92179819D02*
X111427731Y-92179819D01*
X111427731Y-92179819D02*
X111570588Y-92227438D01*
X111570588Y-92227438D02*
X111618207Y-92275057D01*
X111999160Y-93132200D02*
X112142017Y-93179819D01*
X112142017Y-93179819D02*
X112380112Y-93179819D01*
X112380112Y-93179819D02*
X112475350Y-93132200D01*
X112475350Y-93132200D02*
X112522969Y-93084580D01*
X112522969Y-93084580D02*
X112570588Y-92989342D01*
X112570588Y-92989342D02*
X112570588Y-92894104D01*
X112570588Y-92894104D02*
X112522969Y-92798866D01*
X112522969Y-92798866D02*
X112475350Y-92751247D01*
X112475350Y-92751247D02*
X112380112Y-92703628D01*
X112380112Y-92703628D02*
X112189636Y-92656009D01*
X112189636Y-92656009D02*
X112094398Y-92608390D01*
X112094398Y-92608390D02*
X112046779Y-92560771D01*
X112046779Y-92560771D02*
X111999160Y-92465533D01*
X111999160Y-92465533D02*
X111999160Y-92370295D01*
X111999160Y-92370295D02*
X112046779Y-92275057D01*
X112046779Y-92275057D02*
X112094398Y-92227438D01*
X112094398Y-92227438D02*
X112189636Y-92179819D01*
X112189636Y-92179819D02*
X112427731Y-92179819D01*
X112427731Y-92179819D02*
X112570588Y-92227438D01*
X111670839Y-98750180D02*
X111004173Y-97750180D01*
X111004173Y-98750180D02*
X111670839Y-97750180D01*
X110999160Y-103442200D02*
X111142017Y-103489819D01*
X111142017Y-103489819D02*
X111380112Y-103489819D01*
X111380112Y-103489819D02*
X111475350Y-103442200D01*
X111475350Y-103442200D02*
X111522969Y-103394580D01*
X111522969Y-103394580D02*
X111570588Y-103299342D01*
X111570588Y-103299342D02*
X111570588Y-103204104D01*
X111570588Y-103204104D02*
X111522969Y-103108866D01*
X111522969Y-103108866D02*
X111475350Y-103061247D01*
X111475350Y-103061247D02*
X111380112Y-103013628D01*
X111380112Y-103013628D02*
X111189636Y-102966009D01*
X111189636Y-102966009D02*
X111094398Y-102918390D01*
X111094398Y-102918390D02*
X111046779Y-102870771D01*
X111046779Y-102870771D02*
X110999160Y-102775533D01*
X110999160Y-102775533D02*
X110999160Y-102680295D01*
X110999160Y-102680295D02*
X111046779Y-102585057D01*
X111046779Y-102585057D02*
X111094398Y-102537438D01*
X111094398Y-102537438D02*
X111189636Y-102489819D01*
X111189636Y-102489819D02*
X111427731Y-102489819D01*
X111427731Y-102489819D02*
X111570588Y-102537438D01*
X112570588Y-103394580D02*
X112522969Y-103442200D01*
X112522969Y-103442200D02*
X112380112Y-103489819D01*
X112380112Y-103489819D02*
X112284874Y-103489819D01*
X112284874Y-103489819D02*
X112142017Y-103442200D01*
X112142017Y-103442200D02*
X112046779Y-103346961D01*
X112046779Y-103346961D02*
X111999160Y-103251723D01*
X111999160Y-103251723D02*
X111951541Y-103061247D01*
X111951541Y-103061247D02*
X111951541Y-102918390D01*
X111951541Y-102918390D02*
X111999160Y-102727914D01*
X111999160Y-102727914D02*
X112046779Y-102632676D01*
X112046779Y-102632676D02*
X112142017Y-102537438D01*
X112142017Y-102537438D02*
X112284874Y-102489819D01*
X112284874Y-102489819D02*
X112380112Y-102489819D01*
X112380112Y-102489819D02*
X112522969Y-102537438D01*
X112522969Y-102537438D02*
X112570588Y-102585057D01*
X112999160Y-103489819D02*
X112999160Y-102489819D01*
X113570588Y-103489819D02*
X113142017Y-102918390D01*
X113570588Y-102489819D02*
X112999160Y-103061247D01*
X111618207Y-113634580D02*
X111570588Y-113682200D01*
X111570588Y-113682200D02*
X111427731Y-113729819D01*
X111427731Y-113729819D02*
X111332493Y-113729819D01*
X111332493Y-113729819D02*
X111189636Y-113682200D01*
X111189636Y-113682200D02*
X111094398Y-113586961D01*
X111094398Y-113586961D02*
X111046779Y-113491723D01*
X111046779Y-113491723D02*
X110999160Y-113301247D01*
X110999160Y-113301247D02*
X110999160Y-113158390D01*
X110999160Y-113158390D02*
X111046779Y-112967914D01*
X111046779Y-112967914D02*
X111094398Y-112872676D01*
X111094398Y-112872676D02*
X111189636Y-112777438D01*
X111189636Y-112777438D02*
X111332493Y-112729819D01*
X111332493Y-112729819D02*
X111427731Y-112729819D01*
X111427731Y-112729819D02*
X111570588Y-112777438D01*
X111570588Y-112777438D02*
X111618207Y-112825057D01*
X111999160Y-113682200D02*
X112142017Y-113729819D01*
X112142017Y-113729819D02*
X112380112Y-113729819D01*
X112380112Y-113729819D02*
X112475350Y-113682200D01*
X112475350Y-113682200D02*
X112522969Y-113634580D01*
X112522969Y-113634580D02*
X112570588Y-113539342D01*
X112570588Y-113539342D02*
X112570588Y-113444104D01*
X112570588Y-113444104D02*
X112522969Y-113348866D01*
X112522969Y-113348866D02*
X112475350Y-113301247D01*
X112475350Y-113301247D02*
X112380112Y-113253628D01*
X112380112Y-113253628D02*
X112189636Y-113206009D01*
X112189636Y-113206009D02*
X112094398Y-113158390D01*
X112094398Y-113158390D02*
X112046779Y-113110771D01*
X112046779Y-113110771D02*
X111999160Y-113015533D01*
X111999160Y-113015533D02*
X111999160Y-112920295D01*
X111999160Y-112920295D02*
X112046779Y-112825057D01*
X112046779Y-112825057D02*
X112094398Y-112777438D01*
X112094398Y-112777438D02*
X112189636Y-112729819D01*
X112189636Y-112729819D02*
X112427731Y-112729819D01*
X112427731Y-112729819D02*
X112570588Y-112777438D01*
X111522969Y-100949819D02*
X111046779Y-100949819D01*
X111046779Y-100949819D02*
X111046779Y-99949819D01*
X111856303Y-100426009D02*
X112189636Y-100426009D01*
X112332493Y-100949819D02*
X111856303Y-100949819D01*
X111856303Y-100949819D02*
X111856303Y-99949819D01*
X111856303Y-99949819D02*
X112332493Y-99949819D01*
X112761065Y-100949819D02*
X112761065Y-99949819D01*
X112761065Y-99949819D02*
X112999160Y-99949819D01*
X112999160Y-99949819D02*
X113142017Y-99997438D01*
X113142017Y-99997438D02*
X113237255Y-100092676D01*
X113237255Y-100092676D02*
X113284874Y-100187914D01*
X113284874Y-100187914D02*
X113332493Y-100378390D01*
X113332493Y-100378390D02*
X113332493Y-100521247D01*
X113332493Y-100521247D02*
X113284874Y-100711723D01*
X113284874Y-100711723D02*
X113237255Y-100806961D01*
X113237255Y-100806961D02*
X113142017Y-100902200D01*
X113142017Y-100902200D02*
X112999160Y-100949819D01*
X112999160Y-100949819D02*
X112761065Y-100949819D01*
G36*
X186230869Y-156099717D02*
G01*
X186219426Y-156252302D01*
X186191302Y-156346646D01*
X186150455Y-156413392D01*
X186096763Y-156470008D01*
X186028758Y-156517372D01*
X185952801Y-156551591D01*
X185869074Y-156572548D01*
X185775967Y-156579776D01*
X185682431Y-156571412D01*
X185611487Y-156548763D01*
X185557980Y-156513953D01*
X185516403Y-156466018D01*
X185491965Y-156411915D01*
X185483608Y-156349455D01*
X185492178Y-156287820D01*
X185517680Y-156232341D01*
X185558522Y-156186370D01*
X185614767Y-156152229D01*
X185689185Y-156128646D01*
X185829212Y-156102770D01*
X186079453Y-156056364D01*
X186230869Y-156009225D01*
X186230869Y-156099717D01*
G37*
G36*
X184367165Y-155817832D02*
G01*
X184480259Y-155842041D01*
X184543963Y-155870672D01*
X184596547Y-155909790D01*
X184639505Y-155960010D01*
X184670994Y-156018293D01*
X184690239Y-156083637D01*
X184696902Y-156157725D01*
X184686621Y-156250727D01*
X184657213Y-156329183D01*
X184611233Y-156395600D01*
X184556096Y-156442267D01*
X184489564Y-156474665D01*
X184403200Y-156497711D01*
X184222827Y-156507480D01*
X183724205Y-156507480D01*
X183724205Y-155807969D01*
X184187289Y-155807969D01*
X184367165Y-155817832D01*
G37*
G36*
X184324437Y-154972543D02*
G01*
X184429090Y-154992198D01*
X184484215Y-155016677D01*
X184529303Y-155051378D01*
X184565744Y-155097100D01*
X184601315Y-155178522D01*
X184613615Y-155274542D01*
X184600137Y-155374065D01*
X184562324Y-155451252D01*
X184500544Y-155510359D01*
X184410039Y-155552002D01*
X184321018Y-155568349D01*
X184157247Y-155575450D01*
X183724205Y-155575450D01*
X183724205Y-154963866D01*
X184124397Y-154963866D01*
X184324437Y-154972543D01*
G37*
G36*
X189684913Y-156993485D02*
G01*
X183236857Y-156993485D01*
X183236857Y-155575450D01*
X183459079Y-155575450D01*
X183459079Y-156507480D01*
X183459079Y-156740000D01*
X184222827Y-156740000D01*
X184406468Y-156730828D01*
X184545838Y-156706416D01*
X184669646Y-156663296D01*
X184765168Y-156606887D01*
X184843656Y-156529563D01*
X184912080Y-156419553D01*
X184934653Y-156355683D01*
X185221291Y-156355683D01*
X185229637Y-156444193D01*
X185253769Y-156522184D01*
X185293395Y-156591768D01*
X185349641Y-156654392D01*
X185416624Y-156703151D01*
X185498111Y-156739542D01*
X185597071Y-156762878D01*
X185717226Y-156771263D01*
X185858593Y-156759092D01*
X185988458Y-156723391D01*
X186112562Y-156661442D01*
X186251386Y-156559382D01*
X186269775Y-156658403D01*
X186300601Y-156740000D01*
X186557422Y-156740000D01*
X186518550Y-156654366D01*
X186495262Y-156565732D01*
X186484852Y-156444006D01*
X186479631Y-156131468D01*
X186479631Y-156018628D01*
X186784812Y-156018628D01*
X186797769Y-156200973D01*
X186833847Y-156351152D01*
X186890176Y-156474859D01*
X186965796Y-156576601D01*
X187062453Y-156660935D01*
X187172549Y-156721145D01*
X187298736Y-156758287D01*
X187444756Y-156771263D01*
X187561816Y-156761984D01*
X187647418Y-156740000D01*
X188260405Y-156740000D01*
X188506236Y-156740000D01*
X188506236Y-156163709D01*
X188679770Y-155996646D01*
X189159341Y-156740000D01*
X189462691Y-156740000D01*
X188851961Y-155825554D01*
X189406637Y-155286266D01*
X189088266Y-155286266D01*
X188506236Y-155877578D01*
X188506236Y-154731346D01*
X188260405Y-154731346D01*
X188260405Y-156740000D01*
X187647418Y-156740000D01*
X187666287Y-156735154D01*
X187760351Y-156691433D01*
X187845681Y-156630334D01*
X187918110Y-156554908D01*
X187975978Y-156466118D01*
X188019668Y-156362012D01*
X188048524Y-156239912D01*
X187806724Y-156208527D01*
X187779399Y-156325897D01*
X187737860Y-156413777D01*
X187683748Y-156478415D01*
X187614721Y-156526642D01*
X187535114Y-156555913D01*
X187441947Y-156566099D01*
X187354391Y-156557528D01*
X187277862Y-156532790D01*
X187210093Y-156492160D01*
X187149589Y-156434330D01*
X187104662Y-156366593D01*
X187069630Y-156277312D01*
X187046258Y-156161171D01*
X187037603Y-156011789D01*
X187046478Y-155865055D01*
X187070543Y-155750153D01*
X187106836Y-155661026D01*
X187153741Y-155592669D01*
X187216240Y-155534640D01*
X187286238Y-155493752D01*
X187365272Y-155468813D01*
X187455625Y-155460167D01*
X187534860Y-155468691D01*
X187604006Y-155493380D01*
X187665307Y-155534295D01*
X187715299Y-155588932D01*
X187755840Y-155661235D01*
X187786208Y-155755212D01*
X188025321Y-155718332D01*
X187996049Y-155609906D01*
X187953981Y-155518173D01*
X187899638Y-155440678D01*
X187832614Y-155375659D01*
X187754852Y-155324318D01*
X187665924Y-155286767D01*
X187563835Y-155263259D01*
X187446099Y-155255003D01*
X187323581Y-155264935D01*
X187208655Y-155294280D01*
X187099641Y-155343175D01*
X187003093Y-155411217D01*
X186924518Y-155498439D01*
X186862603Y-155607445D01*
X186820491Y-155727320D01*
X186794072Y-155863492D01*
X186784812Y-156018628D01*
X186479631Y-156018628D01*
X186479631Y-155803328D01*
X186475799Y-155651817D01*
X186467296Y-155576304D01*
X186436329Y-155481947D01*
X186390726Y-155408876D01*
X186324820Y-155350871D01*
X186220000Y-155298845D01*
X186094464Y-155267164D01*
X185918116Y-155255003D01*
X185737715Y-155268691D01*
X185588755Y-155306905D01*
X185498373Y-155348082D01*
X185426915Y-155397404D01*
X185371501Y-155454672D01*
X185327938Y-155521961D01*
X185291709Y-155605062D01*
X185263668Y-155706852D01*
X185504125Y-155739581D01*
X185538332Y-155639023D01*
X185579453Y-155568720D01*
X185626368Y-155521716D01*
X185685007Y-155489992D01*
X185767859Y-155468390D01*
X185882579Y-155460167D01*
X186003844Y-155470793D01*
X186094848Y-155499407D01*
X186162603Y-155543087D01*
X186198854Y-155589001D01*
X186223078Y-155656596D01*
X186232335Y-155753869D01*
X186230869Y-155817739D01*
X186069903Y-155859466D01*
X185792331Y-155901880D01*
X185573734Y-155938761D01*
X185479578Y-155972968D01*
X185396780Y-156019483D01*
X185326225Y-156080950D01*
X185269774Y-156160900D01*
X185233585Y-156252989D01*
X185222037Y-156349455D01*
X185221291Y-156355683D01*
X184934653Y-156355683D01*
X184956526Y-156293794D01*
X184971553Y-156156748D01*
X184960310Y-156042899D01*
X184927697Y-155942262D01*
X184873856Y-155852055D01*
X184801288Y-155775977D01*
X184709344Y-155715137D01*
X184594442Y-155669483D01*
X184682712Y-155616414D01*
X184751966Y-155555443D01*
X184804735Y-155486301D01*
X184843742Y-155408234D01*
X184866767Y-155327936D01*
X184874467Y-155244134D01*
X184865907Y-155154207D01*
X184840093Y-155066500D01*
X184795942Y-154979619D01*
X184736873Y-154902542D01*
X184664971Y-154840468D01*
X184578688Y-154792285D01*
X184484179Y-154760402D01*
X184363356Y-154739172D01*
X184210492Y-154731346D01*
X183459079Y-154731346D01*
X183459079Y-155575450D01*
X183236857Y-155575450D01*
X183236857Y-154509124D01*
X189684913Y-154509124D01*
X189684913Y-156993485D01*
G37*
X111570588Y-115467438D02*
X111475350Y-115419819D01*
X111475350Y-115419819D02*
X111332493Y-115419819D01*
X111332493Y-115419819D02*
X111189636Y-115467438D01*
X111189636Y-115467438D02*
X111094398Y-115562676D01*
X111094398Y-115562676D02*
X111046779Y-115657914D01*
X111046779Y-115657914D02*
X110999160Y-115848390D01*
X110999160Y-115848390D02*
X110999160Y-115991247D01*
X110999160Y-115991247D02*
X111046779Y-116181723D01*
X111046779Y-116181723D02*
X111094398Y-116276961D01*
X111094398Y-116276961D02*
X111189636Y-116372200D01*
X111189636Y-116372200D02*
X111332493Y-116419819D01*
X111332493Y-116419819D02*
X111427731Y-116419819D01*
X111427731Y-116419819D02*
X111570588Y-116372200D01*
X111570588Y-116372200D02*
X111618207Y-116324580D01*
X111618207Y-116324580D02*
X111618207Y-115991247D01*
X111618207Y-115991247D02*
X111427731Y-115991247D01*
X112046779Y-116419819D02*
X112046779Y-115419819D01*
X112046779Y-115419819D02*
X112618207Y-116419819D01*
X112618207Y-116419819D02*
X112618207Y-115419819D01*
X113094398Y-116419819D02*
X113094398Y-115419819D01*
X113094398Y-115419819D02*
X113332493Y-115419819D01*
X113332493Y-115419819D02*
X113475350Y-115467438D01*
X113475350Y-115467438D02*
X113570588Y-115562676D01*
X113570588Y-115562676D02*
X113618207Y-115657914D01*
X113618207Y-115657914D02*
X113665826Y-115848390D01*
X113665826Y-115848390D02*
X113665826Y-115991247D01*
X113665826Y-115991247D02*
X113618207Y-116181723D01*
X113618207Y-116181723D02*
X113570588Y-116276961D01*
X113570588Y-116276961D02*
X113475350Y-116372200D01*
X113475350Y-116372200D02*
X113332493Y-116419819D01*
X113332493Y-116419819D02*
X113094398Y-116419819D01*
G36*
X95860815Y-123331025D02*
G01*
X95956436Y-123470732D01*
X95994457Y-123514347D01*
X96023725Y-123538571D01*
X96054131Y-123555185D01*
X96084175Y-123565560D01*
X96157937Y-123570383D01*
X96311626Y-123570383D01*
X96311626Y-123120000D01*
X96444189Y-123120000D01*
X96444189Y-124124326D01*
X96000156Y-124124326D01*
X95910280Y-124120686D01*
X95844067Y-124111141D01*
X95796579Y-124097459D01*
X95753533Y-124075168D01*
X95716651Y-124043886D01*
X95685266Y-124002571D01*
X95662140Y-123955791D01*
X95648268Y-123906012D01*
X95643561Y-123852362D01*
X95643730Y-123850408D01*
X95780215Y-123850408D01*
X95786078Y-123895143D01*
X95803094Y-123933287D01*
X95831811Y-123966484D01*
X95869023Y-123990098D01*
X95921618Y-124005961D01*
X95994660Y-124011974D01*
X96311626Y-124011974D01*
X96311626Y-123682735D01*
X96026778Y-123682735D01*
X95941060Y-123688043D01*
X95884690Y-123701359D01*
X95852643Y-123716688D01*
X95826990Y-123736550D01*
X95806837Y-123761137D01*
X95786844Y-123804091D01*
X95780215Y-123850408D01*
X95643730Y-123850408D01*
X95648045Y-123800448D01*
X95661059Y-123753977D01*
X95682417Y-123711918D01*
X95712560Y-123673515D01*
X95748904Y-123642424D01*
X95795170Y-123616333D01*
X95853292Y-123595591D01*
X95925662Y-123581069D01*
X95877003Y-123554135D01*
X95845794Y-123530633D01*
X95790624Y-123471645D01*
X95735763Y-123395811D01*
X95561618Y-123120000D01*
X95728252Y-123120000D01*
X95860815Y-123331025D01*
G37*
G36*
X95433329Y-123120000D02*
G01*
X95433329Y-124124326D01*
X94709210Y-124124326D01*
X94709210Y-124008066D01*
X95300766Y-124008066D01*
X95300766Y-123698367D01*
X94746762Y-123698367D01*
X94746762Y-123582107D01*
X95300766Y-123582107D01*
X95300766Y-123236259D01*
X94685946Y-123236259D01*
X94685946Y-123120000D01*
X95433329Y-123120000D01*
G37*
G36*
X94548132Y-123445087D02*
G01*
X94423080Y-123456078D01*
X94414012Y-123405879D01*
X94400071Y-123364433D01*
X94381803Y-123330354D01*
X94357272Y-123300779D01*
X94324215Y-123274294D01*
X94281052Y-123250914D01*
X94234609Y-123234364D01*
X94183607Y-123224154D01*
X94127302Y-123220628D01*
X94054254Y-123226561D01*
X93993456Y-123243220D01*
X93956585Y-123261012D01*
X93928248Y-123281697D01*
X93907056Y-123305197D01*
X93885686Y-123346656D01*
X93878662Y-123391231D01*
X93885601Y-123435785D01*
X93906017Y-123473724D01*
X93939789Y-123504585D01*
X93996143Y-123533014D01*
X94048732Y-123549753D01*
X94174440Y-123581985D01*
X94301467Y-123617477D01*
X94367759Y-123644694D01*
X94412998Y-123672914D01*
X94448172Y-123704051D01*
X94474676Y-123738178D01*
X94494137Y-123776670D01*
X94505855Y-123818072D01*
X94509847Y-123863169D01*
X94505098Y-123912641D01*
X94490911Y-123959751D01*
X94466860Y-124005319D01*
X94434421Y-124045206D01*
X94392977Y-124078593D01*
X94341136Y-124105703D01*
X94285073Y-124124448D01*
X94224066Y-124135986D01*
X94157343Y-124139958D01*
X94083808Y-124135702D01*
X94018733Y-124123521D01*
X93960972Y-124104054D01*
X93907669Y-124075764D01*
X93864498Y-124040691D01*
X93830180Y-123998541D01*
X93804499Y-123950415D01*
X93788094Y-123898161D01*
X93780965Y-123840821D01*
X93908032Y-123831235D01*
X93921098Y-123891877D01*
X93944373Y-123938864D01*
X93977397Y-123975033D01*
X94019548Y-124000581D01*
X94076276Y-124017426D01*
X94151909Y-124023698D01*
X94231277Y-124017776D01*
X94287797Y-124002293D01*
X94327153Y-123979612D01*
X94358399Y-123947219D01*
X94376175Y-123912237D01*
X94382108Y-123873306D01*
X94377673Y-123839058D01*
X94364813Y-123809860D01*
X94343151Y-123784462D01*
X94313826Y-123765662D01*
X94252925Y-123742022D01*
X94143360Y-123713021D01*
X93994992Y-123675195D01*
X93921710Y-123649152D01*
X93866284Y-123618380D01*
X93823943Y-123584297D01*
X93792628Y-123546936D01*
X93769640Y-123504053D01*
X93755708Y-123456907D01*
X93750923Y-123404420D01*
X93755954Y-123352409D01*
X93771040Y-123302440D01*
X93796719Y-123253661D01*
X93831028Y-123210649D01*
X93874424Y-123174057D01*
X93928183Y-123143630D01*
X93986519Y-123122161D01*
X94050536Y-123108933D01*
X94121195Y-123104368D01*
X94211309Y-123109287D01*
X94286478Y-123122978D01*
X94349013Y-123144180D01*
X94406406Y-123175603D01*
X94454077Y-123215379D01*
X94493116Y-123264042D01*
X94522308Y-123319368D01*
X94540645Y-123379341D01*
X94548132Y-123445087D01*
G37*
G36*
X93567314Y-123120000D02*
G01*
X93567314Y-124124326D01*
X92843195Y-124124326D01*
X92843195Y-124008066D01*
X93434751Y-124008066D01*
X93434751Y-123698367D01*
X92880747Y-123698367D01*
X92880747Y-123582107D01*
X93434751Y-123582107D01*
X93434751Y-123236259D01*
X92819931Y-123236259D01*
X92819931Y-123120000D01*
X93567314Y-123120000D01*
G37*
G36*
X92382186Y-123120000D02*
G01*
X92382186Y-124008066D01*
X92712158Y-124008066D01*
X92712158Y-124124326D01*
X91918369Y-124124326D01*
X91918369Y-124008066D01*
X92249685Y-124008066D01*
X92249685Y-123120000D01*
X92382186Y-123120000D01*
G37*
G36*
X90786853Y-123557683D02*
G01*
X91450156Y-123276315D01*
X91450156Y-123397459D01*
X90924850Y-123613675D01*
X91450156Y-123831235D01*
X91450156Y-123952379D01*
X90786853Y-123671011D01*
X90786853Y-123557683D01*
G37*
X111046779Y-108579819D02*
X111046779Y-107579819D01*
X111046779Y-107579819D02*
X111284874Y-107579819D01*
X111284874Y-107579819D02*
X111427731Y-107627438D01*
X111427731Y-107627438D02*
X111522969Y-107722676D01*
X111522969Y-107722676D02*
X111570588Y-107817914D01*
X111570588Y-107817914D02*
X111618207Y-108008390D01*
X111618207Y-108008390D02*
X111618207Y-108151247D01*
X111618207Y-108151247D02*
X111570588Y-108341723D01*
X111570588Y-108341723D02*
X111522969Y-108436961D01*
X111522969Y-108436961D02*
X111427731Y-108532200D01*
X111427731Y-108532200D02*
X111284874Y-108579819D01*
X111284874Y-108579819D02*
X111046779Y-108579819D01*
X112618207Y-108484580D02*
X112570588Y-108532200D01*
X112570588Y-108532200D02*
X112427731Y-108579819D01*
X112427731Y-108579819D02*
X112332493Y-108579819D01*
X112332493Y-108579819D02*
X112189636Y-108532200D01*
X112189636Y-108532200D02*
X112094398Y-108436961D01*
X112094398Y-108436961D02*
X112046779Y-108341723D01*
X112046779Y-108341723D02*
X111999160Y-108151247D01*
X111999160Y-108151247D02*
X111999160Y-108008390D01*
X111999160Y-108008390D02*
X112046779Y-107817914D01*
X112046779Y-107817914D02*
X112094398Y-107722676D01*
X112094398Y-107722676D02*
X112189636Y-107627438D01*
X112189636Y-107627438D02*
X112332493Y-107579819D01*
X112332493Y-107579819D02*
X112427731Y-107579819D01*
X112427731Y-107579819D02*
X112570588Y-107627438D01*
X112570588Y-107627438D02*
X112618207Y-107675057D01*
G36*
X95801700Y-92064326D02*
G01*
X95425993Y-92064326D01*
X95349561Y-92060413D01*
X95289150Y-92049798D01*
X95241895Y-92033857D01*
X95198754Y-92009765D01*
X95162803Y-91978728D01*
X95133268Y-91940190D01*
X95111193Y-91896749D01*
X95098286Y-91852896D01*
X95094006Y-91807932D01*
X95095403Y-91792728D01*
X95224432Y-91792728D01*
X95230582Y-91840738D01*
X95248367Y-91881449D01*
X95266588Y-91904310D01*
X95289132Y-91921661D01*
X95316694Y-91933900D01*
X95369021Y-91943728D01*
X95469041Y-91948066D01*
X95669137Y-91948066D01*
X95669137Y-91642274D01*
X95452616Y-91642274D01*
X95370730Y-91645825D01*
X95326220Y-91653998D01*
X95280967Y-91674820D01*
X95250077Y-91704373D01*
X95231171Y-91742967D01*
X95224432Y-91792728D01*
X95095403Y-91792728D01*
X95097856Y-91766031D01*
X95109368Y-91725882D01*
X95128872Y-91686849D01*
X95155256Y-91652278D01*
X95189883Y-91621792D01*
X95234018Y-91595258D01*
X95176567Y-91572431D01*
X95130595Y-91542011D01*
X95094311Y-91503972D01*
X95067391Y-91458868D01*
X95051084Y-91408550D01*
X95045463Y-91351625D01*
X95045517Y-91351137D01*
X95182788Y-91351137D01*
X95186120Y-91388181D01*
X95195742Y-91420853D01*
X95211487Y-91449994D01*
X95232966Y-91475104D01*
X95259258Y-91494663D01*
X95291110Y-91508979D01*
X95347657Y-91521083D01*
X95437595Y-91526015D01*
X95669137Y-91526015D01*
X95669137Y-91176259D01*
X95419826Y-91176259D01*
X95329639Y-91181144D01*
X95286457Y-91192667D01*
X95253191Y-91208866D01*
X95225623Y-91232199D01*
X95202633Y-91265408D01*
X95187929Y-91304636D01*
X95182788Y-91351137D01*
X95045517Y-91351137D01*
X95052976Y-91283102D01*
X95075199Y-91220223D01*
X95109411Y-91165218D01*
X95148655Y-91126556D01*
X95196416Y-91098351D01*
X95258320Y-91076791D01*
X95328005Y-91064585D01*
X95419826Y-91060000D01*
X95801700Y-91060000D01*
X95801700Y-92064326D01*
G37*
G36*
X94494785Y-91048801D02*
G01*
X94559808Y-91061772D01*
X94620484Y-91083026D01*
X94677450Y-91112634D01*
X94729928Y-91150039D01*
X94775227Y-91193292D01*
X94813881Y-91242745D01*
X94846161Y-91298991D01*
X94878045Y-91379338D01*
X94897095Y-91462318D01*
X94903497Y-91548852D01*
X94897444Y-91649934D01*
X94880252Y-91737741D01*
X94852979Y-91814171D01*
X94816135Y-91880830D01*
X94769651Y-91938968D01*
X94713231Y-91989531D01*
X94651383Y-92028526D01*
X94583335Y-92056643D01*
X94507991Y-92073965D01*
X94423987Y-92079958D01*
X94355241Y-92075675D01*
X94291104Y-92063115D01*
X94230887Y-92042488D01*
X94174004Y-92013707D01*
X94121554Y-91977284D01*
X94076081Y-91934669D01*
X94037064Y-91885476D01*
X94004255Y-91829059D01*
X93972296Y-91748256D01*
X93952618Y-91659218D01*
X93945891Y-91561491D01*
X94082413Y-91561491D01*
X94087337Y-91642369D01*
X94101376Y-91713210D01*
X94123751Y-91775448D01*
X94156053Y-91832565D01*
X94196194Y-91879437D01*
X94244651Y-91917231D01*
X94299546Y-91945093D01*
X94358720Y-91961881D01*
X94423315Y-91967606D01*
X94491834Y-91961433D01*
X94554239Y-91943364D01*
X94611813Y-91913409D01*
X94665482Y-91870703D01*
X94699095Y-91831049D01*
X94726701Y-91781106D01*
X94747943Y-91718869D01*
X94761850Y-91641832D01*
X94766904Y-91547081D01*
X94760126Y-91456669D01*
X94741029Y-91380416D01*
X94710779Y-91315872D01*
X94669573Y-91261133D01*
X94617502Y-91215250D01*
X94560262Y-91183014D01*
X94496742Y-91163456D01*
X94425330Y-91156720D01*
X94352509Y-91163570D01*
X94288249Y-91183391D01*
X94230830Y-91215951D01*
X94179072Y-91262172D01*
X94138622Y-91317252D01*
X94108537Y-91383845D01*
X94089306Y-91464280D01*
X94082413Y-91561491D01*
X93945891Y-91561491D01*
X93945820Y-91560453D01*
X93952955Y-91460470D01*
X93973636Y-91370186D01*
X94007308Y-91288061D01*
X94041765Y-91230891D01*
X94082083Y-91181986D01*
X94128477Y-91140568D01*
X94181454Y-91106161D01*
X94258558Y-91071837D01*
X94339250Y-91051299D01*
X94424658Y-91044368D01*
X94494785Y-91048801D01*
G37*
G36*
X93406438Y-91048801D02*
G01*
X93471462Y-91061772D01*
X93532137Y-91083026D01*
X93589104Y-91112634D01*
X93641582Y-91150039D01*
X93686881Y-91193292D01*
X93725535Y-91242745D01*
X93757814Y-91298991D01*
X93789699Y-91379338D01*
X93808749Y-91462318D01*
X93815150Y-91548852D01*
X93809098Y-91649934D01*
X93791906Y-91737741D01*
X93764633Y-91814171D01*
X93727788Y-91880830D01*
X93681305Y-91938968D01*
X93624885Y-91989531D01*
X93563036Y-92028526D01*
X93494989Y-92056643D01*
X93419645Y-92073965D01*
X93335641Y-92079958D01*
X93266895Y-92075675D01*
X93202758Y-92063115D01*
X93142541Y-92042488D01*
X93085658Y-92013707D01*
X93033208Y-91977284D01*
X92987735Y-91934669D01*
X92948718Y-91885476D01*
X92915909Y-91829059D01*
X92883950Y-91748256D01*
X92864272Y-91659218D01*
X92857545Y-91561491D01*
X92994067Y-91561491D01*
X92998991Y-91642369D01*
X93013030Y-91713210D01*
X93035405Y-91775448D01*
X93067707Y-91832565D01*
X93107848Y-91879437D01*
X93156305Y-91917231D01*
X93211200Y-91945093D01*
X93270374Y-91961881D01*
X93334969Y-91967606D01*
X93403487Y-91961433D01*
X93465893Y-91943364D01*
X93523467Y-91913409D01*
X93577136Y-91870703D01*
X93610749Y-91831049D01*
X93638355Y-91781106D01*
X93659596Y-91718869D01*
X93673504Y-91641832D01*
X93678558Y-91547081D01*
X93671780Y-91456669D01*
X93652683Y-91380416D01*
X93622433Y-91315872D01*
X93581227Y-91261133D01*
X93529156Y-91215250D01*
X93471916Y-91183014D01*
X93408396Y-91163456D01*
X93336984Y-91156720D01*
X93264163Y-91163570D01*
X93199903Y-91183391D01*
X93142483Y-91215951D01*
X93090726Y-91262172D01*
X93050276Y-91317252D01*
X93020191Y-91383845D01*
X93000960Y-91464280D01*
X92994067Y-91561491D01*
X92857545Y-91561491D01*
X92857474Y-91560453D01*
X92864608Y-91460470D01*
X92885290Y-91370186D01*
X92918962Y-91288061D01*
X92953419Y-91230891D01*
X92993737Y-91181986D01*
X93040131Y-91140568D01*
X93093108Y-91106161D01*
X93170212Y-91071837D01*
X93250904Y-91051299D01*
X93336312Y-91044368D01*
X93406438Y-91048801D01*
G37*
G36*
X92431698Y-91060000D02*
G01*
X92431698Y-91948066D01*
X92761670Y-91948066D01*
X92761670Y-92064326D01*
X91967881Y-92064326D01*
X91967881Y-91948066D01*
X92299196Y-91948066D01*
X92299196Y-91060000D01*
X92431698Y-91060000D01*
G37*
G36*
X90836365Y-91497683D02*
G01*
X91499667Y-91216315D01*
X91499667Y-91337459D01*
X90974362Y-91553675D01*
X91499667Y-91771235D01*
X91499667Y-91892379D01*
X90836365Y-91611011D01*
X90836365Y-91497683D01*
G37*
X110903922Y-118029819D02*
X111237255Y-119029819D01*
X111237255Y-119029819D02*
X111570588Y-118029819D01*
X112475350Y-118934580D02*
X112427731Y-118982200D01*
X112427731Y-118982200D02*
X112284874Y-119029819D01*
X112284874Y-119029819D02*
X112189636Y-119029819D01*
X112189636Y-119029819D02*
X112046779Y-118982200D01*
X112046779Y-118982200D02*
X111951541Y-118886961D01*
X111951541Y-118886961D02*
X111903922Y-118791723D01*
X111903922Y-118791723D02*
X111856303Y-118601247D01*
X111856303Y-118601247D02*
X111856303Y-118458390D01*
X111856303Y-118458390D02*
X111903922Y-118267914D01*
X111903922Y-118267914D02*
X111951541Y-118172676D01*
X111951541Y-118172676D02*
X112046779Y-118077438D01*
X112046779Y-118077438D02*
X112189636Y-118029819D01*
X112189636Y-118029819D02*
X112284874Y-118029819D01*
X112284874Y-118029819D02*
X112427731Y-118077438D01*
X112427731Y-118077438D02*
X112475350Y-118125057D01*
X113475350Y-118934580D02*
X113427731Y-118982200D01*
X113427731Y-118982200D02*
X113284874Y-119029819D01*
X113284874Y-119029819D02*
X113189636Y-119029819D01*
X113189636Y-119029819D02*
X113046779Y-118982200D01*
X113046779Y-118982200D02*
X112951541Y-118886961D01*
X112951541Y-118886961D02*
X112903922Y-118791723D01*
X112903922Y-118791723D02*
X112856303Y-118601247D01*
X112856303Y-118601247D02*
X112856303Y-118458390D01*
X112856303Y-118458390D02*
X112903922Y-118267914D01*
X112903922Y-118267914D02*
X112951541Y-118172676D01*
X112951541Y-118172676D02*
X113046779Y-118077438D01*
X113046779Y-118077438D02*
X113189636Y-118029819D01*
X113189636Y-118029819D02*
X113284874Y-118029819D01*
X113284874Y-118029819D02*
X113427731Y-118077438D01*
X113427731Y-118077438D02*
X113475350Y-118125057D01*
G36*
X148401660Y-156957365D02*
G01*
X147493076Y-157234886D01*
X147493076Y-157076051D01*
X148018122Y-156931719D01*
X148212600Y-156877986D01*
X148026518Y-156830969D01*
X147493076Y-156686637D01*
X147493076Y-156528719D01*
X148020641Y-156392935D01*
X148193748Y-156347674D01*
X148019038Y-156295619D01*
X147493076Y-156140143D01*
X147493076Y-155990774D01*
X148401660Y-156274248D01*
X148401660Y-156433922D01*
X147857380Y-156578254D01*
X147702667Y-156613211D01*
X148401660Y-156796851D01*
X148401660Y-156957365D01*
G37*
G36*
X148401660Y-155862012D02*
G01*
X147146251Y-155862012D01*
X147146251Y-155708292D01*
X147597795Y-155708292D01*
X147542867Y-155650221D01*
X147504580Y-155586543D01*
X147481476Y-155516010D01*
X147473537Y-155436724D01*
X147478244Y-155370531D01*
X147491702Y-155312633D01*
X147513302Y-155261709D01*
X147543767Y-155216142D01*
X147580191Y-155181115D01*
X147623135Y-155155387D01*
X147671149Y-155138966D01*
X147737317Y-155127631D01*
X147826468Y-155123330D01*
X148401660Y-155123330D01*
X148401660Y-155277050D01*
X147826086Y-155277050D01*
X147750576Y-155283630D01*
X147696333Y-155301011D01*
X147658016Y-155327044D01*
X147629603Y-155363485D01*
X147611829Y-155409619D01*
X147605428Y-155468323D01*
X147614250Y-155534430D01*
X147640919Y-155596856D01*
X147667782Y-155633598D01*
X147699679Y-155661932D01*
X147737166Y-155682722D01*
X147804059Y-155701049D01*
X147904778Y-155708292D01*
X148401660Y-155708292D01*
X148401660Y-155862012D01*
G37*
G36*
X148401660Y-154970983D02*
G01*
X148277477Y-154970983D01*
X147616190Y-154393807D01*
X147621304Y-154567143D01*
X147621304Y-154936866D01*
X147493076Y-154936866D01*
X147493076Y-154195665D01*
X147594666Y-154195665D01*
X148172071Y-154686670D01*
X148277477Y-154781466D01*
X148269768Y-154587599D01*
X148269768Y-154168340D01*
X148401660Y-154168340D01*
X148401660Y-154970983D01*
G37*
G36*
X148069489Y-153423781D02*
G01*
X148089105Y-153272656D01*
X148165418Y-153290691D01*
X148230484Y-153317998D01*
X148285977Y-153354165D01*
X148333119Y-153399433D01*
X148371306Y-153452764D01*
X148398631Y-153511554D01*
X148415400Y-153576849D01*
X148421199Y-153650011D01*
X148413089Y-153741274D01*
X148389876Y-153820141D01*
X148352244Y-153888951D01*
X148299535Y-153949361D01*
X148235947Y-153996624D01*
X148158630Y-154031830D01*
X148064768Y-154054378D01*
X147950802Y-154062476D01*
X147853842Y-154056689D01*
X147768735Y-154040177D01*
X147693813Y-154013857D01*
X147625684Y-153975160D01*
X147571170Y-153926051D01*
X147528644Y-153865708D01*
X147498085Y-153797575D01*
X147479744Y-153725746D01*
X147473537Y-153649172D01*
X147478697Y-153575587D01*
X147493389Y-153511781D01*
X147516858Y-153456201D01*
X147548947Y-153407600D01*
X147589584Y-153365710D01*
X147638018Y-153331746D01*
X147695351Y-153305453D01*
X147763117Y-153287158D01*
X147786168Y-153436604D01*
X147727432Y-153455584D01*
X147682242Y-153480922D01*
X147648094Y-153512167D01*
X147622522Y-153550480D01*
X147607092Y-153593697D01*
X147601764Y-153643218D01*
X147607168Y-153699689D01*
X147622755Y-153749085D01*
X147648310Y-153792834D01*
X147684578Y-153831896D01*
X147727301Y-153861211D01*
X147783006Y-153883894D01*
X147854819Y-153898935D01*
X147946528Y-153904482D01*
X148039892Y-153899073D01*
X148112480Y-153884465D01*
X148168280Y-153862570D01*
X148210616Y-153834491D01*
X148246760Y-153796676D01*
X148272154Y-153754320D01*
X148287615Y-153706489D01*
X148292971Y-153651767D01*
X148286605Y-153593537D01*
X148268311Y-153543784D01*
X148238169Y-153500642D01*
X148197771Y-153466822D01*
X148142845Y-153440860D01*
X148069489Y-153423781D01*
G37*
G36*
X148419745Y-152406975D02*
G01*
X148515722Y-152422580D01*
X148577133Y-152443910D01*
X148631420Y-152477858D01*
X148677741Y-152522933D01*
X148716733Y-152580533D01*
X148744315Y-152644814D01*
X148761806Y-152720748D01*
X148768024Y-152810655D01*
X148762908Y-152892174D01*
X148748466Y-152961892D01*
X148725676Y-153021612D01*
X148694980Y-153072835D01*
X148654726Y-153115607D01*
X148605998Y-153145772D01*
X148546988Y-153163998D01*
X148474932Y-153169311D01*
X148496991Y-153019865D01*
X148540731Y-153009167D01*
X148573363Y-152991683D01*
X148597283Y-152967810D01*
X148619887Y-152927502D01*
X148634479Y-152876336D01*
X148639796Y-152811495D01*
X148634360Y-152741400D01*
X148619656Y-152687642D01*
X148597283Y-152646707D01*
X148565635Y-152612528D01*
X148526455Y-152586436D01*
X148478367Y-152568168D01*
X148418926Y-152560219D01*
X148282057Y-152557025D01*
X148335271Y-152611655D01*
X148372073Y-152670878D01*
X148394121Y-152735796D01*
X148401660Y-152808137D01*
X148392654Y-152899091D01*
X148367016Y-152975902D01*
X148325417Y-153041465D01*
X148266639Y-153097641D01*
X148196793Y-153141918D01*
X148120364Y-153173756D01*
X148036164Y-153193318D01*
X147942712Y-153200070D01*
X147857093Y-153194694D01*
X147777504Y-153178950D01*
X147703049Y-153153130D01*
X147634098Y-153116251D01*
X147578079Y-153070948D01*
X147533376Y-153016888D01*
X147500555Y-152954988D01*
X147480485Y-152885679D01*
X147473537Y-152807221D01*
X147474722Y-152796154D01*
X147601764Y-152796154D01*
X147610905Y-152860713D01*
X147638005Y-152918046D01*
X147684883Y-152970329D01*
X147727874Y-152999806D01*
X147781680Y-153022197D01*
X147848649Y-153036777D01*
X147931645Y-153042076D01*
X148022933Y-153036642D01*
X148094262Y-153021930D01*
X148149436Y-152999786D01*
X148191611Y-152971245D01*
X148237405Y-152919473D01*
X148264259Y-152861043D01*
X148273432Y-152793558D01*
X148264344Y-152726617D01*
X148237665Y-152668210D01*
X148192069Y-152616024D01*
X148149972Y-152586954D01*
X148095455Y-152564541D01*
X148025575Y-152549728D01*
X147936759Y-152544278D01*
X147852517Y-152549726D01*
X147784528Y-152564722D01*
X147729875Y-152587773D01*
X147686181Y-152618162D01*
X147638549Y-152671842D01*
X147611032Y-152730446D01*
X147601764Y-152796154D01*
X147474722Y-152796154D01*
X147481792Y-152730133D01*
X147505888Y-152661509D01*
X147546100Y-152599376D01*
X147604359Y-152542523D01*
X147493076Y-152542523D01*
X147493076Y-152400785D01*
X148277019Y-152400785D01*
X148419745Y-152406975D01*
G37*
G36*
X148050679Y-151391666D02*
G01*
X148147506Y-151414623D01*
X148227695Y-151450527D01*
X148294040Y-151498766D01*
X148350764Y-151560732D01*
X148389919Y-151626657D01*
X148413267Y-151697648D01*
X148421199Y-151775371D01*
X148412508Y-151852126D01*
X148387402Y-151918268D01*
X148345730Y-151976220D01*
X148285263Y-152027323D01*
X148401660Y-152027323D01*
X148401660Y-152169900D01*
X147146251Y-152169900D01*
X147146251Y-152016179D01*
X147597414Y-152016179D01*
X147542233Y-151962979D01*
X147504166Y-151904727D01*
X147481355Y-151840275D01*
X147475010Y-151781401D01*
X147601764Y-151781401D01*
X147607077Y-151829505D01*
X147622837Y-151873908D01*
X147649577Y-151915703D01*
X147688852Y-151955577D01*
X147733809Y-151985909D01*
X147789219Y-152008819D01*
X147857256Y-152023644D01*
X147940575Y-152029002D01*
X148049003Y-152022828D01*
X148124369Y-152006977D01*
X148174972Y-151984580D01*
X148228344Y-151943384D01*
X148264372Y-151897678D01*
X148285682Y-151846570D01*
X148292971Y-151788194D01*
X148287662Y-151740085D01*
X148271914Y-151695680D01*
X148245197Y-151653887D01*
X148205960Y-151614018D01*
X148161045Y-151583944D01*
X148104602Y-151561016D01*
X148034113Y-151546043D01*
X147946528Y-151540593D01*
X147856176Y-151545948D01*
X147784873Y-151560513D01*
X147729086Y-151582539D01*
X147685875Y-151611041D01*
X147638269Y-151662546D01*
X147610939Y-151718618D01*
X147601764Y-151781401D01*
X147475010Y-151781401D01*
X147473537Y-151767739D01*
X147482014Y-151686058D01*
X147507273Y-151609286D01*
X147548144Y-151540791D01*
X147602069Y-151486325D01*
X147667983Y-151444030D01*
X147749302Y-151410762D01*
X147837612Y-151390405D01*
X147933705Y-151383438D01*
X148050679Y-151391666D01*
G37*
G36*
X148032259Y-150415487D02*
G01*
X148115379Y-150432334D01*
X148191153Y-150459665D01*
X148260687Y-150498724D01*
X148317077Y-150546943D01*
X148361894Y-150604837D01*
X148395200Y-150670280D01*
X148414715Y-150736661D01*
X148421199Y-150805040D01*
X148412767Y-150878759D01*
X148388302Y-150942885D01*
X148350587Y-150999025D01*
X148305107Y-151043253D01*
X148748484Y-151043253D01*
X148748484Y-151196974D01*
X147493076Y-151196974D01*
X147493076Y-151056915D01*
X147611152Y-151056915D01*
X147549844Y-151002968D01*
X147507960Y-150945098D01*
X147489374Y-150902234D01*
X147477671Y-150852297D01*
X147474564Y-150808398D01*
X147593216Y-150808398D01*
X147598662Y-150854939D01*
X147614991Y-150898767D01*
X147643074Y-150940960D01*
X147684883Y-150982192D01*
X147732077Y-151013302D01*
X147790533Y-151036893D01*
X147862615Y-151052208D01*
X147951184Y-151057755D01*
X148040450Y-151052390D01*
X148111048Y-151037778D01*
X148166433Y-151015640D01*
X148209471Y-150986925D01*
X148256662Y-150935165D01*
X148283833Y-150878663D01*
X148292971Y-150815268D01*
X148287645Y-150766208D01*
X148271911Y-150721289D01*
X148245341Y-150679388D01*
X148206494Y-150639795D01*
X148161951Y-150610211D01*
X148104529Y-150587378D01*
X148031229Y-150572293D01*
X147938438Y-150566751D01*
X147850271Y-150572092D01*
X147779714Y-150586717D01*
X147723603Y-150609017D01*
X147679311Y-150638115D01*
X147630392Y-150690260D01*
X147602516Y-150746317D01*
X147593216Y-150808398D01*
X147474564Y-150808398D01*
X147473537Y-150793896D01*
X147480401Y-150718345D01*
X147500373Y-150650578D01*
X147533300Y-150589038D01*
X147577944Y-150535289D01*
X147633620Y-150490713D01*
X147701904Y-150454933D01*
X147775688Y-150430078D01*
X147854946Y-150414875D01*
X147940575Y-150409672D01*
X148032259Y-150415487D01*
G37*
G36*
X148050679Y-149447493D02*
G01*
X148147506Y-149470450D01*
X148227695Y-149506354D01*
X148294040Y-149554593D01*
X148350764Y-149616559D01*
X148389919Y-149682484D01*
X148413267Y-149753475D01*
X148421199Y-149831198D01*
X148412508Y-149907953D01*
X148387402Y-149974095D01*
X148345730Y-150032047D01*
X148285263Y-150083150D01*
X148401660Y-150083150D01*
X148401660Y-150225727D01*
X147146251Y-150225727D01*
X147146251Y-150072006D01*
X147597414Y-150072006D01*
X147542233Y-150018806D01*
X147504166Y-149960554D01*
X147481355Y-149896102D01*
X147475010Y-149837228D01*
X147601764Y-149837228D01*
X147607077Y-149885332D01*
X147622837Y-149929735D01*
X147649577Y-149971530D01*
X147688852Y-150011403D01*
X147733809Y-150041736D01*
X147789219Y-150064645D01*
X147857256Y-150079471D01*
X147940575Y-150084829D01*
X148049003Y-150078655D01*
X148124369Y-150062804D01*
X148174972Y-150040407D01*
X148228344Y-149999211D01*
X148264372Y-149953505D01*
X148285682Y-149902397D01*
X148292971Y-149844021D01*
X148287662Y-149795912D01*
X148271914Y-149751507D01*
X148245197Y-149709714D01*
X148205960Y-149669845D01*
X148161045Y-149639771D01*
X148104602Y-149616843D01*
X148034113Y-149601870D01*
X147946528Y-149596420D01*
X147856176Y-149601775D01*
X147784873Y-149616340D01*
X147729086Y-149638366D01*
X147685875Y-149666868D01*
X147638269Y-149718373D01*
X147610939Y-149774445D01*
X147601764Y-149837228D01*
X147475010Y-149837228D01*
X147473537Y-149823565D01*
X147482014Y-149741885D01*
X147507273Y-149665113D01*
X147548144Y-149596618D01*
X147602069Y-149542152D01*
X147667983Y-149499857D01*
X147749302Y-149466589D01*
X147837612Y-149446232D01*
X147933705Y-149439265D01*
X148050679Y-149447493D01*
G37*
G36*
X148401660Y-148630286D02*
G01*
X148350662Y-148649552D01*
X148288774Y-148661046D01*
X148352561Y-148747811D01*
X148391279Y-148825375D01*
X148413593Y-148906541D01*
X148421199Y-148994895D01*
X148415958Y-149069993D01*
X148401373Y-149131843D01*
X148378629Y-149182772D01*
X148348155Y-149224636D01*
X148309015Y-149259790D01*
X148265525Y-149284556D01*
X148216780Y-149299639D01*
X148161462Y-149304855D01*
X148097278Y-149297171D01*
X148039722Y-149274553D01*
X147989754Y-149239271D01*
X147951337Y-149195174D01*
X147922265Y-149143426D01*
X147900885Y-149084578D01*
X147877835Y-148947955D01*
X147851326Y-148774473D01*
X147825246Y-148673869D01*
X147944925Y-148673869D01*
X147974388Y-148768504D01*
X148003391Y-148924904D01*
X148019564Y-149012421D01*
X148034303Y-149058933D01*
X148055641Y-149094085D01*
X148084373Y-149119612D01*
X148119047Y-149135551D01*
X148157569Y-149140907D01*
X148196607Y-149135684D01*
X148230421Y-149120410D01*
X148260380Y-149094424D01*
X148282137Y-149060982D01*
X148296292Y-149016642D01*
X148301520Y-148958183D01*
X148297002Y-148899991D01*
X148283904Y-148847661D01*
X148262517Y-148800188D01*
X148232915Y-148757685D01*
X148197530Y-148724127D01*
X148155814Y-148698598D01*
X148096848Y-148681020D01*
X148001483Y-148673869D01*
X147944925Y-148673869D01*
X147825246Y-148673869D01*
X147785328Y-148672953D01*
X147724532Y-148678738D01*
X147682285Y-148693878D01*
X147653589Y-148716535D01*
X147626289Y-148758882D01*
X147608405Y-148815760D01*
X147601764Y-148891550D01*
X147606904Y-148963250D01*
X147620405Y-149015032D01*
X147640232Y-149051682D01*
X147669610Y-149081004D01*
X147713549Y-149106704D01*
X147776398Y-149128084D01*
X147755942Y-149278370D01*
X147692324Y-149260844D01*
X147640385Y-149238201D01*
X147598330Y-149210974D01*
X147562537Y-149176340D01*
X147531711Y-149131679D01*
X147505975Y-149075190D01*
X147482092Y-148982090D01*
X147473537Y-148869339D01*
X147481137Y-148759122D01*
X147500938Y-148680662D01*
X147533454Y-148615149D01*
X147569707Y-148573958D01*
X147615377Y-148545456D01*
X147674350Y-148526102D01*
X147721546Y-148520788D01*
X147816240Y-148518393D01*
X148021328Y-148518393D01*
X148216664Y-148515129D01*
X148292742Y-148508623D01*
X148348138Y-148494068D01*
X148401660Y-148469773D01*
X148401660Y-148630286D01*
G37*
G36*
X148032259Y-147499227D02*
G01*
X148115379Y-147516075D01*
X148191153Y-147543406D01*
X148260687Y-147582464D01*
X148317077Y-147630684D01*
X148361894Y-147688578D01*
X148395200Y-147754020D01*
X148414715Y-147820402D01*
X148421199Y-147888780D01*
X148412767Y-147962500D01*
X148388302Y-148026625D01*
X148350587Y-148082766D01*
X148305107Y-148126994D01*
X148748484Y-148126994D01*
X148748484Y-148280714D01*
X147493076Y-148280714D01*
X147493076Y-148140656D01*
X147611152Y-148140656D01*
X147549844Y-148086709D01*
X147507960Y-148028838D01*
X147489374Y-147985975D01*
X147477671Y-147936037D01*
X147474564Y-147892139D01*
X147593216Y-147892139D01*
X147598662Y-147938679D01*
X147614991Y-147982507D01*
X147643074Y-148024700D01*
X147684883Y-148065933D01*
X147732077Y-148097043D01*
X147790533Y-148120634D01*
X147862615Y-148135949D01*
X147951184Y-148141495D01*
X148040450Y-148136130D01*
X148111048Y-148121519D01*
X148166433Y-148099381D01*
X148209471Y-148070665D01*
X148256662Y-148018905D01*
X148283833Y-147962404D01*
X148292971Y-147899008D01*
X148287645Y-147849948D01*
X148271911Y-147805030D01*
X148245341Y-147763128D01*
X148206494Y-147723535D01*
X148161951Y-147693951D01*
X148104529Y-147671118D01*
X148031229Y-147656034D01*
X147938438Y-147650491D01*
X147850271Y-147655832D01*
X147779714Y-147670457D01*
X147723603Y-147692757D01*
X147679311Y-147721856D01*
X147630392Y-147774000D01*
X147602516Y-147830058D01*
X147593216Y-147892139D01*
X147474564Y-147892139D01*
X147473537Y-147877637D01*
X147480401Y-147802085D01*
X147500373Y-147734319D01*
X147533300Y-147672778D01*
X147577944Y-147619029D01*
X147633620Y-147574454D01*
X147701904Y-147538674D01*
X147775688Y-147513818D01*
X147854946Y-147498616D01*
X147940575Y-147493412D01*
X148032259Y-147499227D01*
G37*
G36*
X148749782Y-147315420D02*
G01*
X148609037Y-147332517D01*
X148619575Y-147283438D01*
X148622699Y-147244590D01*
X148617912Y-147196456D01*
X148605297Y-147162616D01*
X148584540Y-147134784D01*
X148556525Y-147112241D01*
X148524155Y-147096680D01*
X148439975Y-147065224D01*
X148401660Y-147051562D01*
X147493076Y-147395715D01*
X147493076Y-147230012D01*
X148018275Y-147041334D01*
X148119837Y-147006832D01*
X148228323Y-146975618D01*
X148123511Y-146946512D01*
X148021633Y-146912420D01*
X147493076Y-146718552D01*
X147493076Y-146564832D01*
X148415322Y-146909825D01*
X148552543Y-146963798D01*
X148621173Y-146996073D01*
X148689151Y-147041901D01*
X148732532Y-147090030D01*
X148751924Y-147126756D01*
X148763864Y-147168483D01*
X148768024Y-147216349D01*
X148763766Y-147261659D01*
X148749782Y-147315420D01*
G37*
G36*
X148401660Y-146434238D02*
G01*
X147146251Y-146434238D01*
X147146251Y-146280518D01*
X147597795Y-146280518D01*
X147542867Y-146222447D01*
X147504580Y-146158769D01*
X147481476Y-146088236D01*
X147473537Y-146008950D01*
X147478244Y-145942757D01*
X147491702Y-145884859D01*
X147513302Y-145833935D01*
X147543767Y-145788368D01*
X147580191Y-145753341D01*
X147623135Y-145727613D01*
X147671149Y-145711192D01*
X147737317Y-145699857D01*
X147826468Y-145695556D01*
X148401660Y-145695556D01*
X148401660Y-145849276D01*
X147826086Y-145849276D01*
X147750576Y-145855856D01*
X147696333Y-145873238D01*
X147658016Y-145899270D01*
X147629603Y-145935711D01*
X147611829Y-145981846D01*
X147605428Y-146040549D01*
X147614250Y-146106656D01*
X147640919Y-146169082D01*
X147667782Y-146205824D01*
X147699679Y-146234158D01*
X147737166Y-146254948D01*
X147804059Y-146273275D01*
X147904778Y-146280518D01*
X148401660Y-146280518D01*
X148401660Y-146434238D01*
G37*
G36*
X148401660Y-145425439D02*
G01*
X147612755Y-145425439D01*
X147612755Y-145561146D01*
X147493076Y-145561146D01*
X147493076Y-145425439D01*
X147396600Y-145425439D01*
X147311143Y-145420640D01*
X147260816Y-145409181D01*
X147223612Y-145390737D01*
X147191493Y-145364960D01*
X147163883Y-145331100D01*
X147144369Y-145291990D01*
X147131480Y-145240794D01*
X147126712Y-145174327D01*
X147130338Y-145108010D01*
X147142053Y-145030910D01*
X147275700Y-145053961D01*
X147267151Y-145144483D01*
X147271176Y-145190267D01*
X147281657Y-145222042D01*
X147297148Y-145243554D01*
X147319298Y-145258122D01*
X147354808Y-145268456D01*
X147409194Y-145272558D01*
X147493076Y-145272558D01*
X147493076Y-145095787D01*
X147612755Y-145095787D01*
X147612755Y-145272558D01*
X148401660Y-145272558D01*
X148401660Y-145425439D01*
G37*
G36*
X148401660Y-144724156D02*
G01*
X147493076Y-145069149D01*
X147493076Y-144906881D01*
X148037432Y-144712250D01*
X148220614Y-144654166D01*
X148047736Y-144596921D01*
X147493076Y-144395421D01*
X147493076Y-144237426D01*
X148401660Y-144580740D01*
X148401660Y-144724156D01*
G37*
G36*
X148050679Y-143324325D02*
G01*
X148147506Y-143347282D01*
X148227695Y-143383186D01*
X148294040Y-143431425D01*
X148350764Y-143493391D01*
X148389919Y-143559316D01*
X148413267Y-143630307D01*
X148421199Y-143708030D01*
X148412508Y-143784785D01*
X148387402Y-143850927D01*
X148345730Y-143908879D01*
X148285263Y-143959982D01*
X148401660Y-143959982D01*
X148401660Y-144102558D01*
X147146251Y-144102558D01*
X147146251Y-143948838D01*
X147597414Y-143948838D01*
X147542233Y-143895638D01*
X147504166Y-143837386D01*
X147481355Y-143772934D01*
X147475010Y-143714060D01*
X147601764Y-143714060D01*
X147607077Y-143762164D01*
X147622837Y-143806567D01*
X147649577Y-143848361D01*
X147688852Y-143888235D01*
X147733809Y-143918568D01*
X147789219Y-143941477D01*
X147857256Y-143956303D01*
X147940575Y-143961661D01*
X148049003Y-143955487D01*
X148124369Y-143939636D01*
X148174972Y-143917239D01*
X148228344Y-143876043D01*
X148264372Y-143830337D01*
X148285682Y-143779229D01*
X148292971Y-143720853D01*
X148287662Y-143672744D01*
X148271914Y-143628339D01*
X148245197Y-143586546D01*
X148205960Y-143546677D01*
X148161045Y-143516603D01*
X148104602Y-143493675D01*
X148034113Y-143478702D01*
X147946528Y-143473251D01*
X147856176Y-143478607D01*
X147784873Y-143493172D01*
X147729086Y-143515198D01*
X147685875Y-143543700D01*
X147638269Y-143595205D01*
X147610939Y-143651277D01*
X147601764Y-143714060D01*
X147475010Y-143714060D01*
X147473537Y-143700397D01*
X147482014Y-143618717D01*
X147507273Y-143541945D01*
X147548144Y-143473450D01*
X147602069Y-143418984D01*
X147667983Y-143376689D01*
X147749302Y-143343421D01*
X147837612Y-143323064D01*
X147933705Y-143316096D01*
X148050679Y-143324325D01*
G37*
G36*
X148401660Y-142507118D02*
G01*
X148350662Y-142526384D01*
X148288774Y-142537878D01*
X148352561Y-142624642D01*
X148391279Y-142702207D01*
X148413593Y-142783373D01*
X148421199Y-142871727D01*
X148415958Y-142946824D01*
X148401373Y-143008674D01*
X148378629Y-143059604D01*
X148348155Y-143101468D01*
X148309015Y-143136622D01*
X148265525Y-143161388D01*
X148216780Y-143176471D01*
X148161462Y-143181687D01*
X148097278Y-143174003D01*
X148039722Y-143151385D01*
X147989754Y-143116103D01*
X147951337Y-143072006D01*
X147922265Y-143020257D01*
X147900885Y-142961410D01*
X147877835Y-142824787D01*
X147851326Y-142651305D01*
X147825246Y-142550700D01*
X147944925Y-142550700D01*
X147974388Y-142645335D01*
X148003391Y-142801736D01*
X148019564Y-142889253D01*
X148034303Y-142935765D01*
X148055641Y-142970917D01*
X148084373Y-142996444D01*
X148119047Y-143012382D01*
X148157569Y-143017739D01*
X148196607Y-143012516D01*
X148230421Y-142997242D01*
X148260380Y-142971256D01*
X148282137Y-142937814D01*
X148296292Y-142893474D01*
X148301520Y-142835014D01*
X148297002Y-142776822D01*
X148283904Y-142724493D01*
X148262517Y-142677020D01*
X148232915Y-142634517D01*
X148197530Y-142600959D01*
X148155814Y-142575430D01*
X148096848Y-142557852D01*
X148001483Y-142550700D01*
X147944925Y-142550700D01*
X147825246Y-142550700D01*
X147785328Y-142549784D01*
X147724532Y-142555570D01*
X147682285Y-142570710D01*
X147653589Y-142593367D01*
X147626289Y-142635713D01*
X147608405Y-142692591D01*
X147601764Y-142768382D01*
X147606904Y-142840082D01*
X147620405Y-142891864D01*
X147640232Y-142928514D01*
X147669610Y-142957836D01*
X147713549Y-142983536D01*
X147776398Y-143004916D01*
X147755942Y-143155201D01*
X147692324Y-143137676D01*
X147640385Y-143115033D01*
X147598330Y-143087806D01*
X147562537Y-143053172D01*
X147531711Y-143008510D01*
X147505975Y-142952022D01*
X147482092Y-142858921D01*
X147473537Y-142746171D01*
X147481137Y-142635954D01*
X147500938Y-142557493D01*
X147533454Y-142491981D01*
X147569707Y-142450790D01*
X147615377Y-142422288D01*
X147674350Y-142402933D01*
X147721546Y-142397619D01*
X147816240Y-142395225D01*
X148021328Y-142395225D01*
X148216664Y-142391961D01*
X148292742Y-142385455D01*
X148348138Y-142370900D01*
X148401660Y-142346605D01*
X148401660Y-142507118D01*
G37*
G36*
X148401660Y-142120833D02*
G01*
X147612755Y-142120833D01*
X147612755Y-142256540D01*
X147493076Y-142256540D01*
X147493076Y-142120833D01*
X147396600Y-142120833D01*
X147311143Y-142116034D01*
X147260816Y-142104576D01*
X147223612Y-142086131D01*
X147191493Y-142060354D01*
X147163883Y-142026494D01*
X147144369Y-141987384D01*
X147131480Y-141936188D01*
X147126712Y-141869721D01*
X147130338Y-141803405D01*
X147142053Y-141726304D01*
X147275700Y-141749355D01*
X147267151Y-141839877D01*
X147271176Y-141885661D01*
X147281657Y-141917436D01*
X147297148Y-141938948D01*
X147319298Y-141953516D01*
X147354808Y-141963850D01*
X147409194Y-141967952D01*
X147493076Y-141967952D01*
X147493076Y-141791181D01*
X147612755Y-141791181D01*
X147612755Y-141967952D01*
X148401660Y-141967952D01*
X148401660Y-142120833D01*
G37*
G36*
X157921660Y-158124966D02*
G01*
X157770305Y-158124966D01*
X156961480Y-157483676D01*
X156878807Y-157415252D01*
X156811576Y-157353922D01*
X156811576Y-158052380D01*
X156666251Y-158052380D01*
X156666251Y-157155780D01*
X156811576Y-157155780D01*
X157687644Y-157858589D01*
X157776335Y-157934533D01*
X157776335Y-157135324D01*
X157921660Y-157135324D01*
X157921660Y-158124966D01*
G37*
G36*
X157921660Y-156976185D02*
G01*
X157013076Y-156976185D01*
X157013076Y-156838646D01*
X157139930Y-156838646D01*
X157080605Y-156789182D01*
X157033760Y-156725149D01*
X157011680Y-156676465D01*
X156998184Y-156622992D01*
X156993537Y-156563720D01*
X156998622Y-156497650D01*
X157012804Y-156443317D01*
X157035058Y-156398551D01*
X157066318Y-156359818D01*
X157104621Y-156329689D01*
X157150997Y-156307570D01*
X157092264Y-156259952D01*
X157048635Y-156208829D01*
X157018163Y-156153742D01*
X156999812Y-156093739D01*
X156993537Y-156027454D01*
X156998797Y-155960303D01*
X157013525Y-155904661D01*
X157036744Y-155858424D01*
X157068336Y-155820000D01*
X157107470Y-155790161D01*
X157157184Y-155767548D01*
X157219889Y-155752797D01*
X157298611Y-155747414D01*
X157921660Y-155747414D01*
X157921660Y-155900219D01*
X157348910Y-155900219D01*
X157262945Y-155904732D01*
X157215798Y-155915179D01*
X157179373Y-155935987D01*
X157150310Y-155969446D01*
X157131854Y-156011357D01*
X157125428Y-156061648D01*
X157132755Y-156122741D01*
X157153928Y-156174991D01*
X157189236Y-156220482D01*
X157235911Y-156253486D01*
X157301810Y-156275404D01*
X157393408Y-156283680D01*
X157921660Y-156283680D01*
X157921660Y-156437324D01*
X157330897Y-156437324D01*
X157263108Y-156442278D01*
X157213108Y-156455422D01*
X157176795Y-156474953D01*
X157149281Y-156503735D01*
X157131859Y-156543465D01*
X157125428Y-156597914D01*
X157133995Y-156660346D01*
X157159698Y-156717898D01*
X157185720Y-156750923D01*
X157218738Y-156777419D01*
X157259838Y-156797735D01*
X157333282Y-156815321D01*
X157449889Y-156822465D01*
X157921660Y-156822465D01*
X157921660Y-156976185D01*
G37*
G36*
X157921660Y-155141845D02*
G01*
X156666251Y-155626820D01*
X156666251Y-155447530D01*
X157578575Y-155122153D01*
X157784197Y-155056436D01*
X157578575Y-154988964D01*
X156666251Y-154650840D01*
X156666251Y-154481779D01*
X157921660Y-154971867D01*
X157921660Y-155141845D01*
G37*
G36*
X157921660Y-154356375D02*
G01*
X156666251Y-154356375D01*
X156666251Y-154202731D01*
X157921660Y-154202731D01*
X157921660Y-154356375D01*
G37*
G36*
X157570679Y-153187277D02*
G01*
X157667506Y-153210234D01*
X157747695Y-153246137D01*
X157814040Y-153294377D01*
X157870764Y-153356343D01*
X157909919Y-153422268D01*
X157933267Y-153493259D01*
X157941199Y-153570982D01*
X157932508Y-153647737D01*
X157907402Y-153713878D01*
X157865730Y-153771831D01*
X157805263Y-153822933D01*
X157921660Y-153822933D01*
X157921660Y-153965510D01*
X156666251Y-153965510D01*
X156666251Y-153811790D01*
X157117414Y-153811790D01*
X157062233Y-153758590D01*
X157024166Y-153700338D01*
X157001355Y-153635886D01*
X156995009Y-153577011D01*
X157121764Y-153577011D01*
X157127077Y-153625116D01*
X157142837Y-153669519D01*
X157169577Y-153711313D01*
X157208852Y-153751187D01*
X157253809Y-153781520D01*
X157309219Y-153804429D01*
X157377256Y-153819255D01*
X157460575Y-153824613D01*
X157569003Y-153818438D01*
X157644369Y-153802588D01*
X157694972Y-153780191D01*
X157748344Y-153738995D01*
X157784372Y-153693288D01*
X157805682Y-153642181D01*
X157812971Y-153583804D01*
X157807662Y-153535696D01*
X157791914Y-153491291D01*
X157765197Y-153449498D01*
X157725960Y-153409629D01*
X157681045Y-153379555D01*
X157624602Y-153356626D01*
X157554113Y-153341654D01*
X157466528Y-153336203D01*
X157376176Y-153341558D01*
X157304873Y-153356123D01*
X157249086Y-153378149D01*
X157205875Y-153406652D01*
X157158269Y-153458157D01*
X157130939Y-153514229D01*
X157121764Y-153577011D01*
X156995009Y-153577011D01*
X156993537Y-153563349D01*
X157002014Y-153481669D01*
X157027273Y-153404897D01*
X157068144Y-153336401D01*
X157122069Y-153281936D01*
X157187983Y-153239641D01*
X157269302Y-153206373D01*
X157357612Y-153186016D01*
X157453705Y-153179048D01*
X157570679Y-153187277D01*
G37*
G36*
X157921660Y-152964344D02*
G01*
X156666251Y-152964344D01*
X156666251Y-152119874D01*
X156811576Y-152119874D01*
X156811576Y-152798716D01*
X157203586Y-152798716D01*
X157203586Y-152211236D01*
X157348910Y-152211236D01*
X157348910Y-152798716D01*
X157921660Y-152798716D01*
X157921660Y-152964344D01*
G37*
G36*
X157428169Y-151150302D02*
G01*
X157553598Y-151168576D01*
X157650092Y-151195644D01*
X157740075Y-151237523D01*
X157811407Y-151289163D01*
X157866858Y-151350585D01*
X157907799Y-151422292D01*
X157932639Y-151502024D01*
X157941199Y-151591851D01*
X157935638Y-151664605D01*
X157919754Y-151727845D01*
X157894222Y-151783171D01*
X157858996Y-151831820D01*
X157815079Y-151872645D01*
X157762857Y-151904917D01*
X157701003Y-151928764D01*
X157627728Y-151943637D01*
X157613914Y-151795947D01*
X157681557Y-151778058D01*
X157730849Y-151753817D01*
X157765802Y-151724200D01*
X157791554Y-151686472D01*
X157807396Y-151641833D01*
X157812971Y-151588417D01*
X157804584Y-151520919D01*
X157780457Y-151464158D01*
X157742565Y-151415754D01*
X157693521Y-151376689D01*
X157633393Y-151346784D01*
X157546594Y-151319444D01*
X157453234Y-151302164D01*
X157358069Y-151296394D01*
X157327233Y-151297233D01*
X157372729Y-151331425D01*
X157412281Y-151373149D01*
X157446226Y-151423171D01*
X157471547Y-151477889D01*
X157486683Y-151535255D01*
X157491792Y-151596126D01*
X157484625Y-151671553D01*
X157463696Y-151739554D01*
X157428995Y-151801718D01*
X157379364Y-151859145D01*
X157320181Y-151905261D01*
X157252260Y-151938624D01*
X157173934Y-151959397D01*
X157082991Y-151966688D01*
X156989133Y-151959083D01*
X156908328Y-151937416D01*
X156838270Y-151902594D01*
X156777229Y-151854412D01*
X156726493Y-151794658D01*
X156690684Y-151728792D01*
X156668887Y-151655535D01*
X156661366Y-151573075D01*
X156663119Y-151554223D01*
X156789594Y-151554223D01*
X156798662Y-151618990D01*
X156825756Y-151677822D01*
X156872865Y-151732749D01*
X156932351Y-151774173D01*
X157003238Y-151799691D01*
X157088639Y-151808693D01*
X157164991Y-151800203D01*
X157228461Y-151776051D01*
X157281896Y-151736565D01*
X157323266Y-151684606D01*
X157347814Y-151625988D01*
X157356237Y-151558497D01*
X157347719Y-151490614D01*
X157323106Y-151432970D01*
X157281896Y-151383100D01*
X157228459Y-151346135D01*
X157161096Y-151322768D01*
X157075892Y-151314330D01*
X156990770Y-151322877D01*
X156922307Y-151346731D01*
X156866912Y-151384779D01*
X156823409Y-151435773D01*
X156798133Y-151491580D01*
X156789594Y-151554223D01*
X156663119Y-151554223D01*
X156668757Y-151493610D01*
X156690608Y-151419625D01*
X156727236Y-151349746D01*
X156776618Y-151288395D01*
X156838565Y-151237310D01*
X156914845Y-151196025D01*
X156998119Y-151169157D01*
X157112927Y-151150570D01*
X157267547Y-151143513D01*
X157428169Y-151150302D01*
G37*
G36*
X157647650Y-151013377D02*
G01*
X157623683Y-150861413D01*
X157682019Y-150847065D01*
X157728064Y-150823209D01*
X157764199Y-150790124D01*
X157790174Y-150748439D01*
X157806878Y-150694996D01*
X157812971Y-150626558D01*
X157807365Y-150557046D01*
X157792486Y-150506171D01*
X157770229Y-150469479D01*
X157739026Y-150440229D01*
X157705998Y-150423675D01*
X157669937Y-150418188D01*
X157637952Y-150423227D01*
X157611355Y-150437945D01*
X157588726Y-150463449D01*
X157569523Y-150507167D01*
X157537130Y-150620604D01*
X157493335Y-150776080D01*
X157463246Y-150855001D01*
X157425441Y-150913140D01*
X157376922Y-150954072D01*
X157319100Y-150979312D01*
X157255106Y-150987808D01*
X157196446Y-150980805D01*
X157142754Y-150960026D01*
X157095395Y-150927245D01*
X157056811Y-150884463D01*
X157033451Y-150844459D01*
X157011931Y-150786690D01*
X156998241Y-150723298D01*
X156993537Y-150653883D01*
X157001743Y-150551190D01*
X157024678Y-150466502D01*
X157049200Y-150415144D01*
X157077388Y-150376127D01*
X157109094Y-150347358D01*
X157168351Y-150315987D01*
X157251442Y-150294388D01*
X157271974Y-150444673D01*
X157227191Y-150456264D01*
X157190904Y-150476034D01*
X157161530Y-150504055D01*
X157140452Y-150538939D01*
X157126781Y-150584228D01*
X157121764Y-150642815D01*
X157126568Y-150713111D01*
X157138916Y-150761583D01*
X157156569Y-150793941D01*
X157182227Y-150819955D01*
X157209055Y-150834447D01*
X157238085Y-150839202D01*
X157266288Y-150834527D01*
X157291589Y-150820426D01*
X157313219Y-150797573D01*
X157332347Y-150761502D01*
X157371426Y-150625718D01*
X157414730Y-150475446D01*
X157442638Y-150398191D01*
X157477075Y-150340098D01*
X157523238Y-150296983D01*
X157560118Y-150277079D01*
X157603412Y-150264656D01*
X157654595Y-150260270D01*
X157704478Y-150265185D01*
X157752410Y-150279933D01*
X157799233Y-150305073D01*
X157840305Y-150338653D01*
X157875195Y-150381328D01*
X157904105Y-150434446D01*
X157924343Y-150491918D01*
X157936864Y-150555355D01*
X157941199Y-150625718D01*
X157935741Y-150715506D01*
X157920691Y-150788490D01*
X157897561Y-150847567D01*
X157867163Y-150895149D01*
X157827235Y-150935992D01*
X157778366Y-150969345D01*
X157719142Y-150995317D01*
X157647650Y-151013377D01*
G37*
G36*
X157921660Y-149489149D02*
G01*
X157807247Y-149489149D01*
X157866165Y-149537678D01*
X157907260Y-149594832D01*
X157932384Y-149662241D01*
X157941199Y-149742780D01*
X157934526Y-149813313D01*
X157914735Y-149879388D01*
X157881436Y-149942220D01*
X157836881Y-149997710D01*
X157781693Y-150044539D01*
X157714511Y-150083118D01*
X157641503Y-150110284D01*
X157559886Y-150127163D01*
X157468207Y-150133035D01*
X157378631Y-150127777D01*
X157296903Y-150112522D01*
X157221980Y-150087773D01*
X157152734Y-150051754D01*
X157096800Y-150006629D01*
X157052460Y-149951990D01*
X157019796Y-149889451D01*
X157000199Y-149822439D01*
X156993537Y-149749650D01*
X156995199Y-149735071D01*
X157121764Y-149735071D01*
X157130990Y-149799545D01*
X157158196Y-149855867D01*
X157205112Y-149906347D01*
X157247809Y-149933962D01*
X157303620Y-149955456D01*
X157375701Y-149969758D01*
X157467826Y-149975040D01*
X157556062Y-149969557D01*
X157626648Y-149954538D01*
X157682783Y-149931608D01*
X157727105Y-149901615D01*
X157775891Y-149848153D01*
X157803704Y-149791065D01*
X157812971Y-149728278D01*
X157803952Y-149664802D01*
X157777207Y-149608453D01*
X157730921Y-149557079D01*
X157688575Y-149528378D01*
X157634590Y-149506373D01*
X157566323Y-149491919D01*
X157480572Y-149486631D01*
X157385485Y-149492129D01*
X157310893Y-149507037D01*
X157252958Y-149529482D01*
X157208470Y-149558377D01*
X157169701Y-149597330D01*
X157143050Y-149639187D01*
X157127171Y-149684699D01*
X157121764Y-149735071D01*
X156995199Y-149735071D01*
X157002493Y-149671097D01*
X157028341Y-149603638D01*
X157068733Y-149545206D01*
X157119016Y-149499453D01*
X156666251Y-149499453D01*
X156666251Y-149346573D01*
X157921660Y-149346573D01*
X157921660Y-149489149D01*
G37*
G36*
X157921660Y-148867170D02*
G01*
X156666251Y-149199340D01*
X156666251Y-149029439D01*
X157489579Y-148839006D01*
X157746644Y-148786112D01*
X157514461Y-148729707D01*
X156666251Y-148491494D01*
X156666251Y-148291673D01*
X157301970Y-148112383D01*
X157535937Y-148053302D01*
X157746644Y-148014991D01*
X157473321Y-147952709D01*
X156666251Y-147756246D01*
X156666251Y-147589780D01*
X157921660Y-147933017D01*
X157921660Y-148092691D01*
X156964762Y-148356550D01*
X156817377Y-148395857D01*
X156964762Y-148432570D01*
X157921660Y-148698108D01*
X157921660Y-148867170D01*
G37*
G36*
X157921660Y-147436441D02*
G01*
X156666251Y-147436441D01*
X156666251Y-147266463D01*
X157651924Y-146608992D01*
X156666251Y-146608992D01*
X156666251Y-146450158D01*
X157921660Y-146450158D01*
X157921660Y-146620059D01*
X156935147Y-147277607D01*
X157921660Y-147277607D01*
X157921660Y-147436441D01*
G37*
G36*
X157921660Y-146193321D02*
G01*
X157013076Y-146193321D01*
X157013076Y-146055019D01*
X157150234Y-146055019D01*
X157065096Y-145999550D01*
X157024067Y-145957245D01*
X157001150Y-145910090D01*
X156993537Y-145858632D01*
X156998692Y-145808040D01*
X157014660Y-145755692D01*
X157042767Y-145700638D01*
X157184428Y-145753531D01*
X157159099Y-145810984D01*
X157151073Y-145866265D01*
X157158669Y-145914086D01*
X157181451Y-145956787D01*
X157217105Y-145990749D01*
X157265791Y-146014032D01*
X157350449Y-146033008D01*
X157445615Y-146039601D01*
X157921660Y-146039601D01*
X157921660Y-146193321D01*
G37*
G36*
X157506447Y-144825256D02*
G01*
X157506447Y-145501503D01*
X157580825Y-145492137D01*
X157642173Y-145474390D01*
X157692670Y-145449239D01*
X157734050Y-145417011D01*
X157777891Y-145362165D01*
X157803987Y-145299781D01*
X157812971Y-145227417D01*
X157807832Y-145172487D01*
X157793073Y-145124855D01*
X157769008Y-145083085D01*
X157735964Y-145047799D01*
X157690111Y-145016108D01*
X157628568Y-144988288D01*
X157648184Y-144829454D01*
X157736081Y-144862634D01*
X157807264Y-144908963D01*
X157864339Y-144968672D01*
X157896967Y-145021004D01*
X157920911Y-145080798D01*
X157935925Y-145149354D01*
X157941199Y-145228257D01*
X157932885Y-145326340D01*
X157909258Y-145409973D01*
X157871314Y-145481812D01*
X157818696Y-145543788D01*
X157754429Y-145592888D01*
X157677537Y-145629120D01*
X157585499Y-145652128D01*
X157475077Y-145660338D01*
X157360605Y-145652001D01*
X157265385Y-145628670D01*
X157186042Y-145592015D01*
X157119932Y-145542490D01*
X157064896Y-145479566D01*
X157025825Y-145408802D01*
X157001865Y-145328629D01*
X156993537Y-145236805D01*
X156993691Y-145235126D01*
X157121764Y-145235126D01*
X157129752Y-145302872D01*
X157152914Y-145361482D01*
X157191602Y-145413118D01*
X157242129Y-145453321D01*
X157303429Y-145480038D01*
X157378219Y-145492955D01*
X157378219Y-144986609D01*
X157304502Y-144998825D01*
X157249524Y-145018661D01*
X157209234Y-145044693D01*
X157170725Y-145084439D01*
X157143771Y-145128710D01*
X157127417Y-145178453D01*
X157121764Y-145235126D01*
X156993691Y-145235126D01*
X157001661Y-145147988D01*
X157025075Y-145070176D01*
X157063334Y-145001233D01*
X157117337Y-144939668D01*
X157182080Y-144891217D01*
X157259828Y-144855344D01*
X157353183Y-144832503D01*
X157465460Y-144824340D01*
X157506447Y-144825256D01*
G37*
G36*
X157921660Y-144298836D02*
G01*
X156811576Y-144298836D01*
X156811576Y-144711301D01*
X156666251Y-144711301D01*
X156666251Y-143719065D01*
X156811576Y-143719065D01*
X156811576Y-144133209D01*
X157921660Y-144133209D01*
X157921660Y-144298836D01*
G37*
G36*
X157639438Y-142795261D02*
G01*
X157709581Y-142816500D01*
X157773270Y-142851576D01*
X157831671Y-142901538D01*
X157878695Y-142961384D01*
X157912665Y-143029943D01*
X157933790Y-143108885D01*
X157941199Y-143200430D01*
X157933764Y-143291948D01*
X157912560Y-143370879D01*
X157878452Y-143439449D01*
X157831213Y-143499323D01*
X157772665Y-143549087D01*
X157708334Y-143584158D01*
X157636992Y-143605474D01*
X157556898Y-143612819D01*
X157477381Y-143605485D01*
X157409850Y-143584619D01*
X157351963Y-143550919D01*
X157303530Y-143504806D01*
X157266052Y-143446794D01*
X157239382Y-143374606D01*
X157211340Y-143435248D01*
X157177990Y-143481707D01*
X157139472Y-143516343D01*
X157094254Y-143541583D01*
X157042941Y-143557061D01*
X156984072Y-143562444D01*
X156917750Y-143556158D01*
X156858259Y-143537844D01*
X156804167Y-143507545D01*
X156754484Y-143464289D01*
X156714687Y-143412653D01*
X156685785Y-143352987D01*
X156667724Y-143283757D01*
X156661366Y-143202949D01*
X156661500Y-143201270D01*
X156789594Y-143201270D01*
X156796065Y-143257625D01*
X156814691Y-143305665D01*
X156845541Y-143347281D01*
X156885737Y-143379859D01*
X156929800Y-143398910D01*
X156979264Y-143405365D01*
X157035574Y-143398724D01*
X157082896Y-143379686D01*
X157123291Y-143348197D01*
X157153900Y-143307031D01*
X157172595Y-143258222D01*
X157178682Y-143203865D01*
X157307389Y-143203865D01*
X157315621Y-143273148D01*
X157339374Y-143332274D01*
X157378906Y-143383613D01*
X157430253Y-143423065D01*
X157489071Y-143446720D01*
X157557661Y-143454901D01*
X157621722Y-143447208D01*
X157684439Y-143423760D01*
X157722236Y-143399584D01*
X157753698Y-143368919D01*
X157779388Y-143331100D01*
X157804552Y-143267329D01*
X157812971Y-143198675D01*
X157804791Y-143128151D01*
X157781282Y-143068364D01*
X157742370Y-143016867D01*
X157691423Y-142977254D01*
X157632351Y-142953406D01*
X157562699Y-142945120D01*
X157492079Y-142953619D01*
X157431913Y-142978143D01*
X157379746Y-143019004D01*
X157339763Y-143071962D01*
X157315719Y-143132791D01*
X157307389Y-143203865D01*
X157178682Y-143203865D01*
X157179161Y-143199591D01*
X157172685Y-143142629D01*
X157154160Y-143094765D01*
X157123672Y-143053961D01*
X157083751Y-143022321D01*
X157038988Y-143003588D01*
X156987736Y-142997175D01*
X156934324Y-143003811D01*
X156887914Y-143023146D01*
X156846762Y-143055717D01*
X156815134Y-143097638D01*
X156796156Y-143145546D01*
X156789594Y-143201270D01*
X156661500Y-143201270D01*
X156667836Y-143121849D01*
X156686255Y-143052094D01*
X156715810Y-142991700D01*
X156756621Y-142939167D01*
X156807447Y-142894995D01*
X156862300Y-142864166D01*
X156922136Y-142845605D01*
X156988347Y-142839256D01*
X157044936Y-142844538D01*
X157095030Y-142859834D01*
X157139930Y-142884976D01*
X157178303Y-142919211D01*
X157211485Y-142964720D01*
X157239382Y-143023660D01*
X157270701Y-142950956D01*
X157311179Y-142893230D01*
X157360893Y-142848186D01*
X157419387Y-142815173D01*
X157485526Y-142794977D01*
X157561172Y-142787965D01*
X157639438Y-142795261D01*
G37*
G36*
X157187710Y-141787715D02*
G01*
X157187710Y-142614324D01*
X157042385Y-142614324D01*
X157042385Y-141787715D01*
X157187710Y-141787715D01*
G37*
G36*
X157568729Y-141787715D02*
G01*
X157568729Y-142614324D01*
X157423404Y-142614324D01*
X157423404Y-141787715D01*
X157568729Y-141787715D01*
G37*
X111046779Y-106179819D02*
X111046779Y-105179819D01*
X111046779Y-105179819D02*
X111380112Y-105894104D01*
X111380112Y-105894104D02*
X111713445Y-105179819D01*
X111713445Y-105179819D02*
X111713445Y-106179819D01*
X112380112Y-105179819D02*
X112570588Y-105179819D01*
X112570588Y-105179819D02*
X112665826Y-105227438D01*
X112665826Y-105227438D02*
X112761064Y-105322676D01*
X112761064Y-105322676D02*
X112808683Y-105513152D01*
X112808683Y-105513152D02*
X112808683Y-105846485D01*
X112808683Y-105846485D02*
X112761064Y-106036961D01*
X112761064Y-106036961D02*
X112665826Y-106132200D01*
X112665826Y-106132200D02*
X112570588Y-106179819D01*
X112570588Y-106179819D02*
X112380112Y-106179819D01*
X112380112Y-106179819D02*
X112284874Y-106132200D01*
X112284874Y-106132200D02*
X112189636Y-106036961D01*
X112189636Y-106036961D02*
X112142017Y-105846485D01*
X112142017Y-105846485D02*
X112142017Y-105513152D01*
X112142017Y-105513152D02*
X112189636Y-105322676D01*
X112189636Y-105322676D02*
X112284874Y-105227438D01*
X112284874Y-105227438D02*
X112380112Y-105179819D01*
X113189636Y-106132200D02*
X113332493Y-106179819D01*
X113332493Y-106179819D02*
X113570588Y-106179819D01*
X113570588Y-106179819D02*
X113665826Y-106132200D01*
X113665826Y-106132200D02*
X113713445Y-106084580D01*
X113713445Y-106084580D02*
X113761064Y-105989342D01*
X113761064Y-105989342D02*
X113761064Y-105894104D01*
X113761064Y-105894104D02*
X113713445Y-105798866D01*
X113713445Y-105798866D02*
X113665826Y-105751247D01*
X113665826Y-105751247D02*
X113570588Y-105703628D01*
X113570588Y-105703628D02*
X113380112Y-105656009D01*
X113380112Y-105656009D02*
X113284874Y-105608390D01*
X113284874Y-105608390D02*
X113237255Y-105560771D01*
X113237255Y-105560771D02*
X113189636Y-105465533D01*
X113189636Y-105465533D02*
X113189636Y-105370295D01*
X113189636Y-105370295D02*
X113237255Y-105275057D01*
X113237255Y-105275057D02*
X113284874Y-105227438D01*
X113284874Y-105227438D02*
X113380112Y-105179819D01*
X113380112Y-105179819D02*
X113618207Y-105179819D01*
X113618207Y-105179819D02*
X113761064Y-105227438D01*
X114189636Y-106179819D02*
X114189636Y-105179819D01*
G36*
X194346657Y-138889211D02*
G01*
X194426246Y-138915378D01*
X194497079Y-138958505D01*
X194560674Y-139020118D01*
X194602325Y-139084583D01*
X194634063Y-139172548D01*
X194653608Y-139290495D01*
X193843455Y-139290495D01*
X193864122Y-139170831D01*
X193906868Y-139072750D01*
X193971194Y-138991908D01*
X194053811Y-138930007D01*
X194147588Y-138892947D01*
X194255981Y-138880167D01*
X194346657Y-138889211D01*
G37*
G36*
X196220753Y-140413485D02*
G01*
X189273222Y-140413485D01*
X189273222Y-140160000D01*
X189495444Y-140160000D01*
X190990210Y-140160000D01*
X190990210Y-139927480D01*
X189760569Y-139927480D01*
X189760569Y-139235785D01*
X190868577Y-139235785D01*
X190868577Y-139003265D01*
X189760569Y-139003265D01*
X189760569Y-138706266D01*
X191324578Y-138706266D01*
X191324578Y-140160000D01*
X191570531Y-140160000D01*
X191570531Y-139365478D01*
X191579731Y-139221239D01*
X191604000Y-139115405D01*
X191639564Y-139039305D01*
X191684592Y-138986046D01*
X191765319Y-138930535D01*
X191854808Y-138897383D01*
X191955824Y-138886029D01*
X192049316Y-138897559D01*
X192127282Y-138930603D01*
X192189721Y-138983134D01*
X192229009Y-139049794D01*
X192249285Y-139134152D01*
X192257708Y-139275108D01*
X192257708Y-140160000D01*
X192503661Y-140160000D01*
X192503661Y-139267048D01*
X192499449Y-139108989D01*
X192489983Y-139027812D01*
X192459277Y-138928221D01*
X192413413Y-138845973D01*
X192347483Y-138778671D01*
X192248793Y-138722264D01*
X192197011Y-138706266D01*
X192744728Y-138706266D01*
X192744728Y-138897752D01*
X192925102Y-138897752D01*
X192925102Y-139731964D01*
X192934804Y-139934196D01*
X192955143Y-140022124D01*
X192995305Y-140083503D01*
X193058947Y-140133377D01*
X193141549Y-140163761D01*
X193266553Y-140175631D01*
X193452422Y-140160000D01*
X193416885Y-139935296D01*
X193308929Y-139950928D01*
X193258087Y-139945909D01*
X193224910Y-139933098D01*
X193199548Y-139912056D01*
X193182534Y-139885104D01*
X193173843Y-139845618D01*
X193169589Y-139749305D01*
X193169589Y-139445467D01*
X193575642Y-139445467D01*
X193588777Y-139622143D01*
X193625591Y-139769403D01*
X193683561Y-139892431D01*
X193762122Y-139995258D01*
X193861283Y-140079447D01*
X193976225Y-140140157D01*
X194110039Y-140177960D01*
X194266972Y-140191263D01*
X194393217Y-140182824D01*
X194502905Y-140158801D01*
X194598576Y-140120491D01*
X194682307Y-140068286D01*
X194777842Y-139976967D01*
X194851968Y-139863075D01*
X194905056Y-139722438D01*
X194650922Y-139691053D01*
X194606409Y-139789522D01*
X194555704Y-139862886D01*
X194499247Y-139915757D01*
X194432414Y-139954262D01*
X194356202Y-139977876D01*
X194268315Y-139986099D01*
X194152532Y-139971724D01*
X194052718Y-139929970D01*
X193964966Y-139859825D01*
X193913400Y-139793616D01*
X193873158Y-139712821D01*
X193844763Y-139614665D01*
X193829777Y-139495659D01*
X194911773Y-139495659D01*
X194913238Y-139430080D01*
X194900177Y-139250436D01*
X194863632Y-139101069D01*
X194806235Y-138976673D01*
X194728713Y-138873084D01*
X194630209Y-138786678D01*
X194519901Y-138725464D01*
X194456098Y-138706266D01*
X195210238Y-138706266D01*
X195210238Y-140160000D01*
X195456190Y-140160000D01*
X195456190Y-139398328D01*
X195466739Y-139246063D01*
X195497101Y-139110610D01*
X195534353Y-139032712D01*
X195588692Y-138975666D01*
X195657013Y-138939215D01*
X195733528Y-138927062D01*
X195821977Y-138939903D01*
X195913901Y-138980429D01*
X195998531Y-138753771D01*
X195910444Y-138708800D01*
X195826687Y-138683251D01*
X195745740Y-138675003D01*
X195663407Y-138687184D01*
X195587959Y-138723852D01*
X195520272Y-138789497D01*
X195431522Y-138925718D01*
X195431522Y-138706266D01*
X195210238Y-138706266D01*
X194456098Y-138706266D01*
X194395402Y-138688003D01*
X194253294Y-138675003D01*
X194106377Y-138688329D01*
X193978099Y-138726665D01*
X193864877Y-138789178D01*
X193764198Y-138877236D01*
X193684959Y-138983012D01*
X193626311Y-139109960D01*
X193588981Y-139262313D01*
X193586929Y-139290495D01*
X193575642Y-139445467D01*
X193169589Y-139445467D01*
X193169589Y-138897752D01*
X193416885Y-138897752D01*
X193416885Y-138706266D01*
X193169589Y-138706266D01*
X193169589Y-138198241D01*
X192925102Y-138346130D01*
X192925102Y-138706266D01*
X192744728Y-138706266D01*
X192197011Y-138706266D01*
X192134929Y-138687086D01*
X192007725Y-138675003D01*
X191889228Y-138685083D01*
X191786236Y-138713965D01*
X191695921Y-138760735D01*
X191616217Y-138826017D01*
X191545984Y-138911919D01*
X191545984Y-138706266D01*
X191324578Y-138706266D01*
X189760569Y-138706266D01*
X189760569Y-138383866D01*
X190943681Y-138383866D01*
X190943681Y-138151346D01*
X189495444Y-138151346D01*
X189495444Y-140160000D01*
X189273222Y-140160000D01*
X189273222Y-137929124D01*
X196220753Y-137929124D01*
X196220753Y-140413485D01*
G37*
X111046779Y-90719819D02*
X111046779Y-89719819D01*
X111046779Y-89719819D02*
X111284874Y-89719819D01*
X111284874Y-89719819D02*
X111427731Y-89767438D01*
X111427731Y-89767438D02*
X111522969Y-89862676D01*
X111522969Y-89862676D02*
X111570588Y-89957914D01*
X111570588Y-89957914D02*
X111618207Y-90148390D01*
X111618207Y-90148390D02*
X111618207Y-90291247D01*
X111618207Y-90291247D02*
X111570588Y-90481723D01*
X111570588Y-90481723D02*
X111522969Y-90576961D01*
X111522969Y-90576961D02*
X111427731Y-90672200D01*
X111427731Y-90672200D02*
X111284874Y-90719819D01*
X111284874Y-90719819D02*
X111046779Y-90719819D01*
X112046779Y-90719819D02*
X112046779Y-89719819D01*
X112522969Y-90719819D02*
X112522969Y-89719819D01*
X112522969Y-89719819D02*
X113094397Y-90719819D01*
X113094397Y-90719819D02*
X113094397Y-89719819D01*
X111046779Y-88359819D02*
X111046779Y-87359819D01*
X111046779Y-87359819D02*
X111284874Y-87359819D01*
X111284874Y-87359819D02*
X111427731Y-87407438D01*
X111427731Y-87407438D02*
X111522969Y-87502676D01*
X111522969Y-87502676D02*
X111570588Y-87597914D01*
X111570588Y-87597914D02*
X111618207Y-87788390D01*
X111618207Y-87788390D02*
X111618207Y-87931247D01*
X111618207Y-87931247D02*
X111570588Y-88121723D01*
X111570588Y-88121723D02*
X111522969Y-88216961D01*
X111522969Y-88216961D02*
X111427731Y-88312200D01*
X111427731Y-88312200D02*
X111284874Y-88359819D01*
X111284874Y-88359819D02*
X111046779Y-88359819D01*
X112237255Y-87359819D02*
X112427731Y-87359819D01*
X112427731Y-87359819D02*
X112522969Y-87407438D01*
X112522969Y-87407438D02*
X112618207Y-87502676D01*
X112618207Y-87502676D02*
X112665826Y-87693152D01*
X112665826Y-87693152D02*
X112665826Y-88026485D01*
X112665826Y-88026485D02*
X112618207Y-88216961D01*
X112618207Y-88216961D02*
X112522969Y-88312200D01*
X112522969Y-88312200D02*
X112427731Y-88359819D01*
X112427731Y-88359819D02*
X112237255Y-88359819D01*
X112237255Y-88359819D02*
X112142017Y-88312200D01*
X112142017Y-88312200D02*
X112046779Y-88216961D01*
X112046779Y-88216961D02*
X111999160Y-88026485D01*
X111999160Y-88026485D02*
X111999160Y-87693152D01*
X111999160Y-87693152D02*
X112046779Y-87502676D01*
X112046779Y-87502676D02*
X112142017Y-87407438D01*
X112142017Y-87407438D02*
X112237255Y-87359819D01*
G36*
X143261110Y-152466102D02*
G01*
X143348576Y-152486446D01*
X143431556Y-152520208D01*
X143507501Y-152566767D01*
X143569094Y-152622432D01*
X143617944Y-152687728D01*
X143653555Y-152761097D01*
X143675186Y-152841174D01*
X143682607Y-152929528D01*
X143671614Y-153041336D01*
X143639816Y-153139562D01*
X143587462Y-153227030D01*
X143512797Y-153305601D01*
X143445159Y-153352925D01*
X143359371Y-153392512D01*
X143251767Y-153423366D01*
X143118006Y-153443718D01*
X142953176Y-153451140D01*
X142769222Y-153443011D01*
X142618652Y-153420635D01*
X142496363Y-153386582D01*
X142397826Y-153342740D01*
X142319182Y-153290214D01*
X142257012Y-153230026D01*
X142209405Y-153163261D01*
X142175199Y-153089025D01*
X142154122Y-153005919D01*
X142146808Y-152912126D01*
X142153497Y-152824279D01*
X142172618Y-152747770D01*
X142203373Y-152680701D01*
X142245818Y-152621599D01*
X142298759Y-152571656D01*
X142360962Y-152532442D01*
X142433855Y-152503670D01*
X142519400Y-152485861D01*
X142533688Y-152669227D01*
X142436258Y-152701335D01*
X142378350Y-152738927D01*
X142335090Y-152792866D01*
X142309464Y-152853591D01*
X142300681Y-152923392D01*
X142306273Y-152980518D01*
X142322572Y-153031654D01*
X142349590Y-153078089D01*
X142396554Y-153130535D01*
X142457323Y-153176342D01*
X142534238Y-153215476D01*
X142616949Y-153241414D01*
X142729637Y-153259777D01*
X142879811Y-153267683D01*
X142816880Y-153218898D01*
X142767216Y-153164757D01*
X142729419Y-153104834D01*
X142701965Y-153039177D01*
X142685678Y-152972119D01*
X142683136Y-152939787D01*
X142842900Y-152939787D01*
X142852991Y-153019364D01*
X142882552Y-153089227D01*
X142932659Y-153151912D01*
X142997162Y-153199501D01*
X143074368Y-153228712D01*
X143167865Y-153239015D01*
X143261082Y-153228914D01*
X143350406Y-153198531D01*
X143404924Y-153167216D01*
X143448722Y-153129577D01*
X143483121Y-153085325D01*
X143517537Y-153010054D01*
X143528734Y-152932643D01*
X143518402Y-152858857D01*
X143487684Y-152792703D01*
X143434487Y-152731783D01*
X143367020Y-152686553D01*
X143283068Y-152658045D01*
X143178123Y-152647794D01*
X143077400Y-152657909D01*
X142997058Y-152686043D01*
X142932659Y-152730776D01*
X142882749Y-152790951D01*
X142853107Y-152859684D01*
X142842900Y-152939787D01*
X142683136Y-152939787D01*
X142680234Y-152902875D01*
X142688855Y-152813499D01*
X142714096Y-152732507D01*
X142756084Y-152658038D01*
X142816338Y-152588810D01*
X142887968Y-152532958D01*
X142969144Y-152492774D01*
X143061691Y-152467897D01*
X143168048Y-152459208D01*
X143261110Y-152466102D01*
G37*
G36*
X143160904Y-151284553D02*
G01*
X143160904Y-152096050D01*
X143250158Y-152084810D01*
X143323775Y-152063514D01*
X143384372Y-152033332D01*
X143434029Y-151994658D01*
X143486637Y-151928844D01*
X143517953Y-151853983D01*
X143528734Y-151767146D01*
X143522567Y-151701231D01*
X143504856Y-151644072D01*
X143475977Y-151593948D01*
X143436325Y-151551605D01*
X143381301Y-151513576D01*
X143307450Y-151480191D01*
X143330989Y-151289590D01*
X143436466Y-151329406D01*
X143521885Y-151385001D01*
X143590375Y-151456653D01*
X143629528Y-151519451D01*
X143658261Y-151591204D01*
X143676278Y-151673470D01*
X143682607Y-151768154D01*
X143672630Y-151885853D01*
X143644277Y-151986214D01*
X143598745Y-152072420D01*
X143535603Y-152146791D01*
X143458483Y-152205711D01*
X143366212Y-152249190D01*
X143255767Y-152276799D01*
X143123260Y-152286651D01*
X142985895Y-152276647D01*
X142871630Y-152248649D01*
X142776419Y-152204663D01*
X142697087Y-152145234D01*
X142631044Y-152069725D01*
X142584158Y-151984809D01*
X142555407Y-151888600D01*
X142545412Y-151778412D01*
X142545596Y-151776397D01*
X142699285Y-151776397D01*
X142708870Y-151857692D01*
X142736665Y-151928024D01*
X142783091Y-151989987D01*
X142843723Y-152038231D01*
X142917283Y-152070291D01*
X143007031Y-152085792D01*
X143007031Y-151478176D01*
X142918571Y-151492835D01*
X142852597Y-151516639D01*
X142804248Y-151547877D01*
X142758038Y-151595573D01*
X142725694Y-151648698D01*
X142706068Y-151708390D01*
X142699285Y-151776397D01*
X142545596Y-151776397D01*
X142555162Y-151671831D01*
X142583258Y-151578457D01*
X142629168Y-151495726D01*
X142693973Y-151421848D01*
X142771664Y-151363706D01*
X142864961Y-151320659D01*
X142976987Y-151293250D01*
X143111720Y-151283454D01*
X143160904Y-151284553D01*
G37*
G36*
X143261110Y-150133095D02*
G01*
X143348576Y-150153438D01*
X143431556Y-150187200D01*
X143507501Y-150233759D01*
X143569094Y-150289424D01*
X143617944Y-150354720D01*
X143653555Y-150428089D01*
X143675186Y-150508166D01*
X143682607Y-150596521D01*
X143671614Y-150708328D01*
X143639816Y-150806555D01*
X143587462Y-150894023D01*
X143512797Y-150972594D01*
X143445159Y-151019917D01*
X143359371Y-151059505D01*
X143251767Y-151090358D01*
X143118006Y-151110711D01*
X142953176Y-151118132D01*
X142769222Y-151110003D01*
X142618652Y-151087627D01*
X142496363Y-151053574D01*
X142397826Y-151009732D01*
X142319182Y-150957206D01*
X142257012Y-150897018D01*
X142209405Y-150830253D01*
X142175199Y-150756018D01*
X142154122Y-150672911D01*
X142146808Y-150579118D01*
X142153497Y-150491271D01*
X142172618Y-150414762D01*
X142203373Y-150347693D01*
X142245818Y-150288592D01*
X142298759Y-150238648D01*
X142360962Y-150199434D01*
X142433855Y-150170663D01*
X142519400Y-150152854D01*
X142533688Y-150336219D01*
X142436258Y-150368328D01*
X142378350Y-150405920D01*
X142335090Y-150459859D01*
X142309464Y-150520583D01*
X142300681Y-150590384D01*
X142306273Y-150647511D01*
X142322572Y-150698647D01*
X142349590Y-150745081D01*
X142396554Y-150797527D01*
X142457323Y-150843334D01*
X142534238Y-150882468D01*
X142616949Y-150908406D01*
X142729637Y-150926769D01*
X142879811Y-150934675D01*
X142816880Y-150885890D01*
X142767216Y-150831749D01*
X142729419Y-150771826D01*
X142701965Y-150706169D01*
X142685678Y-150639111D01*
X142683136Y-150606779D01*
X142842900Y-150606779D01*
X142852991Y-150686356D01*
X142882552Y-150756220D01*
X142932659Y-150818904D01*
X142997162Y-150866494D01*
X143074368Y-150895705D01*
X143167865Y-150906007D01*
X143261082Y-150895906D01*
X143350406Y-150865524D01*
X143404924Y-150834209D01*
X143448722Y-150796570D01*
X143483121Y-150752317D01*
X143517537Y-150677046D01*
X143528734Y-150599635D01*
X143518402Y-150525849D01*
X143487684Y-150459695D01*
X143434487Y-150398776D01*
X143367020Y-150353545D01*
X143283068Y-150325037D01*
X143178123Y-150314787D01*
X143077400Y-150324901D01*
X142997058Y-150353035D01*
X142932659Y-150397768D01*
X142882749Y-150457943D01*
X142853107Y-150526676D01*
X142842900Y-150606779D01*
X142683136Y-150606779D01*
X142680234Y-150569868D01*
X142688855Y-150480491D01*
X142714096Y-150399499D01*
X142756084Y-150325030D01*
X142816338Y-150255802D01*
X142887968Y-150199951D01*
X142969144Y-150159766D01*
X143061691Y-150134890D01*
X143168048Y-150126201D01*
X143261110Y-150133095D01*
G37*
G36*
X143659160Y-149848130D02*
G01*
X142712474Y-149848130D01*
X142712474Y-150010979D01*
X142568859Y-150010979D01*
X142568859Y-149848130D01*
X142453088Y-149848130D01*
X142350540Y-149842371D01*
X142290148Y-149828621D01*
X142245502Y-149806488D01*
X142206960Y-149775555D01*
X142173827Y-149734924D01*
X142150410Y-149687992D01*
X142134944Y-149626557D01*
X142129222Y-149546796D01*
X142133574Y-149467216D01*
X142147632Y-149374696D01*
X142308008Y-149402356D01*
X142297750Y-149510983D01*
X142302579Y-149565924D01*
X142315156Y-149604054D01*
X142333745Y-149629869D01*
X142360326Y-149647350D01*
X142402938Y-149659751D01*
X142468201Y-149664673D01*
X142568859Y-149664673D01*
X142568859Y-149452548D01*
X142712474Y-149452548D01*
X142712474Y-149664673D01*
X143659160Y-149664673D01*
X143659160Y-149848130D01*
G37*
G36*
X143300123Y-148584448D02*
G01*
X143659160Y-148584448D01*
X143659160Y-148768913D01*
X143300123Y-148768913D01*
X143300123Y-149420583D01*
X143131595Y-149420583D01*
X142206508Y-148768913D01*
X142454554Y-148768913D01*
X143131595Y-149239233D01*
X143131595Y-148768913D01*
X142454554Y-148768913D01*
X142206508Y-148768913D01*
X142158531Y-148735116D01*
X142158531Y-148584448D01*
X143131595Y-148584448D01*
X143131595Y-148381574D01*
X143300123Y-148381574D01*
X143300123Y-148584448D01*
G37*
G36*
X142344644Y-148181356D02*
G01*
X142170255Y-148181356D01*
X142170255Y-147208934D01*
X142313687Y-147208934D01*
X142420125Y-147298881D01*
X142554561Y-147393591D01*
X142721359Y-147493324D01*
X142893634Y-147580662D01*
X143067791Y-147653076D01*
X143244252Y-147711036D01*
X143371583Y-147742853D01*
X143509576Y-147766602D01*
X143659160Y-147781744D01*
X143659160Y-147971246D01*
X143540893Y-147963213D01*
X143398401Y-147940985D01*
X143227857Y-147901637D01*
X143061682Y-147850884D01*
X142899311Y-147787260D01*
X142740318Y-147710486D01*
X142586628Y-147622392D01*
X142455504Y-147534061D01*
X142344644Y-147445605D01*
X142344644Y-148181356D01*
G37*
G36*
X143300123Y-146251441D02*
G01*
X143659160Y-146251441D01*
X143659160Y-146435905D01*
X143300123Y-146435905D01*
X143300123Y-147087575D01*
X143131595Y-147087575D01*
X142206508Y-146435905D01*
X142454554Y-146435905D01*
X143131595Y-146906225D01*
X143131595Y-146435905D01*
X142454554Y-146435905D01*
X142206508Y-146435905D01*
X142158531Y-146402108D01*
X142158531Y-146251441D01*
X143131595Y-146251441D01*
X143131595Y-146048566D01*
X143300123Y-146048566D01*
X143300123Y-146251441D01*
G37*
G36*
X143160904Y-144868782D02*
G01*
X143160904Y-145680279D01*
X143250158Y-145669039D01*
X143323775Y-145647743D01*
X143384372Y-145617561D01*
X143434029Y-145578887D01*
X143486637Y-145513073D01*
X143517953Y-145438212D01*
X143528734Y-145351375D01*
X143522567Y-145285460D01*
X143504856Y-145228301D01*
X143475977Y-145178176D01*
X143436325Y-145135834D01*
X143381301Y-145097805D01*
X143307450Y-145064420D01*
X143330989Y-144873819D01*
X143436466Y-144913635D01*
X143521885Y-144969230D01*
X143590375Y-145040881D01*
X143629528Y-145103680D01*
X143658261Y-145175433D01*
X143676278Y-145257699D01*
X143682607Y-145352383D01*
X143672630Y-145470082D01*
X143644277Y-145570443D01*
X143598745Y-145656649D01*
X143535603Y-145731020D01*
X143458483Y-145789940D01*
X143366212Y-145833418D01*
X143255767Y-145861028D01*
X143123260Y-145870880D01*
X142985895Y-145860876D01*
X142871630Y-145832878D01*
X142776419Y-145788892D01*
X142697087Y-145729463D01*
X142631044Y-145653954D01*
X142584158Y-145569038D01*
X142555407Y-145472829D01*
X142545412Y-145362641D01*
X142545596Y-145360626D01*
X142699285Y-145360626D01*
X142708870Y-145441921D01*
X142736665Y-145512253D01*
X142783091Y-145574216D01*
X142843723Y-145622460D01*
X142917283Y-145654520D01*
X143007031Y-145670020D01*
X143007031Y-145062405D01*
X142918571Y-145077064D01*
X142852597Y-145100868D01*
X142804248Y-145132106D01*
X142758038Y-145179802D01*
X142725694Y-145232927D01*
X142706068Y-145292619D01*
X142699285Y-145360626D01*
X142545596Y-145360626D01*
X142555162Y-145256060D01*
X142583258Y-145162686D01*
X142629168Y-145079955D01*
X142693973Y-145006077D01*
X142771664Y-144947935D01*
X142864961Y-144904887D01*
X142976987Y-144877479D01*
X143111720Y-144867683D01*
X143160904Y-144868782D01*
G37*
G36*
X143300123Y-143918433D02*
G01*
X143659160Y-143918433D01*
X143659160Y-144102897D01*
X143300123Y-144102897D01*
X143300123Y-144754568D01*
X143131595Y-144754568D01*
X142206508Y-144102897D01*
X142454554Y-144102897D01*
X143131595Y-144573217D01*
X143131595Y-144102897D01*
X142454554Y-144102897D01*
X142206508Y-144102897D01*
X142158531Y-144069100D01*
X142158531Y-143918433D01*
X143131595Y-143918433D01*
X143131595Y-143715559D01*
X143300123Y-143715559D01*
X143300123Y-143918433D01*
G37*
G36*
X143300123Y-142751929D02*
G01*
X143659160Y-142751929D01*
X143659160Y-142936393D01*
X143300123Y-142936393D01*
X143300123Y-143588064D01*
X143131595Y-143588064D01*
X142206508Y-142936393D01*
X142454554Y-142936393D01*
X143131595Y-143406714D01*
X143131595Y-142936393D01*
X142454554Y-142936393D01*
X142206508Y-142936393D01*
X142158531Y-142902596D01*
X142158531Y-142751929D01*
X143131595Y-142751929D01*
X143131595Y-142549055D01*
X143300123Y-142549055D01*
X143300123Y-142751929D01*
G37*
X110951541Y-84889819D02*
X111618207Y-85889819D01*
X111618207Y-84889819D02*
X110951541Y-85889819D01*
X111618207Y-95634580D02*
X111570588Y-95682200D01*
X111570588Y-95682200D02*
X111427731Y-95729819D01*
X111427731Y-95729819D02*
X111332493Y-95729819D01*
X111332493Y-95729819D02*
X111189636Y-95682200D01*
X111189636Y-95682200D02*
X111094398Y-95586961D01*
X111094398Y-95586961D02*
X111046779Y-95491723D01*
X111046779Y-95491723D02*
X110999160Y-95301247D01*
X110999160Y-95301247D02*
X110999160Y-95158390D01*
X110999160Y-95158390D02*
X111046779Y-94967914D01*
X111046779Y-94967914D02*
X111094398Y-94872676D01*
X111094398Y-94872676D02*
X111189636Y-94777438D01*
X111189636Y-94777438D02*
X111332493Y-94729819D01*
X111332493Y-94729819D02*
X111427731Y-94729819D01*
X111427731Y-94729819D02*
X111570588Y-94777438D01*
X111570588Y-94777438D02*
X111618207Y-94825057D01*
X112522969Y-95729819D02*
X112046779Y-95729819D01*
X112046779Y-95729819D02*
X112046779Y-94729819D01*
X112856303Y-95729819D02*
X112856303Y-94729819D01*
X113427731Y-95729819D02*
X112999160Y-95158390D01*
X113427731Y-94729819D02*
X112856303Y-95301247D01*
X191365714Y-109604819D02*
X191365714Y-108604819D01*
X191365714Y-108604819D02*
X191603809Y-108604819D01*
X191603809Y-108604819D02*
X191746666Y-108652438D01*
X191746666Y-108652438D02*
X191841904Y-108747676D01*
X191841904Y-108747676D02*
X191889523Y-108842914D01*
X191889523Y-108842914D02*
X191937142Y-109033390D01*
X191937142Y-109033390D02*
X191937142Y-109176247D01*
X191937142Y-109176247D02*
X191889523Y-109366723D01*
X191889523Y-109366723D02*
X191841904Y-109461961D01*
X191841904Y-109461961D02*
X191746666Y-109557200D01*
X191746666Y-109557200D02*
X191603809Y-109604819D01*
X191603809Y-109604819D02*
X191365714Y-109604819D01*
X192889523Y-109604819D02*
X192318095Y-109604819D01*
X192603809Y-109604819D02*
X192603809Y-108604819D01*
X192603809Y-108604819D02*
X192508571Y-108747676D01*
X192508571Y-108747676D02*
X192413333Y-108842914D01*
X192413333Y-108842914D02*
X192318095Y-108890533D01*
X193746666Y-108604819D02*
X193556190Y-108604819D01*
X193556190Y-108604819D02*
X193460952Y-108652438D01*
X193460952Y-108652438D02*
X193413333Y-108700057D01*
X193413333Y-108700057D02*
X193318095Y-108842914D01*
X193318095Y-108842914D02*
X193270476Y-109033390D01*
X193270476Y-109033390D02*
X193270476Y-109414342D01*
X193270476Y-109414342D02*
X193318095Y-109509580D01*
X193318095Y-109509580D02*
X193365714Y-109557200D01*
X193365714Y-109557200D02*
X193460952Y-109604819D01*
X193460952Y-109604819D02*
X193651428Y-109604819D01*
X193651428Y-109604819D02*
X193746666Y-109557200D01*
X193746666Y-109557200D02*
X193794285Y-109509580D01*
X193794285Y-109509580D02*
X193841904Y-109414342D01*
X193841904Y-109414342D02*
X193841904Y-109176247D01*
X193841904Y-109176247D02*
X193794285Y-109081009D01*
X193794285Y-109081009D02*
X193746666Y-109033390D01*
X193746666Y-109033390D02*
X193651428Y-108985771D01*
X193651428Y-108985771D02*
X193460952Y-108985771D01*
X193460952Y-108985771D02*
X193365714Y-109033390D01*
X193365714Y-109033390D02*
X193318095Y-109081009D01*
X193318095Y-109081009D02*
X193270476Y-109176247D01*
X188715714Y-111504819D02*
X188144286Y-111504819D01*
X188430000Y-111504819D02*
X188430000Y-110504819D01*
X188430000Y-110504819D02*
X188334762Y-110647676D01*
X188334762Y-110647676D02*
X188239524Y-110742914D01*
X188239524Y-110742914D02*
X188144286Y-110790533D01*
X151335714Y-83254819D02*
X151335714Y-82254819D01*
X151335714Y-82254819D02*
X151573809Y-82254819D01*
X151573809Y-82254819D02*
X151716666Y-82302438D01*
X151716666Y-82302438D02*
X151811904Y-82397676D01*
X151811904Y-82397676D02*
X151859523Y-82492914D01*
X151859523Y-82492914D02*
X151907142Y-82683390D01*
X151907142Y-82683390D02*
X151907142Y-82826247D01*
X151907142Y-82826247D02*
X151859523Y-83016723D01*
X151859523Y-83016723D02*
X151811904Y-83111961D01*
X151811904Y-83111961D02*
X151716666Y-83207200D01*
X151716666Y-83207200D02*
X151573809Y-83254819D01*
X151573809Y-83254819D02*
X151335714Y-83254819D01*
X152859523Y-83254819D02*
X152288095Y-83254819D01*
X152573809Y-83254819D02*
X152573809Y-82254819D01*
X152573809Y-82254819D02*
X152478571Y-82397676D01*
X152478571Y-82397676D02*
X152383333Y-82492914D01*
X152383333Y-82492914D02*
X152288095Y-82540533D01*
X153478571Y-82254819D02*
X153573809Y-82254819D01*
X153573809Y-82254819D02*
X153669047Y-82302438D01*
X153669047Y-82302438D02*
X153716666Y-82350057D01*
X153716666Y-82350057D02*
X153764285Y-82445295D01*
X153764285Y-82445295D02*
X153811904Y-82635771D01*
X153811904Y-82635771D02*
X153811904Y-82873866D01*
X153811904Y-82873866D02*
X153764285Y-83064342D01*
X153764285Y-83064342D02*
X153716666Y-83159580D01*
X153716666Y-83159580D02*
X153669047Y-83207200D01*
X153669047Y-83207200D02*
X153573809Y-83254819D01*
X153573809Y-83254819D02*
X153478571Y-83254819D01*
X153478571Y-83254819D02*
X153383333Y-83207200D01*
X153383333Y-83207200D02*
X153335714Y-83159580D01*
X153335714Y-83159580D02*
X153288095Y-83064342D01*
X153288095Y-83064342D02*
X153240476Y-82873866D01*
X153240476Y-82873866D02*
X153240476Y-82635771D01*
X153240476Y-82635771D02*
X153288095Y-82445295D01*
X153288095Y-82445295D02*
X153335714Y-82350057D01*
X153335714Y-82350057D02*
X153383333Y-82302438D01*
X153383333Y-82302438D02*
X153478571Y-82254819D01*
X156985714Y-88354819D02*
X156414286Y-88354819D01*
X156700000Y-88354819D02*
X156700000Y-87354819D01*
X156700000Y-87354819D02*
X156604762Y-87497676D01*
X156604762Y-87497676D02*
X156509524Y-87592914D01*
X156509524Y-87592914D02*
X156414286Y-87640533D01*
X151811905Y-104664819D02*
X151811905Y-103664819D01*
X151811905Y-103664819D02*
X152050000Y-103664819D01*
X152050000Y-103664819D02*
X152192857Y-103712438D01*
X152192857Y-103712438D02*
X152288095Y-103807676D01*
X152288095Y-103807676D02*
X152335714Y-103902914D01*
X152335714Y-103902914D02*
X152383333Y-104093390D01*
X152383333Y-104093390D02*
X152383333Y-104236247D01*
X152383333Y-104236247D02*
X152335714Y-104426723D01*
X152335714Y-104426723D02*
X152288095Y-104521961D01*
X152288095Y-104521961D02*
X152192857Y-104617200D01*
X152192857Y-104617200D02*
X152050000Y-104664819D01*
X152050000Y-104664819D02*
X151811905Y-104664819D01*
X152859524Y-104664819D02*
X153050000Y-104664819D01*
X153050000Y-104664819D02*
X153145238Y-104617200D01*
X153145238Y-104617200D02*
X153192857Y-104569580D01*
X153192857Y-104569580D02*
X153288095Y-104426723D01*
X153288095Y-104426723D02*
X153335714Y-104236247D01*
X153335714Y-104236247D02*
X153335714Y-103855295D01*
X153335714Y-103855295D02*
X153288095Y-103760057D01*
X153288095Y-103760057D02*
X153240476Y-103712438D01*
X153240476Y-103712438D02*
X153145238Y-103664819D01*
X153145238Y-103664819D02*
X152954762Y-103664819D01*
X152954762Y-103664819D02*
X152859524Y-103712438D01*
X152859524Y-103712438D02*
X152811905Y-103760057D01*
X152811905Y-103760057D02*
X152764286Y-103855295D01*
X152764286Y-103855295D02*
X152764286Y-104093390D01*
X152764286Y-104093390D02*
X152811905Y-104188628D01*
X152811905Y-104188628D02*
X152859524Y-104236247D01*
X152859524Y-104236247D02*
X152954762Y-104283866D01*
X152954762Y-104283866D02*
X153145238Y-104283866D01*
X153145238Y-104283866D02*
X153240476Y-104236247D01*
X153240476Y-104236247D02*
X153288095Y-104188628D01*
X153288095Y-104188628D02*
X153335714Y-104093390D01*
X156985714Y-109764819D02*
X156414286Y-109764819D01*
X156700000Y-109764819D02*
X156700000Y-108764819D01*
X156700000Y-108764819D02*
X156604762Y-108907676D01*
X156604762Y-108907676D02*
X156509524Y-109002914D01*
X156509524Y-109002914D02*
X156414286Y-109050533D01*
X170025714Y-101314819D02*
X170025714Y-100314819D01*
X170025714Y-100314819D02*
X170263809Y-100314819D01*
X170263809Y-100314819D02*
X170406666Y-100362438D01*
X170406666Y-100362438D02*
X170501904Y-100457676D01*
X170501904Y-100457676D02*
X170549523Y-100552914D01*
X170549523Y-100552914D02*
X170597142Y-100743390D01*
X170597142Y-100743390D02*
X170597142Y-100886247D01*
X170597142Y-100886247D02*
X170549523Y-101076723D01*
X170549523Y-101076723D02*
X170501904Y-101171961D01*
X170501904Y-101171961D02*
X170406666Y-101267200D01*
X170406666Y-101267200D02*
X170263809Y-101314819D01*
X170263809Y-101314819D02*
X170025714Y-101314819D01*
X171549523Y-101314819D02*
X170978095Y-101314819D01*
X171263809Y-101314819D02*
X171263809Y-100314819D01*
X171263809Y-100314819D02*
X171168571Y-100457676D01*
X171168571Y-100457676D02*
X171073333Y-100552914D01*
X171073333Y-100552914D02*
X170978095Y-100600533D01*
X172501904Y-101314819D02*
X171930476Y-101314819D01*
X172216190Y-101314819D02*
X172216190Y-100314819D01*
X172216190Y-100314819D02*
X172120952Y-100457676D01*
X172120952Y-100457676D02*
X172025714Y-100552914D01*
X172025714Y-100552914D02*
X171930476Y-100600533D01*
X175675714Y-99414819D02*
X175104286Y-99414819D01*
X175390000Y-99414819D02*
X175390000Y-98414819D01*
X175390000Y-98414819D02*
X175294762Y-98557676D01*
X175294762Y-98557676D02*
X175199524Y-98652914D01*
X175199524Y-98652914D02*
X175104286Y-98700533D01*
X133265714Y-101194819D02*
X133265714Y-100194819D01*
X133265714Y-100194819D02*
X133503809Y-100194819D01*
X133503809Y-100194819D02*
X133646666Y-100242438D01*
X133646666Y-100242438D02*
X133741904Y-100337676D01*
X133741904Y-100337676D02*
X133789523Y-100432914D01*
X133789523Y-100432914D02*
X133837142Y-100623390D01*
X133837142Y-100623390D02*
X133837142Y-100766247D01*
X133837142Y-100766247D02*
X133789523Y-100956723D01*
X133789523Y-100956723D02*
X133741904Y-101051961D01*
X133741904Y-101051961D02*
X133646666Y-101147200D01*
X133646666Y-101147200D02*
X133503809Y-101194819D01*
X133503809Y-101194819D02*
X133265714Y-101194819D01*
X134789523Y-101194819D02*
X134218095Y-101194819D01*
X134503809Y-101194819D02*
X134503809Y-100194819D01*
X134503809Y-100194819D02*
X134408571Y-100337676D01*
X134408571Y-100337676D02*
X134313333Y-100432914D01*
X134313333Y-100432914D02*
X134218095Y-100480533D01*
X135646666Y-100528152D02*
X135646666Y-101194819D01*
X135408571Y-100147200D02*
X135170476Y-100861485D01*
X135170476Y-100861485D02*
X135789523Y-100861485D01*
X138915714Y-99294819D02*
X138344286Y-99294819D01*
X138630000Y-99294819D02*
X138630000Y-98294819D01*
X138630000Y-98294819D02*
X138534762Y-98437676D01*
X138534762Y-98437676D02*
X138439524Y-98532914D01*
X138439524Y-98532914D02*
X138344286Y-98580533D01*
X101525714Y-109664819D02*
X101525714Y-108664819D01*
X101525714Y-108664819D02*
X101763809Y-108664819D01*
X101763809Y-108664819D02*
X101906666Y-108712438D01*
X101906666Y-108712438D02*
X102001904Y-108807676D01*
X102001904Y-108807676D02*
X102049523Y-108902914D01*
X102049523Y-108902914D02*
X102097142Y-109093390D01*
X102097142Y-109093390D02*
X102097142Y-109236247D01*
X102097142Y-109236247D02*
X102049523Y-109426723D01*
X102049523Y-109426723D02*
X102001904Y-109521961D01*
X102001904Y-109521961D02*
X101906666Y-109617200D01*
X101906666Y-109617200D02*
X101763809Y-109664819D01*
X101763809Y-109664819D02*
X101525714Y-109664819D01*
X103049523Y-109664819D02*
X102478095Y-109664819D01*
X102763809Y-109664819D02*
X102763809Y-108664819D01*
X102763809Y-108664819D02*
X102668571Y-108807676D01*
X102668571Y-108807676D02*
X102573333Y-108902914D01*
X102573333Y-108902914D02*
X102478095Y-108950533D01*
X103954285Y-108664819D02*
X103478095Y-108664819D01*
X103478095Y-108664819D02*
X103430476Y-109141009D01*
X103430476Y-109141009D02*
X103478095Y-109093390D01*
X103478095Y-109093390D02*
X103573333Y-109045771D01*
X103573333Y-109045771D02*
X103811428Y-109045771D01*
X103811428Y-109045771D02*
X103906666Y-109093390D01*
X103906666Y-109093390D02*
X103954285Y-109141009D01*
X103954285Y-109141009D02*
X104001904Y-109236247D01*
X104001904Y-109236247D02*
X104001904Y-109474342D01*
X104001904Y-109474342D02*
X103954285Y-109569580D01*
X103954285Y-109569580D02*
X103906666Y-109617200D01*
X103906666Y-109617200D02*
X103811428Y-109664819D01*
X103811428Y-109664819D02*
X103573333Y-109664819D01*
X103573333Y-109664819D02*
X103478095Y-109617200D01*
X103478095Y-109617200D02*
X103430476Y-109569580D01*
X98875714Y-111564819D02*
X98304286Y-111564819D01*
X98590000Y-111564819D02*
X98590000Y-110564819D01*
X98590000Y-110564819D02*
X98494762Y-110707676D01*
X98494762Y-110707676D02*
X98399524Y-110802914D01*
X98399524Y-110802914D02*
X98304286Y-110850533D01*
X134575714Y-129864819D02*
X134575714Y-128864819D01*
X134575714Y-128864819D02*
X134813809Y-128864819D01*
X134813809Y-128864819D02*
X134956666Y-128912438D01*
X134956666Y-128912438D02*
X135051904Y-129007676D01*
X135051904Y-129007676D02*
X135099523Y-129102914D01*
X135099523Y-129102914D02*
X135147142Y-129293390D01*
X135147142Y-129293390D02*
X135147142Y-129436247D01*
X135147142Y-129436247D02*
X135099523Y-129626723D01*
X135099523Y-129626723D02*
X135051904Y-129721961D01*
X135051904Y-129721961D02*
X134956666Y-129817200D01*
X134956666Y-129817200D02*
X134813809Y-129864819D01*
X134813809Y-129864819D02*
X134575714Y-129864819D01*
X136099523Y-129864819D02*
X135528095Y-129864819D01*
X135813809Y-129864819D02*
X135813809Y-128864819D01*
X135813809Y-128864819D02*
X135718571Y-129007676D01*
X135718571Y-129007676D02*
X135623333Y-129102914D01*
X135623333Y-129102914D02*
X135528095Y-129150533D01*
X136432857Y-128864819D02*
X137051904Y-128864819D01*
X137051904Y-128864819D02*
X136718571Y-129245771D01*
X136718571Y-129245771D02*
X136861428Y-129245771D01*
X136861428Y-129245771D02*
X136956666Y-129293390D01*
X136956666Y-129293390D02*
X137004285Y-129341009D01*
X137004285Y-129341009D02*
X137051904Y-129436247D01*
X137051904Y-129436247D02*
X137051904Y-129674342D01*
X137051904Y-129674342D02*
X137004285Y-129769580D01*
X137004285Y-129769580D02*
X136956666Y-129817200D01*
X136956666Y-129817200D02*
X136861428Y-129864819D01*
X136861428Y-129864819D02*
X136575714Y-129864819D01*
X136575714Y-129864819D02*
X136480476Y-129817200D01*
X136480476Y-129817200D02*
X136432857Y-129769580D01*
X140225714Y-127964819D02*
X139654286Y-127964819D01*
X139940000Y-127964819D02*
X139940000Y-126964819D01*
X139940000Y-126964819D02*
X139844762Y-127107676D01*
X139844762Y-127107676D02*
X139749524Y-127202914D01*
X139749524Y-127202914D02*
X139654286Y-127250533D01*
X165905714Y-123074819D02*
X165905714Y-122074819D01*
X165905714Y-122074819D02*
X166143809Y-122074819D01*
X166143809Y-122074819D02*
X166286666Y-122122438D01*
X166286666Y-122122438D02*
X166381904Y-122217676D01*
X166381904Y-122217676D02*
X166429523Y-122312914D01*
X166429523Y-122312914D02*
X166477142Y-122503390D01*
X166477142Y-122503390D02*
X166477142Y-122646247D01*
X166477142Y-122646247D02*
X166429523Y-122836723D01*
X166429523Y-122836723D02*
X166381904Y-122931961D01*
X166381904Y-122931961D02*
X166286666Y-123027200D01*
X166286666Y-123027200D02*
X166143809Y-123074819D01*
X166143809Y-123074819D02*
X165905714Y-123074819D01*
X167429523Y-123074819D02*
X166858095Y-123074819D01*
X167143809Y-123074819D02*
X167143809Y-122074819D01*
X167143809Y-122074819D02*
X167048571Y-122217676D01*
X167048571Y-122217676D02*
X166953333Y-122312914D01*
X166953333Y-122312914D02*
X166858095Y-122360533D01*
X167810476Y-122170057D02*
X167858095Y-122122438D01*
X167858095Y-122122438D02*
X167953333Y-122074819D01*
X167953333Y-122074819D02*
X168191428Y-122074819D01*
X168191428Y-122074819D02*
X168286666Y-122122438D01*
X168286666Y-122122438D02*
X168334285Y-122170057D01*
X168334285Y-122170057D02*
X168381904Y-122265295D01*
X168381904Y-122265295D02*
X168381904Y-122360533D01*
X168381904Y-122360533D02*
X168334285Y-122503390D01*
X168334285Y-122503390D02*
X167762857Y-123074819D01*
X167762857Y-123074819D02*
X168381904Y-123074819D01*
X171555714Y-128174819D02*
X170984286Y-128174819D01*
X171270000Y-128174819D02*
X171270000Y-127174819D01*
X171270000Y-127174819D02*
X171174762Y-127317676D01*
X171174762Y-127317676D02*
X171079524Y-127412914D01*
X171079524Y-127412914D02*
X170984286Y-127460533D01*
D11*
%TO.C,D16*%
X188930000Y-109900000D02*
X196230000Y-109900000D01*
X188930000Y-115400000D02*
X196230000Y-115400000D01*
X196230000Y-114250000D02*
X195380000Y-115400000D01*
X196230000Y-115400000D02*
X196230000Y-114250000D01*
%TO.C,D8*%
X206504160Y-65790000D02*
X206504160Y-65646200D01*
X206863360Y-71331400D02*
X208031760Y-71331400D01*
X206914160Y-72830000D02*
X207422160Y-71331400D01*
X207422160Y-70721800D02*
X207422160Y-71331400D01*
X207447560Y-71356800D02*
X207980960Y-72830000D01*
X207447560Y-73566600D02*
X207447560Y-72855400D01*
X207701560Y-73515800D02*
X208209560Y-73515800D01*
X207855560Y-71001200D02*
X207855560Y-70518600D01*
X207955560Y-73744400D02*
X207955560Y-73261800D01*
X207980960Y-72830000D02*
X206914160Y-72830000D01*
X206526395Y-67908658D02*
G75*
G02*
X206504160Y-65790000I877765J1068658D01*
G01*
X208281925Y-65771342D02*
G75*
G02*
X208304160Y-67890000I-877764J-1068658D01*
G01*
%TO.C,D10*%
X148900000Y-83550000D02*
X148900000Y-84700000D01*
X148900000Y-84700000D02*
X149750000Y-83550000D01*
X156200000Y-83550000D02*
X148900000Y-83550000D01*
X156200000Y-89050000D02*
X148900000Y-89050000D01*
%TO.C,D5*%
X126004160Y-66445300D02*
X126004160Y-66301500D01*
X126313360Y-72246700D02*
X127481760Y-72246700D01*
X126364160Y-73745300D02*
X126872160Y-72246700D01*
X126872160Y-71637100D02*
X126872160Y-72246700D01*
X126897560Y-72272100D02*
X127430960Y-73745300D01*
X126897560Y-74481900D02*
X126897560Y-73770700D01*
X127151560Y-74431100D02*
X127659560Y-74431100D01*
X127305560Y-71916500D02*
X127305560Y-71433900D01*
X127405560Y-74659700D02*
X127405560Y-74177100D01*
X127430960Y-73745300D02*
X126364160Y-73745300D01*
X126026395Y-68563958D02*
G75*
G02*
X126004160Y-66445300I877765J1068658D01*
G01*
X127781925Y-66426642D02*
G75*
G02*
X127804160Y-68545300I-877764J-1068658D01*
G01*
%TO.C,D3*%
X111704160Y-66260000D02*
X111704160Y-66116200D01*
X111833360Y-72111400D02*
X113001760Y-72111400D01*
X111884160Y-73610000D02*
X112392160Y-72111400D01*
X112392160Y-71501800D02*
X112392160Y-72111400D01*
X112417560Y-72136800D02*
X112950960Y-73610000D01*
X112417560Y-74346600D02*
X112417560Y-73635400D01*
X112671560Y-74295800D02*
X113179560Y-74295800D01*
X112825560Y-71781200D02*
X112825560Y-71298600D01*
X112925560Y-74524400D02*
X112925560Y-74041800D01*
X112950960Y-73610000D02*
X111884160Y-73610000D01*
X111726395Y-68378658D02*
G75*
G02*
X111704160Y-66260000I877765J1068658D01*
G01*
X113481925Y-66241342D02*
G75*
G02*
X113504160Y-68360000I-877764J-1068658D01*
G01*
%TO.C,D4*%
X118824160Y-66080000D02*
X118824160Y-65936200D01*
X119063360Y-71891400D02*
X120231760Y-71891400D01*
X119114160Y-73390000D02*
X119622160Y-71891400D01*
X119622160Y-71281800D02*
X119622160Y-71891400D01*
X119647560Y-71916800D02*
X120180960Y-73390000D01*
X119647560Y-74126600D02*
X119647560Y-73415400D01*
X119901560Y-74075800D02*
X120409560Y-74075800D01*
X120055560Y-71561200D02*
X120055560Y-71078600D01*
X120155560Y-74304400D02*
X120155560Y-73821800D01*
X120180960Y-73390000D02*
X119114160Y-73390000D01*
X118846395Y-68198658D02*
G75*
G02*
X118824160Y-66080000I877765J1068658D01*
G01*
X120601925Y-66061342D02*
G75*
G02*
X120624160Y-68180000I-877764J-1068658D01*
G01*
%TO.C,D9*%
X148900000Y-104960000D02*
X148900000Y-106110000D01*
X148900000Y-106110000D02*
X149750000Y-104960000D01*
X156200000Y-104960000D02*
X148900000Y-104960000D01*
X156200000Y-110460000D02*
X152550000Y-110460000D01*
%TO.C,D11*%
X167590000Y-94610000D02*
X167590000Y-95760000D01*
X167590000Y-95760000D02*
X168440000Y-94610000D01*
X174890000Y-94610000D02*
X167590000Y-94610000D01*
X174890000Y-100110000D02*
X167590000Y-100110000D01*
%TO.C,D14*%
X130830000Y-94490000D02*
X130830000Y-95640000D01*
X130830000Y-95640000D02*
X131680000Y-94490000D01*
X138130000Y-94490000D02*
X130830000Y-94490000D01*
X138130000Y-99990000D02*
X130830000Y-99990000D01*
%TO.C,REF\u002A\u002A*%
X141819160Y-156650000D02*
X141819160Y-155940000D01*
X141944160Y-154230000D02*
X144064160Y-154230000D01*
X141944160Y-154545507D02*
X141944160Y-154230000D01*
X142504160Y-156650000D02*
X141819160Y-156650000D01*
X143189160Y-156650000D02*
X143189160Y-156548276D01*
X143189160Y-156650000D02*
X144064160Y-156650000D01*
X144064160Y-154545507D02*
X144064160Y-154230000D01*
X144064160Y-155545507D02*
X144064160Y-155334493D01*
X144064160Y-156650000D02*
X144064160Y-156334493D01*
%TO.C,SW5*%
X186150000Y-149070000D02*
X186150000Y-149470000D01*
X186150000Y-150410000D02*
X186150000Y-152470000D01*
X186150000Y-153810000D02*
X186150000Y-153410000D01*
X190890000Y-149070000D02*
X186150000Y-149070000D01*
X190890000Y-149070000D02*
X190890000Y-149470000D01*
X190890000Y-150410000D02*
X190890000Y-152470000D01*
X190890000Y-153810000D02*
X186150000Y-153810000D01*
X190890000Y-153810000D02*
X190890000Y-153410000D01*
%TO.C,REF\u002A\u002A*%
X153774160Y-148130000D02*
X153774160Y-146730000D01*
X154474160Y-146030000D02*
X155074160Y-146030000D01*
X155074160Y-148830000D02*
X154474160Y-148830000D01*
X155774160Y-146730000D02*
X155774160Y-148130000D01*
X153774160Y-146730000D02*
G75*
G02*
X154474160Y-146030000I699999J1D01*
G01*
X154474160Y-148830000D02*
G75*
G02*
X153774160Y-148130000I0J700000D01*
G01*
X155074160Y-146030000D02*
G75*
G02*
X155774160Y-146730000I1J-699999D01*
G01*
X155774160Y-148130000D02*
G75*
G02*
X155074160Y-148830000I-700000J0D01*
G01*
%TO.C,D6*%
X177944160Y-66030000D02*
X177944160Y-65886200D01*
X178233360Y-71561400D02*
X179401760Y-71561400D01*
X178284160Y-73060000D02*
X178792160Y-71561400D01*
X178792160Y-70951800D02*
X178792160Y-71561400D01*
X178817560Y-71586800D02*
X179350960Y-73060000D01*
X178817560Y-73796600D02*
X178817560Y-73085400D01*
X179071560Y-73745800D02*
X179579560Y-73745800D01*
X179225560Y-71231200D02*
X179225560Y-70748600D01*
X179325560Y-73974400D02*
X179325560Y-73491800D01*
X179350960Y-73060000D02*
X178284160Y-73060000D01*
X177966395Y-68148658D02*
G75*
G02*
X177944160Y-66030000I877765J1068658D01*
G01*
X179721925Y-66011342D02*
G75*
G02*
X179744160Y-68130000I-877764J-1068658D01*
G01*
%TO.C,SW4*%
X192970000Y-141640000D02*
X192970000Y-142040000D01*
X192970000Y-142980000D02*
X192970000Y-145040000D01*
X192970000Y-146380000D02*
X192970000Y-145980000D01*
X197710000Y-141640000D02*
X192970000Y-141640000D01*
X197710000Y-141640000D02*
X197710000Y-142040000D01*
X197710000Y-142980000D02*
X197710000Y-145040000D01*
X197710000Y-146380000D02*
X192970000Y-146380000D01*
X197710000Y-146380000D02*
X197710000Y-145980000D01*
%TO.C,D15*%
X99090000Y-109960000D02*
X106390000Y-109960000D01*
X99090000Y-115460000D02*
X106390000Y-115460000D01*
X106390000Y-114310000D02*
X105540000Y-115460000D01*
X106390000Y-115460000D02*
X106390000Y-114310000D01*
%TO.C,D13*%
X132140000Y-123160000D02*
X132140000Y-124310000D01*
X132140000Y-124310000D02*
X132990000Y-123160000D01*
X139440000Y-123160000D02*
X132140000Y-123160000D01*
X139440000Y-128660000D02*
X132140000Y-128660000D01*
%TO.C,REF\u002A\u002A*%
X149264160Y-146030000D02*
X151264160Y-146030000D01*
X149264160Y-148830000D02*
X149264160Y-146030000D01*
X151264160Y-146030000D02*
X151264160Y-148830000D01*
X151264160Y-148830000D02*
X149264160Y-148830000D01*
%TO.C,D7*%
X192184160Y-65780800D02*
X192184160Y-65637000D01*
X192429960Y-71311200D02*
X193598360Y-71311200D01*
X192480760Y-72809800D02*
X192988760Y-71311200D01*
X192988760Y-70701600D02*
X192988760Y-71311200D01*
X193014160Y-71336600D02*
X193547560Y-72809800D01*
X193014160Y-73546400D02*
X193014160Y-72835200D01*
X193268160Y-73495600D02*
X193776160Y-73495600D01*
X193422160Y-70981000D02*
X193422160Y-70498400D01*
X193522160Y-73724200D02*
X193522160Y-73241600D01*
X193547560Y-72809800D02*
X192480760Y-72809800D01*
X192206395Y-67899458D02*
G75*
G02*
X192184160Y-65780800I877765J1068658D01*
G01*
X193961925Y-65762142D02*
G75*
G02*
X193984160Y-67880800I-877764J-1068658D01*
G01*
%TO.C,D12*%
X163470000Y-123370000D02*
X163470000Y-124520000D01*
X163470000Y-124520000D02*
X164320000Y-123370000D01*
X170770000Y-123370000D02*
X163470000Y-123370000D01*
X170770000Y-128870000D02*
X163470000Y-128870000D01*
%TD*%
M02*
